<?xml version="1.0" encoding="utf-8"?>
<!-- Generator: Adobe Illustrator 24.1.2, SVG Export Plug-In . SVG Version: 6.00 Build 0)  -->
<svg version="1.1" id="レイヤー_1" xmlns="http://www.w3.org/2000/svg" xmlns:xlink="http://www.w3.org/1999/xlink" x="0px"
	 y="0px" viewBox="0 0 134 118" style="enable-background:new 0 0 134 118;" xml:space="preserve">
<style type="text/css">
	.st0{fill:#87B900;}
</style>
<g>
	<path class="st0" d="M76.8,46.7c0,2.9-0.3,5.9-0.9,8.6s-1.1,5.6-1.9,8.5c-0.6,0.6-0.9,1-1.2,1.6c-0.4,0.6-0.4,1.1-0.4,1.9
		c-0.6,0.2-0.9,0.5-1.1,0.9c-0.2,0.6-0.4,1-0.7,1.5c-0.9,0.6-1.4,1.1-2.1,1.8c-0.7,0.8-1.2,1.3-1.9,2c-0.2,0.2-0.4,0.4-0.6,0.7
		c-0.2,0.3-0.3,0.5-0.6,0.6c-0.5,0.3-1,0.7-1.3,0.9c-0.6,0.3-1,0.6-1.3,0.9c-0.9,0.7-1.9,1.2-2.8,1.9c-0.9,0.8-1.8,1.4-2.7,2.3
		c-2,0.9-4,1.7-5.9,2.7c-1.9,1-3.7,2.2-5.6,3.4h-1.8c-0.7,0.4-1.1,0.8-1.7,1c-0.6,0.3-1.1,0.4-1.9,0.4c-1,0.7-2,1.1-3,1.5
		c-1.1,0.4-2.4,0.9-3.4,1c-1.1,0.3-2.5,0.7-3.5,0.9c-1.1,0.3-2.4,0.7-3.3,1c-0.3-0.1-0.5-0.1-0.8-0.2c-0.3-0.1-0.5-0.1-0.8-0.1
		c-0.8,0-1.2,0.2-1.8,0.5c-0.6,0.3-1.1,0.5-1.7,0.7c-0.2,0.1-0.4,0.2-0.7,0.1c-0.3,0-0.5,0-0.7,0c-1.2,0-2.4-0.3-3.3-0.7
		c-1-0.4-2.1-0.8-3.1-0.9c-0.3-0.7-0.8-1.2-1.2-1.8l-1.5-1.7c-0.6-0.6-0.9-1.1-1.3-1.7c-0.4-0.7-0.7-1.2-0.9-1.9v-0.6
		c0-0.6-0.1-1-0.2-1.5c-0.1-0.6-0.3-1-0.4-1.5c0.3-0.9,0.8-1.8,0.9-2.7c0.3-0.9,0.8-1.9,1-2.8c0.4-0.9,0.9-1.8,1.3-2.7
		c0.5-0.9,1-1.5,1.8-2.2c0.3-0.9,0.7-2,1-2.8c0.5-0.9,0.9-1.7,1.6-2.6c0.7-0.9,1.1-1.7,1.7-2.6c0.6-0.9,1-1.8,1.3-2.8
		c0.3,0.1,0.4,0,0.5-0.2c0.1-0.2,0.2-0.3,0.3-0.5c0.1-0.2,0.2-0.3,0.3-0.4c0.1-0.1,0.3-0.1,0.6,0c0-0.5,0.1-0.9,0.3-1.1
		c0.2-0.3,0.4-0.7,0.7-0.9c0.3-0.3,0.4-0.6,0.6-0.9c0.2-0.3,0.3-0.8,0.3-1c0.3-0.2,0.7-0.4,0.9-0.7c0.3-0.3,0.4-0.6,0.7-0.9
		c0.2-0.3,0.4-0.7,0.6-0.9c0.2-0.3,0.5-0.5,0.9-0.7c0.1-0.7,0.3-1.1,0.6-1.6c0.3-0.5,0.6-0.9,0.9-1.2c0.3-0.4,0.7-0.9,1-1.1
		c0.3-0.4,0.6-0.9,0.9-1.3c0.3-0.3,0.7-0.3,0.9-0.3c0.8-1.3,1.4-2.6,2.4-3.8c0.9-1.1,1.9-2.4,2.8-3.4c0.9-1.1,1.9-2.4,2.8-3.4
		c1-1.1,1.8-2.5,2.5-3.6c0.8-0.4,1.3-0.9,1.9-1.3c0.7-0.6,1-1.1,1.4-1.9c-1-1.8-1.8-3.5-2.5-5.1c-0.8-1.7-1-3.5-1-5.7
		c0-0.3,0-0.8,0.1-1c0.1-0.3,0.1-0.8,0.2-1c0.9-1,1.5-2,2.4-2.7c0.9-0.8,1.9-1,3.3-1c1.3,0,2.8,0.3,4.2,0.9c1.3,0.6,2.8,0.9,4.2,0.9
		c0.8,0.6,1.4,0.9,2.2,1.3c0.8,0.4,1.4,0.9,2.4,1.1l1,0.4c0.4,0.1,0.8,0.3,1,0.4c0.3,0.2,0.6,0.4,0.9,0.7c0.3,0.3,0.7,0.5,0.9,0.8
		c1.9,1.5,3.6,3.2,5.2,5c1.6,1.9,3.2,3.7,4.8,5.6v0.2c0,0.9,0.2,1.3,0.5,1.7s0.8,0.9,1,1.3c0,0.9,0.2,1.6,0.4,2.3
		c0.3,0.8,0.6,1.3,0.9,2.1c0,0.8,0,1.3,0,2c0,0.8,0.2,1.3,0.3,2c0.2,0.5,0.3,0.9,0.4,1c0.2,0.8,0.3,1.5,0.3,2.6
		C76.8,44.3,76.8,46.7,76.8,46.7z M71.1,46.6c0-1.3-0.1-2.7-0.3-3.8c-0.2-1.1-0.4-2.5-0.7-3.7c-0.2-1.1-0.4-2.3-0.8-3.4
		c-0.3-1.1-0.7-2.3-1.1-3.2c-0.5-0.9-1.1-2-1.9-2.8c-0.9-0.9-1.7-1.5-2.9-2.2h-0.2c-0.2,0-0.3,0.1-0.5,0.3c-0.2,0.2-0.6,0.3-1,0.3
		c-0.3,0-0.6-0.1-0.9-0.2c-0.3-0.2-0.6-0.2-0.9-0.1h-0.3c-0.6,0.3-1,0.5-1.4,0.7c-0.4,0.2-0.9,0.2-1.6,0.1c-0.8,0.8-1.4,1.2-2.3,1.8
		c-0.9,0.6-1.6,1-2.7,1.2c-0.5,0.9-1,1.6-1.6,2.3c-0.8,0.7-1.4,1-2.5,1.3c-0.2,0.6-0.5,1-0.9,1.4c-0.4,0.4-0.9,0.9-1.1,1
		c-0.5,0.3-0.9,0.7-1.3,0.9c-0.5,0.3-0.9,0.7-1.3,1c-0.4,0.4-0.8,0.9-0.9,1.1c-0.3,0.4-0.6,0.9-0.9,1c-0.6,0.5-0.9,1-1.3,1.3
		c-0.4,0.5-0.9,1-1.1,1.4c-0.3,0.6-0.7,1-1,1.5c-0.3,0.6-0.5,1-0.6,1.8c-1.3,0.9-2.5,1.9-3.2,3l-2.5,3.9c-0.3,0.5-0.8,0.9-1,1.3
		l-0.9,1.1c-0.2,0.2-0.3,0.4-0.3,0.7c0,0.3,0,0.5,0,0.8c-0.8,0.5-1.2,1-1.7,1.7c-0.5,0.7-0.9,1.3-1.3,2c-0.5,0.7-0.9,1.3-1.3,2.1
		c-0.5,0.8-1,1.3-1.6,1.8C23.3,67,22.8,68,22.3,69c-0.5,0.9-1.1,1.8-1.9,2.5c-0.9,2-1.5,4-2.4,5.9s-1.2,4-1.5,6.2
		c0.3,0.3,0.8,0.7,1,0.9c0.3,0.3,0.8,0.6,0.9,0.9c0.3,0.1,0.4,0.1,0.6,0.1c0.3,0,0.4-0.1,0.6-0.3s0.3-0.3,0.5-0.3h0.2l0.2,0.1
		c0.1,0.3,0.2,0.6,0.5,0.8c0.3,0.2,0.6,0.3,0.9,0.3c0.3,0.1,0.8,0.2,0.9,0.2c0.3,0.1,0.7,0.2,0.9,0.4c1-0.3,2.2-0.7,3.4-0.9
		c1.3-0.2,2.6-0.4,3.8-0.6c1.2-0.3,2.5-0.6,3.6-0.9c1.1-0.4,2.2-0.9,2.9-1.6h0.9c0.5,0,0.9,0.1,1,0.3c0.9-0.9,1.8-1.6,2.7-2.1
		c0.9-0.5,1.9-0.8,3.1-0.9c1.8-1.6,3.9-2.9,6.2-4c2.4-1,4.6-2.2,6.6-3.4c0.3-0.1,0.4-0.3,0.4-0.6c0-0.3,0.2-0.4,0.4-0.5
		c0.3-0.1,0.5-0.1,0.7,0c0.2,0,0.3,0,0.6,0c1.6-1.6,3.2-3.2,4.8-4.9c1.5-1.7,2.8-3.4,4.1-5.5c0-0.3,0-0.7,0.1-0.9
		c0.1-0.3,0.1-0.6,0.1-0.9c0-0.1,0-0.3-0.1-0.3c-0.1-0.2-0.1-0.3-0.2-0.3c0.9-1.9,1.6-4,2-6.1C71,50.8,71.1,48.7,71.1,46.6z
		 M54.8,21.2c-0.7-0.5-1.3-0.9-2.2-1.1c-0.9-0.3-1.6-0.6-2.5-0.6s-1.3,0.3-1.7,0.8c-0.4,0.5-0.6,1-0.6,1.8c0,0.5,0.2,0.9,0.4,0.9
		c0.3,0.3,0.3,0.9,0.2,1.4c0.2,0.1,0.3,0.2,0.6,0.2c0.6,0,1-0.2,1.6-0.4c0.6-0.3,1-0.6,1.4-0.9c0.5-0.4,0.9-0.8,1.3-1.1
		C53.9,21.8,54.3,21.5,54.8,21.2z"/>
	<path class="st0" d="M109.9,15.7c0,1-0.2,1.9-0.4,2.8c-0.3,0.9-0.5,1.8-0.6,2.8c-0.1,0.1-0.1,0.3-0.1,0.5c0,0.3,0,0.6,0.1,0.9
		c0.1,0.3,0.2,0.6,0.3,0.9c-0.5,0.9-0.9,1.9-1,2.9c-0.3,1-0.5,2.2-0.7,3.2l-0.6,3.2c-0.2,1-0.5,2.2-0.9,3.1v0.3
		c0,0.3,0.1,0.5,0.2,0.7c0.2,0.2,0.2,0.4,0.2,0.7v0.3c-0.7,2-1,4-1.3,6.2c-0.3,2.1-0.9,4-1.6,5.9c0.1,0.5,0.2,0.9,0.2,1
		c0,0.6-0.1,0.9-0.2,1.3c-0.2,0.4-0.3,0.9-0.5,1l-0.5,0.9c-0.2,0.3-0.3,0.7-0.4,1c-0.1,0.2-0.1,0.4-0.1,0.6v0.6
		c-0.1,1-0.1,2-0.2,2.8c-0.1,0.9-0.4,1.7-1,2.7c-0.1,1.2-0.2,2.5-0.4,3.5c-0.3,1.1-0.6,2.4-0.9,3.4c-0.3,0.9-0.6,1.9-0.9,2.8
		c-0.3,0.9-0.6,1.9-0.8,2.8c-0.1,0.5-0.1,1,0,1.7c0.1,0.8,0.1,1.3,0.1,1.8c0,1,0,2.2-0.1,3.2c-0.1,1-0.3,2.1-0.5,3
		c0.2,0.8,0.4,1.3,0.9,1.9c0.4,0.7,0.7,1.2,0.8,1.9c0.2,0.2,0.3,0.3,0.5,0.3c0.1,0,0.3,0,0.3-0.1c0.2-0.1,0.3-0.1,0.4-0.1
		c0.1,0,0.3,0.1,0.5,0.2c0.2,0.4,0.3,0.8,0.3,1c0,0.6-0.3,1-0.9,1.4c0.1,0.3,0.1,0.6,0.1,0.8v0.8c0,0.3,0,0.9-0.1,1.3
		c-0.1,0.5-0.3,0.9-0.9,0.9c-0.3,0-0.3-0.2-0.3-0.4s-0.1-0.5-0.3-0.6c-0.3,0.1-0.6,0.2-0.8,0.2c-0.4,0-0.8-0.1-0.9-0.3l-0.8-0.5
		c-0.3-0.2-0.5-0.3-0.9-0.4c-0.3-0.2-0.7-0.2-0.9-0.1c-0.4-0.8-0.9-1.3-1.2-2c-0.5-0.7-1-1.2-1.5-1.7c-0.3-1.1-0.6-2.4-0.7-3.4
		c-0.1-1.1-0.3-2.4-0.9-3.4c0.1-0.1,0.2-0.2,0.3-0.5l0.3-0.8c0.1-0.3,0.2-0.5,0.3-0.8c0.1-0.3,0.1-0.4,0.1-0.5
		c0-0.3-0.1-0.6-0.2-0.9c-0.1-0.3-0.2-0.5-0.3-0.8c0.3-1,0.6-2.3,0.7-3.5c0.1-1.3,0.4-2.5,0.9-3.3c0.1-0.5,0.1-0.9,0.2-1.7
		c0.1-0.7,0.2-1.2,0.3-1.9c0.2-0.7,0.3-1.1,0.5-1.7c0.3-0.6,0.6-1,0.9-1.3c-0.1-0.3-0.2-0.6-0.2-0.9c0-0.3,0-0.6,0-0.9
		c0-1.1,0.2-2.3,0.4-3.3c0.2-1,0.6-2.2,0.9-3.2c0.1-0.3,0.3-0.8,0.3-1c0.2-0.3,0.3-0.8,0.3-1c0.1-0.1,0.1-0.2,0-0.3
		c0-0.1,0-0.2,0-0.3c0-0.6-0.1-1-0.3-1.6c0.3-0.2,0.5-0.5,0.6-0.9c0.1-0.3,0.2-0.7,0.3-1c0.1-0.4,0.2-0.8,0.3-1
		c0.1-0.3,0.3-0.7,0.5-0.9v-0.4c0-1.6,0.3-3.2,0.8-4.8c0.5-1.5,1-3.1,1.3-4.7v-0.3c0-0.2-0.1-0.3-0.2-0.5c-0.1-0.1-0.2-0.3-0.2-0.5
		v-0.2c0.1-0.5,0.3-0.9,0.4-1.2c0.2-0.4,0.3-0.9,0.4-1.2c0.3-0.9,0.4-2.1,0.5-3c0.1-1,0.3-2.1,0.8-2.9c-0.1-0.4-0.2-0.9-0.2-1.1
		v-1.1c0-1,0.1-2.2,0.2-3.1c0.2-0.9,0.3-2,0.6-3c0.1-0.4,0.3-0.9,0.4-1.4c0.2-0.7,0.3-1,0.3-1.3c0-0.6-0.1-1.1-0.3-1.7
		c-0.2-0.7-0.3-1.1-0.3-1.7c0-0.3,0-0.6,0.1-0.9s0.2-0.6,0.4-0.9c-0.3-0.7-0.5-1.3-0.5-2.2c0-0.8,0.1-1.3,0.3-2
		c0.2-0.8,0.6-1.2,1-1.7h2.2c0.8,0,1.3,0.1,2,0.3c0.8,0.2,1.1,0.7,1.4,1.3c0.1,0.2,0.3,0.4,0.3,0.9c0.2,0.4,0.3,0.8,0.4,1.1
		c0.2,0.4,0.3,0.9,0.3,1.1c0.1,0.4,0.2,0.7,0.2,0.9c0,0.6-0.2,1-0.5,1.5c0.3,0.4,0.6,0.9,0.7,1.2C109.8,14.8,109.9,15.2,109.9,15.7z
		"/>
</g>
</svg>
