<?xml version="1.0" encoding="utf-8"?>
<!-- Generator: Adobe Illustrator 24.1.2, SVG Export Plug-In . SVG Version: 6.00 Build 0)  -->
<svg version="1.1" id="レイヤー_1" xmlns="http://www.w3.org/2000/svg" xmlns:xlink="http://www.w3.org/1999/xlink" x="0px"
	 y="0px" viewBox="0 0 174 116" style="enable-background:new 0 0 174 116;" xml:space="preserve">
<style type="text/css">
	.st0{fill:#87B900;}
</style>
<g>
	<path class="st0" d="M88.5,46.1c0,3.9-0.4,7.6-1.1,11.2s-1.5,7.3-2.5,11c-0.7,0.7-1.2,1.4-1.6,2.1s-0.5,1.5-0.5,2.5
		c-0.7,0.2-1.2,0.6-1.5,1.3c-0.2,0.7-0.5,1.4-0.8,2c-1,0.7-1.9,1.5-2.7,2.3c-0.8,0.9-1.6,1.8-2.4,2.6c-0.2,0.2-0.5,0.5-0.7,0.8
		s-0.4,0.6-0.7,0.7c-0.6,0.4-1.2,0.8-1.8,1.1c-0.7,0.3-1.3,0.7-1.8,1.1c-1.2,0.8-2.4,1.6-3.6,2.5s-2.3,1.9-3.4,2.9
		c-2.6,1-5.2,2.2-7.6,3.5s-4.8,2.8-7.2,4.4h-2.3c-0.8,0.5-1.5,0.9-2.2,1.2c-0.7,0.3-1.5,0.5-2.4,0.5c-1.2,0.8-2.6,1.5-4,2
		c-1.5,0.5-3,1-4.5,1.4s-3.1,0.8-4.6,1.2c-1.5,0.4-3,0.8-4.3,1.3c-0.3-0.1-0.6-0.1-0.9-0.2s-0.6-0.1-0.9-0.1c-0.9,0-1.6,0.2-2.3,0.6
		c-0.7,0.4-1.5,0.6-2.2,0.8c-0.2,0.1-0.5,0.2-0.8,0.1c-0.3,0-0.6,0-0.8,0c-1.6,0-3-0.3-4.3-0.8s-2.7-0.9-4.1-1.2
		c-0.4-0.8-0.9-1.6-1.6-2.3l-2-2.2c-0.7-0.7-1.3-1.5-1.8-2.2c-0.5-0.8-0.8-1.6-1-2.5v-0.9c0-0.7-0.1-1.3-0.2-2s-0.3-1.3-0.5-2
		c0.4-1.1,0.9-2.3,1.3-3.5s0.9-2.4,1.4-3.6s1-2.3,1.7-3.4c0.6-1.1,1.4-2,2.3-2.8c0.3-1.3,0.8-2.6,1.4-3.7s1.3-2.2,2.1-3.3
		c0.8-1.1,1.5-2.2,2.2-3.3s1.3-2.3,1.8-3.6c0.3,0.1,0.5,0,0.6-0.2s0.2-0.4,0.3-0.6c0.1-0.2,0.2-0.4,0.3-0.5c0.1-0.1,0.4-0.1,0.7,0
		c0-0.6,0.1-1.1,0.4-1.5c0.2-0.4,0.5-0.8,0.8-1.1s0.5-0.7,0.7-1.1s0.4-0.9,0.4-1.4c0.4-0.2,0.8-0.5,1.1-0.8s0.5-0.7,0.8-1.1
		c0.2-0.4,0.5-0.8,0.7-1.1c0.2-0.4,0.6-0.6,1.1-0.8c0.1-0.8,0.4-1.5,0.7-2.1c0.3-0.6,0.7-1.1,1.1-1.6s0.8-1,1.2-1.5
		c0.4-0.5,0.7-1.1,1-1.8c0.4-0.3,0.8-0.4,1.3-0.3c0.9-1.7,1.9-3.3,3-4.9c1.2-1.5,2.4-3,3.6-4.5s2.4-3,3.7-4.5
		c1.2-1.5,2.3-3.1,3.2-4.7c0.9-0.5,1.7-1.1,2.4-1.8c0.8-0.7,1.4-1.5,1.9-2.4c-1.2-2.3-2.3-4.6-3.2-6.7c-0.9-2.2-1.4-4.6-1.4-7.4
		c0-0.4,0-0.9,0.1-1.3c0.1-0.4,0.1-0.9,0.2-1.4c1-1.4,2-2.6,3-3.5s2.4-1.4,4.3-1.4c1.8,0,3.6,0.3,5.4,1c1.7,0.7,3.5,1,5.4,1
		c0.9,0.7,1.9,1.3,2.8,1.8s1.9,1,3,1.5l1.2,0.5c0.5,0.1,0.9,0.3,1.3,0.5s0.7,0.5,1.1,0.8s0.8,0.6,1.1,0.9c2.4,2,4.7,4.2,6.8,6.6
		c2.1,2.4,4.2,4.8,6.3,7.2v0.2c0,1,0.2,1.7,0.6,2.2s0.9,1.1,1.4,1.8c0,1.1,0.2,2.1,0.5,2.9c0.3,0.9,0.7,1.7,1.2,2.7
		c0,0.9,0,1.7,0,2.6s0.2,1.8,0.4,2.6c0.2,0.6,0.4,1.1,0.5,1.4c0.2,0.9,0.4,2,0.4,3.3V46.1z M81,45.9c0-1.8-0.1-3.4-0.3-4.9
		c-0.2-1.5-0.5-3.1-0.8-4.8c-0.2-1.5-0.5-2.9-0.9-4.4c-0.3-1.5-0.8-2.9-1.5-4.2C76.9,26.4,76,25.1,75,24s-2.2-2-3.7-2.8h-0.2
		c-0.2,0-0.4,0.1-0.6,0.4c-0.2,0.3-0.7,0.4-1.3,0.4c-0.4,0-0.7-0.1-1.1-0.2c-0.3-0.2-0.7-0.2-1-0.1h-0.4c-0.7,0.4-1.4,0.6-1.9,0.8
		s-1.3,0.2-2.1,0.1c-0.9,0.9-1.9,1.6-2.9,2.3s-2.1,1.2-3.4,1.6c-0.6,1.1-1.3,2.1-2.1,2.9c-0.9,0.8-1.9,1.4-3.1,1.7
		c-0.2,0.7-0.6,1.4-1.1,1.9s-1,1-1.5,1.4c-0.6,0.4-1.1,0.8-1.7,1.1c-0.6,0.4-1.2,0.8-1.7,1.2c-0.5,0.5-0.9,1-1.1,1.5
		c-0.3,0.5-0.7,1-1.1,1.4c-0.7,0.6-1.3,1.2-1.8,1.7c-0.5,0.6-1,1.2-1.5,1.9c-0.4,0.7-0.8,1.3-1.2,2c-0.4,0.7-0.6,1.4-0.7,2.3
		c-1.8,1-3.2,2.4-4.2,4l-3.1,5c-0.4,0.6-0.9,1.2-1.3,1.7l-1.3,1.5c-0.2,0.2-0.3,0.5-0.3,0.8s0,0.6,0,0.9c-0.9,0.6-1.6,1.3-2.2,2.2
		c-0.6,0.8-1.2,1.7-1.7,2.6S22.6,68,22,68.9c-0.6,0.9-1.3,1.7-2.1,2.3c-0.5,1.2-1.1,2.5-1.7,3.7c-0.6,1.3-1.5,2.3-2.5,3.2
		c-1,2.6-2,5.1-3,7.6s-1.6,5.1-2,7.9c0.4,0.4,0.9,0.8,1.3,1.1c0.4,0.3,0.9,0.7,1.3,1.1c0.1,0.1,0.2,0.1,0.4,0.1
		c0.3,0,0.5-0.1,0.7-0.3c0.2-0.2,0.4-0.3,0.6-0.3h0.2l0.2,0.1c0.1,0.4,0.2,0.7,0.6,0.9c0.3,0.2,0.7,0.3,1.1,0.4s0.9,0.2,1.3,0.2
		c0.4,0.1,0.8,0.2,1,0.5c1.3-0.4,2.8-0.8,4.5-1s3.3-0.5,4.9-0.7c1.6-0.3,3.2-0.7,4.7-1.1c1.5-0.5,2.8-1.2,3.9-2.1h1
		c0.6,0,1,0.1,1.3,0.4c1.2-1.2,2.3-2.1,3.5-2.7s2.5-0.9,4.1-1c2.3-2.1,5-3.9,7.9-5.2c3-1.3,5.8-2.8,8.5-4.4c0.3-0.1,0.5-0.4,0.5-0.7
		c0-0.3,0.2-0.5,0.5-0.6s0.6-0.1,0.8,0c0.2,0,0.4,0,0.7,0c2.1-2.1,4.2-4.2,6.2-6.4c2-2.2,3.7-4.5,5.3-7.1c0-0.4,0-0.8,0.1-1.1
		c0.1-0.3,0.1-0.7,0.1-1c0-0.1,0-0.3-0.1-0.4c-0.1-0.2-0.1-0.3-0.2-0.4c1.2-2.4,2.1-5.1,2.6-7.8C80.8,51.3,81,48.7,81,45.9z
		 M59.8,12.9c-0.8-0.6-1.7-1.1-2.8-1.5s-2.1-0.7-3.1-0.7s-1.8,0.3-2.2,0.9C51.2,12.2,51,13,51,13.9c0,0.6,0.2,1,0.5,1.3
		s0.4,1,0.2,1.9c0.2,0.1,0.4,0.2,0.7,0.2c0.7,0,1.4-0.2,2.1-0.5s1.3-0.7,1.9-1.1c0.6-0.5,1.2-0.9,1.7-1.5
		C58.6,13.8,59.2,13.2,59.8,12.9z"/>
	<path class="st0" d="M173.2,50.2c0,1.4-0.2,2.7-0.6,3.9s-0.8,2.5-1.2,3.8l-0.5,1.5c-0.4,0.8-1,1.6-1.8,2.5s-1.5,1.6-2.1,2.3
		c-1.4,1.6-2.8,3.2-4.2,4.8c-1.4,1.6-2.7,3.4-3.8,5.2h-0.2c-0.2,0-0.4,0.1-0.5,0.2c-0.2,0.1-0.3,0.3-0.4,0.4
		c-0.1,0.2-0.2,0.3-0.4,0.4c-0.1,0.1-0.3,0.1-0.6,0c-0.4,1-1.1,1.8-2.1,2.3c-0.9,0.5-1.8,1.1-2.5,1.9c-0.1,0.5-0.2,0.9-0.4,1.2
		c-0.2,0.3-0.3,0.7-0.3,1.1c-2.2,1.3-4.3,2.8-6.2,4.5s-3.8,3.4-5.6,5c-1.2,0.3-2.1,0.8-2.8,1.5c-0.7,0.7-1.4,1.4-2.2,2.2
		c-1.6,0.8-3.2,1.7-4.7,2.6s-3,2-4.2,3.4c-1.4,0.4-2.7,0.9-4,1.7c-1.3,0.8-2.5,1.6-3.8,2.4c-0.4,0.2-0.8,0.4-1.1,0.6
		c-0.4,0.2-0.8,0.3-1.2,0.5c-0.4,0.2-0.6,0.5-0.6,0.9h-0.4c-0.5,0-0.8,0.2-1.1,0.5c-0.2,0.3-0.6,0.4-1.2,0.4
		c-0.7,0.7-1.4,1.2-2.3,1.6l-2.6,1.2c-0.9,0.4-1.7,0.9-2.5,1.3s-1.5,1.1-2.2,1.8c-1,0.1-2,0.4-2.8,0.9s-1.8,0.7-2.8,0.7h-0.4
		c-0.4-0.4-0.8-0.8-1.2-1.1c-0.5-0.3-0.9-0.7-1.3-1s-0.7-0.7-1-1.2s-0.4-1.1-0.4-1.8v-0.5c2.9-1.2,5.3-2.8,7.3-5c0.1,0,0.2,0,0.3,0
		c0.1,0,0.2,0,0.3,0c0.3,0,0.6,0,0.8,0.1c0.2,0.1,0.5,0.1,0.7,0.1c0.1,0,0.3-0.1,0.6-0.2c1.3-0.4,2.6-1,3.9-1.7s2.5-1.5,3.7-2.2
		c1.2-0.8,2.4-1.5,3.6-2.2s2.5-1.3,3.9-1.7c2-1.6,4-3.1,6.1-4.6s4.3-2.8,6.6-3.9c0.2-0.5,0.4-0.9,0.7-1.1s0.4-0.7,0.2-1.2
		c0.1,0.1,0.3,0.1,0.5,0.1c0.5,0,0.9-0.1,1.2-0.4c1-0.7,1.9-1.4,2.8-2.2c0.9-0.8,1.8-1.5,2.6-2.2c1.8-1.6,3.7-3.2,5.6-4.9
		c1.9-1.7,3.8-3.2,5.8-4.6c0.1-0.6,0.4-1.1,0.7-1.4c0.4-0.3,0.6-0.8,0.6-1.5c0.8-0.3,1.4-0.8,1.9-1.5s1.1-1.2,2.1-1.4
		c0.5-1,1-1.9,1.6-2.8s1.3-1.5,2.4-1.8c0.4-1,0.8-1.9,1.2-2.7c0.5-0.8,0.9-1.6,1.3-2.3c0.4-0.8,0.7-1.6,1.1-2.4
		c0.3-0.9,0.5-1.9,0.5-3.1c0-1.3-0.4-2.3-1.3-2.8s-1.9-0.9-3-1.1c-1.2-0.2-2.4-0.3-3.6-0.5c-1.3-0.1-2.2-0.4-3-0.9
		c-0.4,0.1-0.5,0.3-0.4,0.7c0.1,0.4,0,0.7-0.2,0.8h-0.9c-0.8,0-1.6,0.1-2.4,0.4l-2.3,0.6c-0.7,0.2-1.5,0.4-2.3,0.6s-1.6,0.2-2.4,0.2
		c-1.2,0.6-2.2,1.2-3.1,1.7s-1.8,0.9-2.7,1.4c-0.9,0.4-1.8,0.8-2.8,1.2s-2.2,0.7-3.5,1c-0.7,0.1-1.1,0.3-1.3,0.6
		c-0.2,0.3-0.5,0.6-1,0.9c-0.3-0.2-0.6-0.4-0.8-0.7c-0.2-0.3-0.5-0.5-0.8-0.6c-0.3,0.1-0.6,0.2-0.8,0.5c-0.2,0.3-0.4,0.6-0.6,0.8
		s-0.4,0.5-0.6,0.7s-0.4,0.3-0.6,0.3c-0.6,0-1.1-0.2-1.5-0.5c-0.5-0.3-0.9-0.7-1.2-1.1c-0.4-0.4-0.7-0.9-1.1-1.3s-0.8-0.8-1.2-1
		c0.2-0.6,0.4-1.2,0.4-1.9s0-1.2-0.1-1.8c0.7-0.8,1.4-1.6,2-2.4s1.4-1.4,2.3-1.8c1.7-2,3.2-3.8,4.6-5.6c1.4-1.7,2.6-3.5,3.7-5.4
		s2-3.9,2.7-6s1.1-4.5,1.3-7.2c0-0.4,0.1-0.8,0.3-1c0.2-0.2,0.3-0.6,0.3-0.9c0-0.6-0.1-1.1-0.3-1.6c-0.2-0.4-0.5-0.8-0.7-1.1
		c-0.3-0.3-0.5-0.7-0.7-1.1c-0.2-0.4-0.3-0.9-0.2-1.5c-1-0.9-2.1-1.3-3.3-1.3c-0.5,0-1,0.1-1.7,0.4c-0.6,0.2-1.2,0.5-1.9,0.8
		c-0.6,0.3-1.3,0.7-1.9,1.1c-0.6,0.4-1.1,0.7-1.5,1c-0.4,0.2-0.7,0.5-1.1,0.8c-0.3,0.3-0.7,0.5-1,0.8c-1.4,1.2-2.8,2.4-4.1,3.6
		c-1.3,1.2-2.6,2.4-3.8,3.7v1.7c-0.6,0.1-1,0.4-1.3,0.7c-0.3,0.4-0.6,0.8-0.8,1.3c-0.2,0.5-0.3,1.1-0.5,1.7
		c-0.1,0.6-0.3,1.1-0.5,1.5l0.1,0.3v0.2c0,0.1-0.1,0.1-0.2,0.1s-0.2,0-0.3-0.1c-0.1-0.1-0.2-0.1-0.4-0.1h-0.2
		c-0.5,1.4-1.3,2.5-2.4,3.2s-2.3,1.4-3.4,2.1c-1.2-0.3-2.2-0.8-3.2-1.4c-0.9-0.6-1.9-1.3-2.8-1.9C97.2,33,97,32.1,97,31
		s0.2-2.2,0.5-3.2s0.6-2.1,0.8-3.2c0.9-0.7,1.7-1.6,2.3-2.6c0.6-1,1.2-2,1.9-2.9c0.6-1,1.3-1.9,2.1-2.7c0.8-0.8,1.8-1.5,3-1.9
		c0.6-1,1.4-1.9,2.3-2.6c0.9-0.8,1.9-1.5,2.9-2.1s2-1.3,3-2s1.8-1.4,2.6-2.3h1.7c0.2-0.6,0.6-1.1,1.1-1.3s1.1-0.5,1.7-0.7
		s1.1-0.5,1.6-0.8s0.8-0.9,0.8-1.7c0.2-0.1,0.4,0.1,0.4,0.4c0.6-0.2,1.2-0.3,1.8-0.3c0.8,0,1.6,0.1,2.3,0.3c0.8,0.2,1.5,0.3,2.2,0.3
		c0.6,0,1.2-0.1,1.7-0.3c0.1,0.4,0.2,0.6,0.5,0.8s0.6,0.3,1,0.4c0.4,0.1,0.8,0.2,1.2,0.2c0.4,0,0.7,0.1,1,0.3
		c-0.1,0.6,0.1,1,0.6,1.1s0.8,0.3,1.1,0.6c0.2,0.3,0.4,0.7,0.4,1.1c0,0.4,0.2,0.8,0.6,1.2l1,1.1c0.4,0.3,0.7,0.7,1,1.1
		c1.1,1.5,2,3.4,2.6,5.7s0.9,4.3,0.9,6.2c0,0.1-0.1,0.5-0.2,1.1s-0.2,0.9-0.3,1.1c-0.7,3.1-1.7,6-2.9,8.8c-1.3,2.7-2.7,5.5-4.1,8.2
		c0.4,0.1,0.7,0.1,1.1,0.1c0.3,0,0.7,0,1,0c1.3,0,2.6-0.2,3.7-0.6s2.3-0.8,3.5-1.3c0.6,0.2,1.3,0.3,2,0.3c1,0,2-0.1,3-0.3
		c0.9-0.2,1.9-0.3,3-0.3c0.6,0,1.1,0.1,1.6,0.4c0.5,0.2,1.1,0.4,1.8,0.4c0.6,0,1.1,0,1.4-0.1c1,0.5,2,1,3.2,1.5
		c1.1,0.5,2.2,1,3.3,1.6c1.1,0.6,2.1,1.2,3,1.9c0.9,0.7,1.8,1.5,2.5,2.4c0.1,0.1,0.3,0.3,0.5,0.6s0.3,0.5,0.4,0.6
		c0.1,0.2,0.2,0.7,0.2,1.5C173.2,49.3,173.2,49.8,173.2,50.2z"/>
</g>
</svg>
