<?xml version="1.0" encoding="utf-8"?>
<!-- Generator: Adobe Illustrator 24.1.2, SVG Export Plug-In . SVG Version: 6.00 Build 0)  -->
<svg version="1.1" id="レイヤー_1" xmlns="http://www.w3.org/2000/svg" xmlns:xlink="http://www.w3.org/1999/xlink" x="0px"
	 y="0px" viewBox="0 0 99.2 85" style="enable-background:new 0 0 99.2 85;" xml:space="preserve">
<style type="text/css">
	.st0{fill:#87B900;}
	.st1{fill:#FFFFFF;}
</style>
<path class="st0" d="M95.6,39.8c0-1.2,0.4-2.5,0.2-3.7c-0.2-1.2-0.3-2.5-0.6-3.6c-0.3-1.2-1.1-2.2-1.5-3.4c-0.4-1.2-0.9-2.2-1.4-3.3
	c-0.5-1.1-0.7-2.4-1.3-3.4c-0.6-1-1.1-2.2-1.9-3.1s-1.6-1.9-2.4-2.8c-0.9-0.9-1.9-1.6-2.9-2.4c-0.9-0.8-2-1.3-3-2.1
	c-0.9-0.7-1.8-1.7-2.9-2.4c-1.1-0.6-2.3-0.9-3.4-1.4s-2-1.5-3.2-2c-1.1-0.5-2.4-0.7-3.6-1c-1.1-0.4-2.1-1.3-3.4-1.7
	c-1.2-0.3-2.4-0.3-3.7-0.5c-1.2-0.2-2.4-0.4-3.7-0.5c-1.2-0.1-2.3-0.9-3.7-1c-1.2,0-2.5,1-3.7,0.9c-1.2,0-2.5-0.9-3.7-0.9
	c-1.3,0.1-2.4,0.5-3.7,0.6c-1.2,0.2-2.5,0.3-3.7,0.6s-2.4,0.7-3.6,1c-1.2,0.3-2.3,1-3.4,1.4c-1.2,0.4-2.5,0.4-3.6,0.9
	c-1.2,0.5-2,1.5-3.1,2c-1.1,0.6-2.1,1.3-3.1,1.9c-1,0.6-2.4,0.9-3.4,1.5c-1,0.7-1.8,1.7-2.8,2.4c-0.9,0.8-1.9,1.5-2.8,2.4
	c-0.9,0.9-1.8,1.8-2.5,2.7C9.3,20.1,8.3,21,7.7,22c-0.7,1-0.8,2.4-1.3,3.5s-1.5,2.1-2,3.2c-0.4,1.1,0.4,2.7,0,3.9
	c-0.2,1.2-1.7,2.2-1.8,3.4s0.4,2.5,0.5,3.8c0,1.2-0.5,2.6-0.3,3.7S4,45.8,4.2,47s0.8,2.3,1.2,3.5c0.4,1.2,0,2.7,0.5,3.8
	s1.5,2,2.1,3.1c0.6,1,1.4,2.1,2.2,3s1.4,2.2,2.2,3c0.9,0.9,2.2,1.3,3.1,2.1c0.9,0.8,1.5,2.2,2.4,3c0.9,0.7,2.3,1.1,3.3,1.8
	c1.1,0.6,2.2,0.9,3.4,1.6c1.1,0.5,2.4,0.6,3.5,1.1s1.9,1.9,3.1,2.3c1.1,0.4,2.3,0.9,3.5,1.2c1.2,0.3,2.5,0.2,3.7,0.4
	c1.2,0.2,2.4,0.3,3.7,0.4c1.2,0.1,2.5,0.1,3.7,0.1s2.5-0.2,3.7-0.2c1.1,0,2.3,0.9,3.5,0.9c1.2-0.1,2.2-0.8,3.4-0.9s2.3-0.1,3.4-0.3
	c1.1-0.2,2.2-0.3,3.3-0.6c1.7,0.9,1.7,0.8,3.3,2c1.5,1.2,1.2,1.7,2.7,2.9c1.5,1.2,1.3,2.7,3.2,2c1.6-0.6-0.1-1.6-0.1-3.4
	s0.4-1.8,0.4-3.5c0-1.8-0.6-1.7-0.2-3.5c1.1-0.5,1.8-1.3,3-2c1.1-0.6,2.3-0.8,3.3-1.4s1.6-1.8,2.6-2.6c0.9-0.8,2.5-0.7,3.4-1.5
	s1.3-2.1,2.1-3c0.8-0.9,1.4-2,2.1-2.9s1.8-1.7,2.4-2.6c0.6-1.1,1.2-2,1.7-3.1s0.8-2.3,1.1-3.4c0.4-1.1,0.6-2.3,0.8-3.5
	s1.5-2.2,1.6-3.4C96.6,42.3,95.6,41.1,95.6,39.8z"/>
<g>
	<path class="st1" d="M33.5,35.2c-0.9,0.4-1.8,0.8-2.7,1.1c1,0.4,2.2,0.7,3.7,0.8c-0.3,0.3-0.7,0.9-0.9,1.3
		c-2.2-0.3-3.9-0.9-5.2-1.9l0,1c-2,0.3-4.1,0.5-5.7,0.7L22.6,37c0.4,0,0.8-0.1,1.3-0.1v-2.3h-1.3c-0.2,1.4-0.7,2.8-1.5,3.9
		c-0.3-0.2-0.9-0.6-1.3-0.7c1.4-1.7,1.5-4,1.5-5.6v-2h12.4v1.1h-11v1c0,0.4,0,0.9-0.1,1.4h11.4v1.1h-1.5L33.5,35.2z M33,29.4H21.5
		v-4.5h3.2v-1h1.4v1h2v-1h1.5v1H33V29.4z M22.9,26.7h1.9v-0.8h-1.9V26.7z M22.9,28.4h1.9v-0.9h-1.9V28.4z M23.7,32.8v-1h8.9v1H23.7z
		 M25.4,36.7c0.9-0.1,1.9-0.2,2.9-0.3c-0.6-0.5-1-1.1-1.4-1.8h-1.5V36.7z M26.2,25.8v0.8h2v-0.8H26.2z M26.2,27.6v0.9h2v-0.9H26.2z
		 M28.4,34.6c0.3,0.5,0.8,0.9,1.3,1.2c0.8-0.3,1.8-0.8,2.5-1.2H28.4z M31.6,25.8h-2v0.8h2V25.8z M31.6,27.6h-2v0.9h2V27.6z"/>
	<path class="st1" d="M49.6,30.5c-0.9,0.7-2.1,1.5-3.1,2.1c0.9,1.5,2.2,2.7,3.8,3.4c-0.3,0.3-0.8,0.9-1,1.3
		c-2.9-1.4-4.6-4.4-5.6-8.1h0c-0.4,0.4-0.9,0.7-1.5,1c3,2.6,2.9,6.6,1.4,7.7c-0.6,0.4-1,0.6-1.8,0.6c-0.4,0-0.9,0-1.4,0
		c0-0.4-0.2-1-0.4-1.4c0.6,0.1,1.1,0.1,1.5,0.1c0.4,0,0.7,0,1-0.3c0.5-0.3,0.7-1.3,0.5-2.4c-1.7,1.4-4.2,2.7-6.3,3.4
		c-0.2-0.3-0.5-0.9-0.8-1.2c2.3-0.6,5.1-2,6.7-3.4c-0.1-0.3-0.3-0.5-0.4-0.8c-1.4,0.9-3.4,2-5,2.5c-0.2-0.3-0.5-0.8-0.7-1.1
		c1.6-0.4,3.8-1.4,5-2.3c-0.2-0.2-0.4-0.4-0.6-0.6c-1.2,0.6-2.6,1.1-3.8,1.4c-0.1-0.3-0.5-0.9-0.8-1.1c1.8-0.4,3.8-1.1,5.2-1.9h-2.9
		v-1.3h8.7v1.3H45c0.2,0.8,0.5,1.6,0.8,2.3c0.9-0.6,1.9-1.3,2.6-1.9L49.6,30.5z M37.9,28.5h-1.5v-3.3h5.8v-1.3h1.5v1.3h5.9v3.3h-1.5
		v-2H37.9V28.5z"/>
	<path class="st1" d="M64,27.7c-0.9,0.2-1.9,0.5-2.8,0.6c0.6,1.3,1.4,2.9,2.1,4.2l-0.9,0.9c-0.7-0.2-2.3-0.4-3.4-0.5l0.2-1.3
		c0.6,0.1,1.6,0.2,2.1,0.2c-0.4-0.9-1.1-2.3-1.6-3.3c-2,0.2-4.2,0.2-6.7,0L52.8,27c2.3,0.3,4.3,0.3,6.1,0.1l-0.4-1
		c-0.3-0.6-0.4-0.9-0.7-1.4l1.8-0.3c0.3,0.9,0.6,1.7,1,2.5c1.1-0.2,2.1-0.4,3.2-0.8L64,27.7z M55.2,32.3c-0.2,0.6-0.4,1.5-0.4,1.9
		c0,1.3,0.8,2.1,3.1,2.1c2.1,0,3.1-0.2,4.2-0.4l0,1.6c-0.9,0.2-2.1,0.4-4.2,0.4c-3,0-4.7-1.2-4.7-3.3c0-0.7,0.2-1.6,0.4-2.5
		L55.2,32.3z"/>
	<path class="st1" d="M73.2,26c-0.7,1.1-2.1,3.6-2.9,5.1c0.7-0.5,1.4-0.7,2.1-0.7c1.1,0,1.8,0.7,1.9,2c0,0.8,0,2,0.1,2.8
		c0,0.7,0.5,1,1.1,1c1.6,0,2.5-2,3-3.8l1.3,1.1c-0.8,2.6-2.2,4.4-4.6,4.4c-1.7,0-2.4-1-2.4-2.1c0-0.9,0-2.1-0.1-2.9c0-0.6-0.4-1-1-1
		c-1.2,0-2.2,1.2-2.8,2.5c-0.4,0.9-1.1,2.7-1.3,3.5l-1.7-0.6c1.2-3.2,4.6-9.8,5.4-11.3c0.2-0.4,0.4-0.8,0.7-1.4l1.8,0.7
		C73.5,25.4,73.3,25.7,73.2,26z"/>
	<path class="st1" d="M33.7,47.4c0.5,0,1.1-0.1,1.5-0.1V49c-0.4,0-1,0-1.4,0h-2.3c0,2.4,0.1,5.3,0.1,7.3c0,0.9-0.5,1.4-1.6,1.4
		c-0.9,0-1.8,0-2.6-0.1L27.2,56c0.7,0.1,1.6,0.2,2.2,0.2c0.4,0,0.6-0.2,0.6-0.6c0-1.2,0-3.2,0-5.1c-1.4,1.9-4.1,4.3-6.8,5.7L22,54.8
		c3.2-1.5,5.9-4,7.2-5.8h-4.8c-0.6,0-1.1,0-1.6,0v-1.7c0.4,0.1,1.1,0.1,1.6,0.1h5.5c0-0.5,0-1,0-1.4c0-0.4,0-1-0.1-1.5h1.8
		c-0.1,0.5-0.1,1-0.1,1.5l0,1.4H33.7z"/>
	<path class="st1" d="M47.8,46.5c-0.1,0.2-0.3,0.6-0.5,0.8c-0.6,1.3-1.5,3.1-2.6,4.5c1.6,1.4,3.6,3.4,4.5,4.7l-1.4,1.2
		c-1-1.4-2.6-3.2-4.2-4.6c-1.7,1.8-3.8,3.5-6.1,4.6l-1.3-1.3c2.6-1,5-2.9,6.5-4.7c1.1-1.2,2.1-3,2.5-4.2h-5.8
		c-0.6,0-1.5,0.1-1.7,0.1v-1.8c0.3,0,1.2,0.1,1.7,0.1h5.9c0.6,0,1.1-0.1,1.4-0.2L47.8,46.5z"/>
	<path class="st1" d="M62.1,46.5c-0.1,0.2-0.3,0.6-0.5,0.8c-0.6,1.3-1.5,3.1-2.6,4.5c1.6,1.4,3.6,3.4,4.5,4.7l-1.4,1.2
		c-1-1.4-2.6-3.2-4.2-4.6c-1.7,1.8-3.8,3.5-6.1,4.6l-1.3-1.3c2.6-1,5-2.9,6.5-4.7c1.1-1.2,2.1-3,2.5-4.2h-5.8
		c-0.6,0-1.5,0.1-1.7,0.1v-1.8c0.3,0,1.2,0.1,1.7,0.1h5.9c0.6,0,1.1-0.1,1.4-0.2L62.1,46.5z"/>
	<path class="st1" d="M76.5,45.6c-0.2,0.3-0.4,0.9-0.6,1.3c-0.5,1.3-1.3,3-2.3,4.5c1.4,1.2,2.8,2.4,3.9,3.6l-1.3,1.4
		c-1.1-1.3-2.3-2.4-3.6-3.6c-1.4,1.8-3.4,3.6-6.1,5L65,56.5c2.7-1.3,4.6-2.9,6.2-4.9c-1.2-0.9-2.8-2.1-4.4-3.1l1.1-1.3
		c1.3,0.8,3.1,2,4.3,3c0.9-1.4,1.5-2.8,2-4.1c0.1-0.4,0.3-0.9,0.3-1.3L76.5,45.6z"/>
</g>
</svg>
