<?xml version="1.0" encoding="utf-8"?>
<!-- Generator: Adobe Illustrator 24.1.2, SVG Export Plug-In . SVG Version: 6.00 Build 0)  -->
<svg version="1.1" id="レイヤー_1" xmlns="http://www.w3.org/2000/svg" xmlns:xlink="http://www.w3.org/1999/xlink" x="0px"
	 y="0px" viewBox="0 0 80 122" style="enable-background:new 0 0 80 122;" xml:space="preserve">
<style type="text/css">
	.st0{fill:#FFEFDA;}
	.st1{fill:#392214;}
	.st2{fill:none;stroke:#392214;stroke-width:1.8;stroke-linecap:round;stroke-linejoin:round;stroke-miterlimit:10;}
	.st3{fill:none;stroke:#FF775C;stroke-width:1.8;stroke-linecap:round;stroke-linejoin:round;stroke-miterlimit:10;}
	.st4{fill:#FFE673;}
	.st5{fill:none;stroke:#FFB08B;stroke-width:1.8;stroke-linecap:round;stroke-linejoin:round;stroke-miterlimit:10;}
</style>
<g>
	<path d="M4.8,35.8c-0.5,0.4,0.1,0.7,0.1,1.4c0,0.6-0.2,0.6-0.3,1.3c0,0.6-0.1,0.6-0.1,1.3c0,0.6,0.2,0.7,0.2,1.3s-0.1,0.6-0.1,1.3
		c0,0.6-0.1,0.6-0.2,1.3c0,0.6-0.2,0.6-0.3,1.3c0,0.6,0,0.6-0.1,1.3c0,0.6-0.1,0.6-0.1,1.3c0,0.6,0,0.6,0,1.3c0,0.6,0.2,0.7,0.1,1.3
		c0,0.6-0.1,0.6-0.1,1.3c0,0.6-0.1,0.6-0.2,1.3c0,0.6,0,0.6-0.1,1.3c0,0.6-0.2,0.6-0.3,1.3c0,0.6,0,0.6,0,1.3c0,0.6,0.1,0.6,0,1.3
		c0,0.6-0.2,0.6-0.2,1.3c0,0.6,0,0.6,0,1.3c0,0.6-0.2,0.6-0.2,1.3c0,0.6-0.1,0.6-0.1,1.3c0,0.6,0.1,0.6,0.1,1.3
		c0,0.6-0.1,0.6-0.2,1.3c0,0.6,0.1,0.6,0,1.3c0,0.6-0.1,0.6-0.2,1.3c0,0.6,0,0.6,0,1.3c0,0.6-0.1,0.6-0.1,1.3c0,0.6-0.1,0.6-0.2,1.3
		c0,0.6-0.2,0.6-0.3,1.3c0,0.6,0.1,0.6,0,1.3c0,0.6,0,0.6-0.1,1.3c0.2-0.2,0-0.2,0,0.4s0,0.6-0.1,1.3c0,0.6,0.1,0.7,0.1,1.3
		c0,0.6-0.2,0.6-0.2,1.3c0,0.6,0,0.6-0.1,1.3c0,0.6-0.1,0.6-0.1,1.3c0,0.6,0.1,0.7,0.1,1.3c0,0.6-0.2,0.6-0.2,1.3
		c0,0.6,0.1,0.7,0.1,1.3c0,0.6-0.8,0.9-0.3,1.4c0.5,0.4,0.7-0.3,1.3-0.4s0.6-0.1,1.2-0.2s0.6,0,1.3-0.1c0.6-0.1,0.6-0.2,1.2-0.3
		c0.6-0.1,0.7,0.1,1.3,0C8,87.1,8,87.1,8.6,87s0.6-0.1,1.2-0.2c0.6-0.1,0.6-0.3,1.2-0.4c0.6-0.1,0.6-0.1,1.2-0.2
		c0.6-0.1,0.6-0.1,1.2-0.2c0.6-0.1,0.7,0.1,1.3,0s0.6-0.2,1.2-0.3c0.6-0.1,0.6-0.1,1.2-0.2s0.6,0,1.3-0.1c0.6-0.1,0.6-0.1,1.2-0.2
		s0.6,0,1.3-0.1c0.6-0.1,0.6-0.3,1.2-0.4s0.6,0,1.3-0.1c0.6-0.1,0.6,0,1.3-0.1c0.6-0.1,0.6-0.1,1.2-0.2s0.6-0.2,1.2-0.3
		c0.6-0.1,0.6,0,1.3-0.1c0.6-0.1,0.6-0.1,1.3-0.2c0.6-0.1,0.6-0.3,1.2-0.4s0.6,0,1.3-0.1c0.6-0.1,0.6-0.1,1.2-0.2
		c0.6-0.1,0.6-0.2,1.2-0.3c0.6-0.1,0.6-0.2,1.2-0.3c0.6-0.1,0.6-0.1,1.3-0.2c0.6-0.1,0.6,0,1.3-0.2s0.7,0.1,1.2-0.3
		c0.4-0.5,0.2-0.6,0.2-1.2s-0.2-0.6-0.2-1.2s0.2-0.6,0.2-1.2s-0.1-0.6-0.1-1.2s0-0.6,0-1.3c0-0.6-0.1-0.6-0.1-1.2s0.1-0.6,0.1-1.2
		s0-0.6,0-1.2s0-0.6,0-1.2s0.1-0.6,0.1-1.2s-0.1-0.6-0.1-1.2s0-0.6,0-1.3c0-0.6,0-0.6,0-1.2s0.1-0.6,0.1-1.2s-0.2-0.6-0.2-1.2
		c0-0.6,0-0.6,0-1.3c0-0.6,0-0.6,0-1.3c0-0.6,0.2-0.6,0.2-1.2c0-0.6-0.3-0.6-0.3-1.3c0-0.6,0.1-0.6,0.1-1.3c0-0.6-0.1-0.6-0.1-1.3
		c0-0.6,0.2-0.6,0.2-1.3c0-0.6-0.3-0.6-0.3-1.2c0-0.6,0.3-0.6,0.3-1.3c0-0.6,0-0.6,0-1.2c0-0.6-0.3-0.6-0.3-1.2c0-0.6,0-0.6,0-1.3
		c0-0.6,0.2-0.6,0.2-1.3c0-0.6,0-0.6,0-1.3c0-0.6,0-0.6,0-1.3c0-0.6,0.1-0.6,0.1-1.3c0-0.6-0.1-0.6-0.1-1.3c0-0.6-0.1-0.6-0.1-1.3
		c0-0.6,0.5-0.8,0.1-1.3s-0.7,0.1-1.3,0S37.7,39,37.1,39c-0.6-0.1-0.6,0-1.2-0.1c-0.6-0.1-0.6-0.1-1.2-0.2c-0.6-0.1-0.6,0.1-1.3,0.1
		c-0.6-0.1-0.6,0-1.2-0.1c-0.6-0.1-0.6-0.2-1.2-0.2c-0.6-0.1-0.6,0-1.2,0c-0.6-0.1-0.6-0.2-1.2-0.3s-0.6,0-1.2-0.1s-0.6-0.2-1.2-0.2
		c-0.6-0.1-0.6-0.1-1.2-0.1c-0.6-0.1-0.6,0-1.2,0c-0.6-0.1-0.6,0.1-1.3,0c-0.6-0.1-0.6-0.2-1.2-0.2c-0.6-0.1-0.6-0.1-1.2-0.1
		c-0.6-0.1-0.6,0.1-1.3,0.1c-0.6-0.1-0.6-0.1-1.2-0.2c-0.6-0.1-0.6,0-1.2-0.1s-0.6-0.2-1.2-0.2c-0.6-0.1-0.6,0-1.2-0.1
		c-0.6-0.1-0.6-0.3-1.2-0.3c-0.6-0.1-0.6,0-1.3,0c-0.6-0.1-0.6,0-1.3-0.1c-0.6-0.1-0.6,0-1.3,0c-0.6-0.1-0.6,0-1.3-0.1
		C7,36.4,7,36.4,6.4,36.2C5.5,35.8,5.3,35.4,4.8,35.8z"/>
</g>
<g>
	<path d="M74.6,35.8c0.5,0.4-0.1,0.7-0.1,1.3s0.1,0.6,0.2,1.3c0,0.6,0.1,0.6,0.1,1.3c0,0.6,0,0.6,0.1,1.3c0,0.6,0.1,0.6,0.2,1.3
		c0,0.6-0.1,0.6-0.1,1.3c0,0.6,0.2,0.6,0.2,1.3c0,0.6,0.1,0.6,0.1,1.3c0,0.6,0,0.6,0,1.3c0,0.6,0.2,0.6,0.3,1.3c0,0.6-0.1,0.6,0,1.3
		c0,0.6,0,0.6,0.1,1.3c0,0.6,0,0.6,0.1,1.3c0,0.6,0,0.6,0,1.3c0,0.6,0.3,0.6,0.3,1.3c0,0.6,0.1,0.6,0.1,1.3c0,0.6-0.1,0.6-0.1,1.3
		c0,0.6,0.1,0.6,0.2,1.3c0,0.6,0,0.6,0.1,1.3c0,0.6-0.1,0.6-0.1,1.3c0,0.6,0.1,0.6,0.2,1.3c0,0.6,0.1,0.6,0.1,1.3
		c0,0.6,0.2,0.6,0.2,1.3c0,0.6-0.2,0.7-0.2,1.3c0,0.6,0.1,0.6,0.1,1.3c0,0.6,0,0.6,0.1,1.3c0,0.6,0.3,0.6,0.3,1.3
		c0,0.6,0.1,0.6,0.1,1.3c0,0.6,0,0.6,0,1.3c0,0.6,0,0.6,0.1,1.3c0,0.6,0.1,0.6,0.1,1.3c0,0.6,0.1,0.6,0.2,1.3c0,0.6-0.1,0.6,0,1.3
		c0,0.6,0,0.6,0.1,1.3c0,0.6-0.1,0.7-0.1,1.3c0,0.6,0.2,0.6,0.2,1.3c0,0.6,0.2,0.6,0.3,1.3c0,0.6-0.2,0.7-0.1,1.3
		c0,0.6,0.1,0.6,0.2,1.3c0,0.6,0,0.6,0.1,1.3s0.5,0.8,0,1.2c-0.5,0.4-0.6,0-1.2-0.1s-0.6-0.2-1.2-0.3c-0.6-0.1-0.6-0.1-1.2-0.2
		s-0.6,0-1.3-0.1c-0.6-0.1-0.6-0.3-1.2-0.4s-0.6,0.1-1.3-0.1c-0.6-0.1-0.6-0.1-1.2-0.2s-0.6,0-1.3-0.1c-0.6-0.1-0.6-0.2-1.2-0.3
		c-0.6-0.1-0.6-0.2-1.2-0.3c-0.6-0.1-0.6,0-1.3-0.1c-0.6-0.1-0.6-0.2-1.2-0.3c-0.6-0.1-0.6,0-1.3-0.1c-0.6-0.1-0.6-0.1-1.2-0.2
		c-0.6-0.1-0.6-0.2-1.2-0.3c-0.6-0.1-0.6-0.2-1.2-0.3c-0.6-0.1-0.6,0-1.3-0.1c-0.6-0.1-0.6-0.1-1.2-0.2c-0.6-0.1-0.6-0.1-1.3-0.2
		c-0.6-0.1-0.6-0.2-1.2-0.3c-0.6-0.1-0.6-0.2-1.2-0.3c-0.6-0.1-0.6-0.1-1.3-0.2c-0.6-0.1-0.6,0-1.3-0.1c-0.6-0.1-0.6-0.2-1.2-0.3
		c-0.6-0.1-0.7,0.1-1.3,0s-0.6-0.1-1.2-0.2c-0.6-0.1-0.6-0.1-1.3-0.2c-0.6-0.1-0.6,0-1.3-0.1c-0.6-0.1-0.6-0.3-1.2-0.4
		c-0.6-0.1-0.7,0.1-1.3,0s-0.8,0.1-1.2-0.3c-0.4-0.5,0-0.6,0-1.2s-0.1-0.6-0.1-1.2s0.2-0.6,0.2-1.2s-0.2-0.6-0.2-1.2s0-0.6,0-1.3
		c0-0.6,0-0.6,0-1.2s0-0.6,0-1.2s0.1-0.6,0.1-1.2s-0.1-0.6-0.1-1.2s0-0.6,0-1.2s0.1-0.6,0.1-1.2s-0.1-0.6-0.1-1.3c0-0.6,0-0.6,0-1.2
		s-0.1-0.6-0.1-1.2s0-0.6,0-1.2s0-0.6,0-1.3c0-0.6,0.1-0.6,0.1-1.3c0-0.6-0.2-0.6-0.2-1.2c0-0.6,0.3-0.6,0.3-1.3
		c0-0.6-0.2-0.6-0.2-1.3c0-0.6,0.2-0.6,0.2-1.3c0-0.6-0.2-0.6-0.2-1.3c0-0.6,0.2-0.6,0.2-1.2c0-0.6-0.2-0.6-0.2-1.3
		c0-0.6,0.1-0.6,0.1-1.2c0-0.6,0-0.6,0-1.2c0-0.6-0.1-0.6-0.1-1.3c0-0.6,0.2-0.6,0.2-1.3c0-0.6-0.2-0.6-0.2-1.3c0-0.6,0-0.6,0-1.3
		c0-0.6,0.3-0.6,0.3-1.3c0-0.6,0-0.6,0-1.3c0-0.6,0-0.6,0-1.3c0-0.6-0.6-0.8-0.1-1.3c0.4-0.5,0.7,0.1,1.3,0s0.6-0.1,1.2-0.2
		c0.6-0.1,0.6-0.2,1.2-0.3c0.6-0.1,0.6,0,1.2-0.1c0.6-0.1,0.6,0.2,1.3,0.2c0.6-0.1,0.6-0.3,1.2-0.4c0.6-0.1,0.6,0,1.2-0.1
		c0.6-0.1,0.6,0.2,1.3,0.1c0.6-0.1,0.6-0.3,1.2-0.4c0.6-0.1,0.6,0.1,1.3,0.1c0.6-0.1,0.6-0.2,1.2-0.2C54,38.8,54,39,54.7,39
		c0.6-0.1,0.6-0.1,1.2-0.1c0.6-0.1,0.6-0.2,1.2-0.2c0.6-0.1,0.6,0,1.2,0c0.6-0.1,0.6-0.1,1.2-0.2c0.6-0.1,0.6-0.3,1.2-0.3
		c0.6-0.1,0.6,0,1.3,0c0.6-0.1,0.6,0,1.2-0.1c0.6-0.1,0.6-0.1,1.2-0.1c0.6-0.1,0.6,0.1,1.3,0.1c0.6-0.1,0.6,0,1.2-0.1
		s0.6-0.1,1.2-0.1c0.6-0.1,0.6-0.3,1.2-0.4c0.6-0.1,0.6,0.1,1.3,0.1c0.6-0.1,0.6,0,1.3,0c0.6-0.1,0.7,0.1,1.3-0.1
		C74,35.9,74.1,35.4,74.6,35.8z"/>
</g>
<g>
	<path d="M39.7,1.2C40.1,1.2,40.6,1,41,1s0.8,0.3,1.3,0.3c0.4,0,0.8,0.1,1.3,0.2c0.4,0,0.9-0.1,1.3-0.1c0.4,0.1,0.9,0.1,1.3,0.2
		c0.4,0.1,0.8,0.2,1.2,0.3C47.7,2,48,2.3,48.5,2.4c0.4,0.1,0.9,0,1.3,0.1c0.4,0.1,0.8,0.2,1.2,0.3s0.8,0.2,1.2,0.4s0.7,0.6,1.1,0.8
		c0.4,0.2,0.8,0.3,1.2,0.4c0.4,0.2,0.9,0.1,1.3,0.3c0.4,0.2,0.6,0.7,1,0.9C57.2,5.8,57.7,5.8,58,6c0.4,0.2,0.6,0.7,0.9,0.9
		c0.4,0.2,0.9,0.2,1.3,0.4c0.3,0.2,0.5,0.7,0.9,1c0.3,0.3,0.8,0.3,1.2,0.6c0.3,0.3,0.4,0.8,0.7,1.1s0.9,0.3,1.2,0.6
		c0.3,0.3,0.6,0.6,0.9,0.9c0.3,0.3,0.5,0.7,0.8,1s0.3,0.8,0.6,1.2c0.3,0.3,0.7,0.5,1,0.8s0.5,0.7,0.8,1c0.2,0.3,0.3,0.8,0.5,1.2
		c0.2,0.4,0.6,0.6,0.8,1c0.2,0.4,0.3,0.8,0.5,1.2c0.2,0.4,0.7,0.6,0.8,1c0.2,0.4,0.3,0.8,0.5,1.2c0.2,0.4,0.4,0.7,0.6,1.1
		s0.4,0.8,0.5,1.2c0.2,0.4,0.4,0.8,0.5,1.2c0.1,0.4,0.2,0.8,0.3,1.2c0.1,0.4,0.1,0.8,0.2,1.3c0.1,0.4,0.1,0.8,0.2,1.3
		c0.1,0.4,0.1,0.8,0.2,1.3c0.1,0.4,0.5,0.8,0.5,1.2c0.1,0.4,0.1,0.8,0.1,1.3c0,0.4-0.2,0.9-0.1,1.3c0,0.4,0,0.8,0,1.3
		c0,0.4,0.2,0.8,0.2,1.3c0,0.4,0,0.8,0,1.3c0,0.4-0.2,0.8-0.2,1.3c0,0.4,0.1,0.9,0.1,1.3c0,0.4-0.3,0.8-0.3,1.2
		c-0.1,0.4-0.1,0.8-0.1,1.3c-0.1,0.4-0.3,0.8-0.4,1.2s-0.1,0.8-0.2,1.3c-0.1,0.4-0.3,0.8-0.4,1.2s-0.2,0.8-0.3,1.2
		c-0.1,0.4-0.1,0.9-0.2,1.3c-0.2,0.4-0.4,0.8-0.5,1.2c-0.2,0.4-0.3,0.8-0.5,1.2s-0.6,0.6-0.8,1c-0.2,0.4-0.3,0.8-0.5,1.1
		c-0.2,0.4-0.4,0.7-0.7,1.1c-0.2,0.4-0.1,0.9-0.4,1.3c-0.2,0.4-0.7,0.6-0.9,0.9c-0.2,0.3-0.5,0.7-0.8,1s-0.6,0.6-0.9,0.9
		c-0.3,0.3-0.5,0.7-0.8,1s-0.3,0.8-0.6,1.2c-0.3,0.3-0.8,0.4-1.1,0.7c-0.3,0.3-0.7,0.5-1,0.8s-0.4,0.8-0.8,1.1
		c-0.3,0.3-0.6,0.6-1,0.8c-0.3,0.3-0.8,0.4-1.1,0.6s-0.7,0.5-1.1,0.7c-0.4,0.2-0.7,0.5-1.1,0.7c-0.4,0.2-0.6,0.6-1,0.8
		c-0.4,0.2-0.9,0.2-1.3,0.4c-0.4,0.2-0.8,0.3-1.2,0.5s-0.7,0.4-1.1,0.6c-0.4,0.2-0.7,0.5-1.1,0.6c-0.4,0.2-0.8,0.4-1.2,0.5
		s-0.8,0.3-1.2,0.4s-0.8,0.2-1.2,0.3c-0.4,0.1-0.8,0.2-1.2,0.3c-0.4,0.1-0.9-0.2-1.3-0.1c-0.4,0.1-0.8,0.3-1.2,0.4s-0.8,0.1-1.3,0.1
		c-0.4,0-0.8,0.1-1.3,0.2c-0.4,0-0.8,0.2-1.3,0.2c-0.4,0-0.9,0-1.3,0c-0.4,0-0.8-0.2-1.3-0.2c-0.4,0-0.9,0.1-1.3,0.1
		c-0.4,0-0.9-0.1-1.3-0.1c-0.4,0-0.8-0.1-1.3-0.2c-0.4-0.1-0.8-0.4-1.2-0.5s-0.9,0.1-1.3,0c-0.4-0.1-0.8-0.5-1.2-0.6
		c-0.4-0.1-0.9,0.1-1.3,0s-0.7-0.6-1.1-0.7s-0.8-0.3-1.2-0.4c-0.4-0.2-0.9-0.1-1.2-0.3c-0.4-0.2-0.8-0.3-1.2-0.5
		c-0.4-0.2-0.6-0.6-1-0.8c-0.4-0.2-0.7-0.4-1.1-0.6s-0.8-0.3-1.2-0.5c-0.4-0.2-0.6-0.6-1-0.8c-0.4-0.2-0.9-0.2-1.2-0.5
		c-0.3-0.2-0.5-0.8-0.8-1c-0.3-0.3-0.8-0.3-1.1-0.6c-0.3-0.3-0.7-0.5-1.1-0.7c-0.3-0.3-0.4-0.8-0.7-1.1s-0.8-0.4-1.1-0.7
		s-0.4-0.8-0.7-1.1s-0.7-0.5-0.9-0.9c-0.3-0.3-0.4-0.8-0.6-1.1c-0.3-0.3-0.5-0.7-0.8-1c-0.2-0.3-0.7-0.6-0.9-0.9
		c-0.2-0.4-0.4-0.7-0.6-1.1c-0.2-0.4-0.3-0.8-0.5-1.2s-0.6-0.6-0.8-1s-0.4-0.7-0.6-1.1c-0.2-0.4-0.3-0.8-0.5-1.2s-0.4-0.8-0.6-1.2
		s0-0.9-0.1-1.3c-0.1-0.4-0.5-0.7-0.7-1.1c-0.1-0.4,0-0.9-0.1-1.3c-0.1-0.4-0.2-0.8-0.3-1.2c-0.1-0.4-0.4-0.8-0.5-1.2
		s-0.1-0.8-0.2-1.3c-0.1-0.4-0.1-0.8-0.1-1.3c0-0.4,0.1-0.9,0.1-1.3c0-0.4-0.2-0.8-0.3-1.3c0-0.4-0.2-0.8-0.2-1.3
		c0-0.4,0-0.9,0.1-1.3c0-0.4,0.3-0.8,0.3-1.3c0-0.4,0.2-0.8,0.2-1.3c0-0.4-0.2-0.9-0.2-1.3c0.1-0.4,0.1-0.8,0.2-1.3
		c0.1-0.4,0.2-0.8,0.3-1.2C5.7,28,6,27.6,6.1,27.2c0.1-0.4,0.1-0.9,0.2-1.3s0.5-0.7,0.6-1.1s0-0.9,0.2-1.3s0.5-0.7,0.6-1.1
		C7.9,22,8,21.6,8.1,21.2c0.2-0.4,0.4-0.7,0.6-1.1c0.2-0.4,0.4-0.8,0.6-1.1c0.2-0.4,0.4-0.7,0.6-1.1c0.2-0.4,0.4-0.7,0.6-1.1
		c0.2-0.4,0.5-0.7,0.8-1c0.2-0.3,0.5-0.6,0.8-1c0.3-0.3,0.4-0.8,0.7-1.1s0.6-0.6,0.9-0.9c0.3-0.3,0.6-0.6,0.9-0.9
		c0.3-0.3,0.6-0.6,0.9-0.9c0.3-0.3,0.7-0.5,1-0.8s0.7-0.5,1-0.8s0.6-0.7,0.9-0.9c0.3-0.3,0.7-0.4,1.1-0.7c0.3-0.2,0.5-0.7,0.9-0.9
		c0.4-0.2,0.7-0.5,1.1-0.7s0.8-0.3,1.2-0.5c0.4-0.2,0.7-0.5,1.1-0.7s0.8-0.2,1.2-0.4c0.4-0.2,0.8-0.3,1.2-0.5c0.4-0.2,0.6-0.7,1-0.8
		c0.4-0.2,0.9-0.1,1.3-0.3c0.4-0.1,0.9,0,1.3-0.2c0.4-0.1,0.8-0.3,1.2-0.5c0.4-0.1,0.8-0.4,1.2-0.5c0.4-0.1,0.9,0,1.3-0.1
		c0.4-0.1,0.8-0.3,1.2-0.4c0.4-0.1,0.8-0.1,1.3-0.2c0.4,0,0.9,0.2,1.3,0.1c0.4,0,0.8-0.1,1.3-0.2C38.9,1.1,39.3,1.2,39.7,1.2z"/>
</g>
<g>
	<path class="st0" d="M70.6,38.4c0,0.4,0.2,0.8,0.2,1.2s-0.1,0.8-0.1,1.2s0.2,0.8,0.1,1.2c0,0.4-0.1,0.8-0.1,1.2s-0.2,0.8-0.3,1.2
		c0,0.4-0.1,0.8-0.1,1.2s0.3,0.9,0.3,1.3c0,0.4-0.5,0.8-0.5,1.2s0,0.8,0,1.2c-0.1,0.4,0.1,0.9,0.1,1.3c-0.1,0.4-0.4,0.8-0.5,1.2
		s-0.2,0.8-0.3,1.2c-0.1,0.4-0.1,0.8-0.1,1.2c-0.1,0.4-0.1,0.8-0.2,1.2s-0.2,0.8-0.3,1.2c-0.1,0.4-0.1,0.8-0.2,1.2s-0.3,0.8-0.5,1.2
		c-0.1,0.4-0.5,0.7-0.7,1.1c-0.1,0.4,0,0.9-0.1,1.3c-0.2,0.4-0.4,0.7-0.6,1.1c-0.2,0.4-0.2,0.8-0.4,1.2c-0.2,0.4-0.5,0.7-0.7,1.1
		s-0.5,0.6-0.7,1s-0.3,0.8-0.6,1.1c-0.2,0.3-0.5,0.7-0.7,1s-0.7,0.5-1,0.8s-0.4,0.7-0.7,1s-0.5,0.7-0.8,1s-0.6,0.6-0.9,0.9
		c-0.3,0.3-0.5,0.7-0.8,0.9c-0.3,0.3-0.8,0.4-1.1,0.6s-0.6,0.6-0.9,0.8c-0.3,0.2-0.7,0.4-1.1,0.6c-0.4,0.2-0.8,0.3-1.1,0.5
		c-0.4,0.2-0.8,0.2-1.2,0.4c-0.4,0.2-0.8,0.3-1.1,0.5c-0.4,0.2-0.6,0.6-1,0.8c-0.4,0.1-0.8,0.3-1.2,0.4s-0.8,0-1.2,0.1
		s-0.8,0.3-1.2,0.4s-0.8,0-1.2,0.1s-0.8,0.1-1.2,0.1c-0.4,0.1-0.8,0.2-1.2,0.2s-0.8,0.4-1.2,0.4s-0.8-0.2-1.3-0.2
		c-0.4,0-0.8,0.1-1.2,0.1s-0.8,0.2-1.2,0.2s-0.8-0.4-1.2-0.4s-0.8,0.1-1.2,0.1s-0.8,0.1-1.2,0.1S35.4,78,35,78s-0.8,0-1.2,0
		c-0.4-0.1-0.8-0.2-1.2-0.3c-0.4-0.1-0.8-0.3-1.2-0.4c-0.4-0.1-0.8-0.2-1.2-0.3c-0.4-0.1-0.8,0-1.2-0.2c-0.4-0.1-0.7-0.4-1.1-0.5
		s-0.8-0.2-1.2-0.4c-0.4-0.2-0.8-0.2-1.2-0.3c-0.4-0.2-0.7-0.5-1-0.7c-0.4-0.2-0.9-0.2-1.2-0.4c-0.4-0.2-0.7-0.4-1.1-0.7
		c-0.3-0.2-0.5-0.7-0.8-0.9c-0.3-0.2-0.7-0.4-1-0.7c-0.3-0.3-0.6-0.5-0.9-0.8s-0.6-0.6-0.9-0.9s-0.8-0.4-1.1-0.7
		c-0.3-0.3-0.2-0.9-0.5-1.2c-0.3-0.3-0.6-0.6-0.8-0.9c-0.2-0.3-0.4-0.7-0.6-1.1c-0.2-0.3-0.5-0.6-0.7-1s-0.5-0.7-0.7-1
		c-0.2-0.4-0.5-0.7-0.7-1c-0.2-0.4-0.1-0.8-0.3-1.2s-0.6-0.7-0.7-1c-0.2-0.4-0.2-0.8-0.3-1.2s-0.1-0.8-0.3-1.2
		c-0.1-0.4-0.4-0.7-0.5-1.1c-0.1-0.4,0-0.8-0.1-1.2s-0.5-0.7-0.6-1.1c-0.1-0.4-0.1-0.8-0.1-1.2c-0.1-0.4,0-0.8-0.1-1.2
		s-0.1-0.8-0.2-1.2c-0.1-0.4-0.2-0.8-0.3-1.2S9.9,50,9.8,49.6c-0.1-0.4,0-0.8,0-1.2s-0.3-0.8-0.3-1.2S9.2,46.4,9.2,46s0-0.8,0-1.2
		S9.1,44,9.1,43.6s0.2-0.8,0.2-1.2s-0.1-0.8-0.1-1.2S9,40.4,9,40s0-0.8,0-1.2s0-0.8,0-1.2s0.2-0.8,0.2-1.2s-0.1-0.8,0-1.3
		c0-0.4,0-0.8,0.1-1.2c0-0.4,0.4-0.8,0.5-1.2s0.1-0.8,0.2-1.2c0.1-0.4,0.1-0.8,0.2-1.2c0.1-0.4,0.1-0.8,0.2-1.2
		c0.1-0.4,0.1-0.8,0.2-1.2c0.1-0.4,0.3-0.8,0.5-1.2c0.1-0.4,0.4-0.8,0.5-1.1c0.1-0.4,0.2-0.8,0.3-1.2c0.2-0.4,0.5-0.7,0.7-1.1
		s0.2-0.8,0.4-1.2c0.2-0.4,0.5-0.7,0.7-1c0.2-0.4,0.5-0.7,0.7-1c0.2-0.4,0.2-0.9,0.4-1.2c0.2-0.3,0.7-0.5,1-0.8
		c0.2-0.3,0.5-0.6,0.8-0.9s0.4-0.7,0.7-1c0.3-0.3,0.4-0.8,0.6-1.1c0.3-0.3,0.7-0.4,1-0.7s0.5-0.7,0.8-0.9c0.3-0.3,0.6-0.6,0.9-0.8
		c0.3-0.3,0.8-0.3,1.2-0.5c0.3-0.2,0.7-0.5,1-0.7s0.6-0.5,1-0.7s0.7-0.4,1.1-0.6c0.4-0.2,0.7-0.4,1.1-0.6c0.4-0.2,0.6-0.6,1-0.8
		s0.9-0.1,1.2-0.3c0.4-0.2,0.8-0.2,1.2-0.3c0.4-0.1,0.7-0.5,1.1-0.6s0.7-0.4,1.1-0.5s0.9,0,1.3,0c0.4-0.1,0.8-0.3,1.2-0.4
		s0.8-0.2,1.2-0.3c0.4-0.1,0.8-0.2,1.2-0.2s0.8,0.2,1.3,0.1c0.4,0,0.8-0.2,1.2-0.2s0.8,0.1,1.2,0.1s0.8-0.1,1.2,0
		c0.4,0,0.8,0.3,1.2,0.3s0.8,0,1.2,0s0.8,0.2,1.2,0.3c0.4,0.1,0.9-0.1,1.3,0c0.4,0.1,0.8,0.3,1.2,0.4s0.8,0.3,1.2,0.4s0.9-0.1,1.3,0
		c0.4,0.1,0.7,0.5,1.1,0.7c0.4,0.1,0.8,0.2,1.2,0.4s0.8,0.3,1.1,0.5c0.4,0.2,0.7,0.5,1.1,0.6c0.4,0.2,0.7,0.4,1.1,0.6
		c0.4,0.2,0.7,0.4,1.1,0.6c0.4,0.2,0.8,0.3,1.2,0.5c0.3,0.2,0.7,0.5,1,0.8c0.3,0.2,0.7,0.4,1,0.7s0.7,0.5,1,0.8s0.4,0.8,0.7,1.1
		s0.8,0.4,1.1,0.7s0.5,0.6,0.8,1c0.3,0.3,0.6,0.6,0.8,0.9c0.3,0.3,0.4,0.7,0.7,1c0.2,0.3,0.5,0.7,0.7,1s0.5,0.7,0.7,1
		c0.2,0.4,0.2,0.8,0.4,1.2c0.2,0.4,0.5,0.7,0.7,1.1s0.7,0.6,0.8,1c0.2,0.4,0.2,0.8,0.4,1.2c0.2,0.4,0.4,0.7,0.5,1.1s0.3,0.8,0.4,1.2
		c0.1,0.4,0.2,0.8,0.3,1.2c0.1,0.4,0.3,0.8,0.4,1.2c0.1,0.4-0.1,0.9,0,1.3s0.6,0.7,0.6,1.1c0.1,0.4,0.1,0.8,0.2,1.2s-0.1,0.8,0,1.3
		c0,0.4,0.1,0.8,0.1,1.2s0,0.8,0,1.2s0.2,0.8,0.2,1.2C70.8,37.5,70.6,38,70.6,38.4z"/>
</g>
<g>
	<path class="st0" d="M10.2,41.6c0.4,0,0.8-0.1,1.2,0s0.8,0.2,1.2,0.3s0.8,0.3,1.1,0.4c0.4,0.2,0.7,0.4,1,0.6c0.3,0.2,0.7,0.5,1,0.7
		c0.3,0.3,0.5,0.6,0.8,0.9c0.3,0.3,0.5,0.6,0.8,0.9c0.2,0.3,0.4,0.7,0.6,1.1c0.2,0.4,0.3,0.7,0.4,1.1c0.1,0.4,0.2,0.8,0.3,1.2
		c0.1,0.4,0.1,0.8,0.1,1.2s0,0.8-0.1,1.2s-0.2,0.8-0.3,1.2c-0.1,0.4-0.3,0.7-0.5,1.1c-0.2,0.4-0.4,0.7-0.6,1s-0.4,0.7-0.7,1
		c-0.3,0.3-0.6,0.5-0.9,0.8c-0.3,0.3-0.6,0.5-0.9,0.7c-0.3,0.2-0.7,0.4-1,0.6c-0.4,0.2-0.7,0.4-1.1,0.5c-0.4,0.1-0.8,0.2-1.2,0.2
		c-0.4,0.1-0.8,0.1-1.2,0.1S9.4,58.3,9,58.2C8.6,58,8.2,58,7.8,57.9c-0.4-0.1-0.7-0.3-1.1-0.4C6.3,57.3,6,57.2,5.6,57
		c-0.3-0.2-0.6-0.5-0.9-0.7c-0.3-0.3-0.6-0.5-0.8-0.8c-0.3-0.3-0.5-0.6-0.7-0.9c-0.2-0.3-0.4-0.7-0.5-1.1c-0.2-0.4-0.3-0.7-0.4-1.1
		C2,51.8,2,51.4,2,51c-0.1-0.4-0.1-0.8-0.1-1.2s0-0.8,0.1-1.2c0.1-0.4,0.1-0.8,0.3-1.2c0.1-0.4,0.2-0.8,0.4-1.1
		c0.2-0.4,0.3-0.7,0.6-1.1c0.2-0.3,0.5-0.6,0.8-0.9c0.3-0.3,0.5-0.6,0.8-0.9C5,43.3,5.3,43,5.7,42.8c0.3-0.2,0.7-0.4,1-0.6
		C7.1,42,7.5,42,7.9,41.9s0.8-0.2,1.2-0.3C9.4,41.5,9.8,41.6,10.2,41.6z"/>
</g>
<g>
	<path class="st0" d="M69.2,41.5c0.4,0,0.8,0,1.2,0c0.4,0.1,0.8,0.2,1.2,0.3c0.4,0.1,0.8,0.3,1.1,0.4c0.4,0.2,0.7,0.4,1,0.6
		c0.3,0.2,0.7,0.5,0.9,0.7c0.3,0.3,0.6,0.5,0.9,0.8s0.5,0.7,0.7,1s0.4,0.7,0.5,1.1c0.2,0.4,0.4,0.7,0.5,1.1c0.1,0.4,0.2,0.8,0.3,1.2
		c0.1,0.4,0,0.8,0,1.2s0,0.8-0.1,1.2s-0.2,0.8-0.3,1.1c-0.1,0.4-0.3,0.7-0.4,1.1c-0.2,0.4-0.3,0.7-0.6,1c-0.2,0.3-0.4,0.7-0.7,1
		c-0.3,0.3-0.6,0.6-0.9,0.8c-0.3,0.3-0.6,0.5-0.9,0.7s-0.7,0.4-1,0.6c-0.4,0.2-0.7,0.3-1.1,0.4c-0.4,0.1-0.8,0.2-1.2,0.2
		c-0.4,0.1-0.8,0-1.2,0c-0.4,0-0.8,0-1.2,0c-0.4-0.1-0.8-0.2-1.2-0.3c-0.4-0.1-0.8-0.2-1.1-0.4c-0.4-0.2-0.7-0.3-1.1-0.6
		c-0.3-0.2-0.6-0.5-0.9-0.8c-0.3-0.3-0.6-0.5-0.9-0.8c-0.3-0.3-0.5-0.6-0.7-1c-0.2-0.3-0.5-0.7-0.6-1c-0.2-0.4-0.2-0.8-0.4-1.1
		c0.1-0.2,0-0.6,0-1c-0.1-0.4-0.1-0.8-0.1-1.2s0-0.8,0.1-1.2s0.2-0.8,0.3-1.1c0.1-0.4,0.2-0.8,0.4-1.1c0.2-0.4,0.4-0.7,0.6-1
		c0.2-0.3,0.4-0.7,0.7-1s0.5-0.6,0.8-0.8c0.3-0.3,0.6-0.5,1-0.7c0.3-0.2,0.7-0.4,1-0.6c0.4-0.2,0.7-0.3,1.1-0.4
		c0.4-0.1,0.8-0.1,1.2-0.2C68.4,41.6,68.8,41.5,69.2,41.5z"/>
</g>
<g>
	<path class="st1" d="M26.7,42.8c0.4,0,0.8,0.1,1.2,0.4c0.3,0.2,0.6,0.5,0.8,0.9c0.2,0.3,0.3,0.7,0.4,1.2c0.1,0.4,0.2,0.8,0.2,1.2
		s-0.1,0.8-0.2,1.2s-0.3,0.8-0.5,1.1c-0.2,0.4-0.4,0.7-0.8,1c-0.3,0.2-0.8,0.4-1.2,0.4c-0.4,0-0.8-0.2-1.1-0.4
		c-0.3-0.2-0.6-0.5-0.8-0.9c-0.2-0.3-0.4-0.7-0.5-1.1c-0.1-0.4-0.1-0.8-0.1-1.2s0-0.8,0.1-1.2s0.2-0.8,0.4-1.2
		c0.2-0.4,0.5-0.6,0.9-0.9C25.9,42.9,26.3,42.8,26.7,42.8z"/>
</g>
<g>
	<path class="st2" d="M28.4,36.4c-0.3-0.3-0.6-0.6-1-0.8s-0.8-0.4-1.2-0.4c-0.4-0.1-0.9-0.2-1.3-0.1c-0.4,0.1-0.8,0.3-1.2,0.5
		c-0.4,0.2-0.7,0.5-1,0.8s-0.6,0.6-0.8,1c-0.2,0.4-0.5,0.7-0.6,1.2"/>
</g>
<g>
	<path class="st1" d="M52.7,42.8c0.4,0,0.8,0.2,1.1,0.4s0.6,0.5,0.8,0.9c0.2,0.3,0.4,0.7,0.5,1.1c0.1,0.4,0.1,0.8,0.1,1.2
		s0,0.8,0,1.2c-0.1,0.4-0.4,0.8-0.6,1.1c-0.2,0.4-0.5,0.6-0.8,0.9c-0.3,0.2-0.7,0.4-1.1,0.4c-0.4,0-0.8-0.2-1.1-0.4
		s-0.6-0.5-0.9-0.8c-0.2-0.3-0.4-0.7-0.5-1.1c-0.1-0.4-0.1-0.8-0.1-1.2s0.1-0.8,0.2-1.2c0.1-0.4,0.2-0.8,0.4-1.2s0.5-0.7,0.9-0.9
		C51.9,42.9,52.3,42.8,52.7,42.8z"/>
</g>
<g>
	<path class="st2" d="M51,36.4c0.3-0.3,0.6-0.6,1-0.8s0.8-0.5,1.2-0.5c0.4-0.1,0.9,0,1.3,0.1c0.4,0.1,0.9,0.2,1.3,0.4
		c0.4,0.2,0.8,0.5,1.1,0.8s0.5,0.7,0.7,1.1c0.2,0.4,0.3,0.8,0.5,1.2"/>
</g>
<g>
	<path class="st3" d="M46.8,64.2c-0.3,0.6-0.3,0.4-0.8,1c-0.2,0.3-0.4,0.7-0.8,1c-0.3,0.3-0.6,0.5-1,0.8c-0.3,0.3-0.6,0.6-1,0.8
		c-0.4,0.2-0.7,0.4-1.1,0.5c-0.4,0.1-0.8,0.3-1.2,0.4S40.1,69,39.7,69s-0.9-0.1-1.3-0.1c-0.4-0.1-0.8-0.2-1.2-0.3
		c-0.4-0.2-0.7-0.5-1-0.7c-0.4-0.2-0.7-0.4-1-0.7c-0.3-0.3-0.6-0.6-0.9-0.9c-0.3-0.3-0.8-0.5-1-0.8c-0.4-0.6-0.2-0.6-0.5-1.2"/>
</g>
<g>
	<path class="st0" d="M44.9,86.1c-0.1-0.6-0.2-0.6-0.2-1.3c0-0.6,0.1-0.7,0.1-1.3c0-0.6-0.2-0.6-0.2-1.3c0-0.7-0.1-0.7-0.1-1.3
		c0-0.6,0.1-0.7,0.1-1.3c0-0.7-0.2-0.6-0.2-1.3c0-0.7-0.1-0.6-0.2-1.3c0-0.7,0.2-0.7,0.1-1.3c0-0.7,0-0.7-0.1-1.3
		c0-0.7-0.1-0.6-0.2-1.3c0-0.7,0.4-0.8-0.1-1.2c-0.5-0.5-0.6-0.1-1.3-0.1s-0.7,0-1.3,0c-0.7,0-0.7,0-1.3,0c-0.7,0-0.7,0.1-1.4,0.1
		S37.9,72,37.2,72s-0.7-0.5-1.3,0c-0.5,0.4-0.1,0.5-0.2,1.2c-0.1,0.6,0,0.6-0.1,1.3c-0.1,0.6-0.1,0.6-0.2,1.3
		c-0.1,0.6-0.1,0.6-0.1,1.3c-0.1,0.6,0,0.6-0.1,1.3c-0.1,0.6,0.1,0.7,0.1,1.3c-0.1,0.6-0.1,0.6-0.2,1.3C35,81.4,35,81.4,35,82
		c-0.1,0.6-0.2,0.6-0.3,1.3c-0.1,0.6,0.1,0.7,0,1.3c-0.1,0.6,0,0.6-0.1,1.3c-0.1,0.1-0.3,0.5-0.7,1c-0.2,0.3-0.6,0.5-0.9,0.9
		c-0.2,0.3-0.5,0.6-0.8,1c-0.2,0.3-0.3,0.7-0.6,1.1c-0.2,0.3-0.5,0.7-0.7,1s-0.5,0.7-0.7,1s-0.6,0.6-0.8,0.9
		c-0.2,0.3-0.3,0.8-0.5,1.1c-0.2,0.3-0.5,0.7-0.7,1s-0.7,0.5-0.9,0.9c-0.2,0.3-0.4,0.7-0.7,1.1c-0.2,0.3-0.5,0.7-0.7,1
		s-0.3,0.8-0.5,1.1c-0.2,0.3-0.5,0.7-0.7,1s-0.5,0.7-0.7,1s-0.6,0.6-0.8,1c-0.2,0.3-0.4,0.8-0.6,1.1c-0.2,0.4-0.4,0.7-0.7,1.1
		c-0.2,0.4-0.5,0.7-0.7,1c-0.2,0.4-0.3,0.8-0.5,1.2c-0.2,0.4-0.3,0.8-0.5,1.1c-0.2,0.4-0.5,0.7-0.7,1c-0.2,0.4-0.5,0.7-0.7,1.1
		s-0.3,0.8-0.5,1.2c-0.2,0.4-0.5,0.7-0.7,1c-0.2,0.4-0.2,0.8-0.4,1.2c-0.2,0.4-0.5,0.7-0.7,1.1s-0.2,0.8-0.4,1.2
		c-0.2,0.4-0.4,0.7-0.6,1.1c-0.2,0.4-0.3,0.8-0.5,1.1c-0.2,0.4-0.3,0.8-0.5,1.2c-0.2,0.4-0.3,0.8-0.5,1.2c-0.2,0.4-0.3,0.7-0.4,1.1
		c0.6,0.2,0.6,0.1,1.2,0.1c0.6,0,0.6,0.1,1.2,0.1c0.6,0,0.6,0,1.2,0s0.6,0,1.2,0s0.6-0.2,1.2-0.2s0.6,0,1.2,0s0.6,0.1,1.2,0.1
		s0.6,0.1,1.2,0.1s0.6,0.1,1.2,0.1s0.6-0.2,1.2-0.2s0.6,0,1.2,0s0.6,0.2,1.2,0.2s0.6-0.2,1.2-0.2s0.6,0.2,1.2,0.2s0.6-0.1,1.2-0.1
		c0.6,0,0.6-0.1,1.2-0.1c0.6,0,0.6,0.2,1.2,0.2c0.6,0,0.6,0.1,1.2,0.1c0.6,0,0.6-0.3,1.2-0.3c0.6,0,0.6,0,1.3,0s0.6,0.1,1.3,0.1
		c0.1,0,0.1,0,0.2,0c0.6,0,0.6,0,1.2,0c0.6,0,0.6-0.1,1.2-0.1c0.6,0,0.6,0,1.2,0c0.6,0,0.6,0.2,1.2,0.2c0.6,0,0.6-0.1,1.2-0.1
		c0.6,0,0.6,0.1,1.2,0.1c0.6,0,0.6-0.2,1.2-0.2c0.6,0,0.6,0.1,1.2,0.1c0.6,0,0.6-0.1,1.2-0.1c0.6,0,0.6,0.2,1.2,0.2
		c0.6,0,0.6-0.1,1.2-0.1c0.6,0,0.6-0.1,1.2-0.1c0.6,0,0.6,0,1.2,0c0.6,0,0.6,0.1,1.2,0.1c0.6,0,0.6,0,1.2,0c0.6,0,0.6,0.2,1.2,0.2
		c0.6,0,0.6,0,1.2,0c0.6,0,0.6,0,1.2,0c0.6,0,0.6,0.1,1.2,0.1c0.6,0,0.6-0.2,1.3-0.2c0.7,0,0.7,0.3,1.3,0.1
		c-0.1-0.4-0.3-0.8-0.4-1.2c-0.2-0.4-0.4-0.8-0.6-1.1c-0.2-0.4-0.2-0.8-0.4-1.2c-0.2-0.4-0.3-0.8-0.5-1.2c-0.2-0.4-0.6-0.6-0.8-1
		s-0.2-0.8-0.4-1.2c-0.2-0.4-0.3-0.8-0.5-1.2c-0.2-0.4-0.5-0.7-0.6-1.1c-0.2-0.4-0.4-0.7-0.6-1.1c-0.2-0.4-0.4-0.8-0.6-1.1
		c-0.2-0.4-0.5-0.7-0.7-1.1s-0.5-0.7-0.7-1.1s-0.3-0.8-0.5-1.2c-0.2-0.4-0.6-0.6-0.8-1s-0.4-0.8-0.6-1.1c-0.2-0.4-0.4-0.7-0.6-1.1
		c-0.2-0.4-0.4-0.7-0.6-1.1c-0.2-0.4-0.5-0.7-0.7-1.1s-0.5-0.7-0.7-1.1s-0.5-0.7-0.8-1c-0.2-0.4-0.6-0.6-0.8-1s-0.3-0.8-0.6-1.1
		c-0.2-0.4-0.5-0.7-0.8-1c-0.2-0.4-0.4-0.8-0.7-1.1c-0.2-0.4-0.5-0.7-0.8-1c-0.3-0.4-0.6-0.7-0.8-1c-0.3-0.4-0.4-0.8-0.6-1.1
		c-0.3-0.4-0.5-0.7-0.8-1c-0.3-0.4-0.6-0.6-0.9-0.9c-0.3-0.4-0.4-0.8-0.6-1.1c-0.3-0.4-0.7-0.6-1-0.9C45.2,86.7,45.1,86.3,44.9,86.1
		z"/>
</g>
<g>
	<path class="st2" d="M49.7,91.2c-0.3-0.4-0.7-0.6-1-1s-0.5-0.8-0.8-1.1c-0.3-0.4-0.6-0.8-0.8-1.1c-0.3-0.4-0.6-0.8-0.8-1.1
		c-0.5-0.7-0.8-0.4-1-1c-0.2-0.7,0.1-0.7,0.1-1.4c0-0.7-0.2-0.7-0.3-1.3c0-0.7,0.1-0.7,0.1-1.4c-0.1-0.7-0.3-0.7-0.4-1.3
		s-0.2-0.7-0.1-1.4c0.4,0,1,0,1.4-0.1s0.9,0,1.3-0.1c0.4-0.1,0.8-0.4,1.2-0.5s0.9,0.1,1.3,0c0.4-0.1,0.8-0.3,1.2-0.4
		s0.8-0.3,1.2-0.4s0.8-0.2,1.2-0.4c0.4-0.2,0.7-0.5,1.1-0.7c0.4-0.2,0.8-0.3,1.2-0.5s0.7-0.4,1.1-0.6c0.4-0.2,0.8-0.2,1.2-0.5
		c0.4-0.2,0.6-0.6,1-0.8c0.3-0.2,0.7-0.5,1-0.8s0.6-0.6,0.9-0.9c0.3-0.3,0.8-0.4,1.1-0.7c0.3-0.3,0.5-0.7,0.8-1s0.6-0.6,0.9-0.9
		s0.5-0.7,0.7-1c0.3-0.3,0.5-0.7,0.8-1c0.2-0.4,0.5-0.7,0.7-1.1s0.4-0.7,0.6-1.1s0.5-0.7,0.7-1.1s0.2-0.9,0.3-1.2
		c0.2-0.4,0.4-0.7,0.6-1.1c0.2-0.4,0.4-0.7,0.6-1.1c0.1-0.4,0.2-0.8,0.4-1.2c0.1-0.4,0.2-0.9,0.3-1.3c0.3,0,0.7,0,1,0
		c0.4,0,0.8,0,1.2,0c0.4-0.1,0.8-0.1,1.2-0.2c0.4-0.1,0.7-0.3,1.1-0.5s0.8-0.2,1.1-0.4c0.3-0.2,0.5-0.7,0.8-0.9
		c0.3-0.3,0.6-0.5,0.9-0.8s0.6-0.5,0.8-0.9c0.2-0.3,0.5-0.7,0.7-1c0.2-0.4,0.1-0.8,0.2-1.2s0.4-0.7,0.5-1.1c0.1-0.4-0.1-0.8-0.1-1.2
		s0.1-0.9,0-1.3c-0.1-0.4-0.2-0.9-0.4-1.3c-0.1-0.4-0.2-0.9-0.4-1.3c-0.2-0.4-0.5-0.7-0.8-1.1c-0.3-0.4-0.5-0.7-0.9-1
		c-0.3-0.3-0.6-0.7-1-0.9c-0.3-0.3-0.8-0.4-1.2-0.6c-0.4-0.2-0.8-0.4-1.2-0.5c-0.4-0.1-0.8-0.4-1.2-0.5"/>
</g>
<g>
	<path class="st2" d="M8.9,41.6c-0.4,0.1-0.9,0.2-1.3,0.3s-0.8,0.3-1.2,0.5C6,42.6,5.6,42.7,5.2,43c-0.4,0.3-0.6,0.7-0.9,1
		s-0.5,0.7-0.8,1.1c-0.3,0.4-0.6,0.6-0.8,1c-0.2,0.4-0.3,0.8-0.5,1.2c-0.1,0.4-0.3,0.8-0.4,1.3c-0.1,0.4-0.1,0.9-0.1,1.3
		c0,0.4,0,0.8,0.1,1.2C2,51.6,2.1,52,2.2,52.4c0.1,0.4,0.3,0.7,0.5,1.1c0.2,0.4,0.2,0.8,0.4,1.1s0.5,0.7,0.8,1s0.6,0.6,0.9,0.9
		c0.3,0.3,0.7,0.5,1,0.7s0.7,0.4,1.1,0.5C7.3,57.9,7.6,58,8,58.1c0.4,0.1,0.7,0.4,1.2,0.4c0.4,0.1,0.8,0.1,1.2,0.1
		c0.3,0,0.6-0.1,0.9-0.1c0.1,0.4,0.3,0.8,0.5,1.2c0.1,0.4,0.3,0.8,0.4,1.2c0.1,0.4,0.3,0.8,0.5,1.2s0.2,0.9,0.3,1.2
		c0.2,0.4,0.4,0.7,0.6,1.1c0.2,0.4,0.3,0.8,0.5,1.2c0.2,0.4,0.5,0.7,0.7,1.1s0.5,0.7,0.8,1c0.2,0.4,0.3,0.8,0.6,1.1
		c0.3,0.3,0.6,0.6,0.9,0.9s0.4,0.7,0.7,1.1c0.3,0.3,0.7,0.5,1,0.8s0.5,0.7,0.8,1s0.7,0.5,1,0.8s0.6,0.6,0.9,0.9
		c0.3,0.2,0.7,0.4,1.1,0.7c0.4,0.2,0.8,0.4,1.1,0.6c0.4,0.2,0.7,0.4,1.1,0.6s0.8,0.3,1.2,0.5c0.4,0.2,0.8,0.3,1.2,0.4
		c0.4,0.2,0.8,0.4,1.2,0.5c0.4,0.1,0.8,0.2,1.2,0.4c0.4,0.1,0.8,0.2,1.2,0.3c0.4,0.1,0.8,0.2,1.2,0.3c0.4,0.1,0.8,0.3,1.2,0.4
		s0.8,0.1,1.3,0.2c0.4,0.1,0.8,0.1,1.2,0.2c0.2,0.7,0.1,0.7,0.1,1.4c0,0.7-0.2,0.7-0.2,1.3c0,0.7-0.2,0.7-0.2,1.4
		c-0.1,0.7-0.1,0.7-0.1,1.4s0.1,0.7-0.1,1.3c-0.2,0.7-0.1,0.5-0.7,1.2c-0.2,0.3-0.5,0.7-0.9,1.1c-0.3,0.3-0.5,0.7-0.8,1.1
		c-0.3,0.3-0.6,0.7-0.9,1.1c-0.3,0.4-0.7,0.6-1,1"/>
</g>
<g>
	<path class="st4" d="M51.8,90.6c-0.3,0.2-0.6,0.4-1.1,0.5c-0.4,0.1-0.8,0-1.3,0.1c-0.4,0.1-0.7,0.4-1.1,0.5
		c-0.4,0.1-0.8,0.1-1.2,0.1c-0.4,0.1-0.8,0.4-1.2,0.4c-0.4,0.1-0.8,0.1-1.2,0.2s-0.8,0-1.2,0.1s-0.8,0-1.2,0.1s-0.9,0.1-1.2,0.1
		c-0.5,0-0.9,0.2-1.2,0.2S39.2,93,38.7,93c-0.4,0-0.8-0.2-1.2-0.2s-0.8-0.1-1.2-0.2s-0.8-0.1-1.2-0.1c-0.4-0.1-0.8-0.2-1.2-0.3
		c-0.4-0.1-0.8-0.1-1.2-0.2s-0.8-0.3-1.2-0.4c-0.4-0.1-0.8-0.2-1.2-0.3c-0.4-0.1-0.9-0.1-1.2-0.3c-0.4-0.2-0.8-0.6-1.1-0.8
		c-0.3,0.2-0.7,0.6-1,1c-0.3,0.3-0.5,0.7-0.8,1c-0.2,0.3-0.5,0.6-0.7,1c-0.2,0.3-0.3,0.8-0.6,1.1c-0.2,0.3-0.5,0.6-0.8,1
		c-0.2,0.3-0.6,0.6-0.8,0.9c-0.2,0.3-0.4,0.7-0.6,1.1c-0.2,0.3-0.3,0.8-0.6,1.1c-0.2,0.3-0.6,0.6-0.8,1c-0.2,0.4-0.2,0.9-0.4,1.2
		c-0.2,0.4-0.5,0.6-0.7,1s-0.4,0.7-0.6,1.1s-0.6,0.6-0.8,1c-0.2,0.4-0.3,0.8-0.5,1.2c-0.2,0.4-0.5,0.7-0.7,1
		c-0.2,0.4-0.4,0.7-0.6,1.1s-0.3,0.8-0.5,1.1c-0.2,0.4-0.4,0.7-0.6,1.1c-0.2,0.4-0.1,0.9-0.3,1.2c-0.2,0.4-0.6,0.7-0.7,1
		c-0.2,0.4-0.1,0.9-0.3,1.2c-0.2,0.4-0.6,0.6-0.8,1s-0.2,0.8-0.3,1.2c-0.2,0.4-0.4,0.8-0.5,1.1c-0.2,0.4-0.2,0.8-0.3,1.2
		c-0.2,0.4-0.4,0.7-0.6,1.1c-0.1,0.4-0.4,0.8-0.5,1.1c-0.1,0.5-0.2,0.9-0.2,1.3c0.6,0.2,0.6-0.1,1.3-0.1c0.6,0,0.6,0.1,1.2,0.1
		c0.6,0,0.6-0.1,1.2-0.1c0.6,0,0.6,0,1.2,0s0.6,0,1.2,0s0.6,0,1.2,0s0.6,0.1,1.2,0.1s0.6-0.3,1.2-0.3s0.6,0.3,1.2,0.3
		s0.6-0.3,1.2-0.3s0.6,0.2,1.2,0.2s0.6-0.1,1.2-0.1s0.6-0.1,1.2-0.1s0.6,0,1.2,0s0.6,0.1,1.2,0.1s0.6,0.1,1.2,0.1s0.6-0.1,1.2-0.1
		s0.6-0.1,1.2-0.1s0.6,0.2,1.2,0.2c0.6,0,0.6,0,1.2,0c0.6,0,0.6-0.1,1.2-0.1c0.6,0,0.6,0,1.2,0c0.6,0,0.6-0.1,1.2-0.1
		c0.6,0,0.6,0.2,1.2,0.2c0.6,0,0.6-0.1,1.2-0.1c0.6,0,0.6,0.1,1.2,0.1c0.6,0,0.6-0.1,1.2-0.1c0.6,0,0.6-0.1,1.2-0.1
		c0.6,0,0.6,0.1,1.2,0.1c0.6,0,0.6,0.1,1.2,0.1c0.6,0,0.6,0.1,1.2,0.1c0.6,0,0.6,0,1.2,0c0.6,0,0.6,0,1.2,0c0.6,0,0.6-0.1,1.2-0.1
		c0.6,0,0.6,0,1.2,0c0.6,0,0.6-0.2,1.2-0.2c0.6,0,0.6,0.1,1.2,0.1c0.6,0,0.6,0.2,1.2,0.2c0.6,0,0.6,0,1.2,0c0.6,0,0.6,0,1.2,0
		c0.6,0,0.6-0.1,1.2-0.1c0.6,0,0.6,0.2,1.2,0.2c0.6,0,0.6-0.1,1.2-0.1c0.6,0,0.6-0.1,1.2-0.1c0.6,0,0.6,0.2,1.2,0.2s0.6-0.1,1.2-0.2
		c-0.1-0.3,0-0.6-0.1-1.1c-0.1-0.4-0.3-0.8-0.4-1.2c-0.1-0.4-0.4-0.7-0.6-1.1c-0.1-0.4-0.4-0.7-0.5-1.1c-0.2-0.4-0.2-0.8-0.4-1.2
		c-0.2-0.4-0.4-0.7-0.6-1.1c-0.2-0.4-0.3-0.7-0.5-1.1s-0.2-0.8-0.4-1.2c-0.2-0.4-0.5-0.6-0.7-1s-0.3-0.8-0.5-1.1
		c-0.2-0.4-0.2-0.8-0.4-1.2c-0.2-0.4-0.5-0.7-0.7-1c-0.2-0.4-0.3-0.8-0.5-1.2c-0.2-0.4-0.5-0.7-0.7-1.1s-0.4-0.7-0.6-1.1
		c-0.2-0.4-0.4-0.7-0.6-1.1c-0.2-0.4-0.5-0.7-0.7-1.1s-0.4-0.7-0.7-1.1c-0.2-0.4-0.4-0.7-0.6-1.1c-0.2-0.4-0.4-0.8-0.6-1.1
		c-0.2-0.4-0.5-0.7-0.7-1c-0.2-0.4-0.5-0.7-0.7-1c-0.2-0.4-0.4-0.8-0.6-1.1c-0.2-0.4-0.4-0.7-0.7-1.1c-0.2-0.4-0.6-0.6-0.8-0.9
		c-0.3-0.3-0.5-0.7-0.7-1c-0.3-0.3-0.4-0.8-0.7-1C52.5,90.9,52.1,90.9,51.8,90.6z"/>
</g>
<g>
	<path class="st5" d="M39.6,51.4c-0.3,0.3-0.7,0.6-1,1c-0.3,0.3-0.7,0.7-0.9,1.1c-0.3,0.4-0.5,0.9-0.5,1.3c0,0.6,0.2,1,0.6,1.4
		c0.3,0.3,0.8,0.5,1.3,0.8"/>
</g>
<g>
	<path d="M65.9,17.9c-0.2-0.4-0.3-0.9-0.5-1.2c-0.3-0.3-0.6-0.6-0.9-0.9c-0.3-0.3-0.6-0.6-0.9-0.9c-0.3-0.3-0.6-0.7-0.9-1
		c-0.3-0.3-0.7-0.5-1-0.8s-0.5-0.7-0.8-1s-0.8-0.4-1.1-0.7s-0.6-0.7-0.9-0.9c-0.3-0.3-0.6-0.6-1-0.8s-0.8-0.4-1.1-0.6
		c-0.4-0.2-0.6-0.6-1-0.9C55.4,8,55,7.9,54.6,7.7s-0.9-0.2-1.3-0.4c-0.4-0.2-0.8-0.4-1.2-0.5c-0.4-0.2-0.7-0.4-1.1-0.6
		c-0.4-0.2-0.8-0.4-1.2-0.5S49,5.5,48.6,5.4c-0.4-0.1-0.8-0.2-1.2-0.3C47,5,46.6,4.9,46.2,4.8c-0.4-0.1-0.9,0-1.3-0.1
		c-0.4-0.1-0.8-0.2-1.3-0.2c-0.4-0.1-0.8-0.2-1.3-0.2c-0.4,0-0.9-0.1-1.3-0.1c-0.4,0-0.9,0-1.3,0c-0.4,0-0.8,0-1.2,0
		s-0.8,0.1-1.2,0.1s-0.8,0.3-1.2,0.3s-0.8-0.1-1.3,0C34.4,4.7,34,4.9,33.6,5s-0.8,0.1-1.2,0.2c-0.4,0.1-0.8,0.1-1.2,0.2
		c-0.4,0.1-0.8,0.3-1.2,0.4c-0.4,0.1-0.8,0.2-1.2,0.4c-0.4,0.1-0.7,0.4-1.1,0.6S27,7.3,26.6,7.5s-0.8,0.2-1.2,0.4
		c-0.4,0.2-0.7,0.4-1.1,0.6c-0.4,0.2-0.8,0.3-1.1,0.5c-0.4,0.2-0.5,0.7-0.9,0.9c-0.3,0.2-0.8,0.2-1.2,0.5c-0.3,0.2-0.5,0.7-0.9,0.9
		c-0.3,0.3-0.7,0.4-1,0.7s-0.6,0.5-1,0.8c-0.3,0.3-0.6,0.6-0.9,0.8c-0.3,0.3-0.5,0.7-0.7,1c-0.3,0.3-0.7,0.4-1,0.8
		c-0.3,0.3-0.4,0.7-0.7,1.1c-0.3,0.3-0.5,0.7-0.7,1s-0.6,0.6-0.8,0.9c-0.2,0.4-0.4,0.8-0.6,1.1c-0.2,0.4-0.3,0.8-0.6,1.2
		c-0.2,0.4-0.6,0.6-0.8,1s-0.4,0.8-0.6,1.1c-0.2,0.4-0.3,0.8-0.4,1.2c-0.2,0.4-0.2,0.8-0.4,1.2c-0.1,0.4-0.5,0.7-0.7,1.1
		c-0.1,0.4-0.1,0.9-0.2,1.3C9,28,8.8,28.4,8.6,28.8c-0.1,0.4-0.3,0.8-0.4,1.2c-0.1,0.4,0.1,0.9,0,1.3s-0.4,0.8-0.4,1.2
		c-0.1,0.4,0,0.9,0,1.3c-0.1,0.4,0.1,0.9,0,1.3c0,0.4-0.3,0.8-0.4,1.3c0,0.4,0.1,0.9,0.1,1.3c0,0.4-0.1,0.9-0.1,1.3
		c0,0.4,0.1,0.7,0.2,1.1c0.1,0.4,0.3,0.7,0.4,1c0.1,0.4,0.2,0.8,0.2,1.2c0.3-0.5,0.2-0.6,0.4-1.2c0.2-0.6,0.1-0.6,0.4-1.2
		c0.2-0.6,0.2-0.6,0.4-1.2c0.2-0.6,0.3-0.6,0.5-1.2c0.2-0.6,0.1-0.6,0.3-1.2c0.2-0.6,0.3-0.6,0.5-1.1c0.2-0.6,0.2-0.6,0.4-1.2
		c0.2-0.6,0.3-0.6,0.5-1.2c0.2-0.6,0.4-0.5,0.6-1.1c0.2-0.6,0-0.7,0.2-1.3c0.2-0.6,0.3-0.6,0.5-1.1c0.2-0.6,0.3-0.5,0.6-1.1
		c0.2-0.6,0.1-0.6,0.3-1.2s0.1-0.6,0.3-1.2s0.3-0.6,0.5-1.1c0.2-0.6,0.3-0.5,0.6-1.1c0.2-0.6,0.1-0.6,0.3-1.2s-0.1-0.8,0.4-1.2
		c0.5-0.4,0.7,0,1.3,0s0.6,0.1,1.2,0.1s0.6,0.1,1.2,0.1s0.6-0.1,1.2-0.1s0.6,0,1.2,0s0.6-0.2,1.2-0.2s0.6,0.1,1.2,0.1s0.6,0,1.2,0
		s0.6,0,1.3,0c0.6,0,0.6,0.2,1.2,0.2s0.6-0.3,1.2-0.3s0.6,0.1,1.2,0.1s0.6-0.1,1.2-0.1c0.6,0,0.6,0.2,1.2,0.2c0.6,0,0.6-0.1,1.2-0.1
		c0.6,0,0.6,0,1.3,0c0.6,0,0.6,0,1.2,0c0.6,0,0.6,0.2,1.2,0.2c0.6,0,0.6,0,1.2,0c0.6,0,0.6-0.3,1.3-0.3c0.6,0,0.6,0.3,1.3,0.3
		c0.6,0,0.6,0,1.2,0c0.6,0,0.6-0.1,1.3-0.1c0.6,0,0.6-0.3,1.3-0.3c0.6,0,0.6,0.4,1.3,0.4c0.6,0,0.6-0.4,1.3-0.4
		c0.6,0,0.6,0.2,1.2,0.2c0.6,0,0.6,0.2,1.3,0.2c0.6,0,0.6-0.1,1.2-0.1c0.6,0,0.6-0.1,1.2-0.1c0.6,0,0.6-0.1,1.3-0.1
		c0.6,0,0.6,0.1,1.3,0.1c0.6,0,0.6,0,1.3,0c0.6,0,0.6,0.2,1.3,0.2c0.6,0,0.6-0.3,1.3-0.3c0.6,0,0.6,0.2,1.3,0.2
		c0.6,0,0.6,0.1,1.3,0.1c0.6,0,0.7-0.5,1.3-0.2c0.5,0.4,0.4,0.5,0.6,1.1s0,0.7,0.2,1.3c0.2,0.6,0.2,0.6,0.5,1.2
		c0.2,0.6,0.5,0.5,0.7,1.1s0,0.7,0.2,1.3c0.2,0.6,0.3,0.6,0.5,1.1c0.2,0.6,0.2,0.6,0.5,1.2c0.2,0.6,0.3,0.6,0.5,1.1
		c0.2,0.6,0,0.7,0.3,1.2c0.2,0.6,0.2,0.6,0.4,1.2c0.2,0.6,0.5,0.5,0.7,1.1s0.1,0.6,0.3,1.2c0.2,0.6,0.2,0.6,0.4,1.2
		c0.2,0.6,0,0.7,0.2,1.2c0.2,0.6,0.3,0.6,0.5,1.1c0.2,0.6,0.4,0.5,0.6,1.1s-0.1,0.7,0.1,1.3s0.3,0.6,0.6,1.1c0-0.4,0.1-0.7,0.2-1.1
		c0.1-0.4,0-0.7,0.1-1.1c0.1-0.4,0.3-0.7,0.3-1c0-0.4,0.1-0.9,0-1.3c0-0.4-0.1-0.9-0.1-1.3c0-0.4-0.2-0.8-0.2-1.3
		c0-0.4-0.1-0.8-0.2-1.3c-0.1-0.4,0.1-0.9,0-1.3c-0.1-0.4-0.3-0.8-0.3-1.2c-0.1-0.4-0.2-0.8-0.3-1.3c-0.1-0.4,0.1-0.9-0.1-1.3
		c-0.1-0.4-0.5-0.8-0.6-1.2c-0.1-0.4-0.2-0.8-0.3-1.2c-0.1-0.4-0.2-0.8-0.4-1.2c-0.2-0.4-0.3-0.8-0.5-1.2c-0.2-0.4-0.3-0.8-0.5-1.2
		c-0.2-0.4-0.3-0.8-0.5-1.2c-0.2-0.4-0.6-0.6-0.9-1c-0.2-0.4-0.2-0.9-0.4-1.3C66.6,18.4,66.2,18.2,65.9,17.9z"/>
</g>
<g>
	<path class="st0" d="M39.6,15.7c-0.9,0-0.4,0.7-0.6,1.6c-0.4,0.7-0.4,0.7-0.6,1.6c-0.5,0.7-0.5,0.7-0.7,1.5c-0.4,0.7-1,0.7-0.7,1.6
		c0.2,0.6,0.7,0,1.4,0.1c0.6,0.1,0.7,0,1.4,0c0.6,0,0.7,0,1.4-0.1c0.6,0,1.1,0.6,1.4-0.1c0.4-0.7-0.4-0.7-0.7-1.6
		c-0.2-0.6-0.2-0.6-0.6-1.4s-0.5-0.7-0.6-1.6C40.1,16.4,40.5,15.7,39.6,15.7z"/>
</g>
</svg>
