<?xml version="1.0" encoding="utf-8"?>
<!-- Generator: Adobe Illustrator 24.1.2, SVG Export Plug-In . SVG Version: 6.00 Build 0)  -->
<svg version="1.1" id="レイヤー_1" xmlns="http://www.w3.org/2000/svg" xmlns:xlink="http://www.w3.org/1999/xlink" x="0px"
	 y="0px" viewBox="0 0 80 132" style="enable-background:new 0 0 80 132;" xml:space="preserve">
<style type="text/css">
	.st0{fill:#8B5100;}
	.st1{fill:#FFEFDA;}
	.st2{fill:#392214;}
	.st3{fill:none;stroke:#392214;stroke-width:1.8;stroke-linecap:round;stroke-linejoin:round;stroke-miterlimit:10;}
	.st4{fill:#FF775C;}
	.st5{fill:none;stroke:#FF775C;stroke-width:1.5;stroke-linecap:round;stroke-linejoin:round;stroke-miterlimit:10;}
	.st6{fill:#FFAAA2;}
	.st7{fill:none;stroke:#FFB08B;stroke-width:1.8;stroke-linecap:round;stroke-linejoin:round;stroke-miterlimit:10;}
</style>
<g>
	<path class="st0" d="M39,0.9c0.4,0,0.9,0,1.3,0c0.4,0.1,0.8,0.2,1.2,0.3c0.4,0.1,0.9,0,1.3,0.2C43.2,1.6,43.6,1.8,44,2
		c0.4,0.2,0.7,0.6,1,0.8c0.3,0.3,0.7,0.5,1,0.8c0.3,0.3,0.6,0.6,0.9,0.9c0.3,0.3,0.4,0.7,0.6,1.1c0.2,0.4,0.3,0.8,0.5,1.2
		c0.2,0.4,0.2,0.8,0.3,1.2c0.1,0.4,0.5,0.8,0.5,1.2c0.1,0.4,0,0.9,0,1.3c0,0.4,0.1,0.9,0.1,1.3c-0.1,0.4-0.4,0.8-0.5,1.2
		c-0.1,0.4-0.1,0.8-0.3,1.2c-0.2,0.4-0.3,0.8-0.5,1.2c-0.2,0.4-0.4,0.8-0.7,1.1c-0.3,0.3-0.8,0.5-1.1,0.8c-0.3,0.3-0.5,0.7-0.8,1
		c-0.3,0.3-0.6,0.6-1,0.8c-0.4,0.2-0.9,0.2-1.3,0.4c-0.4,0.2-0.8,0.2-1.2,0.3c-0.4,0.1-0.8,0.3-1.2,0.4c-0.4,0.1-0.8,0.2-1.3,0.2
		c-0.4,0-0.8-0.3-1.3-0.3c-0.4-0.1-0.9,0.1-1.3,0c-0.4-0.1-0.8-0.3-1.2-0.4c-0.4-0.2-0.7-0.5-1.1-0.7c-0.4-0.2-0.8-0.4-1.1-0.6
		c-0.3-0.3-0.6-0.6-0.9-0.9c-0.3-0.3-0.7-0.5-1-0.9c-0.3-0.3-0.3-0.8-0.5-1.2c-0.2-0.4-0.5-0.7-0.6-1.1c-0.2-0.4-0.4-0.8-0.5-1.2
		c-0.1-0.4-0.1-0.9-0.1-1.3c-0.1-0.4,0-0.8,0-1.3c0-0.4-0.2-0.9-0.1-1.3c0.1-0.4,0-0.9,0.1-1.3c0.1-0.4,0.6-0.7,0.8-1.1
		c0.2-0.4,0-0.9,0.2-1.3c0.2-0.4,0.6-0.6,0.9-1c0.3-0.3,0.7-0.5,1-0.8c0.3-0.3,0.6-0.6,0.9-0.8c0.3-0.3,0.6-0.6,1-0.8
		c0.4-0.2,0.8-0.4,1.2-0.6c0.4-0.2,0.8-0.3,1.2-0.4c0.4-0.1,0.8-0.1,1.3-0.2C38.2,1,38.6,0.9,39,0.9z"/>
</g>
<g>
	<path class="st1" d="M70.4,48.4c0,0.4,0.1,0.8,0.1,1.2c0,0.4-0.1,0.8-0.1,1.2c0,0.4,0,0.8-0.1,1.2c0,0.4,0,0.8-0.1,1.2
		c0,0.4-0.2,0.8-0.2,1.2c0,0.4,0.1,0.8,0,1.2c0,0.4-0.1,0.8-0.1,1.2c-0.1,0.4-0.2,0.8-0.2,1.2c-0.1,0.4-0.2,0.8-0.3,1.2
		c-0.1,0.4,0.1,0.9,0,1.3c-0.1,0.4-0.4,0.8-0.5,1.2c-0.1,0.4-0.2,0.8-0.3,1.2c-0.1,0.4,0,0.8-0.2,1.2c-0.1,0.4-0.5,0.7-0.6,1.1
		c-0.1,0.4-0.3,0.8-0.4,1.2c-0.1,0.4,0.1,0.9,0,1.3c-0.1,0.4-0.5,0.7-0.6,1.1c-0.2,0.4-0.3,0.8-0.4,1.2c-0.2,0.4-0.3,0.8-0.5,1.2
		c-0.2,0.4-0.4,0.7-0.6,1.1c-0.2,0.4-0.4,0.7-0.6,1.1c-0.2,0.4-0.4,0.7-0.6,1.1c-0.2,0.4-0.5,0.7-0.7,1c-0.2,0.3-0.6,0.6-0.8,0.9
		c-0.2,0.3-0.6,0.6-0.8,0.9c-0.3,0.3-0.4,0.7-0.7,1c-0.3,0.3-0.5,0.6-0.8,0.9c-0.3,0.3-0.5,0.6-0.8,0.9c-0.3,0.3-0.7,0.5-1,0.8
		c-0.3,0.3-0.7,0.5-1,0.8c-0.3,0.3-0.5,0.7-0.8,1c-0.3,0.3-0.7,0.5-1,0.7c-0.3,0.2-0.8,0.3-1.1,0.6c-0.3,0.2-0.6,0.6-1,0.8
		c-0.4,0.2-0.7,0.5-1,0.7c-0.4,0.2-0.9,0-1.3,0.2c-0.4,0.2-0.7,0.5-1,0.7c-0.4,0.2-0.8,0.3-1.2,0.4c-0.4,0.1-0.8,0.3-1.2,0.5
		c-0.4,0.1-0.8,0.2-1.2,0.3c-0.4,0.1-0.8,0-1.2,0.1c-0.4,0.1-0.8,0.2-1.2,0.2c-0.4,0.1-0.8,0-1.2,0.1c-0.4,0-0.8,0.2-1.2,0.2
		c-0.4,0-0.8,0.3-1.2,0.3c-0.4,0-0.8,0.1-1.2,0.1c-0.4,0-0.8-0.4-1.2-0.4c-0.4,0-0.8,0.1-1.2,0.1c-0.4,0-0.8,0.1-1.3,0.1
		c-0.4,0-0.8-0.1-1.2-0.2c-0.4-0.1-0.8-0.4-1.2-0.5c-0.4-0.1-0.9,0.1-1.3,0c-0.4-0.1-0.8-0.2-1.2-0.3c-0.4-0.1-0.8-0.3-1.2-0.5
		c-0.4-0.1-0.7-0.4-1.1-0.6c-0.4-0.2-0.7-0.3-1.1-0.5c-0.4-0.2-0.8-0.3-1.1-0.5c-0.4-0.2-0.7-0.4-1.1-0.6c-0.4-0.2-0.8-0.3-1.1-0.5
		c-0.3-0.2-0.7-0.4-1.1-0.6c-0.3-0.2-0.6-0.5-1-0.8c-0.3-0.3-0.7-0.4-1-0.7c-0.3-0.3-0.4-0.8-0.7-1.1c-0.3-0.3-0.7-0.5-0.9-0.8
		c-0.3-0.3-0.6-0.6-0.8-0.9c-0.3-0.3-0.7-0.5-1-0.8c-0.3-0.3-0.5-0.6-0.8-1c-0.3-0.3-0.3-0.8-0.5-1.1c-0.2-0.3-0.5-0.7-0.7-1
		c-0.2-0.3-0.4-0.7-0.6-1.1c-0.2-0.4-0.3-0.8-0.5-1.1c-0.2-0.4-0.5-0.6-0.7-1c-0.2-0.4-0.4-0.7-0.6-1.1c-0.2-0.4-0.2-0.8-0.4-1.2
		c-0.2-0.4-0.5-0.7-0.6-1.1c-0.2-0.4-0.4-0.7-0.5-1.1c-0.1-0.4-0.1-0.9-0.2-1.2c-0.1-0.4-0.5-0.7-0.7-1.1c-0.1-0.4-0.2-0.8-0.3-1.2
		c-0.1-0.4-0.3-0.8-0.4-1.2c-0.1-0.4-0.2-0.8-0.3-1.2c-0.1-0.4-0.1-0.8-0.2-1.2c-0.1-0.4-0.1-0.8-0.1-1.2c-0.1-0.4-0.4-0.8-0.5-1.2
		C8.8,57.8,9.1,57.4,9,57c-0.1-0.4-0.4-0.8-0.5-1.2c-0.1-0.4,0-0.8,0-1.2c0-0.4,0-0.8,0-1.2c0-0.4-0.3-0.8-0.3-1.2
		c0-0.4,0-0.8,0-1.2c0-0.4,0.2-0.8,0.2-1.2c0-0.4-0.3-0.8-0.3-1.2c0-0.4,0-0.8,0-1.2c0-0.4,0.4-0.8,0.4-1.2c0-0.4-0.2-0.8-0.1-1.3
		c0-0.4,0.2-0.8,0.2-1.2c0-0.4,0.1-0.8,0.2-1.2c0.1-0.4,0-0.9,0-1.3c0.1-0.4,0.4-0.8,0.5-1.2c0.1-0.4,0.2-0.8,0.3-1.2
		c0.1-0.4,0.1-0.8,0.2-1.2c0.1-0.4,0.4-0.7,0.5-1.1c0.1-0.4,0.2-0.8,0.4-1.2c0.1-0.4,0.3-0.8,0.4-1.2c0.2-0.4,0.3-0.8,0.5-1.1
		c0.2-0.4,0.2-0.8,0.4-1.2c0.2-0.4,0.2-0.8,0.4-1.2c0.2-0.4,0.6-0.6,0.8-0.9c0.2-0.4,0.3-0.8,0.5-1.1c0.2-0.3,0.7-0.5,0.9-0.9
		c0.2-0.3,0.3-0.8,0.6-1.1c0.3-0.3,0.6-0.6,0.9-0.9c0.3-0.3,0.5-0.7,0.8-1c0.3-0.3,0.7-0.4,1-0.7c0.3-0.3,0.4-0.8,0.7-1.1
		c0.3-0.3,0.7-0.5,1-0.7c0.3-0.3,0.8-0.4,1.1-0.6c0.3-0.2,0.5-0.7,0.9-0.9c0.3-0.2,0.7-0.5,1-0.7c0.4-0.2,0.8-0.2,1.2-0.4
		c0.4-0.2,0.6-0.6,1-0.8c0.4-0.2,0.9,0,1.3-0.2c0.4-0.2,0.6-0.6,1-0.7c0.4-0.2,0.7-0.4,1.1-0.6c0.4-0.1,0.8-0.2,1.2-0.4
		c0.4-0.1,0.8-0.2,1.2-0.3c0.4-0.1,0.8-0.2,1.2-0.3c0.4-0.1,0.8-0.1,1.2-0.2c0.4-0.1,0.8,0,1.2-0.1c0.4-0.1,0.8-0.2,1.2-0.2
		c0.4,0,0.8-0.3,1.2-0.3c0.4,0,0.8,0,1.3,0c0.4,0,0.8,0,1.2,0c0.4,0,0.8,0.4,1.2,0.4c0.4,0,0.8-0.3,1.3-0.3c0.4,0,0.8,0.3,1.2,0.4
		c0.4,0,0.8,0.2,1.2,0.2c0.4,0.1,0.8,0.2,1.2,0.2c0.4,0.1,0.9-0.1,1.3,0c0.4,0.1,0.7,0.5,1.1,0.6c0.4,0.1,0.8,0.2,1.2,0.3
		c0.4,0.1,0.9,0,1.3,0.1c0.4,0.1,0.7,0.6,1,0.7c0.4,0.2,0.8,0.2,1.2,0.4c0.4,0.2,0.8,0.2,1.2,0.4c0.4,0.2,0.6,0.6,1,0.8
		c0.4,0.2,0.9,0.2,1.2,0.4c0.4,0.2,0.7,0.4,1.1,0.7c0.3,0.2,0.5,0.8,0.8,1c0.3,0.2,0.9,0.3,1.2,0.5c0.3,0.3,0.4,0.8,0.7,1.1
		c0.3,0.3,0.6,0.5,0.9,0.8c0.3,0.3,0.6,0.5,0.9,0.8c0.3,0.3,0.6,0.6,0.8,0.9c0.3,0.3,0.5,0.6,0.8,0.9c0.3,0.3,0.5,0.6,0.8,1
		c0.2,0.3,0.6,0.6,0.8,1c0.2,0.3,0.3,0.8,0.5,1.1c0.2,0.4,0.5,0.7,0.7,1c0.2,0.4,0.3,0.8,0.5,1.1c0.2,0.4,0.8,0.5,0.9,0.9
		c0.2,0.4,0.3,0.8,0.5,1.2c0.2,0.4,0,0.9,0.1,1.3c0.1,0.4,0.5,0.7,0.6,1.1c0.1,0.4,0.4,0.8,0.5,1.2c0.1,0.4,0,0.9,0.1,1.3
		c0.1,0.4,0.1,0.8,0.2,1.2c0.1,0.4,0.5,0.7,0.5,1.2c0.1,0.4,0.2,0.8,0.2,1.2c0.1,0.4,0.2,0.8,0.2,1.2c0,0.4-0.3,0.9-0.2,1.3
		c0,0.4,0.1,0.8,0.1,1.2c0,0.4,0.3,0.8,0.3,1.2C70.5,47.5,70.4,47.9,70.4,48.4z"/>
</g>
<g>
	<path class="st1" d="M10.4,52.2c0.4,0,0.8,0.1,1.2,0.1c0.4,0.1,0.8,0.1,1.2,0.2c0.4,0.1,0.8,0.2,1.1,0.4c0.4,0.2,0.7,0.4,1,0.6
		c0.3,0.2,0.6,0.5,0.9,0.7c0.3,0.3,0.6,0.5,0.9,0.8c0.3,0.3,0.5,0.7,0.7,1c0.2,0.3,0.4,0.7,0.6,1c0.2,0.4,0.2,0.8,0.4,1.1
		c0.1,0.4,0.3,0.7,0.3,1.1c0.1,0.4,0,0.8,0,1.2c0,0.4-0.1,0.8-0.1,1.2c-0.1,0.4-0.1,0.8-0.2,1.2c-0.1,0.4-0.2,0.8-0.4,1.1
		c-0.2,0.4-0.4,0.7-0.6,1c-0.2,0.3-0.4,0.7-0.7,1c-0.3,0.3-0.6,0.6-0.9,0.8c-0.3,0.3-0.6,0.5-0.9,0.7c-0.3,0.2-0.7,0.4-1.1,0.5
		c-0.4,0.2-0.7,0.3-1.1,0.4c-0.4,0.1-0.8,0.2-1.2,0.3c-0.4,0.1-0.8,0.1-1.2,0.1c-0.4,0-0.8-0.1-1.2-0.1c-0.4-0.1-0.8-0.1-1.2-0.3
		c-0.4-0.1-0.8-0.2-1.1-0.3c-0.4-0.2-0.7-0.4-1-0.6c-0.3-0.2-0.6-0.5-0.9-0.7c-0.3-0.3-0.6-0.5-0.9-0.8c-0.3-0.3-0.5-0.6-0.7-1
		C3.2,64.8,3,64.4,2.8,64c-0.2-0.4-0.4-0.7-0.5-1.1c-0.1-0.4-0.1-0.8-0.2-1.2c-0.1-0.4-0.1-0.8-0.1-1.2c0-0.4-0.1-0.8,0-1.2
		c0.1-0.4,0.2-0.8,0.3-1.1c0.1-0.4,0.2-0.8,0.4-1.1c0.2-0.4,0.3-0.7,0.6-1.1c0.2-0.3,0.5-0.7,0.7-1c0.3-0.3,0.5-0.6,0.8-0.9
		c0.3-0.3,0.7-0.4,1-0.6c0.3-0.2,0.7-0.4,1-0.6c0.4-0.2,0.7-0.3,1.1-0.4c0.4-0.1,0.8-0.2,1.2-0.3C9.6,52.3,10,52.2,10.4,52.2z"/>
</g>
<g>
	<path class="st1" d="M69.5,52.3c0.4,0,0.8,0.1,1.2,0.1c0.4,0.1,0.8,0.1,1.2,0.3c0.4,0.1,0.8,0.2,1.1,0.3c0.4,0.2,0.7,0.4,1,0.6
		c0.3,0.2,0.7,0.4,1,0.7c0.3,0.3,0.5,0.6,0.8,0.9c0.3,0.3,0.5,0.6,0.7,0.9c0.2,0.3,0.4,0.7,0.6,1c0.2,0.4,0.3,0.7,0.4,1.1
		c0.1,0.4,0.2,0.8,0.3,1.2c0.1,0.4,0,0.8,0,1.2c0,0.4,0,0.8-0.1,1.2c-0.1,0.4-0.2,0.8-0.3,1.2c-0.1,0.4-0.2,0.8-0.4,1.1
		c-0.2,0.4-0.4,0.7-0.6,1c-0.2,0.3-0.5,0.6-0.7,0.9c-0.3,0.3-0.5,0.6-0.8,0.9c-0.3,0.3-0.7,0.4-1,0.6c-0.3,0.2-0.7,0.4-1,0.6
		c-0.4,0.2-0.7,0.3-1.1,0.4c-0.4,0.1-0.8,0.2-1.2,0.3c-0.4,0.1-0.8,0.1-1.2,0.1c-0.4,0-0.8,0-1.2,0c-0.4-0.1-0.8-0.2-1.2-0.3
		c-0.4-0.1-0.8-0.2-1.1-0.4c-0.4-0.2-0.7-0.4-1-0.6c-0.3-0.2-0.7-0.4-1-0.7c-0.3-0.3-0.6-0.5-0.9-0.8c-0.3-0.3-0.5-0.6-0.7-1
		c-0.2-0.3-0.3-0.7-0.5-1.1c-0.2-0.4-0.3-0.7-0.4-1.1c-0.1-0.4-0.3-0.8-0.3-1.2c-0.1-0.4,0-0.8,0-1.2c0-0.4,0-0.8,0.1-1.2
		c0.1-0.4,0.1-0.8,0.2-1.2c0.1-0.4,0.2-0.8,0.4-1.1c0.2-0.4,0.4-0.7,0.6-1c0.2-0.3,0.5-0.6,0.7-0.9c0.3-0.3,0.5-0.6,0.8-0.8
		c0.3-0.3,0.6-0.5,0.9-0.7c0.3-0.2,0.7-0.4,1-0.6c0.4-0.2,0.7-0.3,1.1-0.4c0.4-0.1,0.8-0.2,1.2-0.3C68.7,52.3,69.1,52.3,69.5,52.3z"
		/>
</g>
<g>
	<path class="st2" d="M26,52.5c0.4,0,0.8,0.2,1.1,0.4c0.3,0.2,0.6,0.5,0.8,0.9c0.2,0.3,0.4,0.7,0.5,1.1c0.1,0.4,0.1,0.8,0.1,1.2
		c0,0.4,0,0.8-0.1,1.2c-0.1,0.4-0.3,0.8-0.5,1.1c-0.2,0.4-0.5,0.7-0.8,0.9c-0.3,0.2-0.7,0.4-1.2,0.4c-0.4,0-0.8-0.1-1.2-0.4
		c-0.3-0.2-0.5-0.6-0.8-1c-0.2-0.3-0.4-0.7-0.5-1.1c-0.1-0.4-0.2-0.8-0.2-1.2c0-0.4,0-0.8,0.1-1.2c0.1-0.4,0.3-0.8,0.5-1.1
		c0.2-0.4,0.5-0.7,0.8-0.9C25.2,52.6,25.6,52.5,26,52.5z"/>
</g>
<g>
	<path class="st3" d="M27.7,46.1c-0.3-0.3-0.7-0.6-1-0.8c-0.4-0.2-0.8-0.5-1.2-0.6c-0.4-0.1-0.9-0.1-1.3,0c-0.4,0.1-0.9,0.2-1.3,0.4
		c-0.4,0.2-0.7,0.6-1,0.9c-0.3,0.3-0.5,0.7-0.7,1.1c-0.2,0.4-0.5,0.7-0.7,1.2"/>
</g>
<g>
	<path class="st2" d="M52,52.6c0.4,0,0.8,0.1,1.1,0.3c0.3,0.2,0.6,0.5,0.8,0.9c0.2,0.3,0.4,0.7,0.5,1.1c0.1,0.4,0.2,0.8,0.2,1.2
		c0,0.4-0.1,0.8-0.2,1.2c-0.1,0.4-0.2,0.8-0.4,1.2c-0.2,0.4-0.5,0.7-0.8,0.9c-0.3,0.2-0.7,0.4-1.2,0.4c-0.4,0-0.8-0.2-1.1-0.4
		c-0.3-0.2-0.6-0.5-0.8-0.9c-0.2-0.3-0.4-0.7-0.5-1.1c-0.1-0.4-0.2-0.8-0.2-1.2c0-0.4,0.1-0.8,0.2-1.2c0.1-0.4,0.3-0.8,0.5-1.1
		c0.2-0.4,0.6-0.6,0.9-0.8C51.2,52.7,51.6,52.6,52,52.6z"/>
</g>
<g>
	<path class="st3" d="M50.2,46c0.3-0.3,0.7-0.5,1.1-0.7c0.4-0.2,0.8-0.4,1.2-0.5c0.4-0.1,0.9-0.2,1.3-0.1c0.4,0.1,0.8,0.3,1.2,0.5
		c0.4,0.2,0.7,0.5,1,0.8c0.3,0.3,0.5,0.7,0.8,1.1c0.2,0.4,0.5,0.7,0.6,1.2"/>
</g>
<g>
	<path class="st4" d="M46.1,73.9c0.6,0.2-0.2,0.4-0.7,1c-0.2,0.3-0.4,0.7-0.8,1c-0.3,0.3-0.5,0.6-0.9,0.9c-0.3,0.3-0.7,0.5-1,0.7
		c-0.4,0.2-0.7,0.4-1.1,0.5c-0.4,0.1-0.8,0.2-1.2,0.3c-0.4,0.1-0.8,0.2-1.2,0.2c-0.4,0-0.9,0-1.3-0.1c-0.4-0.1-0.8-0.2-1.2-0.4
		c-0.4-0.2-0.8-0.3-1.1-0.5c-0.4-0.2-0.7-0.5-1-0.7c-0.3-0.3-0.6-0.6-0.9-0.9c-0.3-0.3-0.6-0.7-0.8-1c-0.4-0.6-1.2-0.8-0.7-1.1
		c0.6-0.2,0.6,0,1.3,0c0.6,0,0.6,0,1.3,0c0.6,0,0.6,0,1.3,0c0.6,0,0.6-0.1,1.3-0.1c0.6,0,0.6,0,1.3,0c0.6,0,0.6,0,1.3,0
		c0.6,0,0.6,0,1.3,0c0.6,0,0.6,0,1.3,0c0.6,0,0.6,0,1.3,0c0.6,0,0.6,0.1,1.3,0C45.5,73.8,45.5,73.7,46.1,73.9z"/>
	<path class="st5" d="M46.1,73.9c0.6,0.2-0.2,0.4-0.7,1c-0.2,0.3-0.4,0.7-0.8,1c-0.3,0.3-0.5,0.6-0.9,0.9c-0.3,0.3-0.7,0.5-1,0.7
		c-0.4,0.2-0.7,0.4-1.1,0.5c-0.4,0.1-0.8,0.2-1.2,0.3c-0.4,0.1-0.8,0.2-1.2,0.2c-0.4,0-0.9,0-1.3-0.1c-0.4-0.1-0.8-0.2-1.2-0.4
		c-0.4-0.2-0.8-0.3-1.1-0.5c-0.4-0.2-0.7-0.5-1-0.7c-0.3-0.3-0.6-0.6-0.9-0.9c-0.3-0.3-0.6-0.7-0.8-1c-0.4-0.6-1.2-0.8-0.7-1.1
		c0.6-0.2,0.6,0,1.3,0c0.6,0,0.6,0,1.3,0c0.6,0,0.6,0,1.3,0c0.6,0,0.6-0.1,1.3-0.1c0.6,0,0.6,0,1.3,0c0.6,0,0.6,0,1.3,0
		c0.6,0,0.6,0,1.3,0c0.6,0,0.6,0,1.3,0c0.6,0,0.6,0,1.3,0c0.6,0,0.6,0.1,1.3,0C45.5,73.8,45.5,73.7,46.1,73.9z"/>
</g>
<g>
	<path class="st1" d="M44.2,95.9c-0.1-0.6,0-0.6-0.1-1.3C44.1,94,44,94,44,93.3c-0.1-0.7-0.2-0.6-0.3-1.3c-0.1-0.7,0-0.7-0.1-1.3
		c-0.1-0.7,0.1-0.7,0.1-1.3c-0.1-0.7-0.1-0.7-0.1-1.3c-0.1-0.7-0.2-0.6-0.3-1.3c-0.1-0.7,0.2-0.7,0.1-1.3c-0.1-0.7-0.1-0.6-0.2-1.3
		c-0.1-0.7,0-0.7-0.1-1.3c-0.1-0.7,0.4-0.9-0.1-1.3c-0.5-0.4-0.7-0.1-1.3-0.1c-0.7,0-0.7-0.1-1.3-0.1c-0.7,0-0.7,0.1-1.3,0.1
		c-0.7,0-0.7-0.1-1.3-0.1c-0.7,0-0.7,0-1.3,0c-0.7,0-0.9-0.4-1.4,0.1c-0.5,0.4,0,0.7-0.1,1.4c-0.1,0.7-0.1,0.7-0.1,1.3
		c-0.1,0.7,0,0.7,0,1.3c-0.1,0.7-0.1,0.7-0.1,1.3c-0.1,0.7,0,0.7,0,1.3c-0.1,0.7,0,0.7-0.1,1.3c-0.1,0.7-0.2,0.6-0.3,1.3
		c-0.1,0.7,0.1,0.7,0.1,1.3c-0.1,0.7-0.3,0.6-0.3,1.3c-0.1,0.7,0,0.7,0,1.3c-0.1,0.7-0.1,0.7-0.2,1.3c-0.2,0.2-0.5,0.5-0.8,0.9
		c-0.2,0.3-0.3,0.8-0.6,1.1c-0.2,0.3-0.5,0.7-0.7,1c-0.2,0.3-0.5,0.6-0.8,1c-0.2,0.3-0.6,0.6-0.9,0.9c-0.2,0.3-0.5,0.7-0.7,1
		c-0.2,0.3-0.4,0.8-0.6,1.1c-0.2,0.3-0.6,0.6-0.8,1c-0.2,0.3-0.4,0.8-0.6,1.1c-0.2,0.3-0.6,0.6-0.8,1c-0.2,0.3-0.5,0.7-0.7,1
		c-0.2,0.3-0.5,0.7-0.7,1.1c-0.2,0.3-0.5,0.7-0.8,1c-0.2,0.4-0.3,0.8-0.6,1.1c-0.2,0.4-0.6,0.6-0.8,1c-0.2,0.4-0.4,0.8-0.6,1.1
		c-0.2,0.4-0.4,0.8-0.6,1.1c-0.2,0.4-0.4,0.7-0.7,1.1c-0.2,0.4-0.6,0.6-0.8,1c-0.2,0.4-0.3,0.8-0.5,1.2c-0.2,0.4-0.3,0.8-0.5,1.2
		c-0.2,0.4-0.6,0.6-0.8,1c-0.2,0.4-0.4,0.8-0.6,1.1c-0.2,0.4-0.3,0.8-0.5,1.2c-0.2,0.4-0.4,0.7-0.6,1.1c-0.2,0.4-0.4,0.8-0.6,1.1
		c-0.2,0.4-0.3,0.8-0.5,1.2c-0.2,0.4-0.5,0.7-0.6,1.1c-0.2,0.4-0.3,0.8-0.5,1.2c-0.2,0.4-0.2,0.8-0.4,1.2c-0.2,0.4-0.5,0.7-0.6,1.1
		c-0.2,0.4-0.3,0.7-0.4,1.1c0.6,0.2,0.6,0.2,1.2,0.2c0.6,0,0.6-0.2,1.3-0.2c0.6,0,0.6,0.2,1.3,0.2c0.6,0,0.6-0.2,1.3-0.2
		c0.6,0,0.6,0,1.3,0c0.6,0,0.6,0.2,1.3,0.2c0.6,0,0.6-0.2,1.3-0.2c0.6,0,0.6,0.2,1.3,0.2c0.6,0,0.6,0,1.3,0c0.6,0,0.6,0,1.3,0
		c0.6,0,0.6-0.1,1.3-0.1c0.6,0,0.6,0.1,1.3,0.1c0.6,0,0.6-0.1,1.3-0.1c0.6,0,0.6,0.1,1.3,0.1c0.6,0,0.6-0.1,1.3-0.1
		c0.6,0,0.6,0.1,1.3,0.1c0.6,0,0.6,0,1.3,0c0.6,0,0.6-0.2,1.3-0.2c0.6,0,0.6-0.1,1.3-0.1c0.6,0,0.6,0.1,1.3,0.1c0.3,0,0.3,0,0.6,0
		c0.6,0,0.6,0.2,1.3,0.2c0.6,0,0.6-0.3,1.3-0.3c0.6,0,0.6,0.1,1.3,0.1c0.6,0,0.6,0.1,1.3,0.1c0.6,0,0.6-0.2,1.3-0.2
		c0.6,0,0.6,0,1.3,0c0.6,0,0.6-0.1,1.3-0.1c0.6,0,0.6,0,1.3,0c0.6,0,0.6,0.1,1.3,0.1c0.6,0,0.6,0.1,1.3,0.1c0.6,0,0.6,0.1,1.3,0.1
		c0.6,0,0.6-0.2,1.3-0.2c0.6,0,0.6,0.1,1.3,0.1c0.6,0,0.6-0.1,1.3-0.1c0.6,0,0.6-0.1,1.3-0.1c0.6,0,0.6,0.2,1.3,0.2
		c0.6,0,0.6,0,1.3,0c0.6,0,0.6-0.1,1.3-0.1c0.6,0,0.6,0,1.3,0s0.6,0.2,1.3,0c-0.1-0.4-0.3-0.7-0.4-1.1c-0.2-0.4-0.2-0.8-0.4-1.2
		c-0.2-0.4-0.4-0.7-0.6-1.1c-0.2-0.4-0.4-0.7-0.6-1.1c-0.2-0.4-0.2-0.8-0.4-1.2c-0.2-0.4-0.4-0.8-0.6-1.1c-0.2-0.4-0.5-0.7-0.7-1.1
		c-0.2-0.4-0.3-0.8-0.5-1.2c-0.2-0.4-0.4-0.7-0.6-1.1c-0.2-0.4-0.4-0.7-0.6-1.1c-0.2-0.4-0.2-0.8-0.4-1.2c-0.2-0.4-0.4-0.7-0.6-1.1
		c-0.2-0.4-0.7-0.6-0.9-1c-0.2-0.4-0.2-0.9-0.4-1.2c-0.2-0.4-0.6-0.6-0.9-1c-0.2-0.4-0.4-0.8-0.6-1.1c-0.2-0.4-0.5-0.7-0.8-1
		c-0.2-0.4-0.4-0.8-0.6-1.1c-0.2-0.4-0.4-0.7-0.7-1.1c-0.2-0.4-0.3-0.8-0.5-1.2c-0.2-0.4-0.6-0.6-0.8-1c-0.2-0.4-0.5-0.7-0.7-1.1
		c-0.2-0.4-0.6-0.6-0.9-0.9c-0.2-0.4-0.4-0.8-0.6-1.1c-0.2-0.4-0.5-0.7-0.8-1c-0.3-0.4-0.5-0.7-0.7-1.1c-0.3-0.4-0.6-0.6-0.8-1
		c-0.3-0.4-0.4-0.8-0.7-1.1c-0.3-0.4-0.6-0.6-0.9-1c-0.3-0.4-0.3-0.9-0.5-1.2c-0.3-0.4-0.5-0.7-0.8-1C44.7,96.4,44.4,96.2,44.2,95.9
		z"/>
</g>
<g>
	<path class="st3" d="M48.2,101c-0.3-0.4-0.6-0.7-0.8-1.1c-0.3-0.4-0.5-0.8-0.8-1.1c-0.3-0.4-0.7-0.7-1-1c-0.3-0.4-0.6-0.8-0.8-1.1
		c-0.5-0.7-0.7-0.4-0.8-1.1c-0.2-0.7,0.1-0.7,0.1-1.4c0-0.7-0.2-0.7-0.3-1.4c0-0.7-0.1-0.7-0.1-1.4c-0.1-0.7-0.1-0.7-0.1-1.4
		c-0.1-0.7,0-0.7,0.1-1.4c0.4-0.1,0.7-0.3,1.1-0.4c0.4-0.1,0.9,0,1.3-0.1c0.4-0.1,0.8-0.3,1.2-0.4c0.4-0.1,0.9,0,1.3-0.2
		c0.4-0.1,0.7-0.6,1.1-0.7c0.4-0.2,0.9,0,1.3-0.2c0.4-0.2,0.8-0.3,1.2-0.5c0.4-0.2,0.6-0.6,1-0.9c0.4-0.2,0.7-0.4,1.1-0.7
		c0.4-0.2,0.8-0.3,1.2-0.5c0.3-0.2,0.7-0.5,1-0.7c0.3-0.3,0.7-0.5,1-0.8c0.3-0.3,0.7-0.5,1-0.8c0.3-0.3,0.6-0.6,0.9-0.9
		c0.3-0.3,0.5-0.7,0.8-1c0.3-0.3,0.7-0.5,0.9-0.9c0.3-0.3,0.4-0.8,0.7-1.1c0.3-0.3,0.6-0.6,0.9-0.9c0.2-0.3,0.5-0.7,0.7-1.1
		c0.2-0.4,0.5-0.7,0.7-1c0.2-0.4,0.3-0.8,0.5-1.2c0.2-0.4,0.4-0.8,0.6-1.1c0.2-0.4,0.5-0.7,0.7-1.1c0.2-0.4,0.3-0.8,0.5-1.2
		c0.2-0.4,0.5-0.7,0.7-1.1c0.2-0.4,0.3-0.8,0.4-1.2c0.6,0.1,1.2,0.3,1.8,0.3c0.4,0,0.8,0,1.2-0.1c0.4-0.1,0.8-0.2,1.2-0.3
		c0.4-0.1,0.7-0.4,1.1-0.5c0.4-0.2,0.8-0.2,1.1-0.5c0.3-0.2,0.7-0.5,1-0.7c0.3-0.3,0.4-0.7,0.7-1c0.3-0.3,0.6-0.6,0.8-0.9
		c0.2-0.3,0.3-0.7,0.5-1.1c0.2-0.4,0.4-0.7,0.5-1.1c0.1-0.4,0.2-0.8,0.2-1.2c0.1-0.4,0.3-0.8,0.3-1.2c0-0.4-0.2-0.9-0.2-1.3
		c-0.1-0.4-0.2-0.9-0.3-1.3c-0.1-0.4-0.4-0.8-0.6-1.2c-0.2-0.4-0.5-0.7-0.7-1.1c-0.3-0.4-0.4-0.8-0.7-1.1c-0.3-0.3-0.6-0.7-0.9-0.9
		c-0.3-0.3-0.8-0.3-1.2-0.5c-0.4-0.2-0.7-0.6-1.1-0.7c-0.4-0.1-0.8-0.2-1.2-0.3c0-0.4,0.1-0.7,0.1-1.1c0-0.4-0.2-0.7-0.2-1.1
		c0-0.4,0-0.7,0-1.1c0-0.4,0.3-0.8,0.3-1.2c0-0.4-0.3-0.8-0.3-1.2c0-0.4,0.2-0.8,0.2-1.2c0-0.4-0.2-0.8-0.3-1.2
		c0-0.4-0.2-0.8-0.3-1.2"/>
</g>
<g>
	<path class="st3" d="M8.5,42.6c-0.1,0.4,0,0.9,0,1.4c0,0.4,0.1,0.9,0,1.4c0,0.4-0.2,0.9-0.2,1.3c0,0.4,0,0.9,0,1.4
		c0,0.4-0.1,0.7-0.1,1.1c0,0.4,0,0.7,0,1.1c0,0.4,0.2,0.8,0.3,1.1c-0.4,0.1-0.9,0.1-1.3,0.3c-0.4,0.1-0.8,0.5-1.1,0.7
		c-0.4,0.2-0.8,0.4-1.1,0.6c-0.4,0.3-0.6,0.6-0.9,0.9c-0.3,0.3-0.6,0.6-0.8,1c-0.3,0.4-0.5,0.7-0.7,1.1c-0.2,0.4-0.5,0.7-0.7,1.2
		c-0.1,0.4-0.1,0.9-0.2,1.3c-0.1,0.4-0.1,0.9-0.1,1.3c0,0.4-0.2,0.8-0.1,1.2c0.1,0.4,0.2,0.8,0.3,1.2c0.1,0.4,0.4,0.7,0.6,1.1
		c0.2,0.4,0.3,0.8,0.5,1.1c0.2,0.3,0.5,0.7,0.7,1c0.3,0.3,0.5,0.6,0.8,0.9c0.3,0.3,0.8,0.3,1.1,0.6c0.3,0.2,0.6,0.5,1,0.7
		c0.4,0.2,0.8,0.1,1.2,0.2c0.4,0.1,0.7,0.5,1.1,0.5c0.4,0.1,0.8-0.2,1.2-0.2c0.6,0,1.4-0.1,1.9-0.2c0.2,0.4,0.3,0.9,0.4,1.3
		c0.2,0.4,0.4,0.8,0.6,1.1c0.2,0.4,0.1,0.9,0.3,1.3c0.2,0.4,0.4,0.8,0.6,1.1c0.2,0.4,0.4,0.7,0.6,1.1c0.2,0.4,0.7,0.6,0.9,1
		c0.2,0.4,0.4,0.7,0.7,1.1c0.2,0.4,0.5,0.7,0.7,1.1c0.2,0.3,0.3,0.8,0.6,1.1c0.3,0.3,0.6,0.6,0.9,0.9c0.3,0.3,0.5,0.7,0.8,1
		c0.3,0.3,0.5,0.7,0.8,1c0.3,0.3,0.6,0.6,0.9,0.9c0.3,0.3,0.6,0.6,0.9,0.9c0.3,0.3,0.8,0.3,1.2,0.6c0.3,0.3,0.6,0.6,1,0.8
		c0.3,0.2,0.7,0.5,1,0.8c0.4,0.2,0.7,0.4,1.1,0.6c0.4,0.2,0.8,0.3,1.2,0.5c0.4,0.2,0.7,0.5,1.1,0.6c0.4,0.2,0.8,0.4,1.2,0.5
		c0.4,0.1,0.9,0.1,1.3,0.2c0.4,0.1,0.8,0.4,1.2,0.5c0.4,0.1,0.8,0.2,1.2,0.3c0.4,0.1,0.8,0.1,1.3,0.2c0.4,0.1,0.9,0.1,1.3,0.2
		c0.2,0.7-0.1,0.7-0.1,1.4c0,0.7-0.1,0.7-0.1,1.4c0,0.7,0.2,0.7,0.1,1.4c0,0.7-0.2,0.7-0.3,1.4s0.3,0.7,0.2,1.4
		c-0.2,0.7-0.5,0.3-1.1,1c-0.2,0.3-0.4,0.7-0.8,1.2c-0.3,0.3-0.6,0.7-0.9,1.1c-0.3,0.3-0.4,0.8-0.7,1.2c-0.3,0.4-0.7,0.6-0.9,1"/>
</g>
<g>
	<path class="st6" d="M51,100.3c-0.3,0.2-0.6,0.4-1.1,0.5c-0.4,0.1-0.8,0.2-1.2,0.3c-0.4,0.1-0.8,0.2-1.2,0.3
		c-0.4,0.1-0.8,0.2-1.2,0.3c-0.4,0.1-0.8,0.3-1.2,0.3c-0.4,0.1-0.8,0-1.2,0.1c-0.4,0.1-0.8,0.1-1.2,0.2c-0.4,0.1-0.9-0.1-1.2,0
		c-0.4,0.1-0.8,0.2-1.2,0.3c-0.5,0-0.9,0.2-1.2,0.2c-0.3,0-0.7-0.3-1.2-0.3c-0.4,0-0.8,0-1.2,0c-0.4,0-0.8-0.1-1.2-0.2
		c-0.4-0.1-0.8-0.2-1.2-0.3c-0.4-0.1-0.8,0-1.2-0.1c-0.4-0.1-0.8-0.3-1.2-0.4c-0.4-0.1-0.8-0.2-1.2-0.3c-0.4-0.1-0.8-0.1-1.2-0.2
		c-0.4-0.1-0.7-0.5-1.1-0.6c-0.4-0.2-0.9-0.2-1.2-0.4c-0.3,0.2-0.5,0.6-0.8,0.9c-0.3,0.3-0.4,0.7-0.7,1c-0.2,0.3-0.6,0.6-0.8,0.9
		c-0.2,0.3-0.5,0.6-0.8,1c-0.2,0.3-0.4,0.7-0.6,1.1c-0.2,0.3-0.5,0.6-0.8,1c-0.2,0.3-0.3,0.8-0.6,1.1c-0.2,0.3-0.4,0.7-0.6,1.1
		c-0.2,0.3-0.5,0.6-0.7,1c-0.2,0.4-0.5,0.6-0.7,1c-0.2,0.4-0.3,0.8-0.5,1.1c-0.2,0.4-0.4,0.7-0.6,1.1c-0.2,0.4-0.4,0.7-0.6,1.1
		c-0.2,0.4-0.5,0.7-0.7,1c-0.2,0.4-0.5,0.7-0.7,1.1c-0.2,0.4-0.3,0.8-0.5,1.1c-0.2,0.4-0.3,0.8-0.5,1.1c-0.2,0.4-0.5,0.7-0.7,1.1
		c-0.2,0.4-0.2,0.8-0.4,1.2c-0.2,0.4-0.4,0.8-0.6,1.1c-0.2,0.4-0.3,0.8-0.5,1.1c-0.2,0.4-0.3,0.8-0.4,1.2c-0.2,0.4-0.6,0.7-0.7,1
		c-0.2,0.4-0.1,0.9-0.3,1.2c-0.2,0.4-0.5,0.7-0.6,1.1c-0.2,0.4-0.3,0.8-0.4,1.2c-0.1,0.4-0.2,0.8-0.3,1.2c-0.1,0.5-0.3,1-0.4,1.3
		c0.6,0.2,0.7-0.2,1.3-0.2c0.6,0,0.6,0,1.2,0c0.6,0,0.6,0.1,1.2,0.1c0.6,0,0.6,0,1.2,0c0.6,0,0.6,0.1,1.2,0.1c0.6,0,0.6-0.1,1.2-0.1
		c0.6,0,0.6,0,1.2,0c0.6,0,0.6,0.1,1.2,0.1c0.6,0,0.6-0.1,1.2-0.1c0.6,0,0.6,0,1.2,0c0.6,0,0.6-0.1,1.2-0.1c0.6,0,0.6,0,1.2,0
		c0.6,0,0.6,0.1,1.2,0.1c0.6,0,0.6,0.1,1.2,0.1c0.6,0,0.6-0.2,1.2-0.2c0.6,0,0.6,0.3,1.2,0.3c0.6,0,0.6-0.2,1.2-0.2
		c0.6,0,0.6,0.2,1.2,0.2c0.6,0,0.6-0.2,1.2-0.2c0.6,0,0.6,0.2,1.2,0.2c0.6,0,0.6-0.2,1.2-0.2c0.6,0,0.6,0.2,1.2,0.2
		c0.6,0,0.6,0,1.2,0c0.6,0,0.6-0.1,1.2-0.1c0.6,0,0.6,0.2,1.2,0.2c0.6,0,0.6-0.2,1.2-0.2c0.6,0,0.6,0,1.2,0c0.6,0,0.6,0.3,1.2,0.3
		c0.6,0,0.6,0,1.2,0c0.6,0,0.6,0,1.2,0c0.6,0,0.6-0.2,1.2-0.2c0.6,0,0.6,0.2,1.2,0.2c0.6,0,0.6-0.1,1.2-0.1c0.6,0,0.6-0.2,1.2-0.2
		c0.6,0,0.6,0,1.2,0c0.6,0,0.6,0.3,1.2,0.3c0.6,0,0.6-0.3,1.2-0.3c0.6,0,0.6,0,1.2,0c0.6,0,0.6,0.2,1.2,0.2c0.6,0,0.6-0.3,1.2-0.3
		c0.6,0,0.6,0.2,1.2,0.2c0.6,0,0.6-0.1,1.2-0.1c0.6,0,0.6,0.2,1.2,0.2c0.6,0,0.6,0,1.2,0c0.6,0,0.6-0.1,1.2-0.1s0.7,0.2,1.3,0.1
		c-0.1-0.3-0.1-0.9-0.2-1.3c-0.1-0.4-0.5-0.7-0.6-1.1c-0.1-0.4-0.2-0.8-0.3-1.2c-0.1-0.4-0.3-0.8-0.4-1.2c-0.1-0.4-0.3-0.7-0.5-1.1
		c-0.2-0.4-0.1-0.8-0.3-1.2c-0.2-0.4-0.3-0.8-0.5-1.1c-0.2-0.4-0.3-0.7-0.5-1.1c-0.2-0.4-0.6-0.6-0.8-1c-0.2-0.4-0.2-0.8-0.4-1.2
		c-0.2-0.4-0.3-0.8-0.5-1.1c-0.2-0.4-0.4-0.8-0.5-1.1c-0.2-0.4-0.4-0.7-0.6-1.1c-0.2-0.4-0.6-0.6-0.8-1c-0.2-0.4-0.2-0.8-0.4-1.2
		c-0.2-0.4-0.4-0.8-0.6-1.1c-0.2-0.4-0.7-0.6-0.9-0.9c-0.2-0.4-0.4-0.7-0.6-1.1c-0.2-0.4-0.4-0.8-0.6-1.1c-0.2-0.4-0.2-0.8-0.5-1.2
		c-0.2-0.4-0.5-0.7-0.7-1c-0.2-0.4-0.4-0.7-0.6-1.1c-0.2-0.4-0.5-0.7-0.8-1c-0.2-0.4-0.7-0.6-0.9-0.9c-0.2-0.4-0.5-0.7-0.7-1
		c-0.3-0.3-0.5-0.7-0.7-1c-0.3-0.3-0.6-0.6-0.8-0.9C51.5,100.8,51.3,100.6,51,100.3z"/>
</g>
<g>
	<path class="st7" d="M38.9,61.1c-0.3,0.3-0.6,0.7-1,1c-0.3,0.3-0.6,0.8-0.8,1.1c-0.3,0.4-0.7,0.8-0.7,1.2c0,0.6,0.3,1.1,0.7,1.4
		c0.3,0.3,0.8,0.5,1.4,0.8"/>
</g>
<g>
	<path class="st0" d="M39,19.9c0.2,0.4,0.3,0.7,0.5,1.1c0.2,0.4,0.5,0.7,0.7,1c0.2,0.4,0.7,0.5,0.9,0.9c0.2,0.4,0.3,0.8,0.6,1.1
		c0.2,0.3,0.4,0.8,0.6,1.1c0.3,0.3,0.7,0.5,1,0.8c0.3,0.3,0.6,0.6,0.8,0.9c0.3,0.3,0.4,0.8,0.7,1.1c0.3,0.3,0.6,0.6,0.9,0.9
		c0.3,0.3,0.6,0.6,0.9,0.9c0.3,0.3,0.7,0.4,1.1,0.7c0.3,0.3,0.5,0.8,0.8,1c0.3,0.3,0.6,0.6,0.9,0.9c0.3,0.3,0.7,0.5,1,0.7
		c0.3,0.3,0.8,0.4,1.1,0.6c0.3,0.2,0.7,0.4,1.1,0.7c0.4,0.2,0.7,0.4,1.1,0.6c0.4,0.2,0.7,0.4,1.1,0.7c0.4,0.2,0.7,0.4,1.1,0.6
		c0.4,0.2,0.6,0.7,1,0.9c0.4,0.2,0.8,0.3,1.2,0.4c0.4,0.2,0.8,0.4,1.1,0.5c0.4,0.2,0.8,0.3,1.2,0.4c0.4,0.2,0.8,0.2,1.2,0.3
		c0.4,0.1,0.8,0.3,1.2,0.4c0.4,0.1,0.8,0.4,1.2,0.5c0.4,0.1,0.9,0.1,1.3,0.1c0.4,0.1,0.8,0.2,1.2,0.2c0.4,0.1,0.8,0.2,1.2,0.2
		c0.5,0.1,0.8,0.4,1.2,0.4c0.5,0,0.8-0.1,1.2-0.1c-0.1-0.4,0.1-0.8,0-1.2c-0.1-0.4-0.5-0.8-0.6-1.2c-0.1-0.4,0.1-0.9,0-1.3
		c-0.1-0.4-0.2-0.8-0.4-1.2c-0.1-0.4-0.4-0.8-0.6-1.2c-0.1-0.4-0.4-0.8-0.5-1.2c-0.2-0.4-0.1-0.9-0.3-1.3c-0.2-0.4-0.4-0.8-0.6-1.2
		c-0.2-0.4-0.5-0.7-0.7-1.1c-0.2-0.4-0.3-0.8-0.5-1.2c-0.2-0.4-0.7-0.6-0.9-0.9c-0.2-0.4-0.2-0.9-0.5-1.2c-0.3-0.3-0.7-0.6-0.9-0.9
		c-0.3-0.3-0.6-0.6-0.9-0.9c-0.3-0.3-0.4-0.8-0.7-1.1c-0.3-0.3-0.7-0.5-1-0.8c-0.3-0.3-0.5-0.7-0.8-1c-0.3-0.3-0.7-0.5-1.1-0.7
		c-0.3-0.3-0.5-0.7-0.9-0.9c-0.3-0.3-0.7-0.5-1-0.7c-0.3-0.2-0.8-0.3-1.2-0.5c-0.4-0.2-0.7-0.5-1.1-0.7c-0.4-0.2-0.7-0.6-1-0.8
		c-0.4-0.2-0.9-0.2-1.2-0.4c-0.4-0.2-0.8-0.3-1.2-0.5c-0.4-0.2-0.8-0.3-1.2-0.5C49.8,16,49.4,16,49,15.8c-0.4-0.1-0.7-0.5-1.1-0.7
		c-0.4-0.1-0.9,0-1.3-0.1c-0.4-0.1-0.8-0.4-1.2-0.5c-0.4-0.1-0.8-0.2-1.3-0.2c-0.4-0.1-0.9,0.1-1.3,0.1c-0.4,0-0.8-0.1-1.3-0.2
		c-0.4,0-0.8-0.1-1.3-0.1c-0.4,0-0.8-0.2-1.3-0.2c-0.4,0-0.9,0.2-1.3,0.2c-0.4,0-0.8,0.2-1.3,0.2c-0.4,0-0.8,0-1.3,0.1
		c-0.4,0-0.9-0.1-1.3,0c-0.4,0.1-0.9,0-1.3,0.1c-0.4,0.1-0.8,0.4-1.2,0.5c-0.4,0.1-0.8,0.2-1.2,0.3c-0.4,0.1-0.8,0.2-1.2,0.3
		c-0.4,0.1-0.9,0.1-1.3,0.3c-0.4,0.1-0.8,0.4-1.1,0.6c-0.4,0.2-0.9,0.2-1.2,0.3c-0.4,0.2-0.6,0.6-1,0.8c-0.4,0.2-0.8,0.3-1.2,0.5
		c-0.4,0.2-0.7,0.5-1,0.7c-0.4,0.2-0.7,0.4-1.1,0.7c-0.3,0.2-0.7,0.5-1,0.8c-0.3,0.3-0.7,0.5-1,0.8c-0.3,0.3-0.6,0.6-0.9,0.9
		c-0.3,0.3-0.7,0.5-1,0.8c-0.3,0.3-0.6,0.6-0.9,0.9c-0.3,0.3-0.5,0.7-0.7,1c-0.3,0.3-0.6,0.6-0.9,0.9c-0.3,0.3-0.6,0.6-0.8,1
		c-0.2,0.3-0.5,0.7-0.7,1.1c-0.2,0.4-0.6,0.6-0.8,1c-0.2,0.4-0.5,0.7-0.7,1.1c-0.2,0.4-0.3,0.8-0.5,1.2c-0.2,0.4-0.5,0.7-0.6,1.1
		c-0.2,0.4-0.1,0.9-0.3,1.3c-0.2,0.4-0.3,0.8-0.5,1.2c-0.1,0.4-0.5,0.7-0.6,1.1C9,36.1,8.9,36.6,8.8,37c-0.1,0.4-0.4,0.8-0.5,1.2
		C8.2,38.6,8.1,39,8,39.4c-0.1,0.4,0.1,0.8,0.1,1.2c0.3,0,0.6,0.1,1.1,0c0.4,0,0.8,0.1,1.3,0.1c0.4-0.1,0.8-0.2,1.2-0.3
		c0.4-0.1,0.8-0.3,1.2-0.4c0.4-0.1,0.8-0.1,1.3-0.2c0.4-0.1,0.7-0.4,1.2-0.5c0.4-0.1,0.8-0.3,1.2-0.4c0.4-0.1,0.9-0.1,1.3-0.2
		c0.4-0.1,0.7-0.4,1.1-0.5c0.4-0.2,0.7-0.4,1.1-0.6c0.4-0.2,0.8-0.2,1.2-0.4c0.4-0.2,0.7-0.5,1.1-0.7c0.4-0.2,0.7-0.4,1.1-0.7
		c0.4-0.2,0.7-0.4,1.1-0.6c0.4-0.2,0.7-0.5,1-0.7c0.3-0.2,0.8-0.3,1.2-0.5c0.3-0.2,0.6-0.6,0.9-0.9c0.3-0.3,0.7-0.5,1-0.8
		c0.3-0.3,0.7-0.4,1-0.7c0.3-0.3,0.5-0.7,0.8-1c0.3-0.3,0.7-0.5,1-0.8c0.3-0.3,0.6-0.6,0.9-0.9c0.3-0.3,0.6-0.6,0.9-0.9
		c0.3-0.3,0.6-0.6,0.9-0.9c0.3-0.3,0.3-0.8,0.6-1.1c0.3-0.3,0.5-0.7,0.8-1c0.3-0.3,0.7-0.6,0.9-0.9c0.2-0.3,0.4-0.7,0.6-1.1
		c0.2-0.3,0.5-0.7,0.7-1.1c0.2-0.4,0.6-0.6,0.9-1C38.7,20.6,38.8,20.2,39,19.9z"/>
</g>
</svg>
