<?xml version="1.0" encoding="utf-8"?>
<!-- Generator: Adobe Illustrator 24.1.2, SVG Export Plug-In . SVG Version: 6.00 Build 0)  -->
<svg version="1.1" id="レイヤー_1" xmlns="http://www.w3.org/2000/svg" xmlns:xlink="http://www.w3.org/1999/xlink" x="0px"
	 y="0px" viewBox="0 0 80 120" style="enable-background:new 0 0 80 120;" xml:space="preserve">
<style type="text/css">
	.st0{fill:#5C2B00;}
	.st1{fill:#FFEFDA;}
	.st2{fill:#392214;}
	.st3{fill:none;stroke:#392214;stroke-width:1.8;stroke-linecap:round;stroke-linejoin:round;stroke-miterlimit:10;}
	.st4{fill:#FF775C;}
	.st5{fill:none;stroke:#FF775C;stroke-width:1.5;stroke-linecap:round;stroke-linejoin:round;stroke-miterlimit:10;}
	.st6{fill:none;stroke:#FFB08B;stroke-width:1.8;stroke-linecap:round;stroke-linejoin:round;stroke-miterlimit:10;}
	.st7{fill:#A2D9FF;}
</style>
<g>
	<path class="st0" d="M60.7,60.1c0.3,0.1,0.6,0.3,0.9,0.4c0.3,0.1,0.5,0.2,0.8,0.3c0.3,0.1,0.7-0.1,1,0c0.3,0.1,0.4,0.4,0.7,0.6
		c0.3,0.1,0.5,0.4,0.7,0.5c0.3,0.1,0.6,0.2,0.8,0.3c0.2,0.1,0.5,0.3,0.8,0.4c0.2,0.2,0.5,0.3,0.7,0.5c0.2,0.2,0.4,0.4,0.7,0.6
		c0.2,0.2,0.4,0.4,0.6,0.6c0.2,0.2,0.4,0.4,0.6,0.6c0.2,0.2,0.5,0.3,0.7,0.5c0.2,0.2,0.3,0.5,0.5,0.7c0.2,0.2,0.5,0.3,0.7,0.5
		c0.2,0.2,0.2,0.6,0.4,0.8c0.2,0.2,0.7,0.2,0.9,0.4c0.2,0.2,0.3,0.5,0.4,0.8c0.2,0.2,0.2,0.6,0.3,0.8c0.2,0.2,0.2,0.5,0.4,0.8
		c0.1,0.3,0.3,0.5,0.4,0.8c0.1,0.3,0.3,0.5,0.4,0.8c0.1,0.3,0.3,0.5,0.4,0.8c0.1,0.3,0.3,0.5,0.4,0.8c0.1,0.3,0.3,0.5,0.4,0.8
		c0.1,0.3,0,0.6,0.1,0.9c0.1,0.3,0.3,0.5,0.4,0.8c0.1,0.3,0.3,0.5,0.4,0.8c0.1,0.3-0.1,0.6-0.1,0.9c0.1,0.3,0.5,0.5,0.5,0.8
		c0,0.3-0.1,0.6,0,0.9c0,0.3-0.1,0.6-0.1,0.9c0,0.3,0.3,0.6,0.3,0.9c0,0.3,0,0.7,0.1,1c-0.3-0.1-0.7,0-1-0.1
		c-0.3-0.1-0.5-0.2-0.8-0.3c-0.3-0.1-0.5-0.2-0.8-0.3c-0.3-0.1-0.5-0.4-0.8-0.4c-0.3-0.1-0.6,0.1-0.9,0.1c-0.3-0.1-0.5-0.4-0.8-0.5
		c-0.3-0.1-0.6-0.2-0.8-0.3c-0.3-0.1-0.5-0.3-0.8-0.4c-0.3-0.1-0.6-0.1-0.8-0.2c-0.3-0.1-0.4-0.4-0.7-0.5c-0.3-0.1-0.5-0.3-0.7-0.4
		c-0.2-0.2-0.5-0.2-0.8-0.4c-0.2-0.2-0.6-0.2-0.8-0.4c-0.2-0.2-0.4-0.5-0.6-0.7c-0.2-0.2-0.4-0.4-0.6-0.6c-0.2-0.2-0.3-0.5-0.5-0.7
		c-0.2-0.2-0.3-0.5-0.4-0.8c-0.1-0.2-0.3-0.5-0.5-0.7c-0.1-0.2-0.1-0.6-0.2-0.8c-0.1-0.3-0.5-0.4-0.6-0.7c-0.1-0.3,0.2-0.7,0.1-0.9
		c-0.1-0.3-0.4-0.5-0.5-0.7c-0.1-0.3-0.3-0.5-0.4-0.8c-0.1-0.3-0.2-0.6-0.2-0.8c-0.1-0.3,0-0.6,0-0.9c-0.1-0.3,0.1-0.6,0-0.9
		c-0.1-0.3-0.1-0.6-0.2-0.8c-0.1-0.3-0.2-0.5-0.2-0.8c0-0.3-0.3-0.5-0.3-0.8c0-0.3-0.2-0.6-0.2-0.8c0-0.3,0.1-0.6,0-0.9
		c0-0.3-0.3-0.5-0.3-0.8c0-0.3,0.3-0.6,0.2-0.9c0-0.3-0.3-0.5-0.3-0.8C60.7,60.8,60.8,60.4,60.7,60.1z"/>
</g>
<g>
	<path class="st1" d="M71.5,37.2c0,0.4,0,0.8,0,1.2c0,0.4-0.1,0.8-0.1,1.2c0,0.4,0.2,0.9,0.2,1.3c0,0.4-0.2,0.8-0.3,1.2
		c0,0.4-0.3,0.8-0.4,1.2c-0.1,0.4,0.1,0.9,0,1.3c-0.1,0.4-0.3,0.8-0.4,1.2c-0.1,0.4-0.2,0.8-0.3,1.2c-0.1,0.4-0.1,0.8-0.2,1.2
		c-0.1,0.4-0.3,0.8-0.4,1.2c-0.1,0.4,0.1,0.9,0,1.3c-0.1,0.4-0.2,0.8-0.3,1.2c-0.1,0.4-0.5,0.7-0.6,1.1c-0.1,0.4-0.2,0.8-0.3,1.2
		c-0.2,0.4-0.6,0.7-0.8,1c-0.2,0.4-0.2,0.8-0.4,1.2c-0.2,0.4-0.5,0.7-0.6,1.1c-0.2,0.4-0.1,0.9-0.3,1.2c-0.2,0.4-0.5,0.7-0.7,1.1
		c-0.2,0.4-0.4,0.7-0.6,1.1c-0.2,0.4-0.4,0.7-0.7,1.1c-0.2,0.4-0.5,0.7-0.7,1c-0.2,0.3-0.7,0.6-0.9,0.9c-0.2,0.3-0.3,0.8-0.5,1.2
		c-0.3,0.3-0.6,0.6-0.8,0.9c-0.3,0.3-0.4,0.8-0.7,1.1c-0.3,0.3-0.8,0.4-1,0.7c-0.3,0.3-0.5,0.7-0.8,0.9c-0.3,0.3-0.5,0.7-0.8,0.9
		c-0.3,0.3-0.8,0.4-1.1,0.7c-0.3,0.3-0.5,0.7-0.8,0.9c-0.3,0.3-0.7,0.5-1,0.8c-0.3,0.3-0.5,0.7-0.9,0.9c-0.3,0.2-0.9,0.2-1.2,0.5
		c-0.4,0.2-0.6,0.7-0.9,0.9c-0.4,0.2-0.9,0.1-1.2,0.3c-0.4,0.2-0.8,0.3-1.1,0.5c-0.4,0.2-0.6,0.7-1,0.9c-0.4,0.2-0.9,0.1-1.2,0.2
		c-0.4,0.1-0.8,0.4-1.2,0.5c-0.4,0.1-0.8,0.1-1.2,0.2c-0.4,0.1-0.8,0-1.2,0.1c-0.4,0.1-0.8,0.4-1.2,0.5c-0.4,0-0.9-0.3-1.3-0.2
		c-0.4,0-0.8,0.2-1.2,0.2c-0.4,0-0.8-0.1-1.2-0.2c-0.4,0-0.9,0.3-1.3,0.2c-0.4,0-0.8-0.1-1.2-0.2c-0.4-0.1-0.8-0.2-1.2-0.3
		c-0.4-0.1-0.8-0.3-1.2-0.4c-0.4-0.1-0.8-0.2-1.2-0.3c-0.4-0.1-0.8-0.1-1.2-0.3c-0.4-0.2-0.8-0.3-1.1-0.5c-0.4-0.2-0.8-0.3-1.1-0.5
		c-0.4-0.2-0.6-0.7-0.9-0.9c-0.4-0.2-0.8-0.2-1.2-0.5c-0.4-0.2-0.7-0.4-1.1-0.7c-0.3-0.2-0.7-0.5-1-0.7c-0.3-0.3-0.7-0.4-1-0.7
		c-0.3-0.3-0.5-0.7-0.9-0.9c-0.3-0.3-0.5-0.7-0.8-1c-0.3-0.3-0.7-0.4-1-0.7c-0.3-0.3-0.5-0.6-0.8-1c-0.3-0.3-0.6-0.6-0.8-0.9
		c-0.3-0.3-0.6-0.6-0.8-0.9c-0.3-0.3-0.5-0.6-0.8-1c-0.3-0.3-0.5-0.7-0.8-1c-0.2-0.3-0.3-0.8-0.6-1.1c-0.2-0.3-0.5-0.6-0.8-1
		c-0.2-0.4-0.3-0.8-0.5-1.1c-0.2-0.4-0.7-0.5-0.9-0.9c-0.2-0.4-0.4-0.7-0.6-1.1c-0.2-0.4-0.4-0.8-0.5-1.1c-0.2-0.4-0.1-0.9-0.3-1.2
		c-0.2-0.4-0.3-0.8-0.5-1.1c-0.2-0.4-0.6-0.6-0.8-1c-0.2-0.4-0.2-0.8-0.3-1.2c-0.1-0.4-0.2-0.8-0.3-1.2c-0.1-0.4-0.2-0.8-0.3-1.2
		c-0.1-0.4-0.5-0.7-0.6-1.1c-0.1-0.4,0.1-0.9,0-1.3c-0.1-0.4-0.4-0.8-0.5-1.2c-0.1-0.4-0.1-0.8-0.2-1.2c-0.1-0.4-0.2-0.8-0.3-1.2
		c-0.1-0.4,0.1-0.9,0-1.3c-0.1-0.4-0.1-0.8-0.2-1.2c0-0.4,0-0.8,0-1.3C9,40.6,9,40.1,9,39.7c0-0.4-0.3-0.8-0.3-1.2
		c0-0.4-0.1-0.8-0.1-1.3c0-0.4,0.2-0.8,0.2-1.3c0-0.4-0.1-0.8-0.1-1.3c0-0.4,0.4-0.8,0.5-1.2c0-0.4-0.2-0.9-0.2-1.3
		c0.1-0.4,0.4-0.8,0.5-1.2c0.1-0.4,0.1-0.8,0.2-1.2c0.1-0.4,0.1-0.8,0.2-1.2c0.1-0.4,0.2-0.8,0.3-1.2c0.1-0.4,0.3-0.8,0.4-1.2
		c0.1-0.4,0.1-0.8,0.3-1.2c0.1-0.4,0.1-0.8,0.3-1.2c0.1-0.4,0.4-0.8,0.5-1.1c0.2-0.4,0.2-0.8,0.4-1.2c0.2-0.4,0.7-0.6,0.9-1
		c0.2-0.4,0.3-0.8,0.6-1.1c0.2-0.4,0.2-0.8,0.4-1.2c0.2-0.4,0.5-0.7,0.7-1c0.2-0.3,0.4-0.7,0.7-1.1c0.2-0.3,0.6-0.6,0.9-0.9
		c0.3-0.3,0.3-0.8,0.6-1.1c0.3-0.3,0.7-0.5,1-0.8c0.3-0.3,0.7-0.5,1-0.8c0.3-0.3,0.4-0.8,0.7-1c0.3-0.3,0.8-0.3,1.1-0.6
		c0.3-0.3,0.5-0.8,0.8-1c0.3-0.3,0.7-0.5,1-0.8c0.3-0.2,0.7-0.4,1.1-0.6C23.7,8,24.2,8,24.5,7.8c0.4-0.2,0.6-0.6,1-0.8
		c0.4-0.2,0.9-0.1,1.2-0.3c0.4-0.2,0.6-0.6,1-0.8c0.4-0.2,0.9,0.1,1.3,0c0.4-0.1,0.7-0.4,1.1-0.5c0.4-0.1,0.7-0.4,1.1-0.5
		c0.4-0.1,0.9,0,1.3-0.1c0.4-0.1,0.8-0.2,1.2-0.3c0.4-0.1,0.8-0.2,1.2-0.3C35.5,4,35.9,4,36.4,4c0.4,0,0.8,0,1.3,0
		c0.4,0,0.8,0,1.2-0.1c0.4,0,0.8,0,1.2,0c0.4,0,0.8-0.4,1.3-0.4c0.4,0,0.8,0.2,1.3,0.2c0.4,0,0.8,0,1.3,0c0.4,0,0.8,0.3,1.2,0.3
		c0.4,0.1,0.8,0.2,1.2,0.3c0.4,0.1,0.8,0.3,1.2,0.4c0.4,0.1,0.9-0.1,1.3,0c0.4,0.1,0.8,0.4,1.2,0.5c0.4,0.1,0.9,0.1,1.2,0.2
		c0.4,0.1,0.8,0.3,1.2,0.5c0.4,0.2,0.6,0.7,1,0.8c0.4,0.2,0.8,0.3,1.2,0.5c0.4,0.2,0.9,0.1,1.3,0.3c0.4,0.2,0.5,0.8,0.9,1
		c0.4,0.2,0.8,0.3,1.2,0.5c0.3,0.2,0.7,0.5,1,0.7c0.3,0.3,0.6,0.6,0.9,0.8c0.3,0.3,0.8,0.4,1.1,0.7c0.3,0.3,0.5,0.7,0.8,1
		c0.3,0.3,0.5,0.7,0.8,1c0.3,0.3,0.7,0.5,1,0.8c0.3,0.3,0.6,0.6,0.9,0.9c0.3,0.3,0.3,0.8,0.6,1.1c0.2,0.3,0.6,0.6,0.8,0.9
		c0.2,0.3,0.4,0.7,0.6,1.1c0.2,0.4,0.5,0.7,0.7,1c0.2,0.4,0.3,0.8,0.5,1.2c0.2,0.4,0.5,0.7,0.7,1.1c0.2,0.4,0.2,0.8,0.4,1.2
		c0.2,0.4,0.4,0.7,0.6,1.1c0.1,0.4,0.2,0.8,0.3,1.2c0.1,0.4,0.2,0.8,0.3,1.2c0.1,0.4,0.3,0.8,0.4,1.2c0.1,0.4,0.2,0.8,0.3,1.2
		c0.1,0.4-0.1,0.9,0,1.3c0.1,0.4,0.3,0.8,0.4,1.2c0.1,0.4,0.1,0.8,0.1,1.2c0,0.4-0.1,0.8-0.1,1.3c0,0.4,0.2,0.8,0.3,1.2
		c0,0.4,0.1,0.8,0.1,1.3C71.5,36.4,71.5,36.8,71.5,37.2z"/>
</g>
<g>
	<path class="st1" d="M10.3,40.5c0.4,0,0.8,0,1.2,0.1c0.4,0.1,0.8,0.2,1.2,0.3c0.4,0.1,0.8,0.2,1.1,0.4c0.4,0.2,0.7,0.3,1.1,0.6
		c0.3,0.2,0.7,0.4,1,0.7c0.3,0.3,0.6,0.6,0.8,0.9c0.3,0.3,0.5,0.6,0.7,0.9c0.2,0.3,0.4,0.7,0.5,1.1c0.2,0.4,0.4,0.7,0.5,1.1
		c0.1,0.4,0.2,0.8,0.3,1.2c0.1,0.4,0,0.8,0,1.2c0,0.4,0,0.8-0.1,1.2c-0.1,0.4-0.1,0.8-0.2,1.2c-0.1,0.4-0.2,0.8-0.4,1.1
		c-0.2,0.4-0.4,0.7-0.6,1.1c-0.2,0.3-0.5,0.6-0.7,0.9c-0.3,0.3-0.5,0.6-0.8,0.9c-0.3,0.3-0.7,0.4-1,0.7c-0.3,0.2-0.7,0.5-1,0.6
		c-0.4,0.2-0.7,0.3-1.1,0.4c-0.4,0.1-0.8,0.2-1.2,0.2c-0.4,0.1-0.8,0.2-1.2,0.2c-0.4,0-0.8-0.1-1.2-0.1c-0.4-0.1-0.8-0.1-1.2-0.2
		c-0.4-0.1-0.8-0.3-1.1-0.4c-0.4-0.2-0.7-0.3-1.1-0.6c-0.3-0.2-0.7-0.5-1-0.7c-0.3-0.3-0.6-0.6-0.8-0.9c-0.3-0.3-0.5-0.6-0.8-0.9
		c-0.2-0.3-0.4-0.7-0.5-1.1c-0.2-0.4-0.3-0.7-0.4-1.1c-0.1-0.4-0.2-0.8-0.3-1.2c-0.1-0.4-0.1-0.8-0.1-1.2c0-0.4,0.1-0.8,0.1-1.2
		c0.1-0.4,0.1-0.8,0.2-1.2c0.1-0.4,0.2-0.8,0.4-1.1c0.2-0.4,0.4-0.7,0.6-1c0.2-0.3,0.5-0.7,0.7-1c0.3-0.3,0.6-0.6,0.9-0.8
		c0.3-0.3,0.6-0.5,0.9-0.8c0.3-0.2,0.7-0.4,1-0.6c0.4-0.2,0.7-0.3,1.1-0.4c0.4-0.1,0.8-0.2,1.2-0.2C9.5,40.5,9.9,40.5,10.3,40.5z"/>
</g>
<g>
	<path class="st1" d="M69.9,40.5c0.4,0,0.8,0,1.2,0.1c0.4,0.1,0.8,0.2,1.2,0.3c0.4,0.1,0.8,0.3,1.1,0.4c0.4,0.2,0.7,0.3,1.1,0.5
		c0.3,0.2,0.7,0.5,1,0.7c0.3,0.3,0.6,0.6,0.8,0.9c0.3,0.3,0.5,0.6,0.8,0.9c0.2,0.3,0.4,0.7,0.5,1.1c0.2,0.4,0.3,0.7,0.4,1.1
		c0.1,0.4,0.3,0.8,0.3,1.2c0.1,0.4,0.1,0.8,0.1,1.2c0,0.4-0.1,0.8-0.1,1.2c-0.1,0.4-0.1,0.8-0.2,1.2c-0.1,0.4-0.3,0.8-0.4,1.1
		c-0.2,0.4-0.4,0.7-0.6,1.1c-0.2,0.3-0.5,0.7-0.7,1c-0.3,0.3-0.5,0.6-0.8,0.9c-0.3,0.3-0.7,0.4-1,0.7c-0.3,0.2-0.7,0.5-1,0.6
		c-0.4,0.2-0.7,0.3-1.1,0.4c-0.4,0.1-0.8,0.1-1.2,0.2c-0.4,0.1-0.8,0.1-1.2,0.1c-0.4,0-0.8,0-1.2,0c-0.4-0.1-0.8-0.2-1.2-0.3
		c-0.4-0.1-0.8-0.2-1.1-0.4c-0.4-0.2-0.7-0.4-1.1-0.6c-0.3-0.2-0.6-0.5-0.9-0.7c-0.3-0.3-0.6-0.5-0.9-0.8c-0.3-0.3-0.4-0.7-0.6-1
		c-0.2-0.3-0.4-0.7-0.6-1c-0.2-0.4-0.3-0.7-0.4-1.1c-0.1-0.4-0.2-0.8-0.3-1.2c-0.1-0.4,0-0.8,0-1.2c0-0.4-0.1-0.8,0-1.2
		c0.1-0.4,0.1-0.8,0.3-1.2c0.1-0.4,0.3-0.7,0.5-1.1c0.2-0.4,0.3-0.7,0.5-1.1c0.2-0.3,0.5-0.7,0.7-1c0.3-0.3,0.5-0.6,0.8-0.9
		c0.3-0.3,0.7-0.5,1-0.7c0.3-0.2,0.7-0.4,1.1-0.6c0.4-0.2,0.7-0.4,1.1-0.5c0.4-0.1,0.8-0.2,1.2-0.3C69.1,40.5,69.5,40.5,69.9,40.5z"
		/>
</g>
<g>
	<path class="st2" d="M26.5,40c0.3,0,0.6,0.2,0.9,0.3c0.3,0.1,0.5,0.3,0.8,0.6c0.2,0.2,0.4,0.5,0.5,0.8c0.1,0.3,0.3,0.6,0.4,0.9
		c0.1,0.3,0,0.6,0,1c0,0.3,0,0.7-0.1,1c-0.1,0.3-0.2,0.6-0.3,0.9c-0.1,0.3-0.3,0.6-0.5,0.9c-0.2,0.3-0.5,0.5-0.8,0.6
		c-0.3,0.2-0.6,0.2-1,0.2c-0.3,0-0.6-0.1-0.9-0.2c-0.3-0.1-0.5-0.3-0.7-0.6c-0.2-0.2-0.4-0.5-0.5-0.8c-0.1-0.3-0.2-0.6-0.3-0.9
		c-0.1-0.3-0.2-0.6-0.2-1c0-0.3,0.1-0.7,0.1-1c0.1-0.3,0.2-0.6,0.4-0.9c0.1-0.3,0.2-0.6,0.4-0.9c0.2-0.3,0.5-0.4,0.8-0.5
		C25.9,40.1,26.2,40,26.5,40z"/>
</g>
<g>
	<path class="st3" d="M28.3,33.5c-0.2-0.2-0.4-0.3-0.6-0.4c-0.2-0.1-0.4-0.3-0.6-0.4c-0.2-0.1-0.4-0.2-0.7-0.3
		c-0.2-0.1-0.5,0-0.7-0.1c-0.2,0-0.5-0.1-0.7-0.1c-0.2,0-0.5,0.1-0.7,0.2c-0.2,0.1-0.5,0.1-0.7,0.2c-0.2,0.1-0.4,0.3-0.6,0.4
		c-0.2,0.1-0.4,0.2-0.6,0.4c-0.2,0.2-0.3,0.4-0.5,0.6c-0.1,0.2-0.3,0.4-0.4,0.6c-0.1,0.2-0.1,0.4-0.2,0.7c-0.1,0.2-0.2,0.4-0.3,0.7"
		/>
</g>
<g>
	<path class="st2" d="M52.5,40c0.3,0,0.6,0.1,0.9,0.3c0.3,0.1,0.6,0.3,0.8,0.5c0.2,0.2,0.4,0.5,0.5,0.8c0.1,0.3,0.2,0.6,0.3,0.9
		c0.1,0.3,0,0.6,0,1c0,0.3,0,0.7-0.1,1c-0.1,0.3-0.1,0.7-0.2,1c-0.1,0.3-0.4,0.6-0.6,0.8c-0.2,0.3-0.5,0.5-0.7,0.7
		c-0.3,0.2-0.6,0.3-1,0.3c-0.3,0-0.7-0.1-1-0.3c-0.3-0.1-0.5-0.4-0.8-0.6c-0.2-0.2-0.4-0.5-0.5-0.8c-0.1-0.3-0.1-0.6-0.2-1
		c-0.1-0.3-0.2-0.6-0.2-1c0-0.3,0.1-0.7,0.2-1c0.1-0.3,0.1-0.7,0.2-0.9c0.1-0.3,0.3-0.6,0.5-0.8c0.2-0.3,0.5-0.5,0.7-0.6
		C51.9,40.1,52.2,40,52.5,40z"/>
</g>
<g>
	<path class="st3" d="M50.8,33.5c0.2-0.2,0.3-0.4,0.5-0.5c0.2-0.1,0.5-0.2,0.7-0.3c0.2-0.1,0.4-0.2,0.6-0.3c0.2-0.1,0.5-0.1,0.7-0.2
		c0.2,0,0.5,0,0.7,0c0.2,0,0.4,0.2,0.7,0.2c0.2,0.1,0.5,0,0.7,0.1c0.2,0.1,0.4,0.3,0.6,0.4c0.2,0.1,0.3,0.3,0.5,0.5
		c0.2,0.2,0.4,0.3,0.5,0.5c0.1,0.2,0.3,0.4,0.4,0.6c0.1,0.2,0.2,0.4,0.3,0.6c0.1,0.2,0.1,0.5,0.2,0.7"/>
</g>
<g>
	<path class="st4" d="M46.5,61.3c-0.3,0.6-0.2,0.5-0.7,1.1c-0.2,0.3-0.6,0.5-0.9,0.9c-0.3,0.3-0.6,0.6-0.9,0.8
		c-0.3,0.3-0.6,0.6-1,0.8c-0.4,0.2-0.7,0.5-1.1,0.7c-0.4,0.1-0.8,0.1-1.3,0.2c-0.4,0.1-0.8,0.1-1.2,0.1c-0.4,0-0.8-0.1-1.2-0.2
		c-0.4-0.1-0.9-0.1-1.2-0.2c-0.4-0.2-0.8-0.3-1.2-0.5c-0.4-0.2-0.8-0.4-1.1-0.7c-0.3-0.3-0.6-0.7-0.8-1c-0.3-0.3-0.7-0.6-0.9-0.9
		c-0.4-0.6-0.9-0.6-0.5-1.1c0.3-0.5,0.5,0,1.3,0c0.4,0,0.8,0.2,1.3,0.2c0.4,0,0.8-0.1,1.3-0.1c0.4,0,0.8,0,1.3,0
		c0.4,0,0.8,0.1,1.3,0.1c0.4,0,0.9-0.1,1.3-0.1c0.4,0,0.9-0.1,1.3-0.1c0.4,0,0.9,0.1,1.3,0.1c0.5,0,0.9-0.2,1.3-0.2
		c0.5,0,0.9,0.2,1.3,0.2C46,61.3,46.5,61.3,46.5,61.3z"/>
	<path class="st5" d="M46.5,61.3c-0.3,0.6-0.2,0.5-0.7,1.1c-0.2,0.3-0.6,0.5-0.9,0.9c-0.3,0.3-0.6,0.6-0.9,0.8
		c-0.3,0.3-0.6,0.6-1,0.8c-0.4,0.2-0.7,0.5-1.1,0.7c-0.4,0.1-0.8,0.1-1.3,0.2c-0.4,0.1-0.8,0.1-1.2,0.1c-0.4,0-0.8-0.1-1.2-0.2
		c-0.4-0.1-0.9-0.1-1.2-0.2c-0.4-0.2-0.8-0.3-1.2-0.5c-0.4-0.2-0.8-0.4-1.1-0.7c-0.3-0.3-0.6-0.7-0.8-1c-0.3-0.3-0.7-0.6-0.9-0.9
		c-0.4-0.6-0.9-0.6-0.5-1.1c0.3-0.5,0.5,0,1.3,0c0.4,0,0.8,0.2,1.3,0.2c0.4,0,0.8-0.1,1.3-0.1c0.4,0,0.8,0,1.3,0
		c0.4,0,0.8,0.1,1.3,0.1c0.4,0,0.9-0.1,1.3-0.1c0.4,0,0.9-0.1,1.3-0.1c0.4,0,0.9,0.1,1.3,0.1c0.5,0,0.9-0.2,1.3-0.2
		c0.5,0,0.9,0.2,1.3,0.2C46,61.3,46.5,61.3,46.5,61.3z"/>
</g>
<g>
	<path class="st1" d="M44.6,83.5c-0.1-0.6,0-0.6,0-1.2c0-0.6,0-0.6,0-1.2c0-0.6-0.1-0.6-0.2-1.2c0-0.6,0-0.6-0.1-1.2
		c0-0.6-0.2-0.6-0.2-1.2c0-0.6,0.2-0.6,0.1-1.2c0-0.6-0.3-0.6-0.3-1.2c0-0.6,0.2-0.6,0.1-1.2c0-0.6-0.2-0.6-0.2-1.2
		c0-0.6,0-0.6,0-1.2c0-0.6,0-0.6,0-1.2c0-0.6,0.4-0.9-0.1-1.3c-0.5-0.4-0.7,0-1.4,0c-0.7,0-0.7,0.1-1.3,0.1c-0.7,0-0.7,0-1.3,0
		c-0.7,0-0.7,0-1.3,0c-0.7,0-0.7,0-1.3,0c-0.7,0-0.8-0.4-1.3,0c-0.5,0.4-0.1,0.6-0.1,1.3c-0.1,0.6,0,0.6,0,1.3c-0.1,0.6,0,0.6,0,1.3
		c-0.1,0.6,0,0.6-0.1,1.3c-0.1,0.6-0.1,0.6-0.1,1.3c-0.1,0.6,0,0.6-0.1,1.3C35,77,34.8,77,34.7,77.6c-0.1,0.6,0.2,0.7,0.2,1.3
		c-0.1,0.6-0.3,0.6-0.4,1.2c-0.1,0.6,0.1,0.6,0.1,1.3c-0.1,0.6,0,0.6-0.1,1.3c-0.1,0.1-0.4,0.4-0.8,0.9c-0.2,0.3-0.3,0.7-0.6,1.1
		c-0.2,0.3-0.6,0.5-0.9,0.9c-0.2,0.3-0.5,0.6-0.8,0.9c-0.2,0.3-0.4,0.7-0.6,1.1c-0.2,0.3-0.4,0.7-0.6,1.1c-0.2,0.3-0.6,0.6-0.8,0.9
		c-0.2,0.3-0.5,0.6-0.8,1c-0.2,0.3-0.5,0.6-0.8,1c-0.2,0.3-0.4,0.7-0.7,1c-0.2,0.3-0.5,0.7-0.7,1c-0.2,0.3-0.4,0.7-0.6,1.1
		c-0.2,0.3-0.4,0.7-0.7,1c-0.2,0.3-0.5,0.6-0.8,1c-0.2,0.3-0.4,0.7-0.7,1c-0.2,0.3-0.4,0.7-0.6,1.1c-0.2,0.3-0.3,0.8-0.5,1.1
		c-0.2,0.3-0.5,0.6-0.8,1c-0.2,0.3-0.3,0.8-0.5,1.1c-0.2,0.4-0.4,0.7-0.6,1.1c-0.2,0.4-0.4,0.7-0.7,1c-0.2,0.4-0.5,0.7-0.7,1
		c-0.2,0.4-0.2,0.8-0.4,1.2c-0.2,0.4-0.6,0.6-0.8,1c-0.2,0.4-0.2,0.8-0.4,1.2c-0.2,0.4-0.4,0.7-0.6,1.1c-0.2,0.4-0.4,0.7-0.6,1.1
		c-0.2,0.4-0.5,0.7-0.6,1.1c-0.2,0.4-0.2,0.8-0.4,1.2c-0.2,0.4-0.3,0.8-0.4,1.2c-0.2,0.4-0.5,0.7-0.7,1.1c-0.2,0.4-0.1,0.8-0.3,1.2
		c-0.2,0.4-0.5,0.8-0.6,1.1c0.6,0.2,0.7-0.1,1.3-0.1c0.6,0,0.6,0,1.3,0c0.6,0,0.6,0.1,1.3,0.1c0.6,0,0.6-0.1,1.3-0.1
		c0.6,0,0.6-0.1,1.3-0.1c0.6,0,0.6,0.1,1.3,0.1c0.6,0,0.6-0.1,1.3-0.1c0.6,0,0.6,0.2,1.3,0.2c0.6,0,0.6-0.2,1.3-0.2
		c0.6,0,0.6,0.1,1.3,0.1c0.6,0,0.6-0.1,1.3-0.1c0.6,0,0.6,0,1.3,0c0.6,0,0.6,0,1.3,0c0.6,0,0.6,0.1,1.3,0.1c0.6,0,0.6,0,1.3,0
		c0.6,0,0.6,0,1.3,0c0.6,0,0.6-0.1,1.3-0.1c0.6,0,0.6,0,1.3,0c0.6,0,0.6-0.1,1.3-0.1s0.6,0,1.3,0c0.2,0,0.2,0.2,0.5,0.2
		c0.6,0,0.6-0.1,1.3-0.1c0.6,0,0.6,0.1,1.3,0.1c0.6,0,0.6-0.1,1.3-0.1c0.6,0,0.6,0.2,1.3,0.2c0.6,0,0.6,0,1.3,0c0.6,0,0.6,0,1.3,0
		c0.6,0,0.6-0.1,1.3-0.1c0.6,0,0.6,0,1.3,0c0.6,0,0.6,0.3,1.3,0.3c0.6,0,0.6-0.3,1.3-0.3c0.6,0,0.6,0,1.3,0c0.6,0,0.6,0,1.3,0
		c0.6,0,0.6,0.2,1.3,0.2c0.6,0,0.6,0,1.3,0c0.6,0,0.6-0.1,1.3-0.1c0.6,0,0.6,0.1,1.3,0.1c0.6,0,0.6-0.2,1.3-0.2
		c0.6,0,0.6,0.1,1.3,0.1c0.6,0,0.6,0,1.3,0s0.7,0.2,1.3,0c-0.1-0.4-0.3-0.7-0.5-1.1c-0.2-0.4-0.4-0.7-0.6-1.1
		c-0.2-0.4-0.3-0.8-0.5-1.1c-0.2-0.4-0.3-0.8-0.5-1.1c-0.2-0.4-0.2-0.8-0.4-1.2c-0.2-0.4-0.5-0.7-0.7-1c-0.2-0.4-0.4-0.7-0.6-1.1
		c-0.2-0.4-0.4-0.7-0.6-1.1c-0.2-0.4-0.2-0.8-0.4-1.2c-0.2-0.4-0.5-0.7-0.7-1.1c-0.2-0.4-0.5-0.7-0.7-1c-0.2-0.4-0.4-0.7-0.6-1.1
		c-0.2-0.4-0.4-0.7-0.6-1.1c-0.2-0.4-0.2-0.8-0.4-1.2c-0.2-0.4-0.6-0.6-0.8-0.9c-0.2-0.4-0.4-0.7-0.6-1.1c-0.2-0.4-0.3-0.8-0.5-1.2
		c-0.2-0.4-0.6-0.6-0.9-0.9c-0.2-0.4-0.5-0.7-0.7-1c-0.2-0.4-0.3-0.8-0.5-1.1c-0.2-0.3-0.6-0.6-0.8-0.9c-0.2-0.3-0.4-0.7-0.7-1
		c-0.2-0.3-0.5-0.7-0.7-1c-0.2-0.3-0.3-0.8-0.5-1.2c-0.2-0.3-0.5-0.7-0.7-1c-0.2-0.3-0.5-0.7-0.7-1c-0.2-0.3-0.6-0.6-0.8-1
		c-0.3-0.3-0.5-0.7-0.7-1c-0.3-0.3-0.5-0.7-0.8-1c-0.3-0.4-0.5-0.7-0.7-1c-0.3-0.4-0.5-0.7-0.7-1C45.2,84,44.8,83.8,44.6,83.5z"/>
</g>
<g>
	<path class="st3" d="M47.9,88.2c-0.2-0.3-0.5-0.6-0.7-0.9c-0.3-0.3-0.7-0.5-0.9-0.8c-0.3-0.3-0.3-0.8-0.5-1.1
		c-0.3-0.4-0.5-0.7-0.7-0.9c-0.5-0.6-0.6-0.3-0.7-0.9C44.2,83,44.1,83,44,82.4c0-0.6,0.2-0.6,0.2-1.2c0-0.6-0.3-0.6-0.3-1.1
		c0-0.6,0.2-0.6,0.1-1.2c0-0.6-0.2-0.6-0.3-1.1c0-0.6-0.1-0.6,0.1-1.1c0.4-0.1,0.7-0.2,1.1-0.3c0.4-0.1,0.8-0.2,1.2-0.3
		c0.4-0.1,0.8-0.3,1.2-0.4c0.4-0.1,0.7-0.5,1.1-0.7c0.4-0.2,0.9-0.1,1.3-0.3c0.4-0.2,0.7-0.4,1.1-0.6c0.4-0.2,0.7-0.5,1.1-0.7
		c0.4-0.2,0.7-0.5,1-0.8c0.3-0.2,0.7-0.4,1.1-0.7c0.3-0.2,0.7-0.5,1-0.8c0.3-0.3,0.6-0.6,1-0.8c0.3-0.3,0.7-0.4,1-0.7
		c0.3-0.3,0.5-0.7,0.8-1c0.3-0.3,0.5-0.7,0.8-1c0.3-0.3,0.6-0.6,0.9-0.9c0.3-0.3,0.5-0.7,0.8-1c0.3-0.3,0.5-0.6,0.8-1
		c0.3-0.3,0.7-0.5,0.9-0.9c0.2-0.3,0.5-0.7,0.7-1c0.2-0.3,0.4-0.7,0.6-1.1c0.2-0.4,0.4-0.7,0.7-1.1c0.2-0.4,0.5-0.7,0.7-1.1
		c0.2-0.4,0.4-0.7,0.6-1.1c0.2-0.4,0.2-0.8,0.4-1.2c0.2-0.4,0.5-0.6,0.7-1c0.4,0.1,0.8,0.3,1.2,0.3c0.5,0.1,0.9,0,1.4,0
		c0.4,0,0.8,0,1.2-0.1c0.4-0.1,0.8,0,1.2-0.2c0.4-0.1,0.7-0.3,1.1-0.5c0.4-0.2,0.8-0.2,1.1-0.5c0.3-0.2,0.6-0.5,0.9-0.8
		c0.3-0.3,0.7-0.4,1-0.7c0.3-0.3,0.3-0.8,0.5-1.1c0.2-0.3,0.5-0.6,0.7-1c0.2-0.4,0.2-0.8,0.3-1.2c0.1-0.4,0.3-0.8,0.3-1.2
		c0.1-0.4,0-0.8,0-1.2c0-0.4-0.1-0.9-0.1-1.3c-0.1-0.4-0.2-0.8-0.4-1.2c-0.1-0.4-0.3-0.8-0.5-1.2c-0.2-0.4-0.2-0.9-0.5-1.2
		c-0.3-0.4-0.7-0.6-1-0.9c-0.3-0.3-0.6-0.6-1-0.9c-0.3-0.3-0.6-0.7-1-0.9c-0.4-0.2-0.8-0.3-1.3-0.4c-0.4-0.1-0.8-0.3-1.2-0.4
		c0-0.4,0-0.7,0-1c0-0.4-0.1-0.7-0.1-1.1c0-0.4,0.1-0.7,0.1-1.1"/>
</g>
<g>
	<path class="st3" d="M8,36.3c0,0.4,0.1,0.7,0.1,1.1c0,0.4-0.1,0.7-0.1,1.1c0,0.4,0.1,0.6,0.1,1c-0.4,0.1-0.7,0.4-1.1,0.5
		c-0.4,0.1-0.9,0.1-1.3,0.3c-0.4,0.2-0.8,0.5-1.1,0.7c-0.3,0.3-0.6,0.6-0.9,0.9c-0.3,0.3-0.6,0.6-0.9,1c-0.3,0.4-0.4,0.8-0.6,1.2
		c-0.2,0.4-0.4,0.8-0.6,1.2c-0.1,0.4,0,0.9-0.1,1.3c-0.1,0.4-0.1,0.8-0.1,1.3c0,0.4-0.2,0.8-0.2,1.2c0.1,0.4,0.3,0.8,0.4,1.2
		c0.1,0.4,0.3,0.7,0.5,1.1c0.2,0.4,0.3,0.8,0.5,1.1c0.2,0.3,0.5,0.6,0.8,0.9c0.3,0.3,0.6,0.5,0.9,0.8c0.3,0.3,0.5,0.7,0.8,0.9
		c0.3,0.2,0.7,0.4,1.1,0.6c0.4,0.2,0.8,0.2,1.2,0.3c0.4,0.1,0.8,0.2,1.2,0.3c0.4,0.1,0.8,0,1.2,0c0.5,0,1,0.2,1.4,0.1
		c0.5-0.1,0.9-0.4,1.3-0.5c0.2,0.4,0.4,0.8,0.6,1.1c0.2,0.4,0.3,0.8,0.5,1.2c0.2,0.4,0.4,0.7,0.6,1.1c0.2,0.4,0.5,0.7,0.7,1.1
		c0.2,0.4,0.4,0.7,0.6,1.1c0.2,0.4,0.5,0.7,0.8,1c0.2,0.4,0.3,0.8,0.6,1.1c0.2,0.3,0.5,0.7,0.7,1c0.3,0.3,0.7,0.5,0.9,0.9
		c0.3,0.3,0.3,0.8,0.6,1.1c0.3,0.3,0.7,0.5,1,0.8c0.3,0.3,0.5,0.7,0.8,1c0.3,0.3,0.6,0.5,1,0.8c0.3,0.3,0.5,0.7,0.9,0.9
		c0.3,0.3,0.7,0.5,1,0.7c0.3,0.3,0.6,0.6,1,0.8c0.3,0.3,0.6,0.6,1,0.8c0.4,0.2,0.8,0.4,1.1,0.6c0.4,0.2,0.7,0.5,1,0.7
		c0.4,0.2,0.7,0.4,1.1,0.6c0.4,0.2,0.9,0.1,1.2,0.3c0.4,0.2,0.7,0.4,1.1,0.6c0.4,0.1,0.7,0.4,1.1,0.6c0.4,0.1,0.8,0.3,1.2,0.4
		c0.4,0.1,0.7,0.1,1.2,0.2c0.1,0.6,0.1,0.6,0.1,1.1c0,0.6-0.1,0.6-0.2,1.1c0,0.6-0.1,0.6-0.1,1.1c0,0.6,0,0.6-0.1,1.2
		c0,0.6,0.2,0.6,0.1,1.2s-0.1,0.6-0.3,1.1c-0.2,0.7-0.2,0.5-0.7,1.2c-0.2,0.3-0.5,0.6-0.9,1.1c-0.3,0.3-0.5,0.7-0.8,1.1
		c-0.3,0.3-0.5,0.7-0.8,1.1c-0.3,0.4-0.5,0.7-0.8,1.1"/>
</g>
<g>
	<path class="st6" d="M39.3,48.5c-0.2,0.2-0.5,0.5-0.7,0.8c-0.2,0.2-0.5,0.5-0.8,0.7c-0.2,0.3-0.5,0.6-0.6,0.9
		c-0.2,0.3-0.3,0.7-0.3,1c0,0.4,0.1,0.7,0.3,1c0.2,0.3,0.5,0.4,0.8,0.6c0.3,0.2,0.6,0.3,0.9,0.4"/>
</g>
<g>
	<path class="st0" d="M52.3,6.5c0.1,0.2,0.2,0.6,0.3,0.9c0.1,0.2,0.2,0.5,0.3,0.7C53,8.4,53,8.7,53.1,8.9c0.1,0.2-0.1,0.6,0,0.8
		c0.1,0.2,0.4,0.4,0.4,0.7c0.1,0.2,0.2,0.5,0.3,0.7c0.1,0.2,0.2,0.5,0.3,0.7c0.1,0.2,0.1,0.5,0.2,0.8c0.1,0.2,0.3,0.4,0.4,0.7
		c0.1,0.2,0.1,0.5,0.2,0.8c0.1,0.2,0.3,0.5,0.4,0.7c0.1,0.2,0.1,0.5,0.2,0.8c0.1,0.2,0.4,0.4,0.5,0.6c0.1,0.2,0,0.6,0.1,0.8
		c0.1,0.2,0.3,0.4,0.4,0.7c0.1,0.2,0.4,0.4,0.5,0.6c0.1,0.2,0.2,0.5,0.3,0.7c0.1,0.2,0.2,0.5,0.3,0.7c0.1,0.2,0.3,0.5,0.4,0.7
		c0.1,0.2,0.1,0.5,0.3,0.8c0.1,0.2,0.3,0.5,0.4,0.7c0.1,0.2,0.3,0.4,0.4,0.7c0.1,0.2,0.3,0.5,0.4,0.7c0.1,0.2,0.5,0.3,0.6,0.5
		c0.2,0.2,0.1,0.6,0.3,0.8c0.2,0.2,0.3,0.4,0.5,0.6c0.2,0.2,0.4,0.3,0.6,0.5c0.2,0.2,0.2,0.5,0.4,0.7c0.2,0.2,0.4,0.3,0.6,0.5
		c0.2,0.2,0.3,0.4,0.5,0.6c0.2,0.2,0.4,0.4,0.6,0.6c0.2,0.2,0.5,0.3,0.6,0.5c0.2,0.2,0.4,0.3,0.6,0.5c0.2,0.2,0.4,0.3,0.6,0.5
		c0.2,0.2,0.4,0.4,0.6,0.5c0.2,0.2,0.4,0.3,0.6,0.5c0.2,0.2,0.3,0.5,0.5,0.7c0.2,0.2,0.5,0.2,0.7,0.4c0.2,0.2,0.4,0.3,0.6,0.5
		c0.2,0.2,0.4,0.4,0.6,0.6c0.2,0.1,0.4,0.3,0.7,0.4c0.2,0.1,0.4,0.3,0.7,0.4c0.2,0.1,0.5,0.2,0.7,0.4c0.2,0.1,0.5,0.2,0.7,0.3
		c0-0.3,0.1-0.5,0.1-0.8c0-0.3-0.2-0.5-0.2-0.8c0-0.3,0-0.5-0.1-0.8c0-0.3,0-0.5,0-0.8c0-0.3,0.1-0.5,0.1-0.8c0-0.3-0.1-0.5-0.2-0.8
		c0-0.3-0.3-0.5-0.3-0.8c0-0.3-0.1-0.5-0.2-0.8c0-0.3,0.3-0.6,0.2-0.8c0-0.3-0.1-0.5-0.2-0.8c-0.1-0.3-0.4-0.5-0.4-0.7
		c-0.1-0.3,0-0.5-0.1-0.8c-0.1-0.3-0.2-0.5-0.3-0.7c-0.1-0.3-0.1-0.5-0.1-0.8c-0.1-0.3-0.2-0.5-0.2-0.8c-0.1-0.3-0.2-0.5-0.3-0.7
		c-0.1-0.3,0.1-0.6,0-0.8c-0.1-0.2-0.3-0.5-0.4-0.7c-0.1-0.2-0.1-0.5-0.2-0.8c-0.1-0.2-0.2-0.5-0.3-0.7c-0.1-0.2-0.1-0.5-0.2-0.8
		c-0.1-0.2-0.4-0.4-0.5-0.6c-0.1-0.2-0.4-0.4-0.5-0.6c-0.1-0.2-0.1-0.5-0.3-0.8c-0.1-0.2-0.3-0.4-0.4-0.7c-0.1-0.2-0.3-0.5-0.4-0.7
		c-0.1-0.2-0.1-0.5-0.3-0.7c-0.1-0.2-0.4-0.4-0.6-0.6c-0.2-0.2-0.1-0.6-0.3-0.8c-0.2-0.2-0.6-0.2-0.7-0.4c-0.2-0.2-0.2-0.5-0.3-0.7
		c-0.2-0.2-0.5-0.3-0.7-0.5c-0.2-0.2-0.1-0.6-0.3-0.8c-0.2-0.2-0.3-0.4-0.5-0.6c-0.2-0.2-0.5-0.3-0.7-0.5c-0.2-0.2-0.4-0.3-0.6-0.5
		c-0.2-0.2-0.3-0.4-0.5-0.6c-0.2-0.2-0.3-0.5-0.5-0.6c-0.2-0.2-0.5-0.3-0.7-0.4c-0.2-0.2-0.4-0.3-0.6-0.5c-0.2-0.2-0.4-0.3-0.6-0.4
		c-0.2-0.2-0.3-0.5-0.5-0.6c-0.2-0.1-0.4-0.3-0.7-0.4C57,5,56.8,4.9,56.6,4.8c-0.2-0.1-0.5-0.2-0.7-0.4c-0.2-0.1-0.5-0.2-0.7-0.3
		C54.9,4,54.6,4,54.4,3.8c-0.2-0.1-0.4-0.3-0.7-0.4c-0.2-0.1-0.5-0.2-0.7-0.4c-0.2-0.1-0.4-0.3-0.7-0.4c-0.2-0.1-0.5-0.2-0.7-0.3
		c-0.2-0.1-0.5-0.2-0.7-0.3c-0.2-0.1-0.6,0.1-0.8,0c-0.2-0.1-0.4-0.3-0.7-0.4c-0.3-0.1-0.5-0.1-0.8-0.2c-0.3-0.1-0.5-0.1-0.8-0.2
		c-0.3-0.1-0.5,0-0.8-0.1c-0.3-0.1-0.5-0.1-0.8-0.2c-0.3,0-0.5-0.1-0.8-0.2c-0.3,0-0.5-0.1-0.8-0.1c-0.3,0-0.5-0.1-0.8-0.1
		c-0.3,0-0.5-0.3-0.8-0.3c-0.3,0-0.5,0.1-0.8,0.1c-0.3,0-0.5,0-0.8,0c-0.3,0-0.5,0-0.8,0c-0.3,0-0.5-0.2-0.8-0.2
		c-0.3,0-0.5,0.1-0.8,0.1c-0.3,0-0.5,0.1-0.8,0.1c-0.3,0-0.5-0.2-0.8-0.1c-0.3,0-0.5,0.3-0.8,0.3c-0.3,0-0.5-0.1-0.8,0
		c-0.3,0-0.5,0-0.8,0.1C35,0.7,34.8,1,34.5,1c-0.3,0-0.6-0.2-0.8-0.2c-0.3,0-0.5,0.3-0.7,0.4c-0.3,0.1-0.6-0.1-0.8,0
		c-0.3,0.1-0.5,0.1-0.8,0.1c-0.3,0.1-0.4,0.5-0.7,0.5C30.5,2,30.2,2,29.9,2c-0.3,0.1-0.6-0.1-0.8,0c-0.2,0.1-0.5,0.2-0.7,0.3
		c-0.2,0.1-0.4,0.4-0.6,0.5C27.5,3,27.3,3.1,27,3.2c-0.2,0.1-0.5,0.1-0.8,0.2c-0.2,0.1-0.4,0.4-0.6,0.5C25.4,4,25.1,4,24.8,4.1
		c-0.2,0.1-0.5,0.2-0.7,0.3c-0.2,0.1-0.4,0.4-0.6,0.5c-0.2,0.1-0.5,0.2-0.7,0.4c-0.2,0.1-0.5,0.2-0.7,0.3c-0.2,0.1-0.4,0.4-0.6,0.5
		c-0.2,0.2-0.3,0.4-0.6,0.6c-0.2,0.2-0.4,0.3-0.6,0.5c-0.2,0.2-0.4,0.3-0.6,0.5c-0.2,0.2-0.5,0.2-0.7,0.4c-0.2,0.2-0.3,0.5-0.5,0.6
		c-0.2,0.2-0.3,0.4-0.5,0.6c-0.2,0.2-0.3,0.5-0.5,0.7c-0.2,0.2-0.5,0.3-0.6,0.5c-0.2,0.2-0.3,0.4-0.5,0.6c-0.2,0.2-0.5,0.3-0.7,0.5
		c-0.2,0.2-0.3,0.4-0.5,0.6c-0.2,0.2-0.1,0.6-0.3,0.8c-0.2,0.2-0.3,0.4-0.5,0.6c-0.1,0.2-0.3,0.4-0.5,0.6c-0.1,0.2-0.4,0.4-0.6,0.6
		c-0.1,0.2-0.1,0.6-0.2,0.8c-0.1,0.2-0.4,0.4-0.5,0.6c-0.1,0.2-0.4,0.4-0.5,0.6c-0.1,0.2-0.2,0.5-0.4,0.7c-0.1,0.2,0.1,0.6,0,0.8
		c-0.1,0.2-0.3,0.4-0.4,0.7c-0.1,0.2-0.3,0.4-0.4,0.7c-0.1,0.2,0,0.6-0.1,0.8c-0.1,0.2-0.3,0.5-0.3,0.7c-0.1,0.2,0,0.5-0.1,0.8
		c-0.1,0.2-0.5,0.4-0.5,0.7c-0.1,0.2,0,0.5-0.1,0.8c-0.1,0.3,0,0.5-0.1,0.8c-0.1,0.3-0.1,0.5-0.2,0.8c-0.1,0.3-0.1,0.5-0.2,0.8
		c-0.1,0.3-0.1,0.5-0.2,0.8c0,0.3-0.2,0.5-0.3,0.7c0,0.3-0.1,0.5-0.1,0.8c0,0.3-0.1,0.5-0.1,0.8c0,0.3-0.2,0.5-0.2,0.8
		c0,0.3,0,0.5,0,0.8c0,0.3,0.1,0.5,0.1,0.8c0,0.3-0.1,0.5-0.1,0.8c0,0.3-0.1,0.5-0.1,0.8c0,0.3,0.1,0.5,0.1,0.8
		c0,0.3-0.1,0.4-0.1,0.7c0.3,0,0.4,0,0.7,0c0.3,0,0.5-0.1,0.8-0.1c0.3,0,0.5,0.2,0.8,0.2c0.3,0,0.5-0.2,0.8-0.2
		c0.3,0,0.5,0.2,0.8,0.1c0.3,0,0.5-0.1,0.8-0.2c0.3,0,0.5-0.2,0.8-0.2c0.3,0,0.6,0.2,0.8,0.1c0.3,0,0.5-0.2,0.8-0.2
		c0.3,0,0.5,0,0.8-0.1c0.3-0.1,0.5-0.1,0.8-0.2c0.3-0.1,0.5-0.3,0.7-0.4c0.3-0.1,0.6,0.1,0.8,0c0.3-0.1,0.5-0.3,0.7-0.4
		c0.3-0.1,0.5-0.1,0.8-0.2c0.3-0.1,0.5-0.1,0.8-0.2c0.3-0.1,0.5-0.1,0.8-0.2c0.2-0.1,0.5-0.2,0.7-0.3c0.2-0.1,0.4-0.4,0.7-0.4
		c0.2-0.1,0.6,0,0.8,0c0.2-0.1,0.4-0.4,0.7-0.5c0.2-0.1,0.5-0.1,0.8-0.2c0.2-0.1,0.5-0.2,0.7-0.3c0.2-0.1,0.5-0.1,0.8-0.2
		c0.2-0.1,0.5-0.2,0.7-0.3c0.2-0.1,0.4-0.5,0.6-0.6c0.2-0.1,0.4-0.3,0.7-0.4c0.2-0.1,0.5-0.2,0.7-0.3c0.2-0.1,0.5-0.2,0.7-0.3
		c0.2-0.1,0.4-0.3,0.7-0.4c0.2-0.1,0.5-0.1,0.8-0.3c0.2-0.1,0.3-0.5,0.5-0.6c0.2-0.1,0.5-0.2,0.7-0.4c0.2-0.1,0.6-0.1,0.8-0.2
		c0.2-0.1,0.3-0.4,0.6-0.6c0.2-0.1,0.5-0.1,0.8-0.3c0.2-0.1,0.4-0.3,0.6-0.4c0.2-0.1,0.3-0.4,0.5-0.6c0.2-0.2,0.5-0.3,0.7-0.4
		c0.2-0.2,0.4-0.3,0.7-0.4c0.2-0.2,0.5-0.2,0.7-0.4c0.2-0.2,0.3-0.4,0.6-0.6c0.2-0.2,0.4-0.3,0.6-0.5c0.2-0.2,0.5-0.2,0.7-0.4
		c0.2-0.2,0.3-0.5,0.5-0.6c0.2-0.2,0.6-0.2,0.8-0.3c0.2-0.2,0.2-0.6,0.4-0.7c0.2-0.2,0.5-0.3,0.7-0.4c0.2-0.2,0.4-0.4,0.5-0.6
		c0.2-0.2,0.5-0.2,0.7-0.4c0.2-0.2,0.3-0.5,0.4-0.7c0.2-0.2,0.3-0.4,0.5-0.6c0.2-0.2,0.5-0.2,0.7-0.4c0.2-0.2,0.4-0.4,0.6-0.6
		c0.2-0.2,0.3-0.4,0.5-0.6c0.2-0.2,0.4-0.3,0.6-0.5c0.2-0.2,0.2-0.5,0.3-0.7c0.2-0.2,0.6-0.2,0.7-0.4c0.2-0.2,0.1-0.6,0.3-0.8
		c0.2-0.2,0.3-0.4,0.5-0.6c0.2-0.2,0.5-0.3,0.7-0.5c0.2-0.2,0.3-0.4,0.5-0.6c0.2-0.2,0.1-0.5,0.3-0.8c0.2-0.2,0.4-0.3,0.6-0.5
		c0.1-0.2,0.1-0.6,0.2-0.8c0.1-0.2,0.6-0.3,0.7-0.5c0.1-0.2,0-0.6,0.1-0.8c0.1-0.2,0.5-0.4,0.6-0.6C52.3,7.2,52.2,6.8,52.3,6.5z"/>
</g>
<g>
	<path class="st7" d="M52.4,88.6c-0.3,0.2-0.7,0.3-1.1,0.4c-0.4,0.1-0.7,0.3-1.2,0.4c-0.4,0.1-0.8,0.2-1.2,0.3
		c-0.4,0.1-0.8,0.1-1.2,0.2c-0.4,0.1-0.8,0.2-1.2,0.3c-0.4,0.1-0.8,0.2-1.2,0.3c-0.4,0.1-0.9-0.1-1.3,0c-0.4,0.1-0.8,0-1.2,0.1
		C42.4,90.7,42,91,41.6,91c-0.5,0-0.9-0.1-1.2-0.1c-0.3,0-0.7,0-1.2-0.1c-0.4,0-0.8,0-1.2,0c-0.4,0-0.8-0.1-1.2-0.1
		c-0.4-0.1-0.8-0.4-1.2-0.4c-0.4-0.1-0.8,0.1-1.2,0c-0.4-0.1-0.8-0.3-1.2-0.4c-0.4-0.1-0.8-0.2-1.2-0.3c-0.4-0.1-0.9-0.1-1.2-0.2
		c-0.4-0.1-0.8-0.4-1.1-0.5c-0.4-0.2-0.8-0.4-1.1-0.6c-0.3,0.2-0.5,0.7-0.8,1.1c-0.3,0.3-0.6,0.5-0.9,0.9c-0.2,0.3-0.5,0.6-0.7,1
		c-0.2,0.3-0.4,0.7-0.7,1c-0.2,0.3-0.6,0.6-0.9,0.9c-0.2,0.3-0.4,0.7-0.6,1.1c-0.2,0.3-0.4,0.7-0.6,1.1c-0.2,0.3-0.5,0.6-0.8,1
		c-0.2,0.3-0.2,0.8-0.4,1.2c-0.2,0.4-0.6,0.6-0.9,0.9c-0.2,0.4-0.4,0.7-0.6,1.1c-0.2,0.4-0.2,0.8-0.4,1.2c-0.2,0.4-0.4,0.7-0.6,1.1
		c-0.2,0.4-0.5,0.7-0.7,1c-0.2,0.4-0.3,0.8-0.5,1.1c-0.2,0.4-0.4,0.8-0.5,1.1c-0.2,0.4-0.3,0.8-0.5,1.1c-0.2,0.4-0.4,0.7-0.6,1.1
		c-0.2,0.4-0.4,0.7-0.6,1.1c-0.2,0.4-0.3,0.8-0.5,1.2c-0.2,0.4-0.5,0.7-0.7,1.1c-0.2,0.4-0.2,0.8-0.4,1.2c-0.2,0.4-0.5,0.7-0.6,1.1
		c-0.2,0.4-0.2,0.8-0.4,1.2c-0.2,0.4-0.4,0.7-0.6,1.1c-0.2,0.4-0.2,0.8-0.3,1.2c-0.1,0.4-0.3,0.8-0.4,1.2c-0.1,0.5-0.3,1-0.4,1.3
		c0.6,0.2,0.7,0,1.3,0c0.6,0,0.6-0.1,1.2-0.1c0.6,0,0.6-0.2,1.2-0.2c0.6,0,0.6,0.1,1.2,0.1c0.6,0,0.6,0.1,1.2,0.1
		c0.6,0,0.6,0.2,1.2,0.2c0.6,0,0.6-0.1,1.2-0.1c0.6,0,0.6,0.1,1.2,0.1c0.6,0,0.6-0.2,1.2-0.2c0.6,0,0.6,0.1,1.2,0.1
		c0.6,0,0.6,0,1.2,0c0.6,0,0.6,0.1,1.2,0.1c0.6,0,0.6-0.2,1.2-0.2c0.6,0,0.6,0.1,1.2,0.1c0.6,0,0.6-0.1,1.2-0.1
		c0.6,0,0.6,0.1,1.2,0.1c0.6,0,0.6-0.1,1.2-0.1c0.6,0,0.6,0,1.2,0c0.6,0,0.6,0.1,1.2,0.1c0.6,0,0.6-0.2,1.2-0.2
		c0.6,0,0.6,0.2,1.2,0.2c0.6,0,0.6-0.2,1.2-0.2c0.6,0,0.6,0.2,1.2,0.2c0.6,0,0.6,0,1.2,0c0.6,0,0.6-0.3,1.2-0.3
		c0.6,0,0.6,0.1,1.2,0.1c0.6,0,0.6,0,1.2,0c0.6,0,0.6,0,1.2,0c0.6,0,0.6,0.1,1.2,0.1c0.6,0,0.6,0.1,1.2,0.1c0.6,0,0.6-0.3,1.2-0.3
		c0.6,0,0.6,0.2,1.2,0.2c0.6,0,0.6,0.1,1.2,0.1c0.6,0,0.6-0.1,1.2-0.1c0.6,0,0.6-0.2,1.2-0.2c0.6,0,0.6,0.2,1.2,0.2
		c0.6,0,0.6,0,1.2,0c0.6,0,0.6,0.1,1.2,0.1c0.6,0,0.6-0.2,1.2-0.2c0.6,0,0.6,0.1,1.2,0.1c0.6,0,0.6-0.2,1.2-0.2
		c0.6,0,0.6,0.2,1.2,0.2c0.6,0,0.6,0,1.2,0c0.6,0,0.6-0.1,1.2-0.1c0.6,0,0.6,0.1,1.2,0.1s0.7,0.4,1.3,0.2c-0.1-0.3-0.2-0.9-0.3-1.3
		c-0.1-0.4-0.3-0.7-0.4-1.2c-0.1-0.4-0.2-0.8-0.4-1.2c-0.1-0.4-0.4-0.7-0.6-1.1c-0.2-0.4-0.3-0.8-0.5-1.1c-0.2-0.4-0.4-0.7-0.5-1.1
		c-0.2-0.4-0.1-0.8-0.3-1.2c-0.2-0.4-0.3-0.8-0.5-1.2c-0.2-0.4-0.6-0.6-0.8-1c-0.2-0.4-0.3-0.8-0.5-1.2c-0.2-0.4-0.3-0.8-0.5-1.1
		c-0.2-0.4-0.3-0.8-0.5-1.1c-0.2-0.4-0.5-0.7-0.7-1c-0.2-0.4-0.3-0.8-0.5-1.2c-0.2-0.4-0.5-0.7-0.7-1.1c-0.2-0.4-0.2-0.8-0.4-1.2
		c-0.2-0.4-0.5-0.7-0.7-1c-0.2-0.4-0.6-0.6-0.8-1c-0.2-0.4-0.3-0.8-0.5-1.1c-0.2-0.4-0.3-0.8-0.5-1.1c-0.2-0.4-0.6-0.6-0.8-1
		c-0.2-0.4-0.6-0.6-0.8-1c-0.2-0.4-0.5-0.7-0.7-1c-0.2-0.4-0.5-0.7-0.7-1c-0.2-0.4-0.4-0.7-0.6-1.1c-0.3-0.3-0.3-0.8-0.6-1.1
		c-0.3-0.3-0.6-0.7-0.8-0.9C53.1,89,52.7,88.8,52.4,88.6z"/>
</g>
</svg>
