<?xml version="1.0" encoding="utf-8"?>
<!-- Generator: Adobe Illustrator 24.1.2, SVG Export Plug-In . SVG Version: 6.00 Build 0)  -->
<svg version="1.1" id="レイヤー_1" xmlns="http://www.w3.org/2000/svg" xmlns:xlink="http://www.w3.org/1999/xlink" x="0px"
	 y="0px" viewBox="0 0 240 71" style="enable-background:new 0 0 240 71;" xml:space="preserve">
<style type="text/css">
	.st0{display:none;}
	.st1{fill:#FFFFFF;}
</style>
<path class="st0" d="M47.1,50.7c-0.1-0.1-0.1-0.2-0.2-0.3c-0.6-0.4-1.1-0.6-1.7-0.9c-0.6-0.1-1.2-0.4-1.8-0.8
	c-0.4-0.2-0.8-0.5-1.2-0.6s-0.9-0.4-1.2-0.6c-0.3-0.1-0.6-0.3-0.8-0.6c-0.2-0.2-0.6-0.4-0.8-0.4c-0.6-0.2-1.2-0.6-1.8-1
	s-1.1-0.9-1.7-1.2c-0.1-0.1-0.3-0.1-0.5-0.3c-0.2-0.1-0.4-0.2-0.4-0.3c-0.1-0.1-0.3-0.2-0.4-0.4c-0.2-0.1-0.4-0.3-0.6-0.4
	c-1.1-0.8-2.1-1.6-3.1-2.6s-1.9-1.9-2.8-2.9c-0.2-0.2-0.4-0.4-0.6-0.6s-0.4-0.4-0.6-0.6c-0.1-0.1-0.3-0.4-0.4-0.6
	c-0.1-0.2-0.3-0.4-0.4-0.6s-0.4-0.3-0.8-0.4s-0.6-0.1-0.9-0.1h-0.9c-0.1,0-0.1,0-0.2,0c-0.3-0.1-0.6-0.1-0.9-0.2c0-0.1,0-0.3,0-0.4
	c-0.1-0.4-0.2-0.9-0.3-1.4c-0.1-0.6-0.2-1.1-0.4-1.6c-0.1-0.4-0.3-0.8-0.4-0.9c-0.1-0.1-0.1-0.2-0.3-0.4c-0.1-0.1-0.2-0.3-0.2-0.4
	c0-0.4,0-0.9,0.1-1.4s0.1-0.9,0.1-1.4c0-0.4,0.1-0.6,0.1-0.9s0.1-0.6,0.1-0.9c0-0.1-0.1-0.4-0.2-0.8c0.1-0.1,0.1-0.4,0.1-0.7
	s0.1-0.5,0.3-0.6c0.1,0,0.3,0,0.8-0.1c0.4,0,1,0,1.6-0.1h2.6c0.2,0,0.5,0,0.8,0.1c0.2,0.1,0.4,0.1,0.7,0.1c0.5,0,1,0,1.4-0.1
	s0.9-0.1,1.4-0.1H32c0.4,0.1,0.8,0.1,1.2,0.1c0.2,0,0.5,0,0.8-0.1s0.5-0.1,0.8-0.1s0.6,0,0.8,0.1s0.5,0.1,0.8,0.1
	c0.4,0,0.8,0,1.1-0.1c0.4-0.1,0.6-0.3,0.6-0.8v-0.4C38,21,38,20.8,38,20.7s0-0.4,0.1-0.6v-0.6C38,19.4,38,19.2,38,19.1
	C37.9,19,37.8,19,37.6,19H37c-0.2,0.1-0.4,0.1-0.6,0.1c-0.4,0-0.6-0.1-0.9-0.1c-0.3-0.1-0.6-0.1-0.9-0.1c-0.1-0.1-0.2-0.1-0.4-0.1
	s-0.4,0.1-0.5,0.1S33.3,19,33.2,19s-0.3,0-0.4-0.1s-0.3-0.1-0.4-0.1H31c-0.2,0-0.4,0-0.6,0.1S30,19,29.8,19c-0.3,0-0.6-0.1-0.9-0.1
	c-0.2-0.1-0.6-0.1-0.9-0.1c-0.2,0-0.6,0.1-0.9,0.1S26.5,19,26.2,19h-3c-0.9,0-1.6-0.1-1.9-0.4s-0.5-0.9-0.5-1.8v-0.7
	c0-0.2,0.1-0.5,0.1-0.8c0.1-0.2,0.1-0.4,0.1-0.7c0-0.4,0-0.9-0.1-1.4c-0.1-0.4-0.1-0.9-0.1-1.3c0-0.2,0-0.6,0.1-0.8s0.1-0.5,0.1-0.8
	s-0.1-0.4-0.1-0.6c-0.1-0.1-0.3-0.1-0.6-0.1h-0.8c-0.2,0.1-0.5,0.1-0.8,0.1c-0.6,0-1.1,0.1-1.2,0.1s-0.3,0.4-0.3,1.1
	c0,0.2,0,0.4,0.1,0.6v0.6c0,0.4,0,0.6-0.1,0.9s-0.1,0.6-0.1,0.9c0,0.4,0.1,0.9,0.1,1.2c0.1,0.4,0.1,0.8,0.1,1.2
	c0,0.1-0.1,0.3-0.1,0.4c-0.1,0.2-0.1,0.5-0.1,0.9c0,0.3-0.1,0.6-0.2,0.7c-0.2,0.1-0.5,0.2-0.8,0.2c-0.4,0.1-0.6,0.1-1,0.1
	c-0.4,0.1-0.6,0.1-1,0.1c-0.2,0.1-0.4,0.1-0.5,0.1c-0.4,0-0.9-0.1-1.1-0.1c-0.3-0.1-0.6-0.1-0.9-0.1H9c-0.1,0-0.2,0-0.4,0.1
	c-0.1,0.1-0.2,0.1-0.4,0.1s-0.4,0-0.6-0.1H7c-0.2,0-0.4,0-0.6,0.1S6,18.9,5.8,18.9s-0.4-0.1-0.6-0.1c-0.2-0.1-0.4-0.1-0.6-0.1
	c-0.4,0-0.8,0-1.2,0.1s-0.8,0.1-1.2,0.1h-6.4c-0.1,0-0.2,0-0.4-0.1h-0.6c-0.2,0-0.4,0-0.6,0.1S-6,19-6.1,19.1s-0.1,0.2-0.1,0.4
	s0.1,0.6,0.1,0.8C-6,20.6-6,20.9-6,21.2c0,0.1,0,0.2-0.1,0.2c0,0.1,0,0.1-0.1,0.2c-0.1,0.1-0.1,0.2-0.1,0.2c0,0.2,0.2,0.4,0.6,0.4
	c0.4,0.1,0.6,0.1,0.8,0.1s0.6,0,0.9-0.1h0.9c0.4,0,0.6,0,1,0.1c0.3,0.1,0.6,0.1,0.9,0.1c0.1,0,0.2,0,0.4-0.1
	c0.1-0.1,0.1-0.1,0.3-0.1h0.4c0.2,0.1,0.4,0.1,0.6,0.1h0.6c0.1,0,0.3,0,0.4-0.1h0.3c0.2,0,0.4,0,0.7,0.1c0.2,0.1,0.4,0.1,0.6,0.1
	c0.2,0,0.4,0,0.6-0.1c0.1,0,0.4,0,0.6-0.1c0.7-0.1,1.4-0.1,2.2-0.1c0.8,0.1,1.4,0.1,2.1,0.1h3.3c1.1,0.1,2.1,0.1,3.2,0.1
	c0.1,0,0.3,0,0.4-0.1s0.3-0.1,0.4-0.1c0.4,0,0.6,0.1,0.8,0.1c0.1,0.1,0.1,0.4,0.1,0.7c0,0.4,0,0.9-0.1,1.4c-0.1,0.4-0.1,0.9-0.1,1.4
	v0.4c0.1,0.1,0.1,0.1,0.1,0.1c0,0.1,0,0.1,0.1,0.1v0.1c0,0.1-0.1,0.2-0.2,0.3s-0.2,0.1-0.4,0.1s-0.4,0-0.6-0.1s-0.4-0.1-0.6-0.1
	h-0.6c-0.2,0-0.4,0.1-0.6,0.1c-0.2,0.1-0.5,0.2-0.8,0.2c-0.2,0.1-0.4,0.2-0.7,0.4c-0.6,0.4-1.3,0.9-1.9,1.6c-0.6,0.6-1.1,1.3-1.4,2
	c-0.1,0.4-0.3,0.9-0.4,1.4c-0.1,0.6-0.1,1-0.1,1.4v0.9c0,0.4,0.1,0.6,0.1,0.9c0.1,0.9,0.6,1.9,1.1,2.7s1.2,1.5,2.1,1.9
	c0.2,0.1,0.4,0.1,0.6,0.2c0.2,0.1,0.4,0.2,0.6,0.2s0.4-0.1,0.7-0.2c0.2-0.1,0.4-0.4,0.5-0.6s0.2-0.5,0.4-0.8
	c0.1-0.2,0.1-0.5,0.1-0.7c0-0.4-0.1-0.6-0.4-0.8c-0.2-0.1-0.6-0.4-0.9-0.6s-0.6-0.5-0.8-0.9c-0.2-0.3-0.4-0.8-0.4-1.3
	c0-0.4,0.1-0.9,0.1-1.4c0.1-0.6,0.2-1.1,0.5-1.5s0.6-0.8,0.9-1.1c0.4-0.3,0.9-0.4,1.4-0.4c0.4,0,0.9,0.1,1.2,0.3
	c0.4,0.2,0.7,0.5,1,0.9c0.2,0.4,0.5,0.7,0.6,1.1c0.1,0.4,0.2,0.9,0.2,1.2c0,0.1,0,0.3-0.1,0.4s-0.1,0.3-0.1,0.4
	c-0.1,0.1-0.1,0.2-0.1,0.4s0.1,0.3,0.1,0.4s0.1,0.4,0.1,0.6c0,0.4-0.1,0.7-0.1,1.1c-0.1,0.4-0.2,0.8-0.4,1.1
	c-0.1,0.3-0.2,0.7-0.4,1.1c-0.2,0.5-0.4,1-0.7,1.5s-0.4,0.9-0.7,1.4s-0.5,0.8-0.7,1l-2.1,2.1c-0.1,0.1-0.4,0.3-0.6,0.4
	c-0.2,0.1-0.4,0.2-0.6,0.4c-0.4,0.4-0.9,0.6-1.4,0.9s-0.9,0.5-1.5,0.8c-0.1,0.1-0.3,0.1-0.4,0.2C8.3,48,8.1,48,8,48.1
	c-0.2,0.1-0.5,0.1-0.8,0.1s-0.4,0.1-0.7,0.2s-0.6,0.3-0.9,0.4s-0.7,0.1-1.1,0.1c-0.4,0-0.8,0.1-1.2,0.2c-0.1,0.1-0.2,0.1-0.5,0.1
	c-0.2,0.1-0.4,0.2-0.4,0.3s0.1,0.1,0.2,0.3c0.1,0.1,0.2,0.3,0.3,0.4c0.1,0.2,0.2,0.6,0.4,1.1s0.4,0.9,0.5,1.1
	c0.1,0.1,0.2,0.1,0.5,0.1c0.4,0,0.7-0.1,0.9-0.1c0.2-0.1,0.5-0.2,0.9-0.4c0.2-0.1,0.6-0.1,0.8-0.1c0.2-0.1,0.6-0.1,0.8-0.1
	c0.1-0.1,0.3-0.1,0.4-0.2s0.3-0.2,0.4-0.2c0.2-0.1,0.4-0.1,0.6-0.1c0.2-0.1,0.4-0.1,0.6-0.1h0.1c0,0.1,0,0.2,0.1,0.4
	c0,0.2,0,0.4,0.1,0.6v0.4c0,0.6,0,1.2-0.1,1.8s-0.1,1.2-0.1,1.8c0,0.1,0.1,0.4,0.1,0.5c0.1,0.2,0.1,0.4,0.1,0.6c0,0.8,0,1.6-0.1,2.4
	c-0.1,0.9-0.1,1.6-0.1,2.4c0,0.1,0,0.2,0.1,0.3s0.1,0.2,0.1,0.3v9.8c0,0.1,0,0.3-0.1,0.4c-0.1,0.1-0.1,0.3-0.1,0.4v0.9
	c-0.1,0.3-0.1,0.6-0.1,0.9c-0.2,0-0.4,0.1-0.6,0.1c-0.2,0.1-0.4,0.1-0.7,0.1H8.3c-0.1-0.1-0.4-0.1-0.7,0.1c-0.4,0.1-0.6,0.1-0.8,0.1
	c-0.4,0.1-0.9,0.1-1.3,0.1s-0.9,0.1-1.2,0.2c-0.1,0.1-0.2,0.1-0.2,0.2C4,76.1,4,76.2,4,76.3c0,0.2,0.1,0.5,0.2,0.9
	c0.1,0.4,0.2,0.7,0.4,1.1c0.1,0.4,0.4,0.6,0.6,0.9s0.5,0.4,0.8,0.4c0.1,0,0.3,0,0.4-0.1c0.4,0,0.7-0.1,1.1-0.1
	c0.3-0.1,0.6-0.2,1-0.3c0.1,0.1,0.2,0.1,0.4,0.1c0.1-0.1,0.3-0.1,0.4-0.1c0.4-0.1,0.9-0.1,1.2-0.2c0.4-0.1,0.8-0.2,1.1-0.3
	c0.9-0.1,1.8-0.3,2.8-0.6c0.1-0.1,0.3-0.1,0.4-0.1s0.3,0,0.4-0.1c0.2-0.1,0.6-0.1,1.4-0.3c0.7-0.1,1.4-0.4,2.2-0.5
	c0.8-0.2,1.6-0.4,2.2-0.6c0.6-0.2,1.1-0.4,1.1-0.4c0.3-0.1,0.6-0.1,0.9-0.2c0.3-0.1,0.6-0.1,0.9-0.2c0.3-0.1,0.6-0.1,0.9-0.2
	c0.3-0.1,0.6-0.2,0.9-0.2c0.1-0.1,0.2-0.1,0.2-0.2c0.1-0.1,0.1-0.1,0.1-0.1c0-0.1,0-0.1,0.1-0.1c0-0.1,0-0.2,0.1-0.3v-0.2
	c0-0.1,0-0.2-0.1-0.4S26,73.5,26,73.2s-0.1-0.4-0.2-0.6c-0.1-0.1-0.1-0.2-0.2-0.2c-0.1,0-0.3,0.1-0.4,0.1c-0.1,0.1-0.3,0.1-0.4,0.1
	c-0.5,0.1-1,0.1-1.6,0.3s-1.1,0.4-1.6,0.4c-0.1,0.1-0.3,0.1-0.6,0.1c-0.3,0.1-0.5,0.1-0.6,0.1s-0.1,0.1-0.2,0.1
	c-0.3,0-0.6,0.1-0.9,0.1c-0.3,0.1-0.6,0.1-0.9,0.1c-0.4,0-0.9,0.1-1.2,0.2c-0.4,0.1-0.9,0.2-1.3,0.3c-0.4,0.1-0.7,0.1-1,0.2
	c-0.4,0.1-0.7,0.1-1.1,0.2c0.1-0.5,0.1-1,0-1.4s-0.1-0.9-0.1-1.4c0-0.1,0-0.2,0.1-0.3s0.1-0.2,0.1-0.4s0-0.3-0.1-0.4
	s-0.1-0.2-0.1-0.4c0-0.1,0-0.2,0.1-0.3s0.1-0.2,0.1-0.3c0-0.4,0-0.8-0.1-1.1s-0.1-0.8-0.1-1.1c0-0.1,0-0.3,0.1-0.4s0.1-0.3,0.1-0.4
	c0-0.2,0-0.4-0.1-0.7c-0.1-0.2-0.1-0.4-0.1-0.6s0.1-0.4,0.1-0.6c0.1-0.1,0.2-0.1,0.5-0.1c0.4,0,0.8,0,1.1,0.1s0.7,0.1,1.1,0.1
	c0.7,0,1.4,0,2.1-0.1c0.6-0.1,1.4-0.1,2.1-0.1c0.1,0,0.1,0,0.2,0.1S21,65,21,65c0.4,0.4,0.8,0.9,1.1,1.4s0.7,1.1,0.9,1.6
	c0.2,0.4,0.4,0.7,0.6,0.9c0.7,0.8,1.4,1.5,2.2,2.2c0.4,0.3,0.9,0.7,1.4,1.2c0.6,0.6,1.1,0.9,1.4,1.2c0.4,0.2,0.9,0.6,1.2,0.8
	c0.4,0.3,0.8,0.6,1.2,0.9c0.2,0.1,0.6,0.3,0.9,0.4s0.6,0.3,0.9,0.4c0.2,0.1,0.4,0.2,0.6,0.4c0.2,0.1,0.4,0.2,0.6,0.3
	c0.6,0.2,1.1,0.4,1.6,0.6s1.1,0.4,1.6,0.6c0.2,0.1,0.6,0.2,0.9,0.4c0.4,0.1,0.6,0.2,0.9,0.2c0.1,0.1,0.1,0.1,0.3,0.1
	c0.1,0,0.2,0,0.3,0.1c0.4,0.1,0.8,0.2,1.1,0.4c0.4,0.1,0.8,0.3,1.1,0.4c0.1-0.1,0.1-0.1,0.2-0.1h0.3c0.1,0,0.4-0.1,0.6-0.4
	c0.2-0.3,0.6-0.6,0.8-1s0.4-0.8,0.6-1.1s0.3-0.6,0.3-0.8c0-0.1-0.1-0.2-0.4-0.4c-0.2-0.1-0.6-0.1-0.9-0.2s-0.6-0.1-1-0.2
	s-0.6-0.1-0.8-0.1c-0.3-0.1-0.6-0.2-0.9-0.2c-0.4,0.1-0.7,0-0.9-0.1s-0.8-0.3-1.6-0.6c-0.9-0.2-1.7-0.6-2.6-0.9
	c-0.9-0.4-1.7-0.6-2.4-1S32,71.8,32,71.5c0-0.1,0.1-0.1,0.1-0.2c0.1-0.1,0.1-0.1,0.2-0.1c0.4-0.2,0.8-0.6,1.4-0.8
	c0.5-0.2,0.9-0.5,1.1-0.8c0.4-0.3,0.7-0.6,1.1-0.9l1.2-0.8c0.6-0.3,1.1-0.7,1.7-1.2c0.6-0.6,1.1-1,1.6-1.4c0.1-0.1,0.2-0.1,0.4-0.2
	c0.1-0.1,0.2-0.2,0.2-0.4c0-0.1-0.1-0.4-0.4-0.6s-0.6-0.6-0.9-0.8c-0.4-0.2-0.6-0.5-0.9-0.7c-0.4-0.1-0.6-0.2-0.7-0.2
	c-0.1,0.1-0.3,0.2-0.5,0.4L37,63.4c-0.2,0.2-0.4,0.4-0.6,0.5c-0.1,0.1-0.3,0.2-0.4,0.2c-0.1-0.1-0.1-0.3-0.1-0.6v-0.6
	c0-0.4,0-0.7,0.1-1.1c0.1-0.3,0.1-0.6,0.1-1s0-0.6-0.1-1c-0.1-0.3-0.1-0.6-0.1-0.9v-1.1c-0.1-0.4,0-0.8,0.1-0.9
	c0.1-0.1,0.1-0.1,0.1-0.2v-0.1c0-0.4,0-0.9-0.1-1.4s-0.1-1-0.1-1.4c0-0.1,0.1-0.3,0.1-0.4c0.1-0.1,0.1-0.2,0.1-0.4
	c0-0.4,0-0.9-0.1-1.4s-0.1-0.9-0.1-1.4c0-0.1,0.1-0.4,0.1-0.6c0.2,0.1,0.7,0.4,1.4,0.8s1.6,0.9,2.4,1.4c0.9,0.4,1.6,0.9,2.4,1.2
	s1.2,0.6,1.4,0.6c0.4,0,0.6-0.1,0.9-0.4c0.1-0.1,0.2-0.3,0.4-0.5c0.1-0.1,0.3-0.4,0.4-0.6c0.1-0.2,0.2-0.4,0.4-0.6s0.1-0.4,0.1-0.6
	C47.1,50.9,47.1,50.8,47.1,50.7z M17.3,47.7c0.2-0.2,0.5-0.6,0.7-0.8s0.4-0.5,0.6-0.8c0.2-0.3,0.5-0.7,0.9-1.1
	c0.1-0.1,0.3-0.4,0.4-0.5s0.2-0.3,0.4-0.4c0.2-0.4,0.4-0.9,0.7-1.4s0.4-1.2,0.6-1.9c0.2-0.6,0.4-1.3,0.6-1.9c0-0.1,0-0.1,0-0.2
	c0.7,0,1.3,0.1,1.9,0.3c0.1,0.1,0.2,0.1,0.3,0.2c0.2,0.3,0.6,0.6,0.9,0.9c0.3,0.4,0.6,0.7,0.9,1.1c0.3,0.4,0.5,0.6,0.6,0.6
	c0.8,0.8,1.6,1.4,2.3,2.2s1.6,1.4,2.4,2.1c0.2,0.1,0.4,0.2,0.6,0.4c0.2,0.1,0.4,0.3,0.6,0.4c0.1,0.1,0.4,0.2,0.5,0.4
	s0.4,0.3,0.5,0.4c0.1,0.1,0.4,0.2,0.7,0.4c0.2,0.1,0.4,0.2,0.5,0.4c-0.1,0.1-0.1,0.1-0.2,0h-0.2c-0.5,0-1,0-1.5-0.1s-1-0.1-1.5-0.1
	c-0.1,0-0.4,0-0.5,0.1s-0.4,0.1-0.5,0.1c-0.2,0-0.4,0-0.6-0.1c-0.2-0.1-0.4-0.1-0.6-0.1c-0.1,0-0.2,0-0.4,0.1s-0.2,0.1-0.4,0.1
	c-0.4,0-0.8-0.1-1.1-0.1s-0.8-0.1-1.1-0.1c-0.1,0-0.2,0-0.2,0.1c-0.1,0-0.2-0.1-0.3-0.1s-0.1-0.1-0.1-0.4v-1.4
	c0-0.9-0.1-1.6-0.3-2.2s-0.9-0.8-1.9-0.8c-0.1,0-0.4,0-0.8,0.1c-0.4,0.1-0.6,0.1-0.6,0.4c0,0.4,0,0.8,0.1,1.2v1.2
	c0,0.2,0,0.5-0.1,0.7S22,47.6,22,47.9c0,0.1,0,0.1,0.1,0.2c0.1,0.1,0.1,0.2,0.1,0.2h-5c-0.1,0-0.2,0-0.4,0.1c-0.1,0-0.2,0.1-0.3,0.1
	C16.8,48.1,17.1,47.8,17.3,47.7z M14.4,52.5v-0.4c-0.1-0.1-0.1-0.2-0.1-0.4c0-0.1,0-0.1,0.1-0.1c0-0.1,0.1-0.1,0.2-0.1
	c0.1-0.1,0.3-0.1,0.4-0.1h0.5c0.1,0,0.2,0,0.2,0h2.1c0.1,0,0.4,0,0.5-0.1s0.3-0.1,0.4-0.1c0.2,0,0.4,0,0.6,0.1
	c0.2,0.1,0.4,0.1,0.6,0.1h4.6c0.1,0,0.3,0,0.4-0.1c0.1-0.1,0.2-0.1,0.4-0.1c0.4,0,0.8,0,1.1,0.1s0.8,0.1,1.1,0.1s0.8,0,1.1-0.1
	s0.8-0.1,1.1-0.1h0.8c0.4,0,0.8,0,1.2,0.1s0.8,0.1,1.1,0.1c0.4,0.1,0.5,0.2,0.5,0.4v0.4c-0.1,0.1-0.1,0.3-0.1,0.4
	c0,0.2,0.1,0.5,0.1,0.8s0.1,0.5,0.1,0.8s0,0.4-0.1,0.6c-0.1,0-0.1,0-0.1,0c-0.1,0.1-0.1,0.1-0.1,0.1c-0.6,0-1.1,0-1.8,0.1
	s-1.2,0.1-1.8,0.1c-0.9,0-1.8,0-2.6-0.1s-1.8-0.1-2.6-0.1c-0.4,0-0.8,0-1.1,0.1s-0.8,0.1-1.1,0.1c-0.1,0-0.3,0-0.4-0.1
	c-0.1-0.1-0.3-0.1-0.4-0.1s-0.2,0-0.4,0.1s-0.2,0.1-0.3,0.1c-0.6,0-1.2-0.1-1.9-0.1s-1.2-0.1-1.9-0.1c-0.4,0-0.8,0-1.1,0.1
	s-0.8,0.1-1.1,0.1S14,55,14,54.9c-0.1-0.1-0.1-0.4-0.1-0.7v-0.3c-0.1-0.1-0.1-0.1-0.1-0.2c0-0.1,0-0.2,0.1-0.4
	c0.1-0.1,0.1-0.2,0.1-0.4C14.4,52.7,14.4,52.5,14.4,52.5z M24.7,61.8c-0.2-0.1-0.5-0.1-0.8-0.1s-0.5,0-0.7,0.1s-0.5,0.1-0.8,0.1
	c-0.1,0-0.3-0.1-0.4-0.1c-0.1-0.1-0.2-0.1-0.4-0.1h-2.9c-0.1,0-0.2,0-0.3,0.1s-0.2,0.1-0.4,0.1h-2.3c-0.1,0-0.4,0-0.5-0.1
	s-0.4-0.1-0.5-0.1h-0.1c-0.1,0.1-0.1-0.1-0.1-0.2c-0.1-0.1-0.1-0.2-0.1-0.2v-0.7c-0.1-0.2-0.1-0.6-0.1-0.8c0-0.9,0.2-1.4,0.6-1.6
	s0.9-0.2,1.6-0.2c0.1,0,0.2-0.1,0.4-0.1s0.2-0.1,0.4-0.1h2.9c0.6,0.1,1.2,0.1,1.8,0.1c0.5,0.1,0.8,0.1,0.9,0.1h0.4
	c0.1,0,0.2,0,0.4-0.1H24c0.8,0,1.6,0,2.3,0.1s1.6,0.1,2.3,0.1c0.2,0,0.5-0.1,0.8-0.1c0.2-0.1,0.4-0.1,0.7-0.1s0.6,0,0.8,0.1
	s0.6,0.1,0.8,0.1c0.1,0,0.1,0,0.1-0.1c0.1,0,0.1,0,0.1,0c0.1-0.1,0.1-0.1,0.3-0.1c0.8,0,1.2,0.1,1.4,0.4c0.1,0.3,0.2,0.8,0.2,1.4
	c0,0.6-0.1,1-0.4,1.2c-0.2,0.3-0.6,0.5-0.9,0.6c-0.4,0.1-0.8,0.2-1.2,0.2c-0.4,0.1-0.9,0.1-1.3,0.1h-0.6c-0.2,0.1-0.4,0.1-0.7,0.1
	c-0.2,0-0.4-0.1-0.6-0.1c-0.2-0.1-0.4-0.1-0.6-0.1c-0.3,0-0.6,0-0.9,0.1c-0.3,0.1-0.6,0.1-0.9,0.1C25.2,61.9,24.9,61.9,24.7,61.8z
	 M36.1,65.5c-0.2,0.2-0.4,0.4-0.5,0.4c-0.1,0.1-0.4,0.4-0.5,0.6s-0.4,0.4-0.5,0.4c-0.4,0.2-0.7,0.4-1.1,0.8
	c-0.4,0.3-0.8,0.6-1.2,0.9c-0.4,0.3-0.8,0.6-1.1,0.9c-0.4,0.2-0.8,0.4-1.1,0.6c-0.1-0.1-0.4-0.2-0.8-0.6s-0.8-0.6-1.1-1.1
	c-0.4-0.4-0.8-0.8-1.1-1.1c-0.4-0.4-0.6-0.6-0.7-0.8S26.1,66.1,26,66c-0.1-0.1-0.2-0.4-0.4-0.5c-0.2-0.2-0.3-0.4-0.4-0.4
	c0.1-0.1,0.4-0.1,0.6-0.1c0.1,0,0.2,0,0.4,0.1c0.1,0.1,0.1,0.1,0.3,0.1h4.4c0.7,0,1.4,0,2.1-0.1c0.6-0.1,1.4-0.1,2.1-0.1
	c0.1,0,0.4,0,0.6,0.1c0.1,0.1,0.4,0.1,0.5,0.1h0.2C36.5,65.1,36.3,65.3,36.1,65.5z"/>
<g>
	<path class="st1" d="M103.8,20.1c0.2,0,0.4-0.1,0.6-0.1c0.3,0,0.5,0,0.7,0.1c0.2,0,0.4,0.1,0.7,0.1c0.1,0,0.3,0,0.4,0s0.3,0,0.4,0
		c0.2,0,0.5,0,0.7,0.1s0.4,0.1,0.6,0.2c0.3,0,0.6,0.1,0.9,0.1s0.6,0.1,0.8,0.1c0.2,0,0.3,0.1,0.5,0.1c0.1,0.1,0.3,0.1,0.5,0.2
		c0.1,0,0.3,0.1,0.5,0.1s0.5,0.1,0.6,0.1c0.2,0.1,0.4,0.1,0.6,0.3c0.1,0.1,0.2,0.3,0.2,0.4c0,0.1,0,0.3-0.1,0.5
		c-0.1,0.3-0.2,0.5-0.4,0.7c-0.1,0.3-0.3,0.4-0.5,0.6c-0.2,0.2-0.3,0.3-0.5,0.3c-0.1,0-0.2,0-0.3-0.1c-0.1-0.1-0.2-0.1-0.4-0.1
		c-0.1,0-0.2,0.1-0.3,0.4c-0.1,0.3-0.2,0.5-0.2,0.6c-0.1,0.2-0.2,0.4-0.3,0.6s-0.2,0.4-0.3,0.6c-0.3,0.5-0.6,1-0.9,1.5s-0.6,1-1,1.5
		c-0.1,0.1-0.2,0.3-0.3,0.4c-0.1,0.2-0.2,0.3-0.2,0.5c0,0.1,0.1,0.3,0.2,0.4c0.1,0.1,0.3,0.3,0.5,0.4s0.3,0.2,0.5,0.3
		s0.3,0.1,0.4,0.1c0.1,0.1,0.3,0.2,0.5,0.3c0.1,0.1,0.3,0.1,0.4,0.3c0.3,0.2,0.5,0.4,0.7,0.6s0.5,0.4,0.7,0.6
		c0.2,0.1,0.4,0.3,0.6,0.4s0.3,0.3,0.5,0.4c0.3,0.1,0.5,0.3,0.8,0.5c0.2,0.2,0.5,0.4,0.6,0.6c0.2,0.3,0.5,0.5,0.8,0.7
		s0.5,0.5,0.7,0.8c0,0.1,0.1,0.2,0.2,0.4s0.3,0.4,0.4,0.7s0.2,0.5,0.3,0.7c0.1,0.2,0.1,0.4,0.1,0.4c0,0.1,0,0.3,0,0.4s0,0.3,0,0.4
		v0.8c0,0.1,0,0.1,0,0.2v0.1c0,0.1,0,0.3,0.1,0.4s0,0.3,0,0.4c0,0.2,0,0.3-0.1,0.3s-0.3,0.1-0.5,0.1c-0.1,0-0.3,0-0.4,0
		s-0.3,0-0.4,0c-0.3,0-0.5,0-0.8,0.1s-0.5,0.2-0.6,0.2c-0.2,0-0.3-0.1-0.3-0.4c0-0.3-0.1-0.5-0.1-0.6s0-0.1,0-0.2c0-0.1,0-0.1,0-0.2
		c0,0,0-0.1,0-0.2s0-0.3-0.1-0.5c-0.1-0.3-0.1-0.5-0.3-0.8c-0.1-0.3-0.2-0.6-0.3-0.8s-0.2-0.4-0.2-0.5c-0.2-0.3-0.4-0.5-0.6-0.7
		c-0.3-0.2-0.5-0.4-0.8-0.6c-0.3-0.2-0.7-0.6-1.2-1s-1-0.9-1.5-1.3c-0.6-0.4-1.1-0.8-1.6-1.1s-1-0.4-1.3-0.4c-0.2,0-0.4,0.1-0.5,0.2
		c-0.1,0.1-0.3,0.3-0.4,0.4c-0.1,0.1-0.3,0.3-0.5,0.6c-0.3,0.3-0.5,0.5-0.8,0.8s-0.6,0.5-0.9,0.8s-0.5,0.4-0.7,0.6s-0.4,0.3-0.6,0.4
		s-0.4,0.3-0.5,0.4c0,0.1-0.1,0.1-0.1,0.2c-0.1,0.1-0.1,0.1-0.3,0.2c-0.2,0.1-0.4,0.2-0.6,0.2c-0.2,0.1-0.3,0.2-0.5,0.3
		c-0.3,0.2-0.5,0.4-0.7,0.6c-0.2,0.2-0.4,0.4-0.7,0.5c-0.1,0.1-0.2,0.1-0.3,0.2c-0.1,0-0.3,0.1-0.4,0.1c-0.2,0.1-0.4,0.2-0.6,0.3
		s-0.4,0.2-0.6,0.3c-0.1,0-0.2,0.1-0.3,0.1c-0.1,0-0.2,0.1-0.3,0.1c0,0-0.1,0-0.3,0.1c-0.1,0.1-0.3,0.1-0.4,0.2
		c-0.1,0.1-0.3,0.2-0.4,0.3s-0.2,0.1-0.3,0.2c-0.6,0.4-1.3,0.7-1.9,0.9s-1.3,0.4-2,0.6c-0.3,0.1-0.5,0.2-0.8,0.3
		c-0.3,0.2-0.6,0.3-0.8,0.3s-0.5-0.1-0.6-0.4c-0.1-0.2-0.3-0.5-0.5-0.9c-0.2-0.3-0.3-0.6-0.3-0.9c0-0.1,0.1-0.3,0.2-0.4
		s0.3-0.2,0.5-0.3s0.4-0.1,0.6-0.2c0.2,0,0.4-0.1,0.5-0.1s0.2-0.1,0.3-0.1c0.1,0,0.2,0,0.3,0c0,0,0.1-0.1,0.3-0.1
		c0.1-0.1,0.3-0.1,0.4-0.2c0.1-0.1,0.3-0.1,0.4-0.2s0.1-0.1,0.2-0.1c0.2-0.1,0.4-0.2,0.6-0.2s0.4-0.1,0.6-0.1c0.1,0,0.3-0.1,0.4-0.1
		s0.2-0.1,0.3-0.1c0.4-0.2,0.8-0.4,1.2-0.7c0.4-0.2,0.8-0.4,1.2-0.6c0.2-0.1,0.4-0.3,0.6-0.4s0.4-0.3,0.6-0.4c0.1,0,0.2-0.1,0.3-0.2
		c0-0.1,0.1-0.1,0.2-0.2c0.2-0.1,0.4-0.3,0.6-0.4c0.2-0.1,0.4-0.2,0.6-0.3c0.1,0,0.2-0.1,0.3-0.2s0.1-0.1,0.2-0.2
		c0.1-0.1,0.1-0.1,0.3-0.2c0.1,0,0.1-0.1,0.3-0.1c0.1,0,0.2-0.1,0.3-0.2c0-0.1,0.1-0.1,0.2-0.2c0.2-0.1,0.3-0.3,0.4-0.4
		c0.1-0.1,0.2-0.3,0.3-0.4c0.3-0.3,0.6-0.6,0.9-0.8s0.6-0.5,0.9-0.8c0.1-0.1,0.2-0.3,0.3-0.4c0.1-0.1,0.2-0.3,0.3-0.4
		c0.2-0.2,0.4-0.4,0.6-0.5s0.4-0.3,0.5-0.5s0.2-0.3,0.3-0.5c0.1-0.1,0.2-0.3,0.3-0.5c0.1-0.1,0.2-0.2,0.3-0.3
		c0.1-0.1,0.2-0.2,0.3-0.3c0.2-0.3,0.3-0.5,0.5-0.8c0.1-0.3,0.3-0.5,0.5-0.8c0.1-0.2,0.3-0.4,0.5-0.8c0.2-0.3,0.4-0.6,0.6-1
		c0.2-0.3,0.4-0.7,0.5-1s0.2-0.6,0.2-0.8c0-0.1,0-0.1-0.1-0.1c0,0-0.1,0-0.3,0s-0.3,0-0.4,0s-0.3,0-0.5,0c0,0-0.1,0-0.3,0
		c-0.2,0-0.4,0-0.6,0s-0.4,0-0.6,0c-0.4,0-0.8,0-1.1,0c-0.4,0-0.8,0-1.2,0c-1,0-2,0-3,0s-2,0-3,0c-0.1,0-0.3,0-0.4,0
		s-0.3,0.1-0.4,0.1c-0.2,0-0.5,0-0.6-0.1c-0.2,0-0.5,0-0.7,0c-0.1,0-0.3,0-0.4,0s-0.3,0-0.4,0c0,0-0.1,0-0.3,0c-0.1,0-0.3,0-0.3,0
		c-0.3,0-0.5-0.1-0.5-0.4c0-0.1,0-0.2,0-0.3s0-0.2,0-0.3v-0.9c0-0.3,0.1-0.4,0.3-0.6c0.2-0.1,0.4-0.1,0.6-0.1h1.7
		c0.1,0,0.3,0,0.4,0.1c0.1,0,0.3,0.1,0.4,0.1c0.2,0,0.4,0,0.6,0s0.4,0,0.6,0c0.3,0,0.7,0,1.1,0s0.8,0,1.1-0.1c0.3-0.1,0.7-0.1,1-0.1
		s0.5,0,0.8,0.1c0.2,0,0.5,0.1,0.7,0.1h1.7C103.4,20.2,103.6,20.2,103.8,20.1z"/>
	<path class="st1" d="M147.5,20.3c0,0,0.1,0.1,0.2,0.1c0.3,0,0.5,0,0.7,0s0.5,0,0.7,0c0.3,0,0.6,0,0.9,0.1c0.3,0,0.6,0.1,0.9,0.1
		c0.2,0,0.5,0,0.8,0s0.5,0.1,0.8,0.1c0.2,0,0.5,0.1,0.8,0.2c0.3,0.1,0.6,0.2,1,0.4s0.6,0.3,0.9,0.5c0.2,0.2,0.3,0.4,0.3,0.6
		c0,0.1,0,0.2-0.1,0.4s-0.1,0.3-0.3,0.5c-0.1,0.2-0.3,0.3-0.4,0.4c-0.1,0.1-0.3,0.2-0.4,0.2s-0.2,0-0.2-0.1s-0.1-0.1-0.3-0.1h-0.1
		c0,0,0,0-0.1,0c0,0-0.1,0.1-0.2,0.3s-0.2,0.4-0.3,0.6c-0.1,0.3-0.2,0.5-0.3,0.7c-0.1,0.2-0.1,0.3-0.1,0.4v0.1v0.1c0,0,0,0.1,0,0.2
		c0,0.2-0.1,0.4-0.2,0.7s-0.2,0.5-0.3,0.7c-0.1,0.1-0.1,0.2-0.2,0.3s-0.1,0.2-0.2,0.3s-0.2,0.2-0.3,0.3s-0.2,0.1-0.3,0.3
		c-0.1,0.3-0.3,0.7-0.4,1s-0.3,0.7-0.5,1c-0.3,0.5-0.7,1-1.1,1.5s-0.8,0.9-1.2,1.3c-0.2,0.2-0.4,0.4-0.6,0.7s-0.4,0.5-0.6,0.7
		c-0.3,0.3-0.5,0.5-0.8,0.7s-0.6,0.4-0.8,0.7c-0.3,0.3-0.6,0.6-0.9,0.9c-0.3,0.3-0.6,0.6-0.9,0.8c-0.1,0.1-0.3,0.2-0.5,0.3
		s-0.3,0.2-0.5,0.3s-0.4,0.3-0.5,0.4c-0.2,0.2-0.4,0.3-0.6,0.4c-0.1,0.1-0.3,0.2-0.5,0.3s-0.3,0.1-0.5,0.3c-0.3,0.1-0.5,0.3-0.7,0.4
		c-0.2,0.2-0.5,0.3-0.7,0.4c-0.1,0-0.2,0.1-0.2,0.2c-0.1,0.1-0.1,0.1-0.3,0.2c-0.3,0.2-0.5,0.3-0.8,0.3s-0.6,0.1-0.9,0.3
		c-0.1,0.1-0.2,0.1-0.3,0.2c-0.1,0.1-0.2,0.2-0.3,0.3c-0.6,0.3-1.2,0.6-1.9,0.8c-0.2,0-0.3,0.1-0.5,0.2s-0.3,0.2-0.5,0.3
		s-0.3,0.1-0.5,0.1s-0.3,0.1-0.5,0.1c-0.3,0.2-0.8,0.4-1.2,0.6c-0.5,0.2-0.9,0.3-1.3,0.3c-0.3,0-0.5,0-0.6-0.1
		c-0.2-0.1-0.3-0.2-0.4-0.4s-0.2-0.4-0.3-0.6c-0.1-0.2-0.1-0.4-0.3-0.6c0-0.1-0.1-0.2-0.1-0.3s0-0.1,0-0.3c0-0.3,0.1-0.4,0.5-0.5
		s0.6-0.2,0.7-0.3c0.6,0,1.1-0.1,1.7-0.5c0.6-0.3,1.1-0.6,1.6-0.8c0.3-0.1,0.8-0.3,1.2-0.4c0.5-0.1,0.8-0.3,1.1-0.4
		c0.4-0.2,0.8-0.4,1.2-0.6c0.4-0.2,0.9-0.3,1.3-0.5c0.2-0.1,0.4-0.2,0.5-0.3s0.3-0.2,0.5-0.3c0.3-0.1,0.5-0.3,0.8-0.4
		c0.3-0.1,0.5-0.3,0.8-0.5c0.2-0.2,0.5-0.4,0.6-0.6c0.2-0.2,0.5-0.3,0.7-0.4c0.1,0,0.3-0.1,0.5-0.4c0.2-0.3,0.4-0.4,0.5-0.4
		c0.1-0.1,0.2-0.1,0.3-0.2c0.1,0,0.2-0.1,0.3-0.2c0.2-0.1,0.3-0.3,0.5-0.5c0.1-0.2,0.3-0.3,0.4-0.5c0.2-0.2,0.5-0.4,0.8-0.8
		s0.7-0.7,1-1.1c0.3-0.3,0.6-0.7,0.9-1.1c0.3-0.3,0.5-0.6,0.5-0.8c0.1-0.2,0.2-0.4,0.5-0.7c0.3-0.2,0.5-0.4,0.6-0.6
		c0.2-0.4,0.4-0.8,0.5-1.2s0.3-0.8,0.5-1.2c0.1-0.3,0.3-0.6,0.5-0.8c0.1-0.2,0.2-0.4,0.3-0.6c0.1-0.2,0.1-0.4,0.2-0.7
		c0-0.3,0.1-0.6,0.1-1c0-0.2,0-0.3-0.1-0.3s-0.2,0-0.3,0c-0.3,0-0.5,0-0.7,0c-0.3,0-0.5,0.1-0.8,0.1c-0.6,0-1.1,0-1.7-0.1
		c-0.6,0-1.1-0.1-1.6-0.1c-0.1,0-0.2,0-0.4,0s-0.3,0-0.5,0s-0.4,0-0.5,0s-0.3,0-0.3,0.1c-0.1,0-0.2,0.1-0.2,0.2
		c-0.1,0.1-0.1,0.1-0.2,0.2c-0.2,0.2-0.3,0.4-0.4,0.6c-0.1,0.2-0.2,0.3-0.3,0.5c-0.1,0.1-0.3,0.3-0.4,0.4c-0.2,0.1-0.3,0.3-0.5,0.4
		c-0.3,0.3-0.6,0.6-0.9,0.9c-0.3,0.3-0.6,0.6-0.9,0.9c-0.2,0.2-0.4,0.3-0.7,0.4s-0.5,0.3-0.7,0.4c-0.3,0.3-0.6,0.6-1,0.9
		s-0.8,0.6-1.2,0.8c-0.1,0-0.2,0.1-0.3,0.1c-0.1,0-0.2,0.1-0.3,0.2c-0.1,0.1-0.3,0.1-0.3,0.2c-0.4,0.1-0.8,0.3-1.1,0.5
		c-0.4,0.2-0.8,0.4-1.1,0.7c-0.1,0.1-0.3,0.1-0.4,0.1s-0.3,0.1-0.4,0.2c-0.2,0.1-0.4,0.3-0.6,0.4c-0.2,0.2-0.5,0.3-0.6,0.3
		c-0.2,0-0.4-0.1-0.5-0.2c-0.2-0.1-0.3-0.3-0.5-0.5c-0.1-0.2-0.2-0.4-0.3-0.6s-0.1-0.4-0.1-0.6c0-0.2,0.1-0.3,0.2-0.4
		c0.1-0.1,0.2-0.2,0.4-0.3c0.1-0.1,0.3-0.1,0.4-0.2c0.1,0,0.3-0.1,0.4-0.1s0.3-0.1,0.4-0.3c0.1-0.1,0.2-0.2,0.4-0.2
		c0.3-0.1,0.5-0.2,0.7-0.3s0.4-0.2,0.6-0.3s0.4-0.3,0.5-0.4c0.1-0.1,0.3-0.3,0.5-0.4c0.3-0.2,0.8-0.5,1.3-0.8s0.9-0.6,1.1-0.8
		c0.5-0.4,0.9-0.9,1.4-1.3c0.3-0.3,0.5-0.5,0.8-0.8c0.2-0.3,0.4-0.6,0.7-0.8c0.5-0.5,0.8-1,1.1-1.3c0.3-0.3,0.5-0.7,0.8-1.1
		c0.2-0.3,0.4-0.8,0.6-1.2c0.1-0.4,0.3-1,0.6-1.6c0-0.2,0.1-0.4,0.2-0.6c0.1-0.2,0.1-0.4,0.1-0.6c0-0.1,0-0.3,0-0.4
		c0-0.1,0-0.3,0-0.4c0-0.2,0-0.4,0.1-0.6c0-0.2,0.2-0.3,0.5-0.3c0.1,0,0.2-0.1,0.3-0.1c0.1,0,0.2,0,0.3,0c0.2,0,0.5,0,0.9,0.1
		c0.4,0,0.6,0.1,0.8,0.3c0.1,0.1,0.1,0.2,0.1,0.3s0,0.3,0,0.4c0,0.6-0.1,1.2-0.2,1.7c-0.1,0.6-0.2,1.2-0.2,1.7
		c0,0.3,0.1,0.6,0.3,0.6c0.2,0.1,0.4,0.1,0.7,0.1h1.5C147.3,20.2,147.4,20.2,147.5,20.3L147.5,20.3z M154,18.5
		c0,0.1-0.1,0.2-0.2,0.2s-0.2,0.1-0.4,0c-0.1,0-0.3,0-0.6,0h-0.4c-0.1,0-0.1,0-0.1,0h-0.1h-0.1c-0.1,0-0.1,0-0.1-0.1
		c0-0.3,0-0.6,0-0.8c0-0.3-0.1-0.5-0.1-0.8c0-0.2,0-0.4,0-0.6c0-0.2,0-0.4,0-0.6c0-0.1,0.1-0.3,0.1-0.4c0,0,0-0.1,0-0.3v-1.2
		c0-0.1,0-0.3,0-0.5c0-0.1,0-0.3,0-0.5c0-0.1,0-0.2,0-0.3s0.1-0.2,0.2-0.2s0.3,0,0.4,0.1h0.5c0.1,0,0.2,0,0.3,0c0.1,0,0.2,0,0.3,0
		c0.2,0,0.3,0.1,0.3,0.3v0.1c-0.1,0.1-0.1,0.3-0.1,0.4c0,0.1,0,0.3,0,0.4c0,0.1,0,0.3,0.1,0.5c0,0.2,0.1,0.4,0.1,0.7s0,0.6,0,0.9
		c0,0.3,0,0.6,0,0.9c0,0.2,0,0.4,0.1,0.5s0.1,0.3,0.1,0.5C154,18.1,154,18.4,154,18.5z M158.2,18.6c-0.3,0.1-0.7,0.2-1.1,0.2
		c-0.2,0-0.4,0-0.5-0.1c-0.1,0-0.2-0.2-0.2-0.5c0-0.1,0-0.3,0-0.5c0-0.1,0-0.3,0-0.4c0-0.2,0-0.4-0.1-0.6c0-0.2-0.1-0.4-0.1-0.6
		c0-0.4,0-0.9,0.1-1.3c0-0.3,0.1-0.6,0.1-0.9c0-0.3,0-0.6,0-0.9c0-0.2,0-0.3,0-0.4l0.1-0.1h0.1h0.5c0.2,0,0.4,0,0.6,0s0.4,0,0.6,0
		c0,0.1,0,0.2,0,0.3s-0.1,0.2-0.1,0.3c0,0.2,0,0.4,0.1,0.6c0,0.2,0.1,0.4,0.1,0.6c0,0.1,0,0.3,0,0.4c0,0.1,0,0.3,0,0.4
		c0,0.2,0,0.4,0,0.6s0,0.4,0,0.6c0,0.1,0,0.3,0,0.4s0,0.3,0,0.4s0,0.2,0.1,0.3s0,0.1,0,0.3C158.6,18.2,158.5,18.5,158.2,18.6z"/>
	<path class="st1" d="M172.3,42.8c0-0.2,0-0.4,0-0.7c0-0.1,0-0.2,0-0.3s0-0.2,0-0.3v-7.3c0-0.1,0-0.1,0-0.2s0-0.1,0-0.2
		c0-0.6,0-1.2,0-1.8s0-1.2,0-1.8c0-0.1,0-0.3,0-0.4c0-0.1-0.1-0.3-0.1-0.4c0-0.4,0-0.9,0.1-1.3s0-0.9,0-1.3c0,0,0-0.1,0-0.3
		c0-0.1,0-0.3,0-0.5c0-0.1,0-0.3-0.1-0.4c0-0.1-0.1-0.2-0.1-0.2c-0.1,0-0.1,0-0.2,0.1c-0.3,0.2-0.6,0.3-0.8,0.5
		c-0.3,0.2-0.6,0.4-0.9,0.6c-0.4,0.3-0.9,0.5-1.3,0.8s-0.9,0.4-1.3,0.7c-0.1,0-0.1,0.1-0.2,0.2c-0.1,0.1-0.2,0.1-0.3,0.1
		s-0.2-0.1-0.4-0.3s-0.3-0.4-0.5-0.6c-0.2-0.3-0.3-0.5-0.5-0.8c-0.1-0.3-0.2-0.4-0.2-0.5s0.1-0.3,0.2-0.3s0.2-0.1,0.3-0.2
		c0.1-0.1,0.3-0.1,0.5-0.3c0.2-0.1,0.3-0.1,0.5-0.2c0.1,0,0.3-0.1,0.3-0.1c0.1,0,0.2-0.1,0.3-0.2c0.1-0.1,0.3-0.2,0.5-0.2
		c0.1,0,0.2-0.1,0.3-0.2c0.1-0.1,0.2-0.1,0.3-0.2c0.2-0.1,0.4-0.1,0.5-0.3c0.1-0.1,0.3-0.2,0.5-0.3c0.1,0,0.1-0.1,0.3-0.1
		c0.1,0,0.1-0.1,0.2-0.1c0.4-0.3,0.9-0.5,1.3-0.8s0.9-0.6,1.3-0.9c0.5-0.3,1-0.8,1.5-1.2c0.5-0.5,1-0.9,1.4-1.3
		c0.1-0.1,0.2-0.3,0.5-0.4c0.2-0.2,0.4-0.3,0.4-0.4c0.1-0.1,0.3-0.2,0.4-0.4c0.1-0.1,0.2-0.3,0.3-0.4c0,0,0-0.1,0.1-0.1
		c0,0,0.1,0,0.1-0.1c0.1-0.1,0.3-0.3,0.4-0.5s0.3-0.4,0.4-0.5c0.1-0.2,0.3-0.3,0.5-0.5c0.1-0.1,0.3-0.3,0.4-0.5
		c0.1-0.1,0.3-0.4,0.5-0.7s0.3-0.6,0.4-0.7c0.2-0.2,0.4-0.4,0.5-0.5c0-0.1,0.3-0.1,0.6-0.1c0.1,0,0.2,0,0.3,0c0.2,0,0.4,0,0.6,0
		s0.5,0,0.7,0s0.4,0,0.7,0s0.5,0.1,0.6,0.3s0.2,0.3,0.3,0.4c0.1,0.2,0.2,0.3,0.3,0.4c0.1,0.1,0.3,0.3,0.4,0.4s0.3,0.3,0.4,0.4
		c0.6,0.7,1.3,1.5,2.1,2.2c0.8,0.7,1.5,1.3,2.3,1.9c0.1,0.1,0.3,0.2,0.4,0.3s0.2,0.3,0.3,0.3c0,0.1,0.1,0.1,0.3,0.2
		c0.1,0.1,0.3,0.2,0.4,0.2c0.4,0.3,0.9,0.6,1.3,0.9c0.4,0.3,0.9,0.6,1.3,0.8c0.2,0.1,0.4,0.2,0.6,0.3c0.2,0.2,0.4,0.3,0.6,0.4
		c0.3,0.1,0.6,0.3,0.9,0.4c0.3,0.1,0.6,0.3,0.9,0.5c0.4,0.3,0.9,0.5,1.3,0.6c0.5,0.1,0.9,0.4,1.3,0.6c0.1,0,0.1,0.1,0.1,0.2
		s0,0.2,0,0.3s0,0.3-0.1,0.4c-0.1,0.1-0.1,0.3-0.3,0.4c-0.1,0.2-0.2,0.3-0.3,0.4c-0.1,0.1-0.2,0.3-0.3,0.4c-0.1,0.2-0.4,0.3-0.6,0.3
		c-0.1,0-0.5-0.1-1-0.4c-0.6-0.3-1.2-0.6-1.8-0.9s-1.2-0.7-1.8-1s-0.9-0.5-1.1-0.6c0,0.1-0.1,0.3-0.1,0.4c0,0.3,0,0.7,0.1,1.1
		c0,0.3,0,0.7,0,1.1c0,0.1,0,0.2,0,0.3s-0.1,0.2-0.1,0.3c0,0.3,0,0.7,0.1,1.1c0,0.4,0,0.8,0,1.1V30c0,0,0,0.1-0.1,0.1
		c0,0.1-0.1,0.3,0,0.7c0,0.3,0,0.6,0,0.8c0,0.3,0,0.5,0,0.7c0,0.3,0,0.5,0,0.8s0,0.5,0,0.8s0,0.5,0,0.8c0,0.1,0,0.3,0,0.4
		s0,0.3,0.1,0.4c0,0,0.1-0.1,0.3-0.2c0.1-0.1,0.3-0.2,0.4-0.4s0.3-0.3,0.5-0.4c0.1-0.1,0.3-0.2,0.4-0.3c0.1,0,0.3,0.1,0.5,0.2
		c0.2,0.1,0.5,0.3,0.7,0.5c0.3,0.2,0.5,0.4,0.7,0.6c0.2,0.2,0.3,0.3,0.3,0.4s0,0.2-0.1,0.3s-0.2,0.1-0.3,0.2
		c-0.3,0.3-0.8,0.6-1.2,1.1s-0.9,0.7-1.3,0.9c-0.3,0.2-0.6,0.4-0.9,0.6c-0.3,0.2-0.6,0.4-0.9,0.7c-0.2,0.2-0.5,0.4-0.9,0.6
		c-0.4,0.2-0.8,0.4-1,0.6l-0.1,0.1c-0.1,0-0.1,0.1-0.1,0.1c0,0.2,0.3,0.4,0.8,0.6c0.5,0.3,1.1,0.5,1.8,0.8c0.6,0.3,1.3,0.5,1.9,0.7
		s1,0.4,1.2,0.4c0.2,0.1,0.5,0.1,0.7,0.1c0.3,0,0.5,0,0.7,0.1c0.1,0,0.3,0.1,0.6,0.1s0.5,0.1,0.8,0.1s0.5,0.1,0.7,0.1
		c0.2,0.1,0.3,0.1,0.3,0.3s-0.1,0.3-0.2,0.6s-0.3,0.5-0.5,0.8s-0.4,0.5-0.6,0.8c-0.2,0.2-0.4,0.3-0.5,0.3s-0.1,0-0.2,0s-0.1,0-0.2,0
		c-0.3-0.1-0.6-0.2-0.9-0.3s-0.6-0.2-0.9-0.3c-0.1,0-0.1,0-0.2,0s-0.2,0-0.2-0.1c-0.2,0-0.4,0-0.7-0.1s-0.5-0.2-0.7-0.3
		c-0.4-0.1-0.8-0.3-1.2-0.4c-0.4-0.1-0.8-0.3-1.2-0.5c-0.1-0.1-0.3-0.1-0.4-0.2c-0.1-0.1-0.3-0.2-0.5-0.3s-0.5-0.2-0.7-0.3
		c-0.3-0.1-0.5-0.2-0.7-0.3c-0.3-0.2-0.6-0.4-0.9-0.6c-0.3-0.2-0.6-0.4-0.9-0.6c-0.3-0.2-0.6-0.5-1-0.9c-0.5-0.4-0.8-0.7-1.1-0.9
		c-0.6-0.5-1.1-1.1-1.6-1.6c-0.2-0.2-0.3-0.4-0.5-0.7c-0.2-0.4-0.5-0.8-0.7-1.2c-0.3-0.4-0.6-0.8-0.8-1.1c0,0,0-0.1-0.1-0.1h-0.1
		c-0.5,0-1,0-1.5,0s-1,0-1.6,0c-0.3,0-0.5,0-0.8,0s-0.6,0-0.8,0c-0.2,0-0.3,0-0.4,0.1s-0.1,0.2-0.1,0.4s0,0.3,0,0.5s0,0.3,0,0.5
		c0,0.1,0,0.2,0,0.3s0,0.2,0,0.3c0,0.3,0,0.6,0,0.8c0,0.3,0,0.6,0,0.8c0,0.1,0,0.1,0,0.2s0,0.1,0,0.2c0,0.1,0,0.2,0,0.3s0,0.2,0,0.3
		s0,0.2,0,0.3s0,0.1,0,0.2c0,0.3,0,0.7,0.1,1.1c0,0.3,0,0.7,0,1.1c0.3,0,0.5-0.1,0.8-0.1c0.2,0,0.5-0.1,0.8-0.1s0.6-0.1,1-0.2
		c0.3-0.1,0.6-0.1,0.9-0.1c0.2,0,0.5,0,0.7-0.1s0.4-0.1,0.6-0.1c0.1,0,0.1-0.1,0.2-0.1c0,0,0.2,0,0.4-0.1c0.2,0,0.4,0,0.5,0
		c0.4-0.1,0.8-0.2,1.2-0.3c0.4-0.1,0.8-0.2,1.2-0.2c0.1,0,0.2,0,0.3-0.1c0.1,0,0.2-0.1,0.3-0.1c0.1,0,0.1,0.1,0.2,0.2
		c0,0.1,0.1,0.3,0.1,0.5s0,0.3,0.1,0.5c0,0.2,0,0.3,0,0.3v0.1c0,0,0,0.1,0,0.2v0.1v0.1c0,0.1-0.1,0.1-0.2,0.2
		c-0.2,0-0.4,0.1-0.6,0.2c-0.2,0.1-0.5,0.1-0.7,0.2c-0.2,0-0.5,0.1-0.7,0.1s-0.5,0.1-0.7,0.1c-0.1,0-0.4,0.1-0.9,0.3
		c-0.5,0.1-1,0.3-1.6,0.4c-0.6,0.1-1.2,0.3-1.7,0.4c-0.6,0.1-0.9,0.2-1,0.2s-0.2,0-0.3,0s-0.2,0-0.3,0.1c-0.7,0.3-1.4,0.4-2,0.5
		c-0.3,0-0.6,0.1-0.9,0.2c-0.3,0.1-0.6,0.1-0.9,0.2c0,0-0.1,0-0.3,0.1c-0.1,0-0.3,0-0.3-0.1c-0.3,0.1-0.5,0.1-0.8,0.2
		c-0.3,0.1-0.5,0.1-0.8,0.1c0,0-0.1,0-0.3,0c-0.2,0-0.4-0.1-0.6-0.3s-0.3-0.4-0.5-0.7c-0.1-0.3-0.3-0.5-0.3-0.8
		c-0.1-0.3-0.1-0.5-0.1-0.6s0-0.1,0-0.2s0.1-0.1,0.2-0.1c0.3-0.1,0.6-0.1,0.9-0.2s0.7,0,1-0.1c0.1,0,0.3,0,0.6-0.1s0.4-0.1,0.5,0
		h0.1c0.2,0,0.3,0,0.5-0.1c0.1-0.1,0.3-0.1,0.5-0.1C172.2,43.2,172.3,43,172.3,42.8z M189,25.4c-0.3,0-0.5-0.1-0.8-0.1s-0.6,0-0.9,0
		s-0.5,0-0.6,0c-0.3,0-0.6,0-0.8,0s-0.6,0-0.8,0s-0.6,0-0.8,0s-0.6,0-0.8,0c-0.1,0-0.2,0-0.3,0s-0.2,0-0.3,0h-3.5
		c-0.2,0-0.3,0-0.5,0s-0.3,0-0.5,0c-0.1,0-0.2,0-0.3,0c-0.1,0-0.3,0-0.4,0h-1.6c0,0,0,0-0.1,0s-0.3,0-0.4,0s-0.2,0-0.3,0.1
		c-0.1,0-0.1,0.1-0.1,0.1s0,0,0,0.1s0,0.2,0,0.3s0,0.1,0,0.3c0,0,0,0.1,0,0.3c0,0.1,0,0.2,0,0.3s0,0.2,0,0.3s0,0.1,0,0.2
		c0,0.1,0,0.1,0,0.2c0,0.3,0,0.4,0,0.5s0.1,0.1,0.4,0.1s0.6,0,0.8-0.1c0.3,0,0.6,0,0.8,0c0.5,0,0.9,0,1.4,0s0.9,0.1,1.4,0.1
		c0.1,0,0.1,0,0.2,0s0.1,0,0.3,0c0.1,0,0.2,0,0.3,0c0.1,0,0.2,0,0.3,0c0.3,0,0.6,0,0.8-0.1c0.3,0,0.6,0,0.8,0c0.6,0,1.3,0,1.9,0
		s1.3,0,1.9,0c0.4,0,0.9,0,1.3,0s0.9,0,1.3,0c0,0,0,0,0.1,0l0,0c0-0.1,0-0.3,0-0.4s0-0.4,0-0.6s-0.1-0.4-0.1-0.6c0-0.1,0-0.2,0-0.3
		s0-0.1,0-0.3C189.4,25.6,189.3,25.5,189,25.4z M188,30.2L188,30.2c-0.1,0-0.1,0-0.2,0c-0.2,0-0.4,0-0.6-0.1c-0.2,0-0.4,0-0.6,0
		s-0.4,0-0.5,0c-0.2,0-0.4,0.1-0.6,0.1c-0.6,0-1.2,0-1.7,0s-1.2,0-1.7,0c-0.1,0-0.1,0-0.2,0s-0.2,0-0.3,0h-0.2c0,0-0.3,0-0.6-0.1
		c-0.4,0-0.8,0-1.3,0s-1,0-1.4,0c-0.5,0-0.7,0-0.8,0s-0.2,0-0.3,0s-0.1,0.1-0.3,0.1c-0.6,0-1,0-1.2,0.1s-0.4,0.5-0.4,1.2
		c0,0.2,0,0.4,0,0.6c0,0.2,0,0.4,0,0.6c0,0,0,0.1,0.1,0.2c0,0.1,0.1,0.2,0.1,0.1h0.1c0.1,0,0.3,0,0.4,0s0.3,0,0.4,0h1.7
		c0.1,0,0.2,0,0.3-0.1c0.1,0,0.1,0,0.2,0h2.2c0.1,0,0.2,0,0.3,0c0.1,0,0.2,0.1,0.3,0.1c0.2,0,0.4,0,0.6-0.1c0.1,0,0.3,0,0.5,0
		s0.4,0,0.6,0s0.4,0.1,0.6,0.1s0.5,0,0.7,0s0.4,0,0.6,0c0.1,0,0.3,0,0.5,0c0.1,0,0.3,0.1,0.5,0.1s0.3,0,0.5,0c0.1,0,0.3,0,0.5,0
		c0.3,0,0.6,0,1,0c0.3,0,0.6,0,0.9-0.1s0.5-0.2,0.7-0.4s0.3-0.5,0.3-0.9c0-0.5,0-0.9-0.1-1.1c-0.1-0.2-0.5-0.3-1-0.3
		C188.1,30.2,188.1,30.2,188,30.2z M180.9,22.7v-0.1c0-0.2,0-0.4,0.1-0.6c0-0.1,0-0.3,0-0.5c0-0.3,0-0.6,0-0.9c0-0.3,0-0.6,0-0.9
		c0-0.2,0.1-0.3,0.5-0.3c0.3,0,0.5,0,0.6,0c0.8,0,1.3,0.2,1.4,0.6s0.2,1,0.2,1.6v1c0,0.1,0,0.2,0.1,0.3c0,0,0.1,0.1,0.2,0.1
		c0,0,0.1,0,0.2,0c0.3,0,0.6,0,0.8,0s0.6,0.1,0.8,0.1c0.1,0,0.2,0,0.3,0c0.1,0,0.1,0,0.3,0c0.1,0,0.3,0,0.5,0c0.1,0,0.3,0,0.5,0
		c0.1,0,0.3,0,0.4-0.1c0.1,0,0.3,0,0.4,0c0.4,0,0.8,0,1.1,0s0.8,0,1.1,0c0,0,0.1,0,0.2,0h0.1c0-0.1-0.2-0.2-0.4-0.3
		c-0.2-0.1-0.4-0.2-0.5-0.3s-0.3-0.2-0.4-0.3s-0.3-0.2-0.4-0.3s-0.3-0.2-0.5-0.3c-0.1-0.1-0.3-0.2-0.5-0.3c-0.6-0.5-1.2-1-1.8-1.5
		s-1.2-1.1-1.7-1.6c-0.1-0.1-0.3-0.2-0.5-0.5s-0.5-0.5-0.7-0.8c-0.3-0.3-0.5-0.5-0.7-0.7s-0.4-0.3-0.5-0.3s-0.1,0.1-0.3,0.2
		c-0.1,0.1-0.3,0.3-0.4,0.5s-0.3,0.3-0.4,0.5s-0.2,0.3-0.3,0.4c-0.3,0.2-0.5,0.5-0.8,0.8c-0.3,0.4-0.5,0.7-0.7,1
		c-0.4,0.4-0.8,0.9-1.2,1.2c-0.4,0.4-0.9,0.8-1.3,1.2c0,0-0.1,0.1-0.1,0.2c-0.1,0.1-0.1,0.1-0.2,0.2c0,0-0.1,0.1-0.3,0.2
		c-0.1,0.1-0.3,0.1-0.4,0.2c-0.1,0.1-0.2,0.2-0.3,0.3c-0.1,0.1-0.1,0.2-0.1,0.3c0.1,0.1,0.3,0.1,0.6,0.1c0.3,0,0.5,0,0.6,0
		s0.2,0,0.3,0c0.1,0,0.1,0,0.3,0h3.7C180.9,22.9,180.9,22.8,180.9,22.7z M191.5,35.5c-0.1,0-0.3,0-0.4,0s-0.3,0-0.4,0
		c-0.5,0-1,0-1.5,0s-1,0-1.6,0h-3.3c-0.1,0-0.2,0-0.2,0c-0.1,0-0.1,0-0.3,0c-0.2,0-0.3,0-0.5,0c0,0.1,0.1,0.2,0.3,0.3
		c0.1,0.1,0.2,0.3,0.3,0.4s0.2,0.3,0.3,0.4s0.3,0.3,0.5,0.6s0.5,0.6,0.8,0.8c0.3,0.3,0.6,0.6,0.8,0.8s0.5,0.4,0.6,0.4
		c0.2-0.1,0.5-0.3,0.8-0.4c0.3-0.2,0.6-0.4,0.9-0.6s0.6-0.4,0.9-0.7c0.3-0.2,0.5-0.4,0.8-0.6c0.1-0.1,0.3-0.2,0.4-0.3
		s0.3-0.3,0.4-0.4c0,0,0.2-0.1,0.4-0.3c0.2-0.1,0.3-0.3,0.4-0.3L191.5,35.5L191.5,35.5z"/>
	<path class="st1" d="M217.8,24.1c-0.1,0-0.4,0.1-0.6,0.2c-0.3,0.1-0.6,0.3-0.9,0.5s-0.6,0.4-0.8,0.6s-0.4,0.3-0.5,0.4
		c-0.1,0.1-0.2,0.3-0.3,0.4s-0.2,0.3-0.3,0.4c-0.2,0.2-0.4,0.4-0.6,0.5s-0.4,0.3-0.6,0.4c-0.1,0.1-0.2,0.2-0.3,0.3
		c-0.1,0.1-0.3,0.2-0.4,0.3c-0.4,0.3-0.8,0.5-1.2,0.8c-0.4,0.2-0.8,0.4-1.2,0.6c-0.1,0-0.3,0.1-0.6,0.2s-0.5,0.1-0.6,0.1
		c-0.3,0-0.6,0-1,0s-0.8,0-1.1-0.1c-0.3-0.1-0.6-0.2-0.9-0.4s-0.4-0.5-0.4-0.8c0-0.4,0.1-0.8,0.3-1.1c0.2-0.4,0.6-0.6,1-0.6
		c0.3,0,0.5,0,0.8,0.1c0.2,0.1,0.5,0.1,0.8,0.1s0.6,0,0.9-0.1s0.7-0.2,0.9-0.3s0.4-0.3,0.5-0.5s0.3-0.3,0.5-0.5
		c0.3-0.3,0.7-0.6,1-0.9c0.3-0.3,0.6-0.6,1-0.9c0.1-0.1,0.3-0.2,0.4-0.3s0.2-0.1,0.3-0.2c0.1-0.1,0.2-0.2,0.3-0.3
		c0.1-0.1,0.2-0.2,0.3-0.3c0.2-0.2,0.4-0.3,0.8-0.5c0.3-0.1,0.6-0.2,1-0.3c0.3-0.1,0.7-0.2,1-0.2s0.6-0.1,0.8-0.1
		c1.2,0,2.3,0.2,3.1,0.7c0.8,0.4,1.6,1.2,2.4,2.1c0.2,0.3,0.4,0.5,0.5,0.8s0.3,0.5,0.5,0.8c0.1,0.2,0.3,0.4,0.5,0.7s0.4,0.4,0.6,0.6
		c0.2,0.1,0.4,0.3,0.5,0.5c0.2,0.3,0.4,0.6,0.6,0.8c0.2,0.3,0.4,0.6,0.6,0.8c0.3,0.3,0.7,0.7,1,0.9c0.4,0.3,0.8,0.6,1.1,0.9
		c0.4,0.4,0.9,0.7,1.3,1.1s0.9,0.6,1.3,0.9c0.2,0.1,0.4,0.2,0.6,0.2s0.4,0.1,0.6,0.2c0.5,0.2,1,0.4,1.6,0.5s1.1,0.2,1.6,0.3
		c0.3,0,0.6,0.1,0.8,0.1s0.6,0.1,0.8,0.1c0.1,0,0.2,0,0.3,0c0.1,0,0.2,0,0.3,0c0.1,0,0.1,0,0.3,0c0.1,0,0.1,0,0.2,0.1
		s0.2,0.3,0.2,0.6s0,0.5,0,0.6c0,0,0,0.1,0.1,0.1c0,0.1,0,0.1,0,0.2c0,0.1,0,0.2-0.1,0.3c0,0.1-0.1,0.3-0.1,0.4
		c-0.2,0.4-0.5,0.7-0.8,0.7s-0.7,0.1-1.1,0.1c-0.3,0-0.7-0.1-1-0.2c-0.3-0.1-0.6-0.2-0.9-0.2c0,0-0.1,0.1-0.2,0c-0.1,0-0.2,0-0.2,0
		c-0.1,0-0.2,0-0.5-0.1c-0.3,0-0.6-0.1-0.9-0.2c-0.3-0.1-0.6-0.1-0.8-0.2s-0.5-0.1-0.5-0.1c-0.1,0-0.3-0.1-0.4-0.2s-0.3-0.2-0.4-0.2
		c-0.2,0-0.4-0.1-0.7-0.2c-0.3-0.1-0.5-0.2-0.6-0.3c-0.3-0.1-0.5-0.3-0.8-0.4s-0.5-0.3-0.7-0.4c-0.5-0.3-0.9-0.7-1.3-1.1
		c-0.5-0.4-0.9-0.8-1.3-1.2c-0.1-0.1-0.2-0.2-0.3-0.3c-0.1-0.1-0.1-0.2-0.3-0.3c-0.6-0.6-1.2-1.4-1.8-2.2c-0.1-0.1-0.1-0.2-0.1-0.3
		s-0.1-0.2-0.2-0.3c-0.2-0.3-0.5-0.6-0.8-1.1c-0.3-0.4-0.7-0.9-1.1-1.4c-0.4-0.4-0.8-0.9-1.2-1.2c-0.4-0.3-0.8-0.6-1-0.7
		c-0.4-0.1-0.8-0.1-1.1-0.1L217.8,24.1L217.8,24.1z M232.2,24c-0.1,0.1-0.2,0.1-0.3,0.1c-0.1,0-0.3,0-0.4,0s-0.3,0-0.4,0
		s-0.2,0-0.3,0c-0.1,0-0.2,0-0.3,0c-0.1,0-0.1-0.1-0.1-0.2c0-0.1-0.1-0.3-0.1-0.4c0-0.1,0-0.3,0-0.4c0-0.1,0-0.3,0-0.3s0-0.1,0-0.3
		c0-0.3,0-0.7,0.1-1.1c0-0.3,0.1-0.7,0.1-1.1v-1.1c0-0.1,0-0.1,0-0.2c0-0.1,0-0.1,0-0.2c0,0,0-0.1,0-0.2c0-0.1,0-0.3,0.1-0.5
		c0-0.2,0.1-0.3,0.3-0.3c0,0,0.1,0,0.3,0c0.1,0,0.3,0,0.3,0.1c0.1,0,0.2,0,0.4,0c0.2,0,0.3,0,0.4,0c0,0,0.1,0,0.2,0s0.1,0.1,0.1,0.2
		c0,0,0,0.1,0,0.2s0,0.1,0,0.2c0,0,0,0.1,0,0.2c0,0.3,0,0.5,0.1,0.8c0,0.3,0.1,0.5,0.1,0.8s0,0.7-0.1,1c0,0.3-0.1,0.7-0.1,1
		c0,0.2,0,0.4,0.1,0.6s0.1,0.4,0.1,0.8C232.4,23.8,232.3,23.9,232.2,24z M234.9,24.2h-0.1c0,0-0.1,0-0.1-0.1V24v-0.1
		c0-0.1,0-0.3,0-0.4c0-0.1,0-0.3,0-0.4c0-0.3,0-0.6-0.1-0.9s-0.1-0.6-0.1-0.9c0-0.2,0-0.4,0.1-0.6c0-0.2,0.1-0.4,0.1-0.6v-1.5
		c0-0.3,0.1-0.4,0.2-0.5c0.1,0,0.3-0.1,0.5-0.1h1c0.2,0,0.3,0,0.3,0.1s0,0.2,0,0.3c0,0.3,0,0.5,0.1,0.7s0,0.4,0,0.7
		c0,0.1,0,0.3,0,0.4c0,0.1,0,0.3,0,0.4s0,0.2,0.1,0.3c0,0.1,0,0.2,0,0.3s0,0.3,0,0.4c0,0.1,0,0.3,0,0.4c0,0.2,0,0.4,0,0.6
		c0,0.2,0,0.4,0,0.6v0.3c0,0.1,0,0.1-0.1,0.2c-0.1,0-0.3,0.1-0.4,0.1s-0.3,0.1-0.4,0.1s-0.3,0-0.3,0H235
		C234.9,24.2,234.9,24.2,234.9,24.2z"/>
</g>
<g>
	<g>
		<path class="st1" d="M41.8,55.7c-0.3-0.4-0.8-1.5-1.2-1.6c-1.1-0.1-1.2-1.7-0.3-1.9v-0.1c0-0.1,0-0.1,0.1-0.1l0.1-0.1
			c0.3-0.2,0.6-0.4,1-0.6c0.4-0.2,0.7-0.4,0.9-0.6c0.3-0.2,0.5-0.4,0.9-0.7l0.9-0.6c0.4-0.2,0.8-0.5,1.3-0.9
			c0.4-0.4,0.9-0.8,1.2-1.1c0.1,0,0.1-0.1,0.3-0.2c0.1,0,0.1-0.1,0.1-0.3s-0.1-0.3-0.3-0.4c-0.2-0.2-0.4-0.4-0.7-0.6
			s-0.5-0.4-0.7-0.5c-0.3-0.1-0.4-0.2-0.5-0.2s-0.2,0.1-0.4,0.3l-0.4,0.4c-0.1,0.1-0.3,0.3-0.4,0.4c-0.1,0.1-0.2,0.2-0.3,0.2
			c-0.1-0.1-0.1-0.2-0.1-0.4v-0.4c0-0.3,0-0.5,0-0.8c0-0.2,0-0.5,0-0.8s0-0.5,0-0.8c0-0.2,0-0.4,0-0.7v-0.8c0-0.3,0-0.6,0-0.7
			c0,0,0-0.1,0.1-0.1v-0.1c0-0.3,0-0.7,0-1.1c0-0.4-0.1-0.8-0.1-1.1c0-0.1,0-0.2,0.1-0.3c0-0.1,0-0.1,0-0.3c0-0.3,0-0.7,0-1.1
			s-0.1-0.7-0.1-1.1c0-0.1,0-0.3,0.1-0.4c0,0,0.1,0.1,0.2,0.1c-0.6-0.9-0.4-2-0.2-3.4l0,0v-0.1c-0.4-0.3-0.7-0.5-1.1-0.8
			c-0.1,0-0.2-0.1-0.4-0.2c-0.1-0.1-0.3-0.1-0.3-0.2c-0.1,0-0.2-0.1-0.3-0.3c-0.1-0.1-0.3-0.2-0.4-0.3c-0.8-0.6-1.6-1.2-2.3-1.9
			c-0.8-0.7-1.5-1.5-2.1-2.2c-0.1-0.1-0.3-0.3-0.4-0.4s-0.3-0.3-0.4-0.4c-0.1-0.1-0.2-0.3-0.3-0.4c-0.1-0.1-0.2-0.3-0.3-0.4
			s-0.3-0.2-0.6-0.3c-0.3,0-0.5,0-0.7,0h-0.7c-0.1,0-0.1,0-0.1,0c-0.2-0.1-0.4-0.1-0.7-0.1c0-0.1,0-0.2,0-0.3
			c-0.1-0.3-0.1-0.7-0.2-1.1c-0.1-0.4-0.2-0.8-0.3-1.2c-0.1-0.3-0.2-0.6-0.3-0.7c0-0.1-0.1-0.2-0.2-0.3c-0.1-0.1-0.1-0.2-0.1-0.3
			c0-0.3,0-0.7,0-1.1s0-0.7,0-1.1c0-0.3,0-0.5,0.1-0.7c0-0.2,0.1-0.4,0.1-0.7c0-0.1,0-0.3-0.1-0.6c0-0.1,0-0.3,0.1-0.5
			c0-0.2,0.1-0.4,0.2-0.4c0,0,0.2,0,0.6,0c0.3,0,0.8,0,1.2,0h2c0.2,0,0.4,0,0.6,0c0.1,0,0.3,0.1,0.5,0.1c0.4,0,0.8,0,1.1,0
			s0.7,0,1.1,0h1c0.3,0,0.6,0,0.9,0c0.2,0,0.4,0,0.6,0s0.4,0,0.6,0s0.4,0,0.6,0c0.2,0,0.4,0,0.6,0c0.3,0,0.6,0,0.9,0
			c0.3,0,0.4-0.2,0.4-0.6v-0.3c0-0.1,0-0.2,0-0.3s0-0.3,0-0.4v-0.4c0-0.1-0.1-0.2-0.1-0.3c-0.1-0.1-0.2-0.1-0.3-0.1h-0.4
			c-0.1,0-0.3,0-0.4,0c-0.3,0-0.5,0-0.7-0.1c-0.2,0-0.4,0-0.7,0c0,0-0.1,0-0.3,0s-0.3,0-0.4,0.1c-0.1,0-0.3,0.1-0.4,0.1
			c-0.1,0-0.2,0-0.3,0s-0.2,0-0.3,0h-1c-0.2,0-0.3,0-0.5,0c-0.1,0-0.3,0-0.4,0c-0.2,0-0.4,0-0.6-0.1c-0.2,0-0.4-0.1-0.6-0.1
			c-0.2,0-0.4,0-0.6,0.1c-0.2,0-0.4,0.1-0.6,0.1h-2.3c-0.7,0-1.2-0.1-1.4-0.3s-0.4-0.6-0.4-1.4v-0.5c0-0.2,0-0.4,0.1-0.6
			c0-0.1,0.1-0.3,0.1-0.5c0-0.3,0-0.7,0-1s0-0.6,0-1c0-0.2,0-0.4,0-0.6s0-0.4,0-0.6s0-0.3-0.1-0.4c-0.1,0-0.2-0.1-0.4-0.1h-0.6
			c-0.2,0-0.4,0-0.6,0c-0.5,0-0.8,0-0.9,0.1c-0.1,0-0.2,0.3-0.2,0.8c0,0.1,0,0.3,0,0.4v0.4c0,0.3,0,0.5,0,0.7s-0.1,0.4-0.1,0.7
			s0,0.6,0.1,0.9c0.1,0.3,0.1,0.6,0.1,0.9c0,0.1,0,0.2-0.1,0.3s-0.1,0.4-0.1,0.6c0,0.2,0,0.4-0.1,0.5c-0.2,0.1-0.4,0.1-0.6,0.1
			c-0.3,0-0.5,0-0.8,0s-0.5,0.1-0.8,0.1c-0.1,0-0.3,0.1-0.4,0.1c-0.3,0-0.6,0-0.8-0.1c-0.2,0-0.4-0.1-0.7-0.1h-2c-0.1,0-0.2,0-0.3,0
			s-0.2,0-0.3,0s-0.3,0-0.4,0h-0.4c-0.1,0-0.3,0-0.4,0s-0.3,0-0.4,0c-0.1,0-0.3,0-0.4-0.1c-0.1,0-0.3-0.1-0.5-0.1
			c-0.3,0-0.6,0-0.9,0c-0.3,0-0.6,0.1-0.9,0.1h-4.9c-0.1,0-0.2,0-0.3,0h-0.4c-0.2,0-0.3,0-0.4,0s-0.2,0.1-0.2,0.2s0,0.2,0,0.3
			c0,0.2,0,0.4,0.1,0.6c0,0.2,0.1,0.4,0.1,0.6c0,0.1,0,0.1,0,0.2v0.1c0,0.1,0,0.1,0,0.2c0,0.2,0.1,0.3,0.4,0.3c0.3,0,0.5,0,0.6,0
			c0.2,0,0.4,0,0.6,0H14c0.3,0,0.5,0,0.8,0c0.2,0,0.4,0,0.7,0c0.1,0,0.2,0,0.3,0c0,0,0.1,0,0.2,0h0.3c0.1,0,0.3,0,0.5,0h0.4
			c0.1,0,0.2,0,0.3,0h0.2c0.2,0,0.3,0,0.5,0c0.1,0,0.3,0,0.5,0c0.1,0,0.3,0,0.4,0c0.1,0,0.3,0,0.4,0c0.5-0.1,1.1-0.1,1.7-0.1
			c0.6,0,1.1,0,1.6,0h2.5c0.8,0,1.6,0,2.4,0c0.1,0,0.2,0,0.3,0s0.2,0,0.3,0c0.3,0,0.5,0,0.6,0.1s0.1,0.3,0.1,0.5c0,0.3,0,0.7,0,1
			s-0.1,0.7-0.1,1.1v0.3v0.1v0.1V18c0,0.1,0,0.2-0.1,0.2s-0.2,0-0.3,0c-0.2,0-0.3,0-0.5,0c-0.1,0-0.3,0-0.5,0h-0.4
			c-0.1,0-0.3,0-0.4,0.1c-0.2,0.1-0.4,0.1-0.6,0.2c-0.2,0.1-0.3,0.2-0.5,0.3c-0.5,0.3-1,0.7-1.5,1.2s-0.9,1-1.1,1.5
			c-0.1,0.3-0.2,0.6-0.3,1.1c-0.1,0.4-0.1,0.8-0.1,1.1v0.7c0,0.3,0,0.5,0.1,0.7c0.1,0.7,0.4,1.4,0.8,2s0.9,1.1,1.6,1.4
			c0.1,0,0.3,0.1,0.4,0.2c0.1,0.1,0.3,0.1,0.5,0.1s0.3-0.1,0.5-0.2c0.1-0.1,0.3-0.3,0.4-0.5c0.1-0.2,0.2-0.4,0.3-0.6
			c0-0.2,0.1-0.4,0.1-0.5c0-0.3-0.1-0.4-0.3-0.6c-0.2-0.1-0.4-0.3-0.6-0.4s-0.4-0.4-0.6-0.6c-0.2-0.2-0.3-0.6-0.3-1
			c0-0.3,0-0.7,0.1-1.1c0.1-0.4,0.2-0.8,0.4-1.1s0.4-0.6,0.7-0.9c0.3-0.2,0.6-0.3,1.1-0.3c0.3,0,0.6,0.1,0.9,0.2
			c0.3,0.2,0.5,0.4,0.8,0.6c0.2,0.3,0.4,0.5,0.5,0.8s0.2,0.6,0.2,0.9c0,0.1,0,0.2,0,0.3s0,0.2,0,0.3c0,0,0,0.1,0,0.3s0,0.2,0.1,0.3
			c0,0.1,0,0.3,0,0.4c0,0.3,0,0.5-0.1,0.8s-0.1,0.6-0.3,0.8c-0.1,0.2-0.2,0.5-0.3,0.9c-0.2,0.4-0.3,0.8-0.5,1.1s-0.3,0.7-0.5,1.1
			s-0.4,0.6-0.5,0.8l-1.6,1.6c-0.1,0.1-0.3,0.2-0.4,0.3c-0.2,0.1-0.3,0.2-0.5,0.3c-0.3,0.3-0.7,0.5-1.1,0.7
			c-0.3,0.2-0.7,0.4-1.1,0.6c-0.1,0-0.2,0.1-0.3,0.1s-0.2,0.1-0.3,0.1c-0.2,0.1-0.4,0.1-0.6,0.1s-0.3,0-0.5,0.1s-0.4,0.2-0.7,0.3
			s-0.5,0.1-0.8,0.1s-0.6,0.1-0.9,0.2c0,0-0.2,0.1-0.4,0.1c-0.2,0.1-0.3,0.1-0.3,0.2c0,0,0,0.1,0.1,0.2c0.1,0.1,0.2,0.2,0.2,0.3
			c0.1,0.2,0.2,0.5,0.3,0.9s0.3,0.6,0.4,0.8c0,0.1,0.2,0.1,0.4,0.1c0.3,0,0.5,0,0.7-0.1s0.4-0.2,0.6-0.3c0.2,0,0.4-0.1,0.6-0.1
			c0.2,0,0.4-0.1,0.6-0.1c0.1,0,0.2-0.1,0.3-0.2s0.2-0.1,0.3-0.2c0.1,0,0.3-0.1,0.4-0.1c0.1,0,0.3-0.1,0.4-0.1H24
			c0,0.1,0,0.2,0.1,0.3c0,0.2,0,0.3,0,0.5v0.3c0,0.4,0,0.9,0,1.4S24,39.9,24,40.4c0,0.1,0,0.3,0.1,0.4c0,0.1,0,0.3,0,0.4
			c0,0.6,0,1.2,0,1.8s0,1.2,0,1.9c0,0.1,0,0.1,0,0.2s0,0.1,0,0.2v7.4c0,0.1,0,0.2,0,0.3s0,0.2,0,0.3V54c0,0.2-0.1,0.4-0.1,0.7
			c-0.2,0-0.3,0-0.5,0.1s-0.3,0.1-0.5,0.1h-0.1c-0.1,0-0.3,0-0.5,0h-0.1c0.1,0.1,0.1,0.2,0.1,0.4c0.1,0.1,0.2,0.2,0.3,0.3
			c0.4,0.5,0.8,0.9,1.4,1c0.7,0,1.5,0,2.2-0.1c0.1-0.1,0.2-0.1,0.3-0.2c0-0.1,0-0.1,0-0.2c0.1-0.6,0.2-1.3,0.4-1.9
			c0-0.1,0-0.1,0.1-0.1H27c0-0.4,0-0.8,0-1.1s-0.1-0.7-0.1-1.1c0-0.1,0-0.1,0-0.2s0-0.1,0-0.3s0-0.2,0-0.3s0-0.2,0-0.3s0-0.1,0-0.2
			s0-0.1,0-0.2c0-0.3,0-0.6,0-0.8s0-0.6,0-0.8c0-0.1,0-0.2,0-0.3s0-0.2,0-0.3c0-0.2,0-0.3,0-0.5c0-0.1,0-0.3,0-0.5s0-0.3,0.1-0.4
			c0-0.1,0.2-0.1,0.4-0.1c0.3,0,0.6,0,0.8,0s0.5,0,0.8,0c0.5,0,1.1,0,1.6,0s1,0,1.6,0h0.1c0,0,0,0.1,0.1,0.1
			c0.3,0.3,0.6,0.7,0.8,1.1c0.3,0.4,0.5,0.8,0.7,1.2c0.1,0.3,0.3,0.5,0.5,0.7c0.5,0.6,1.1,1.1,1.7,1.7c0.3,0.2,0.6,0.5,1.1,0.9
			c0.4,0.4,0.8,0.7,1.1,0.9s0.6,0.4,0.9,0.6c0.3,0.2,0.6,0.4,0.9,0.6c0.2,0.1,0.4,0.2,0.7,0.3s0.5,0.2,0.7,0.3
			c0.1,0.1,0.3,0.1,0.4,0.3c0.1,0.1,0.3,0.1,0.4,0.2c0.4,0.2,0.8,0.3,1.2,0.5C42.3,56.4,42,56.1,41.8,55.7z M28.2,34
			c0.2-0.2,0.4-0.4,0.5-0.6s0.3-0.4,0.5-0.6c0.1-0.2,0.4-0.5,0.6-0.9c0.1-0.1,0.2-0.3,0.3-0.4c0.1-0.1,0.2-0.2,0.3-0.3
			c0.1-0.3,0.3-0.6,0.5-1.1s0.3-0.9,0.5-1.5c0.1-0.5,0.3-1,0.4-1.5c0-0.1,0-0.1,0-0.1c0.5,0,1,0.1,1.5,0.2c0.1,0.1,0.1,0.1,0.2,0.1
			c0.2,0.2,0.4,0.4,0.7,0.7c0.2,0.3,0.4,0.5,0.7,0.8s0.4,0.4,0.5,0.5c0.6,0.6,1.2,1.1,1.7,1.7c0.6,0.6,1.2,1.1,1.8,1.6
			c0.1,0.1,0.3,0.2,0.4,0.3s0.3,0.2,0.4,0.3c0.1,0.1,0.3,0.2,0.4,0.3c0.1,0.1,0.3,0.2,0.4,0.3c0.1,0.1,0.3,0.1,0.5,0.3
			c0.2,0.1,0.3,0.2,0.4,0.3h-0.1h-0.2c-0.4,0-0.8,0-1.1,0s-0.8,0-1.1,0c-0.1,0-0.3,0-0.4,0c-0.1,0-0.3,0.1-0.4,0.1
			c-0.1,0-0.3,0-0.4,0s-0.3,0-0.4,0c-0.1,0-0.2,0-0.3,0s-0.1,0-0.3,0c-0.3,0-0.6,0-0.8-0.1c-0.3,0-0.6,0-0.8,0c-0.1,0-0.1,0-0.2,0
			c-0.1,0-0.2,0-0.2-0.1c0,0-0.1-0.1-0.1-0.3v-1c0-0.7-0.1-1.2-0.2-1.7c-0.1-0.4-0.6-0.6-1.4-0.6c-0.1,0-0.3,0-0.6,0
			s-0.5,0.1-0.5,0.3c0,0.3,0,0.6,0,0.9v0.9c0,0.2,0,0.4,0,0.5c0,0.2-0.1,0.4-0.1,0.6V34c0,0.1,0,0.1,0,0.2H28c-0.1,0-0.2,0-0.3,0
			s-0.2,0-0.3,0C27.8,34.3,28.1,34.1,28.2,34z M26,37.6v-0.3c0-0.1,0-0.1,0-0.3c0,0,0,0,0-0.1c0,0,0-0.1,0.1-0.1s0.2,0,0.3-0.1h0.4
			c0.1,0,0.1,0,0.1,0h1.6c0.1,0,0.3,0,0.4,0c0.1,0,0.2,0,0.3,0s0.3,0,0.4,0s0.3,0,0.5,0h3.5c0.1,0,0.2,0,0.3,0s0.2,0,0.3,0
			c0.3,0,0.6,0,0.8,0s0.6,0,0.8,0s0.6,0,0.8,0s0.6,0,0.8,0H38c0.3,0,0.6,0,0.9,0c0.3,0,0.6,0.1,0.8,0.1c0.3,0.1,0.4,0.2,0.4,0.3v0.3
			c0,0.1,0,0.2,0,0.3c0,0.2,0,0.4,0.1,0.6c0,0.2,0,0.4,0,0.6s0,0.3,0,0.4l0,0c0,0,0,0-0.1,0c-0.4,0-0.9,0-1.3,0c-0.4,0-0.9,0-1.3,0
			c-0.6,0-1.3,0-2,0s-1.3,0-2,0c-0.3,0-0.6,0-0.8,0s-0.6,0.1-0.8,0.1c-0.1,0-0.2,0-0.3,0s-0.2,0-0.3,0s-0.2,0-0.3,0s-0.1,0-0.2,0
			c-0.5,0-0.9,0-1.4-0.1c-0.5,0-0.9,0-1.4,0c-0.3,0-0.6,0-0.8,0s-0.6,0.1-0.8,0.1s-0.4,0-0.4-0.1s0-0.3,0-0.5v-0.2c0,0,0-0.1,0-0.2
			c0-0.1,0-0.2,0-0.3s0-0.1,0-0.3C26,37.8,26,37.7,26,37.6z M33.8,44.7c-0.2,0-0.4,0-0.6,0s-0.4,0-0.5,0c-0.2,0-0.4,0.1-0.6,0.1
			c-0.1,0-0.2,0-0.3-0.1c-0.1,0-0.2,0-0.3,0h-2.2c-0.1,0-0.1,0-0.2,0s-0.1,0.1-0.3,0.1h-1.7c-0.1,0-0.3,0-0.4,0c-0.1,0-0.3,0-0.4,0
			h-0.1c0,0-0.1,0-0.1-0.1S26,44.6,26,44.5v-0.6c0-0.2,0-0.4,0-0.6c0-0.7,0.1-1.1,0.4-1.2c0.3-0.1,0.7-0.1,1.2-0.1
			c0.1,0,0.2,0,0.3-0.1c0.1,0,0.1,0,0.3,0h2.2c0.5,0,0.9,0,1.3,0c0.4,0,0.6,0,0.6,0.1h0.3c0.1,0,0.1,0,0.3,0h0.2c0.6,0,1.2,0,1.7,0
			c0.6,0,1.2,0,1.7,0c0.2,0,0.4,0,0.6-0.1c0.1,0,0.3,0,0.5,0s0.4,0,0.6,0c0.2,0,0.4,0.1,0.6,0.1h0.1c0,0,0,0,0.1,0c0,0,0.1,0,0.2,0
			c0.6,0,0.9,0.1,1,0.3s0.1,0.6,0.1,1.1c0,0.4-0.1,0.8-0.3,0.9c-0.2,0.2-0.4,0.4-0.7,0.4c-0.3,0.1-0.6,0.1-0.9,0.1c-0.3,0-0.7,0-1,0
			h-0.5c-0.2,0-0.3,0-0.5,0c-0.1,0-0.3,0-0.4-0.1c-0.1,0-0.3,0-0.4,0c-0.2,0-0.4,0-0.6,0c-0.2,0-0.4,0-0.7,0
			C34.1,44.8,33.9,44.7,33.8,44.7z M38.7,50.3c-0.3,0.2-0.6,0.3-0.8,0.4c-0.1,0-0.3-0.2-0.6-0.4s-0.6-0.5-0.8-0.8
			c-0.3-0.3-0.6-0.6-0.8-0.8c-0.3-0.3-0.4-0.4-0.5-0.6c-0.1-0.1-0.2-0.3-0.3-0.4c-0.1-0.1-0.1-0.3-0.3-0.4c-0.1-0.1-0.2-0.3-0.3-0.3
			c0.1,0,0.3,0,0.4,0c0.1,0,0.2,0,0.3,0c0,0,0.1,0,0.2,0h3.4c0.5,0,1.1,0,1.6,0s1,0,1.6,0c0.1,0,0.3,0,0.4,0c0.1,0,0.3,0,0.4,0h0.2
			c0,0-0.2,0.1-0.4,0.3s-0.3,0.3-0.4,0.3c-0.1,0.1-0.3,0.3-0.4,0.4c-0.1,0.1-0.3,0.3-0.4,0.3c-0.3,0.1-0.5,0.3-0.8,0.6
			c-0.3,0.2-0.6,0.4-0.9,0.7S38.9,50.1,38.7,50.3z"/>
		<path class="st1" d="M33.2,51.5c-0.1,0-0.4,0.1-0.6,0.2c-0.3,0.1-0.6,0.3-0.9,0.5c-0.3,0.2-0.6,0.4-0.8,0.6s-0.4,0.3-0.5,0.4
			c-0.1,0.1-0.2,0.3-0.3,0.4c-0.1,0.1-0.2,0.3-0.3,0.4c-0.2,0.2-0.4,0.4-0.6,0.5c-0.2,0.1-0.4,0.3-0.6,0.4c-0.1,0.1-0.2,0.2-0.3,0.3
			s-0.3,0.2-0.4,0.3c-0.4,0.3-0.8,0.5-1.2,0.8c-0.4,0.2-0.8,0.4-1.2,0.6c-0.1,0-0.3,0.1-0.6,0.2s-0.4,0.1-0.6,0.1c-0.3,0-0.6,0-1,0
			s-0.8,0-1.1-0.1s-0.6-0.2-0.9-0.4c-0.3-0.2-0.4-0.5-0.4-0.8c0-0.4,0.1-0.8,0.3-1.1s0.6-0.6,1-0.6c0.3,0,0.5,0,0.8,0.1
			c0.2,0.1,0.5,0.1,0.8,0.1s0.6,0,0.9-0.1c0.4-0.1,0.7-0.2,0.9-0.3s0.4-0.3,0.5-0.5s0.3-0.3,0.4-0.5c0.3-0.3,0.7-0.6,1.1-0.9
			c0.3-0.3,0.6-0.6,1-0.9c0.1-0.1,0.3-0.2,0.4-0.3c0.1,0,0.2-0.1,0.3-0.2c0.1-0.1,0.2-0.2,0.3-0.3s0.2-0.2,0.3-0.3
			c0.2-0.2,0.4-0.3,0.8-0.5c0.3-0.1,0.6-0.2,1-0.3s0.7-0.2,1-0.2s0.6-0.1,0.8-0.1c1.2,0,2.3,0.2,3.2,0.7c0.8,0.4,1.6,1.2,2.4,2.1
			c0.2,0.3,0.4,0.5,0.5,0.8s0.3,0.5,0.5,0.8c0.1,0.2,0.3,0.4,0.5,0.7s0.4,0.4,0.6,0.6c0.2,0.1,0.4,0.3,0.5,0.5
			c0.2,0.3,0.4,0.6,0.6,0.8c0.2,0.3,0.4,0.6,0.6,0.8c0.3,0.3,0.7,0.7,1.1,0.9c0.4,0.3,0.8,0.6,1.1,0.9c0.4,0.4,0.9,0.7,1.3,1.1
			s0.9,0.6,1.4,0.9c0.2,0.1,0.4,0.2,0.6,0.2c0.2,0,0.4,0.1,0.6,0.2c0.5,0.2,1,0.4,1.6,0.5s1.1,0.2,1.6,0.3c0.3,0,0.6,0.1,0.8,0.1
			c0.3,0,0.6,0.1,0.8,0.1c0.1,0,0.2,0,0.3,0c0.1,0,0.2,0,0.3,0c0.1,0,0.1,0,0.3,0c0.1,0,0.1,0,0.2,0.1s0.2,0.3,0.2,0.6s0,0.5,0,0.6
			c0,0,0,0.1,0.1,0.1c0,0.1,0,0.1,0,0.2c0,0.1,0,0.2-0.1,0.3c0,0.1-0.1,0.3-0.1,0.4c-0.2,0.4-0.5,0.7-0.8,0.7s-0.7,0.1-1.1,0.1
			c-0.3,0-0.7-0.1-1-0.2c-0.3-0.1-0.6-0.2-0.9-0.2c0,0-0.1,0.1-0.2,0c-0.1,0-0.2,0-0.2,0c-0.1,0-0.2,0-0.5-0.1
			c-0.3,0-0.6-0.1-0.9-0.2s-0.6-0.1-0.8-0.2c-0.3-0.1-0.4-0.1-0.5-0.1s-0.3-0.1-0.4-0.2c-0.1-0.1-0.3-0.2-0.4-0.2
			c-0.2,0-0.4-0.1-0.7-0.2c-0.3-0.1-0.5-0.2-0.6-0.3c-0.3-0.1-0.5-0.3-0.8-0.4c-0.3-0.1-0.5-0.3-0.7-0.4c-0.5-0.3-0.9-0.7-1.4-1.1
			c-0.4-0.4-0.9-0.8-1.3-1.2c-0.1-0.1-0.2-0.2-0.3-0.3s-0.1-0.2-0.3-0.3c-0.6-0.6-1.2-1.4-1.9-2.3c-0.1-0.1-0.1-0.2-0.1-0.3
			s-0.1-0.2-0.2-0.3c-0.2-0.3-0.5-0.6-0.8-1.1c-0.3-0.4-0.7-0.9-1.1-1.4c-0.4-0.4-0.8-0.9-1.2-1.2s-0.8-0.6-1.1-0.7
			c-0.4-0.1-0.8-0.1-1.1-0.1L33.2,51.5L33.2,51.5z M47.7,57.8c-0.1,0.1-0.2,0.1-0.3,0.1s-0.3,0-0.4,0c-0.1,0-0.3,0-0.4,0
			s-0.2,0-0.3,0s-0.2,0-0.3,0s-0.1-0.1-0.1-0.2c0-0.1-0.1-0.3-0.1-0.4c0-0.1,0-0.3,0-0.4c0-0.1,0-0.3,0-0.3s0-0.1,0-0.3
			c0-0.3,0-0.7,0.1-1.1c0-0.3,0.1-0.7,0.1-1.1V53c0-0.1,0-0.1,0-0.2c0-0.1,0-0.1,0-0.2c0,0,0-0.1,0-0.2c0-0.1,0-0.3,0.1-0.5
			c0-0.2,0.1-0.3,0.3-0.3c0,0,0.1,0,0.3,0c0.1,0,0.3,0,0.3,0.1c0.1,0,0.2,0,0.4,0s0.3,0,0.4,0c0,0,0.1,0,0.2,0
			c0.1,0,0.1,0.1,0.1,0.2c0,0,0,0.1,0,0.2s0,0.1,0,0.2c0,0,0,0.1,0,0.2c0,0.3,0,0.5,0.1,0.8c0,0.3,0.1,0.5,0.1,0.8s0,0.7-0.1,1
			c0,0.3-0.1,0.7-0.1,1c0,0.2,0,0.4,0.1,0.6c0,0.2,0.1,0.4,0.1,0.8C47.9,57.6,47.8,57.7,47.7,57.8z M50.4,58h-0.1c0,0-0.1,0-0.1-0.1
			v-0.1v-0.2c0-0.1,0-0.3,0-0.4c0-0.1,0-0.3,0-0.4c0-0.3,0-0.6-0.1-0.9c0-0.3-0.1-0.6-0.1-0.9c0-0.2,0-0.4,0.1-0.6
			c0-0.2,0.1-0.4,0.1-0.6v-1.5c0-0.3,0.1-0.4,0.2-0.5c0.1,0,0.3-0.1,0.5-0.1H52c0.2,0,0.3,0,0.3,0.1s0,0.2,0,0.3
			c0,0.3,0,0.5,0.1,0.7c0,0.2,0,0.4,0,0.7c0,0.1,0,0.3,0,0.4c0,0.1,0,0.3,0,0.4c0,0.1,0,0.2,0.1,0.3c0,0.1,0,0.2,0,0.3s0,0.3,0,0.4
			c0,0.1,0,0.3,0,0.4c0,0.2,0,0.4,0,0.6c0,0.2,0,0.4,0,0.6v0.3c0,0.1,0,0.1-0.1,0.2c-0.1,0-0.3,0.1-0.4,0.1s-0.3,0.1-0.4,0.1
			s-0.3,0-0.3,0h-0.7C50.5,58,50.4,58,50.4,58z"/>
		<path class="st1" d="M58,48.5c0,0-0.1,0-0.3,0c-0.3,0-0.5,0-0.8,0s-0.5,0-0.8,0c-0.2,0-0.5,0-0.6,0c-0.2,0-0.5,0-0.7,0
			c-0.1,0-0.1,0-0.1,0c0-0.7-0.1-1.4-0.3-2c-0.3-0.6-0.6-1.3-0.9-1.9c-0.2-0.3-0.4-0.6-0.7-0.9s-0.6-0.6-0.8-0.8
			c-0.3-0.3-0.6-0.6-0.8-0.8c-0.3-0.3-0.6-0.5-0.9-0.8h-0.2c-0.3-0.3-0.6-0.6-1-0.8s-0.8-0.4-1.1-0.7c-0.3-0.1-0.5-0.3-0.7-0.5
			s-0.4-0.3-0.7-0.5c-0.4-0.2-0.8-0.5-1.1-0.8c-0.4-0.3-0.8-0.6-1.1-1c-0.4-0.3-0.7-0.7-0.9-1.1c-0.3-0.4-0.4-0.8-0.6-1.3
			c0-0.1-0.1-0.3-0.1-0.4c0-0.2-0.1-0.3-0.1-0.4c0-0.3,0-0.7,0.1-1s0.1-0.6,0.1-0.9v-0.5c0-0.1,0-0.2,0.1-0.3s0.1-0.3,0.3-0.5
			c0.1-0.1,0.2-0.3,0.3-0.4c0.1-0.1,0.1-0.2,0.2-0.3c0-0.1,0.1-0.1,0.2-0.2c0.1,0,0.1-0.1,0.2-0.2c0.6-0.9,1.2-1.7,2-2.6
			c0.8-0.9,1.6-1.6,2.6-2c0.1,0,0.3-0.1,0.5-0.3s0.4-0.4,0.5-0.4c0.1-0.1,0.3-0.3,0.4-0.4c0.1-0.1,0.3-0.3,0.4-0.4
			c0.1-0.1,0.3-0.2,0.5-0.4c0.3-0.1,0.5-0.3,0.8-0.5s0.5-0.3,0.7-0.5s0.3-0.3,0.3-0.4s0-0.2-0.1-0.3s-0.2-0.2-0.3-0.3
			c-0.1-0.1-0.3-0.3-0.4-0.4c-0.1-0.1-0.3-0.2-0.4-0.4c-0.1-0.1-0.3-0.4-0.4-0.6c-0.2-0.3-0.3-0.5-0.5-0.8s-0.3-0.6-0.4-0.9
			c-0.1-0.3-0.2-0.5-0.2-0.7c0-0.1,0.1-0.2,0.2-0.3c0,0,0.1-0.1,0.3-0.1c0.2,0,0.4-0.1,0.6-0.2c0.2-0.1,0.4-0.1,0.6-0.2
			c0.2,0,0.3-0.1,0.3-0.1c0.1,0,0.2,0.1,0.3,0.2c0,0.2,0.1,0.3,0.1,0.4c0.2,0.6,0.5,1.1,0.8,1.6s0.8,0.8,1.4,1
			c0.2,0.1,0.4,0.1,0.6,0.2c0.2,0.1,0.4,0.1,0.6,0.1s0.4,0,0.6-0.1s0.4-0.1,0.6-0.1c0.1,0,0.3,0.1,0.5,0.2c0.1,0.1,0.3,0.3,0.5,0.4
			c0.1,0.2,0.2,0.3,0.3,0.5c0.1,0.2,0.1,0.4,0.1,0.5c0,0.2-0.1,0.4-0.3,0.6c-0.2,0.2-0.4,0.4-0.7,0.6c-0.3,0.2-0.5,0.3-0.8,0.5
			s-0.5,0.3-0.7,0.4s-0.3,0.2-0.4,0.3s-0.3,0.2-0.5,0.3c-0.4,0.2-0.8,0.4-1.2,0.6c-0.4,0.2-0.8,0.5-1.2,0.8
			c-0.1,0.1-0.2,0.2-0.3,0.3c-0.1,0.1-0.3,0.3-0.4,0.4c-0.1,0.1-0.3,0.3-0.4,0.4c-0.1,0.1-0.2,0.2-0.3,0.2c-0.1,0.1-0.2,0.1-0.3,0.2
			c-0.1,0-0.3,0.1-0.4,0.3c-0.1,0.1-0.2,0.2-0.3,0.3c-0.1,0.1-0.1,0.2-0.3,0.3c-0.2,0.2-0.4,0.3-0.6,0.4c-0.2,0.1-0.4,0.2-0.6,0.4
			c-0.3,0.3-0.6,0.6-1,1.1c-0.4,0.4-0.7,0.9-1.1,1.5s-0.6,1.1-0.9,1.6c-0.2,0.5-0.3,1-0.3,1.4v0.1c0.2,0.4,0.4,0.8,0.8,1.2
			s0.7,0.7,1.1,1c0.2,0.1,0.4,0.3,0.6,0.5s0.4,0.4,0.6,0.5s0.4,0.2,0.7,0.3c0.2,0.1,0.5,0.2,0.6,0.3s0.4,0.3,0.6,0.4
			c0.2,0.1,0.4,0.3,0.6,0.3c0.1,0,0.2,0.1,0.3,0.1c0.1,0,0.1,0.1,0.3,0.1c0.3,0.2,0.7,0.4,0.9,0.8s0.6,0.6,0.9,0.8s0.6,0.4,1,0.6
			c0.3,0.2,0.6,0.4,0.8,0.8c0.1,0.1,0.2,0.3,0.3,0.5c0.1,0.2,0.2,0.3,0.3,0.5c0.2,0.3,0.4,0.6,0.6,0.9c0.1,0.3,0.3,0.6,0.5,1
			c0.1,0.2,0.2,0.4,0.4,0.8c0.1,0.3,0.3,0.7,0.4,1s0.2,0.7,0.3,1c0.1,0.3,0.1,0.6,0.1,0.8S58,48.5,58,48.5z M58.7,30.5
			c-0.1,0-0.2,0-0.2,0c-0.3,0-0.5,0-0.5-0.1c-0.1-0.1-0.1-0.3-0.1-0.6v-0.1c0-0.1,0.1-0.2,0.1-0.3c0,0,0-0.1,0.1-0.1v-0.1
			c0-0.1,0-0.1,0-0.2c0-0.3-0.1-0.6-0.1-1c0-0.3-0.1-0.6-0.1-0.9c0-0.2,0-0.4,0-0.7c0-0.2,0-0.4,0-0.6c0-0.1,0-0.3,0-0.4
			c0-0.1,0-0.3,0-0.4c0-0.3,0.1-0.4,0.3-0.4c0.2,0,0.4,0,0.6,0h0.3c0.5,0,0.8,0.1,0.9,0.4c0.1,0.3,0.1,0.6,0.1,1.1v1.5L60,27.7
			c0,0.2,0.1,0.4,0.1,0.6c0,0.2,0,0.4,0,0.6v1.2c0,0,0,0.1,0,0.3c0,0.1-0.1,0.2-0.1,0.3l-0.1,0.1c-0.1,0-0.1,0-0.2,0L58.7,30.5
			L58.7,30.5z M63.8,30.5c-0.1,0-0.2,0-0.3,0s-0.2,0-0.3,0c-0.2,0-0.3-0.1-0.4-0.2s0-0.3,0-0.4c0-0.3,0-0.6,0-1c0-0.3,0-0.6,0-0.9
			c0-0.2,0-0.4,0-0.6s0-0.4,0-0.6c0-0.2,0-0.4,0-0.6s-0.1-0.4-0.1-0.6c0-0.1,0-0.2,0-0.3s0-0.3,0-0.4c0-0.1,0.1-0.2,0.1-0.3
			s0.1-0.1,0.2-0.1c0,0,0.1,0,0.2,0h0.1c0,0,0.1,0,0.2,0h0.4c0,0,0.1,0,0.2,0h0.1c0.1,0,0.3,0.1,0.4,0.3s0.1,0.5,0.2,0.8
			c0,0.3,0,0.6,0,0.9c0,0.3,0,0.5,0,0.6v1.2c0,0.1,0,0.3-0.1,0.4c-0.1,0.1-0.1,0.3-0.1,0.4c0,0.2,0,0.3,0.1,0.5
			c0,0.1,0.1,0.3,0.1,0.5s0,0.3,0,0.4s-0.1,0.1-0.3,0.1L63.8,30.5L63.8,30.5z"/>
	</g>
</g>
<g>
	<path class="st1" d="M107.5,57.7c0,0.3-0.1,0.6-0.2,0.9c-0.1,0.2-0.3,0.5-0.5,0.6s-0.5,0.3-0.7,0.4s-0.6,0.1-0.9,0.1
		c-0.2,0-0.4,0-0.6-0.1c-0.2,0-0.4-0.1-0.5-0.1c-0.1-0.1-0.3-0.1-0.4-0.2c-0.1-0.1-0.2-0.1-0.2-0.1s-0.1-0.1-0.1-0.2
		c0-0.1,0-0.2,0-0.3s0-0.2,0-0.2c0-0.1,0-0.1,0-0.2s0-0.1,0.1-0.1s0,0,0.1,0s0.1,0,0.2,0.1s0.2,0.1,0.3,0.2c0.1,0.1,0.3,0.1,0.5,0.2
		s0.4,0.1,0.6,0.1s0.3,0,0.4-0.1c0.1,0,0.2-0.1,0.3-0.2c0.1-0.1,0.1-0.1,0.2-0.2c0-0.1,0.1-0.2,0.1-0.3s0-0.3-0.1-0.4
		s-0.2-0.2-0.3-0.3c-0.1-0.1-0.3-0.1-0.4-0.2s-0.3-0.1-0.5-0.2c-0.2-0.1-0.3-0.2-0.5-0.3s-0.3-0.2-0.4-0.4c-0.1-0.1-0.2-0.3-0.3-0.5
		s-0.1-0.4-0.1-0.7s0.1-0.6,0.2-0.8s0.3-0.4,0.5-0.6s0.4-0.3,0.7-0.3s0.5-0.1,0.8-0.1c0.1,0,0.3,0,0.5,0c0.1,0,0.3,0.1,0.4,0.1
		s0.2,0.1,0.4,0.1s0.2,0.1,0.2,0.1s0,0.1,0.1,0.1v0.1v0.1c0,0.1,0,0.1,0,0.2c0,0.1,0,0.2,0,0.2s0,0.1,0,0.2v0.1c0,0,0,0-0.1,0
		c0,0-0.1,0-0.2-0.1s-0.2-0.1-0.3-0.1c-0.1-0.1-0.2-0.1-0.4-0.1c-0.1,0-0.3-0.1-0.5-0.1c-0.1,0-0.3,0-0.4,0.1
		c-0.1,0-0.2,0.1-0.3,0.1s-0.1,0.1-0.2,0.2s0,0.2,0,0.3s0,0.3,0.1,0.4c0.1,0.1,0.2,0.2,0.3,0.3s0.3,0.1,0.4,0.2
		c0.2,0.1,0.3,0.1,0.5,0.2s0.3,0.2,0.5,0.3s0.3,0.2,0.4,0.4s0.2,0.3,0.3,0.5S107.5,57.4,107.5,57.7z"/>
	<path class="st1" d="M120.8,57.2c0,0.4-0.1,0.7-0.2,1s-0.3,0.6-0.5,0.8s-0.5,0.4-0.8,0.5s-0.7,0.2-1.1,0.2s-0.8-0.1-1.1-0.1
		c-0.3-0.1-0.6-0.2-0.8-0.4s-0.4-0.4-0.5-0.8s-0.2-0.6-0.2-1.1v-3.8v-0.1c0,0,0-0.1,0.1-0.1c0,0,0.1,0,0.2,0s0.2,0,0.3,0
		s0.2,0,0.3,0s0.1,0,0.2,0s0.1,0,0.1,0.1v0.1v3.7c0,0.2,0,0.5,0.1,0.6s0.1,0.3,0.3,0.5c0.1,0.1,0.2,0.2,0.4,0.3s0.3,0.1,0.5,0.1
		s0.4,0,0.5-0.1s0.3-0.1,0.4-0.3c0.1-0.1,0.2-0.3,0.3-0.4s0.1-0.4,0.1-0.6v-3.8v-0.1c0,0,0-0.1,0.1-0.1s0.1,0,0.2,0s0.2,0,0.3,0
		s0.2,0,0.3,0c0.1,0,0.1,0,0.2,0s0.1,0,0.1,0.1s0,0.1,0,0.1L120.8,57.2L120.8,57.2z"/>
	<path class="st1" d="M134.3,54.3c0,0.1,0,0.2,0,0.2c0,0.1,0,0.1,0,0.2s0,0.1,0,0.1s0,0-0.1,0c0,0-0.1,0-0.2-0.1s-0.2-0.1-0.4-0.2
		s-0.3-0.1-0.6-0.2s-0.5-0.1-0.8-0.1s-0.6,0.1-0.8,0.2s-0.5,0.3-0.6,0.4s-0.3,0.4-0.4,0.7s-0.1,0.6-0.1,0.9c0,0.4,0,0.7,0.1,0.9
		c0.1,0.3,0.2,0.5,0.4,0.7c0.2,0.2,0.4,0.3,0.6,0.4s0.5,0.1,0.8,0.1c0.1,0,0.3,0,0.4-0.1c0.1,0,0.3-0.1,0.4-0.1v-1.5h-1.2
		c-0.1,0-0.1,0-0.1-0.1s0-0.2,0-0.4c0-0.1,0-0.2,0-0.2V56c0,0,0-0.1,0.1-0.1s0,0,0.1,0h2.1h0.1c0,0,0.1,0,0.1,0.1c0,0,0,0.1,0.1,0.1
		c0,0.1,0,0.1,0,0.2v2.5c0,0.1,0,0.2,0,0.3s-0.1,0.1-0.2,0.2s-0.2,0.1-0.4,0.1s-0.3,0.1-0.5,0.1s-0.3,0.1-0.5,0.1s-0.3,0-0.5,0
		c-0.5,0-1-0.1-1.4-0.2c-0.4-0.1-0.7-0.4-1-0.6c-0.3-0.3-0.5-0.6-0.6-1S129,57,129,56.4c0-0.5,0.1-1,0.2-1.4s0.4-0.8,0.7-1.1
		c0.3-0.3,0.6-0.5,1-0.7s0.9-0.2,1.4-0.2c0.3,0,0.5,0,0.8,0.1s0.4,0.1,0.6,0.1c0.2,0.1,0.3,0.1,0.4,0.2c0.1,0.1,0.2,0.1,0.2,0.2
		s0.1,0.1,0.1,0.2S134.3,54.1,134.3,54.3z"/>
	<path class="st1" d="M147.9,57.2c0,0.4-0.1,0.7-0.2,1s-0.3,0.6-0.5,0.8s-0.5,0.4-0.8,0.5s-0.7,0.2-1.1,0.2s-0.8-0.1-1.1-0.1
		c-0.3-0.1-0.6-0.2-0.8-0.4s-0.4-0.4-0.5-0.8s-0.2-0.6-0.2-1.1v-3.8v-0.1c0,0,0-0.1,0.1-0.1c0,0,0.1,0,0.2,0s0.2,0,0.3,0
		s0.2,0,0.3,0s0.1,0,0.2,0s0.1,0,0.1,0.1v0.1v3.7c0,0.2,0,0.5,0.1,0.6s0.1,0.3,0.3,0.5c0.1,0.1,0.2,0.2,0.4,0.3s0.3,0.1,0.5,0.1
		s0.4,0,0.5-0.1s0.3-0.1,0.4-0.3c0.1-0.1,0.2-0.3,0.3-0.4s0.1-0.4,0.1-0.6v-3.8v-0.1c0,0,0-0.1,0.1-0.1s0.1,0,0.2,0s0.2,0,0.3,0
		s0.2,0,0.3,0s0.1,0,0.2,0s0.1,0,0.1,0.1s0,0.1,0,0.1L147.9,57.2L147.9,57.2z"/>
	<path class="st1" d="M170,53.8c0,0.1,0,0.2,0,0.2s0,0.1,0,0.2c0,0,0,0.1-0.1,0.1c0,0,0,0-0.1,0h-1.6v5.1v0.1l-0.1,0.1
		c0,0-0.1,0-0.2,0s-0.2,0-0.3,0s-0.2,0-0.3,0s-0.1,0-0.2,0s-0.1,0-0.1-0.1v-0.1v-5.1h-1.6h-0.1c0,0,0-0.1-0.1-0.1s0-0.1,0-0.2
		s0-0.1,0-0.2c0-0.1,0-0.2,0-0.2s0-0.1,0-0.2c0,0,0-0.1,0.1-0.1c0,0,0,0,0.1,0h4.5c0,0,0,0,0.1,0c0,0,0,0.1,0.1,0.1s0,0.1,0,0.2
		S170,53.7,170,53.8z"/>
	<path class="st1" d="M182.5,59.1c0,0.1,0.1,0.2,0.1,0.3s0,0.1,0,0.1s-0.1,0.1-0.2,0.1s-0.2,0-0.4,0c-0.2,0-0.3,0-0.4,0
		s-0.2,0-0.2,0s-0.1,0-0.1-0.1s0-0.1,0-0.1l-0.4-1.3h-2.5l-0.4,1.2c0,0.1,0,0.1,0,0.1s0,0.1-0.1,0.1c0,0-0.1,0-0.2,0s-0.2,0-0.3,0
		c-0.1,0-0.3,0-0.4,0s-0.1,0-0.2-0.1s0-0.1,0-0.2s0-0.2,0.1-0.3l2-5.6c0-0.1,0-0.1,0.1-0.1s0.1-0.1,0.1-0.1c0.1,0,0.1,0,0.2,0
		s0.2,0,0.4,0c0.2,0,0.3,0,0.5,0s0.2,0,0.3,0c0.1,0,0.1,0,0.1,0.1c0,0,0,0.1,0.1,0.1L182.5,59.1z M179.6,54.5L179.6,54.5l-0.9,2.7
		h1.8L179.6,54.5z"/>
	<path class="st1" d="M195.1,57.7c0,0.2,0,0.4-0.1,0.6s-0.1,0.3-0.3,0.5c-0.1,0.1-0.2,0.3-0.4,0.4c-0.1,0.1-0.3,0.2-0.5,0.2
		s-0.4,0.1-0.6,0.1s-0.4,0.1-0.7,0.1h-1.7c-0.1,0-0.2,0-0.3-0.1c-0.1-0.1-0.1-0.2-0.1-0.3v-5.5c0-0.1,0-0.2,0.1-0.3s0.2-0.1,0.3-0.1
		h1.6c0.4,0,0.7,0,1,0.1s0.5,0.2,0.7,0.3s0.3,0.3,0.4,0.5s0.1,0.4,0.1,0.7c0,0.1,0,0.3-0.1,0.4s-0.1,0.3-0.2,0.4s-0.2,0.2-0.3,0.3
		c-0.1,0.1-0.2,0.1-0.4,0.2c0.2,0,0.3,0.1,0.5,0.2c0.1,0.1,0.3,0.2,0.4,0.3s0.2,0.3,0.3,0.4S195.1,57.5,195.1,57.7z M193.5,55
		c0-0.1,0-0.2-0.1-0.3s-0.1-0.2-0.2-0.2s-0.2-0.1-0.3-0.1c-0.1,0-0.3-0.1-0.5-0.1h-0.6v1.6h0.7c0.2,0,0.3,0,0.4-0.1s0.2-0.1,0.3-0.2
		c0.1-0.1,0.1-0.2,0.2-0.3S193.5,55.2,193.5,55z M193.8,57.7c0-0.1,0-0.3-0.1-0.4s-0.1-0.2-0.2-0.3s-0.2-0.1-0.4-0.2
		s-0.3-0.1-0.6-0.1h-0.8v1.8h0.9c0.2,0,0.3,0,0.5-0.1c0.1,0,0.2-0.1,0.3-0.2c0.1-0.1,0.2-0.2,0.2-0.3
		C193.8,58,193.8,57.9,193.8,57.7z"/>
	<path class="st1" d="M207.1,59.1c0,0.1,0,0.2,0,0.2c0,0.1,0,0.1,0,0.1s0,0.1-0.1,0.1c0,0,0,0-0.1,0h-3.2c-0.1,0-0.2,0-0.3-0.1
		c-0.1-0.1-0.1-0.2-0.1-0.3v-5.5c0-0.1,0-0.2,0.1-0.3s0.2-0.1,0.3-0.1h3.1h0.1c0,0,0,0,0.1,0.1s0,0.1,0,0.2c0,0.1,0,0.1,0,0.2
		c0,0.1,0,0.2,0,0.2V54c0,0,0,0.1-0.1,0.1s0,0-0.1,0h-2.3v1.5h1.9h0.1c0,0,0,0.1,0.1,0.1s0,0.1,0,0.1s0,0.1,0,0.2s0,0.2,0,0.2v0.1
		c0,0,0,0.1-0.1,0.1s0,0-0.1,0h-1.9v1.8h2.3h0.1c0,0,0,0.1,0.1,0.1s0,0.1,0,0.1C207.1,58.9,207.1,59,207.1,59.1z"/>
</g>
<path class="st1" d="M35.5,70.5c-19.3,0-35-15.7-35-35s15.7-35,35-35s35,15.7,35,35S54.8,70.5,35.5,70.5z M35.5,3.6
	c-17.6,0-32,14.3-32,32s14.3,32,32,32s32-14.3,32-32S53.2,3.6,35.5,3.6z"/>
</svg>
