<?xml version="1.0" encoding="utf-8"?>
<!-- Generator: Adobe Illustrator 24.1.2, SVG Export Plug-In . SVG Version: 6.00 Build 0)  -->
<svg version="1.1" id="レイヤー_1" xmlns="http://www.w3.org/2000/svg" xmlns:xlink="http://www.w3.org/1999/xlink" x="0px"
	 y="0px" viewBox="0 0 240 71" style="enable-background:new 0 0 240 71;" xml:space="preserve">
<style type="text/css">
	.st0{display:none;}
	.st1{fill:#C30D23;}
</style>
<path class="st0" d="M47,50.6c-0.1-0.1-0.1-0.2-0.2-0.3c-0.6-0.4-1.1-0.6-1.7-0.9c-0.6-0.1-1.2-0.4-1.8-0.8
	c-0.4-0.2-0.8-0.5-1.2-0.6s-0.9-0.4-1.2-0.6c-0.3-0.1-0.6-0.3-0.8-0.6c-0.2-0.2-0.6-0.4-0.8-0.4c-0.6-0.2-1.2-0.6-1.8-1
	s-1.1-0.9-1.7-1.2c-0.1-0.1-0.3-0.1-0.5-0.3c-0.2-0.1-0.4-0.2-0.4-0.3c-0.1-0.1-0.3-0.2-0.4-0.4c-0.2-0.1-0.4-0.3-0.6-0.4
	c-1.1-0.8-2.1-1.6-3.1-2.6s-1.9-1.9-2.8-2.9c-0.2-0.2-0.4-0.4-0.6-0.6s-0.4-0.4-0.6-0.6c-0.1-0.1-0.3-0.4-0.4-0.6
	c-0.1-0.2-0.3-0.4-0.4-0.6s-0.4-0.3-0.8-0.4s-0.6-0.1-0.9-0.1h-0.9c-0.1,0-0.1,0-0.2,0c-0.3-0.1-0.6-0.1-0.9-0.2c0-0.1,0-0.3,0-0.4
	c-0.1-0.4-0.2-0.9-0.3-1.4c-0.1-0.6-0.2-1.1-0.4-1.6c-0.1-0.4-0.3-0.8-0.4-0.9c-0.1-0.1-0.1-0.2-0.3-0.4c-0.1-0.1-0.2-0.3-0.2-0.4
	c0-0.4,0-0.9,0.1-1.4s0.1-0.9,0.1-1.4c0-0.4,0.1-0.6,0.1-0.9s0.1-0.6,0.1-0.9c0-0.1-0.1-0.4-0.2-0.8c0.1-0.1,0.1-0.4,0.1-0.7
	s0.1-0.5,0.3-0.6c0.1,0,0.3,0,0.8-0.1c0.4,0,1,0,1.6-0.1h2.6c0.2,0,0.5,0,0.8,0.1c0.2,0.1,0.4,0.1,0.7,0.1c0.5,0,1,0,1.4-0.1
	s0.9-0.1,1.4-0.1H32c0.4,0.1,0.8,0.1,1.2,0.1c0.2,0,0.5,0,0.8-0.1s0.5-0.1,0.8-0.1s0.6,0,0.8,0.1s0.5,0.1,0.8,0.1
	c0.4,0,0.8,0,1.1-0.1c0.4-0.1,0.6-0.3,0.6-0.8v-0.4c-0.1-0.1-0.1-0.3-0.1-0.4s0-0.4,0.1-0.6v-0.6c-0.1-0.1-0.1-0.3-0.1-0.4
	c-0.1-0.1-0.2-0.1-0.4-0.1h-0.6c-0.2,0.1-0.4,0.1-0.6,0.1c-0.4,0-0.6-0.1-0.9-0.1c-0.3-0.1-0.6-0.1-0.9-0.1
	c-0.1-0.1-0.2-0.1-0.4-0.1s-0.4,0.1-0.5,0.1s-0.4,0.1-0.5,0.1s-0.3,0-0.4-0.1S32.3,19,32.2,19h-1.4c-0.2,0-0.4,0-0.6,0.1
	s-0.4,0.1-0.6,0.1c-0.3,0-0.6-0.1-0.9-0.1c-0.2-0.1-0.6-0.1-0.9-0.1c-0.2,0-0.6,0.1-0.9,0.1S26.4,19,26.2,19h-3
	c-0.9,0-1.6-0.1-1.9-0.4s-0.5-0.9-0.5-1.8v-0.7c0-0.2,0.1-0.5,0.1-0.8c0.1-0.2,0.1-0.4,0.1-0.7c0-0.4,0-0.9-0.1-1.4
	c-0.1-0.4-0.1-0.9-0.1-1.3c0-0.2,0-0.6,0.1-0.8s0.1-0.5,0.1-0.8S21,10,20.9,9.9c-0.1-0.1-0.3-0.1-0.6-0.1h-0.8
	c-0.2,0.1-0.5,0.1-0.8,0.1c-0.6,0-1.1,0.1-1.2,0.1s-0.3,0.4-0.3,1.1c0,0.2,0,0.4,0.1,0.6v0.6c0,0.4,0,0.6-0.1,0.9s-0.1,0.6-0.1,0.9
	c0,0.4,0.1,0.9,0.1,1.2c0.1,0.4,0.1,0.8,0.1,1.2c0,0.1-0.1,0.3-0.1,0.4c-0.1,0.2-0.1,0.5-0.1,0.9c0,0.3-0.1,0.6-0.2,0.7
	c-0.2,0.1-0.5,0.2-0.8,0.2c-0.4,0.1-0.6,0.1-1,0.1c-0.4,0.1-0.6,0.1-1,0.1c-0.2,0.1-0.4,0.1-0.5,0.1c-0.4,0-0.9-0.1-1.1-0.1
	c-0.3-0.1-0.6-0.1-0.9-0.1H9.1c-0.1,0-0.2,0-0.4,0.1C8.6,19,8.5,19,8.3,19c-0.2,0-0.4,0-0.6-0.1H7.2C7,19,6.8,19,6.6,19
	s-0.4,0.1-0.6,0.1S5.7,19,5.5,19c-0.2-0.1-0.4-0.1-0.6-0.1c-0.4,0-0.8,0-1.2,0.1S2.8,19,2.4,19H-4c-0.1,0-0.2,0-0.4-0.1h-0.6
	c-0.2,0-0.4,0-0.6,0.1s-0.2,0.1-0.3,0.2S-6,19.5-6,19.7c0,0.2,0.1,0.6,0.1,0.8c0.1,0.3,0.1,0.6,0.1,0.9c0,0.1,0,0.2-0.1,0.2
	c0,0.1,0,0.1-0.1,0.2c-0.1,0.1-0.1,0.2-0.1,0.2c0,0.2,0.2,0.4,0.6,0.4c0.4,0.1,0.6,0.1,0.8,0.1c0.2,0,0.6,0,0.9-0.1h0.9
	c0.4,0,0.6,0,1,0.1c0.3,0.1,0.6,0.1,0.9,0.1c0.1,0,0.2,0,0.4-0.1c0.1-0.1,0.1-0.1,0.3-0.1h0.4c0.2,0.1,0.4,0.1,0.6,0.1h0.6
	c0.1,0,0.3,0,0.4-0.1h0.3c0.2,0,0.4,0,0.7,0.1c0.2,0.1,0.4,0.1,0.6,0.1c0.2,0,0.4,0,0.6-0.1c0.1,0,0.4,0,0.6-0.1
	c0.7-0.1,1.4-0.1,2.2-0.1c0.8,0.1,1.4,0.1,2.1,0.1h3.3c1.1,0.1,2.1,0.1,3.2,0.1c0.1,0,0.3,0,0.4-0.1s0.3-0.1,0.4-0.1
	c0.4,0,0.6,0.1,0.8,0.1c0.1,0.1,0.1,0.4,0.1,0.7c0,0.4,0,0.9-0.1,1.4c-0.1,0.4-0.1,0.9-0.1,1.4v0.4c0.1,0.1,0.1,0.1,0.1,0.1
	c0,0.1,0,0.1,0.1,0.1v0.1c0,0.1-0.1,0.2-0.2,0.3s-0.2,0.1-0.4,0.1c-0.2,0-0.4,0-0.6-0.1S15.6,27,15.3,27h-0.6
	c-0.2,0-0.4,0.1-0.6,0.1c-0.2,0.1-0.5,0.2-0.8,0.2c-0.2,0.1-0.4,0.2-0.7,0.4c-0.6,0.4-1.3,0.9-1.9,1.6c-0.6,0.6-1.1,1.3-1.4,2
	c-0.1,0.4-0.3,0.9-0.4,1.4c-0.1,0.6-0.1,1-0.1,1.4v0.9c0,0.4,0.1,0.6,0.1,0.9C9,37,9.4,37.9,10,38.7s1.2,1.5,2.1,1.9
	c0.2,0.1,0.4,0.1,0.6,0.2c0.2,0.1,0.4,0.2,0.6,0.2s0.4-0.1,0.7-0.2c0.2-0.1,0.4-0.4,0.5-0.6s0.2-0.5,0.4-0.8
	c0.1-0.2,0.1-0.5,0.1-0.7c0-0.4-0.1-0.6-0.4-0.8c-0.2-0.1-0.6-0.4-0.9-0.6s-0.6-0.5-0.8-0.9c-0.2-0.3-0.4-0.8-0.4-1.3
	c0-0.4,0.1-0.9,0.1-1.4c0.1-0.6,0.2-1.1,0.5-1.5s0.6-0.8,0.9-1.1c0.4-0.3,0.9-0.4,1.4-0.4c0.4,0,0.9,0.1,1.2,0.3
	c0.4,0.2,0.7,0.5,1,0.9c0.2,0.4,0.5,0.7,0.6,1.1c0.1,0.4,0.2,0.9,0.2,1.2c0,0.1,0,0.3-0.1,0.4s-0.1,0.3-0.1,0.4
	c-0.1,0.1-0.1,0.2-0.1,0.4s0.1,0.3,0.1,0.4s0.1,0.4,0.1,0.6c0,0.4-0.1,0.7-0.1,1.1c-0.1,0.4-0.2,0.8-0.4,1.1
	c-0.1,0.3-0.2,0.7-0.4,1.1c-0.2,0.5-0.4,1-0.7,1.5s-0.4,0.9-0.7,1.4s-0.5,0.8-0.7,1l-2.1,2.1c-0.1,0.1-0.4,0.3-0.6,0.4
	c-0.2,0.1-0.4,0.2-0.6,0.4c-0.4,0.4-0.9,0.6-1.4,0.9S10,47.8,9.5,48c-0.1,0.1-0.3,0.1-0.4,0.2c-0.1,0.1-0.3,0.1-0.4,0.2
	c-0.2,0.1-0.5,0.1-0.8,0.1s-0.4,0.1-0.7,0.2s-0.6,0.3-0.9,0.4s-0.7,0.1-1.1,0.1c-0.4,0-0.8,0.1-1.2,0.2c-0.1,0.1-0.2,0.1-0.5,0.1
	c-0.2,0.1-0.4,0.2-0.4,0.3c0,0.1,0.1,0.1,0.2,0.3c0.1,0.1,0.2,0.3,0.3,0.4C3.7,51,3.8,51.4,4,51.9s0.4,0.9,0.5,1.1
	c0.1,0.1,0.2,0.1,0.5,0.1c0.4,0,0.7-0.1,0.9-0.1c0.2-0.1,0.5-0.2,0.9-0.4c0.2-0.1,0.6-0.1,0.8-0.1c0.2-0.1,0.6-0.1,0.8-0.1
	c0.1-0.1,0.3-0.1,0.4-0.2s0.3-0.2,0.4-0.2c0.2-0.1,0.4-0.1,0.6-0.1c0.2-0.1,0.4-0.1,0.6-0.1c0,0,0.1,0,0.1,0c0,0.1,0,0.2,0.1,0.4
	c0,0.2,0,0.4,0.1,0.6V53c0,0.6,0,1.2-0.1,1.8s-0.1,1.2-0.1,1.8c0,0.1,0.1,0.4,0.1,0.5c0.1,0.2,0.1,0.4,0.1,0.6c0,0.8,0,1.6-0.1,2.4
	c-0.1,0.9-0.1,1.6-0.1,2.4c0,0.1,0,0.2,0.1,0.3s0.1,0.2,0.1,0.3V73c0,0.1,0,0.3-0.1,0.4c-0.1,0.1-0.1,0.3-0.1,0.4v0.9
	c-0.1,0.3-0.1,0.6-0.1,0.9c-0.2,0-0.4,0.1-0.6,0.1C9.5,75.9,9.3,76,9.1,76H8.9c-0.1-0.1-0.4-0.1-0.7,0.1c-0.4,0.1-0.6,0.1-0.8,0.1
	c-0.4,0.1-0.9,0.1-1.3,0.1s-0.9,0.1-1.2,0.2c-0.1,0.1-0.2,0.1-0.2,0.2c-0.1,0.1-0.1,0.2-0.1,0.3c0,0.2,0.1,0.5,0.2,0.9
	c0.1,0.4,0.2,0.7,0.4,1.1c0.1,0.4,0.4,0.6,0.6,0.9s0.5,0.4,0.8,0.4c0.1,0,0.3,0,0.4-0.1c0.4,0,0.7-0.1,1.1-0.1
	c0.3-0.1,0.6-0.2,1-0.3c0.1,0.1,0.2,0.1,0.4,0.1c0.1-0.1,0.3-0.1,0.4-0.1c0.4-0.1,0.9-0.1,1.2-0.2c0.4-0.1,0.8-0.2,1.1-0.3
	c0.9-0.1,1.8-0.3,2.8-0.6c0.1-0.1,0.3-0.1,0.4-0.1s0.3,0,0.4-0.1c0.2-0.1,0.6-0.1,1.4-0.3c0.7-0.1,1.4-0.4,2.2-0.5
	c0.8-0.2,1.6-0.4,2.2-0.6c0.6-0.2,1.1-0.4,1.1-0.4c0.3-0.1,0.6-0.1,0.9-0.2c0.3-0.1,0.6-0.1,0.9-0.2c0.3-0.1,0.6-0.1,0.9-0.2
	c0.3-0.1,0.6-0.2,0.9-0.2c0.1-0.1,0.2-0.1,0.2-0.2c0.1-0.1,0.1-0.1,0.1-0.1c0-0.1,0-0.1,0.1-0.1c0-0.1,0-0.2,0.1-0.3v-0.2
	c0-0.1,0-0.2-0.1-0.4s-0.1-0.4-0.1-0.7s-0.1-0.4-0.2-0.6c-0.1-0.1-0.1-0.2-0.2-0.2c-0.1,0-0.3,0.1-0.4,0.1c-0.1,0.1-0.3,0.1-0.4,0.1
	c-0.5,0.1-1,0.1-1.6,0.3c-0.6,0.2-1.1,0.4-1.6,0.4c-0.1,0.1-0.3,0.1-0.6,0.1c-0.3,0.1-0.5,0.1-0.6,0.1c-0.1,0-0.1,0.1-0.2,0.1
	c-0.3,0-0.6,0.1-0.9,0.1c-0.3,0.1-0.6,0.1-0.9,0.1c-0.4,0-0.9,0.1-1.2,0.2c-0.4,0.1-0.9,0.2-1.3,0.3c-0.4,0.1-0.7,0.1-1,0.2
	c-0.4,0.1-0.7,0.1-1.1,0.2c0.1-0.5,0.1-1,0-1.4s-0.1-0.9-0.1-1.4c0-0.1,0-0.2,0.1-0.3s0.1-0.2,0.1-0.4s0-0.3-0.1-0.4
	s-0.1-0.2-0.1-0.4c0-0.1,0-0.2,0.1-0.3s0.1-0.2,0.1-0.3c0-0.4,0-0.8-0.1-1.1s-0.1-0.8-0.1-1.1c0-0.1,0-0.3,0.1-0.4s0.1-0.3,0.1-0.4
	c0-0.2,0-0.4-0.1-0.7c-0.1-0.2-0.1-0.4-0.1-0.6s0.1-0.4,0.1-0.6c0.1-0.1,0.2-0.1,0.5-0.1c0.4,0,0.8,0,1.1,0.1s0.7,0.1,1.1,0.1
	c0.7,0,1.4,0,2.1-0.1c0.6-0.1,1.4-0.1,2.1-0.1c0.1,0,0.1,0,0.2,0.1s0.1,0.1,0.1,0.1c0.4,0.4,0.8,0.9,1.1,1.4s0.7,1.1,0.9,1.6
	c0.2,0.4,0.4,0.7,0.6,0.9c0.7,0.8,1.4,1.5,2.2,2.2c0.4,0.3,0.9,0.7,1.4,1.2c0.6,0.6,1.1,0.9,1.4,1.2c0.4,0.2,0.9,0.6,1.2,0.8
	c0.4,0.3,0.8,0.6,1.2,0.9c0.2,0.1,0.6,0.3,0.9,0.4s0.6,0.3,0.9,0.4c0.2,0.1,0.4,0.2,0.6,0.4c0.2,0.1,0.4,0.2,0.6,0.3
	c0.6,0.2,1.1,0.4,1.6,0.6s1.1,0.4,1.6,0.6c0.2,0.1,0.6,0.2,0.9,0.4c0.4,0.1,0.6,0.2,0.9,0.2c0.1,0.1,0.1,0.1,0.3,0.1
	c0.1,0,0.2,0,0.3,0.1c0.4,0.1,0.8,0.2,1.1,0.4c0.4,0.1,0.8,0.3,1.1,0.4c0.1-0.1,0.1-0.1,0.2-0.1h0.3c0.1,0,0.4-0.1,0.6-0.4
	c0.2-0.3,0.6-0.6,0.8-1c0.2-0.4,0.4-0.8,0.6-1.1s0.3-0.6,0.3-0.8c0-0.1-0.1-0.2-0.4-0.4c-0.2-0.1-0.6-0.1-0.9-0.2s-0.6-0.1-1-0.2
	s-0.6-0.1-0.8-0.1c-0.3-0.1-0.6-0.2-0.9-0.2c-0.4,0.1-0.7,0-0.9-0.1c-0.2-0.1-0.8-0.3-1.6-0.6c-0.9-0.2-1.7-0.6-2.6-0.9
	c-0.9-0.4-1.7-0.6-2.4-1c-0.7-0.4-1.1-0.6-1.1-0.9c0-0.1,0.1-0.1,0.1-0.2c0.1-0.1,0.1-0.1,0.2-0.1c0.4-0.2,0.8-0.6,1.4-0.8
	c0.5-0.2,0.9-0.5,1.1-0.8c0.4-0.3,0.7-0.6,1.1-0.9l1.2-0.8c0.6-0.3,1.1-0.7,1.7-1.2c0.6-0.6,1.1-1,1.6-1.4c0.1-0.1,0.2-0.1,0.4-0.2
	c0.1-0.1,0.2-0.2,0.2-0.4c0-0.1-0.1-0.4-0.4-0.6s-0.6-0.6-0.9-0.8c-0.4-0.2-0.6-0.5-0.9-0.7c-0.4-0.1-0.6-0.2-0.7-0.2
	c-0.1,0.1-0.3,0.2-0.5,0.4l-0.6,0.6c-0.2,0.2-0.4,0.4-0.6,0.5c-0.1,0.1-0.3,0.2-0.4,0.2c-0.1-0.1-0.1-0.3-0.1-0.6v-0.6
	c0-0.4,0-0.7,0.1-1.1c0.1-0.3,0.1-0.6,0.1-1s0-0.6-0.1-1c-0.1-0.3-0.1-0.6-0.1-0.9V58c-0.1-0.4,0-0.8,0.1-0.9
	c0.1-0.1,0.1-0.1,0.1-0.2v-0.1c0-0.4,0-0.9-0.1-1.4s-0.1-1-0.1-1.4c0-0.1,0.1-0.3,0.1-0.4c0.1-0.1,0.1-0.2,0.1-0.4
	c0-0.4,0-0.9-0.1-1.4s-0.1-0.9-0.1-1.4c0-0.1,0.1-0.4,0.1-0.6c0.2,0.1,0.7,0.4,1.4,0.8s1.6,0.9,2.4,1.4c0.9,0.4,1.6,0.9,2.4,1.2
	s1.2,0.6,1.4,0.6c0.4,0,0.6-0.1,0.9-0.4c0.1-0.1,0.2-0.3,0.4-0.5c0.1-0.1,0.3-0.4,0.4-0.6c0.1-0.2,0.2-0.4,0.4-0.6s0.1-0.4,0.1-0.6
	C47.1,50.9,47.1,50.8,47,50.6z M17.3,47.6c0.2-0.2,0.5-0.6,0.7-0.8s0.4-0.5,0.6-0.8c0.2-0.3,0.5-0.7,0.9-1.1
	c0.1-0.1,0.3-0.4,0.4-0.5s0.2-0.3,0.4-0.4c0.2-0.4,0.4-0.9,0.7-1.4s0.4-1.2,0.6-1.9c0.2-0.6,0.4-1.3,0.6-1.9c0-0.1,0-0.1,0-0.2
	c0.7,0,1.3,0.1,1.9,0.3c0.1,0.1,0.2,0.1,0.3,0.2c0.2,0.3,0.6,0.6,0.9,0.9c0.3,0.4,0.6,0.7,0.9,1.1c0.3,0.4,0.5,0.6,0.6,0.6
	c0.8,0.8,1.6,1.4,2.3,2.2s1.6,1.4,2.4,2.1c0.2,0.1,0.4,0.2,0.6,0.4c0.2,0.1,0.4,0.3,0.6,0.4c0.1,0.1,0.4,0.2,0.5,0.4
	s0.4,0.3,0.5,0.4c0.1,0.1,0.4,0.2,0.7,0.4c0.2,0.1,0.4,0.2,0.5,0.4c-0.1,0.1-0.1,0.1-0.2,0h-0.2c-0.5,0-1,0-1.5-0.1s-1-0.1-1.5-0.1
	c-0.1,0-0.4,0-0.5,0.1s-0.4,0.1-0.5,0.1c-0.2,0-0.4,0-0.6-0.1c-0.2-0.1-0.4-0.1-0.6-0.1c-0.1,0-0.2,0-0.4,0.1s-0.2,0.1-0.4,0.1
	c-0.4,0-0.8-0.1-1.1-0.1s-0.8-0.1-1.1-0.1c-0.1,0-0.2,0-0.2,0.1c-0.1,0-0.2-0.1-0.3-0.1s-0.1-0.1-0.1-0.4v-1.4
	c0-0.9-0.1-1.6-0.3-2.2s-0.9-0.8-1.9-0.8c-0.1,0-0.4,0-0.8,0.1c-0.4,0.1-0.6,0.1-0.6,0.4c0,0.4,0,0.8,0.1,1.2v1.2
	c0,0.2,0,0.5-0.1,0.7c-0.1,0.2-0.1,0.5-0.1,0.8c0,0.1,0,0.1,0.1,0.2c0.1,0.1,0.1,0.2,0.1,0.2h-5c-0.1,0-0.2,0-0.4,0.1
	c-0.1,0-0.2,0.1-0.3,0.1C16.8,48,17.1,47.8,17.3,47.6z M14.3,52.4v-0.4c-0.1-0.1-0.1-0.2-0.1-0.4c0-0.1,0-0.1,0.1-0.1
	c0-0.1,0.1-0.1,0.2-0.1c0.1-0.1,0.3-0.1,0.4-0.1h0.5c0.1,0,0.2,0,0.2,0h2.1c0.1,0,0.4,0,0.5-0.1s0.3-0.1,0.4-0.1
	c0.2,0,0.4,0,0.6,0.1c0.2,0.1,0.4,0.1,0.6,0.1h4.6c0.1,0,0.3,0,0.4-0.1c0.1-0.1,0.2-0.1,0.4-0.1c0.4,0,0.8,0,1.1,0.1
	s0.8,0.1,1.1,0.1s0.8,0,1.1-0.1s0.8-0.1,1.1-0.1h0.8c0.4,0,0.8,0,1.2,0.1c0.4,0.1,0.8,0.1,1.1,0.1c0.4,0.1,0.5,0.2,0.5,0.4v0.4
	c-0.1,0.1-0.1,0.3-0.1,0.4c0,0.2,0.1,0.5,0.1,0.8s0.1,0.5,0.1,0.8s0,0.4-0.1,0.6c-0.1,0-0.1,0-0.1,0c-0.1,0.1-0.1,0.1-0.1,0.1
	c-0.6,0-1.1,0-1.8,0.1S30.4,55,29.8,55c-0.9,0-1.8,0-2.6-0.1s-1.8-0.1-2.6-0.1c-0.4,0-0.8,0-1.1,0.1S22.8,55,22.4,55
	c-0.1,0-0.3,0-0.4-0.1c-0.1-0.1-0.3-0.1-0.4-0.1s-0.2,0-0.4,0.1S21,55,20.9,55c-0.6,0-1.2-0.1-1.9-0.1s-1.2-0.1-1.9-0.1
	c-0.4,0-0.8,0-1.1,0.1S15.3,55,14.9,55s-0.6-0.1-0.6-0.2c-0.1-0.1-0.1-0.4-0.1-0.7v-0.3c-0.1-0.1-0.1-0.1-0.1-0.2
	c0-0.1,0-0.2,0.1-0.4c0.1-0.1,0.1-0.2,0.1-0.4C14.4,52.6,14.4,52.5,14.3,52.4z M24.6,61.8c-0.2-0.1-0.5-0.1-0.8-0.1s-0.5,0-0.7,0.1
	c-0.2,0.1-0.5,0.1-0.8,0.1c-0.1,0-0.3-0.1-0.4-0.1c-0.1-0.1-0.2-0.1-0.4-0.1h-2.9c-0.1,0-0.2,0-0.3,0.1s-0.2,0.1-0.4,0.1h-2.3
	c-0.1,0-0.4,0-0.5-0.1s-0.4-0.1-0.5-0.1h-0.1c-0.1,0.1-0.1-0.1-0.1-0.2c-0.1-0.1-0.1-0.2-0.1-0.2v-0.8c-0.1-0.2-0.1-0.6-0.1-0.8
	c0-0.9,0.2-1.4,0.6-1.6s0.9-0.2,1.6-0.2c0.1,0,0.2-0.1,0.4-0.1s0.2-0.1,0.4-0.1h2.9c0.6,0.1,1.2,0.1,1.8,0.1
	c0.5,0.1,0.8,0.1,0.9,0.1h0.4c0.1,0,0.2,0,0.4-0.1h0.3c0.8,0,1.6,0,2.3,0.1s1.6,0.1,2.3,0.1c0.2,0,0.5-0.1,0.8-0.1
	c0.2-0.1,0.4-0.1,0.7-0.1s0.6,0,0.8,0.1s0.6,0.1,0.8,0.1c0.1,0,0.1,0,0.1-0.1c0.1,0,0.1,0,0.1,0c0.1-0.1,0.1-0.1,0.3-0.1
	c0.8,0,1.2,0.1,1.4,0.4c0.1,0.3,0.2,0.8,0.2,1.4c0,0.6-0.1,1-0.4,1.2c-0.2,0.3-0.6,0.5-0.9,0.6c-0.4,0.1-0.8,0.2-1.2,0.2
	c-0.4,0.1-0.9,0.1-1.3,0.1H29c-0.2,0.1-0.4,0.1-0.7,0.1c-0.2,0-0.4-0.1-0.6-0.1c-0.2-0.1-0.4-0.1-0.6-0.1c-0.3,0-0.6,0-0.9,0.1
	c-0.3,0.1-0.6,0.1-0.9,0.1C25.1,61.9,24.9,61.8,24.6,61.8z M36,65.4c-0.2,0.2-0.4,0.4-0.5,0.4c-0.1,0.1-0.4,0.4-0.5,0.6
	s-0.4,0.4-0.5,0.4c-0.4,0.2-0.7,0.4-1.1,0.8c-0.4,0.3-0.8,0.6-1.2,0.9c-0.4,0.3-0.8,0.6-1.1,0.9c-0.4,0.2-0.8,0.4-1.1,0.6
	c-0.1-0.1-0.4-0.2-0.8-0.6s-0.8-0.6-1.1-1.1c-0.4-0.4-0.8-0.8-1.1-1.1c-0.4-0.4-0.6-0.6-0.7-0.8s-0.3-0.4-0.4-0.5
	c-0.1-0.1-0.2-0.4-0.4-0.5c-0.2-0.2-0.3-0.4-0.4-0.4c0.1-0.1,0.4-0.1,0.6-0.1c0.1,0,0.2,0,0.4,0.1c0.1,0.1,0.1,0.1,0.3,0.1h4.4
	c0.7,0,1.4,0,2.1-0.1c0.6-0.1,1.4-0.1,2.1-0.1c0.1,0,0.4,0,0.6,0.1c0.1,0.1,0.4,0.1,0.5,0.1h0.2C36.5,65.1,36.3,65.2,36,65.4z"/>
<g>
	<path d="M103.7,20.1c0.2,0,0.4-0.1,0.6-0.1c0.3,0,0.5,0,0.7,0.1c0.2,0,0.4,0.1,0.7,0.1c0.1,0,0.3,0,0.4,0c0.1,0,0.3,0,0.4,0
		c0.2,0,0.5,0,0.7,0.1c0.2,0.1,0.4,0.1,0.6,0.2c0.3,0,0.6,0.1,0.9,0.1c0.3,0,0.6,0.1,0.8,0.1c0.2,0,0.3,0.1,0.5,0.1
		c0.1,0.1,0.3,0.1,0.5,0.2c0.1,0,0.3,0.1,0.5,0.1c0.2,0,0.5,0.1,0.6,0.1c0.2,0.1,0.4,0.1,0.6,0.3c0.1,0.1,0.2,0.3,0.2,0.4
		c0,0.1,0,0.3-0.1,0.5c-0.1,0.3-0.2,0.5-0.4,0.7c-0.1,0.3-0.3,0.4-0.5,0.6c-0.2,0.2-0.3,0.3-0.5,0.3c-0.1,0-0.2,0-0.3-0.1
		c-0.1-0.1-0.2-0.1-0.4-0.1c-0.1,0-0.2,0.1-0.3,0.4c-0.1,0.3-0.2,0.5-0.2,0.6c-0.1,0.2-0.2,0.4-0.3,0.6s-0.2,0.4-0.3,0.6
		c-0.3,0.5-0.6,1-0.9,1.5s-0.6,1-1,1.5c-0.1,0.1-0.2,0.3-0.3,0.4c-0.1,0.2-0.2,0.3-0.2,0.5c0,0.1,0.1,0.3,0.2,0.4
		c0.1,0.1,0.3,0.3,0.5,0.4s0.3,0.2,0.5,0.3c0.2,0.1,0.3,0.1,0.4,0.1c0.1,0.1,0.3,0.2,0.5,0.3c0.1,0.1,0.3,0.1,0.4,0.3
		c0.3,0.2,0.5,0.4,0.7,0.6s0.5,0.4,0.7,0.6c0.2,0.1,0.4,0.3,0.6,0.4s0.3,0.3,0.5,0.4c0.3,0.1,0.5,0.3,0.8,0.5
		c0.2,0.2,0.5,0.4,0.6,0.6c0.2,0.3,0.5,0.5,0.8,0.7c0.3,0.2,0.5,0.5,0.7,0.8c0,0.1,0.1,0.2,0.2,0.4c0.1,0.2,0.3,0.4,0.4,0.7
		c0.1,0.3,0.2,0.5,0.3,0.7c0.1,0.2,0.1,0.4,0.1,0.4c0,0.1,0,0.3,0,0.4s0,0.3,0,0.4v0.8c0,0.1,0,0.1,0,0.2c0,0,0,0.1,0,0.1
		c0,0.1,0,0.3,0.1,0.4s0,0.3,0,0.4c0,0.2,0,0.3-0.1,0.3s-0.3,0.1-0.5,0.1c-0.1,0-0.3,0-0.4,0c-0.1,0-0.3,0-0.4,0
		c-0.3,0-0.5,0-0.8,0.1c-0.3,0.1-0.5,0.2-0.6,0.2c-0.2,0-0.3-0.1-0.3-0.4c0-0.3-0.1-0.5-0.1-0.6s0-0.1,0-0.2c0-0.1,0-0.1,0-0.2
		c0,0,0-0.1,0-0.2s0-0.3-0.1-0.5c-0.1-0.3-0.1-0.5-0.3-0.8c-0.1-0.3-0.2-0.6-0.3-0.8s-0.2-0.4-0.2-0.5c-0.2-0.3-0.4-0.5-0.6-0.7
		c-0.3-0.2-0.5-0.4-0.8-0.6c-0.3-0.2-0.7-0.6-1.2-1s-1-0.9-1.5-1.3c-0.6-0.4-1.1-0.8-1.6-1.1c-0.5-0.3-1-0.4-1.3-0.4
		c-0.2,0-0.4,0.1-0.5,0.2c-0.1,0.1-0.3,0.3-0.4,0.4c-0.1,0.1-0.3,0.3-0.5,0.6c-0.3,0.3-0.5,0.5-0.8,0.8c-0.3,0.3-0.6,0.5-0.9,0.8
		c-0.3,0.3-0.5,0.4-0.7,0.6s-0.4,0.3-0.6,0.4s-0.4,0.3-0.5,0.4c0,0.1-0.1,0.1-0.1,0.2c-0.1,0.1-0.1,0.1-0.3,0.2
		c-0.2,0.1-0.4,0.2-0.6,0.2c-0.2,0.1-0.3,0.2-0.5,0.3c-0.3,0.2-0.5,0.4-0.7,0.6c-0.2,0.2-0.4,0.4-0.7,0.5c-0.1,0.1-0.2,0.1-0.3,0.2
		c-0.1,0-0.3,0.1-0.4,0.1c-0.2,0.1-0.4,0.2-0.6,0.3c-0.2,0.1-0.4,0.2-0.6,0.3c-0.1,0-0.2,0.1-0.3,0.1c-0.1,0-0.2,0.1-0.3,0.1
		c0,0-0.1,0-0.3,0.1c-0.1,0.1-0.3,0.1-0.4,0.2c-0.1,0.1-0.3,0.2-0.4,0.3c-0.1,0.1-0.2,0.1-0.3,0.2c-0.6,0.4-1.3,0.7-1.9,0.9
		s-1.3,0.4-2,0.6c-0.3,0.1-0.5,0.2-0.8,0.3c-0.3,0.2-0.6,0.3-0.8,0.3s-0.5-0.1-0.6-0.4c-0.1-0.2-0.3-0.5-0.5-0.9
		c-0.2-0.3-0.3-0.6-0.3-0.9c0-0.1,0.1-0.3,0.2-0.4s0.3-0.2,0.5-0.3s0.4-0.1,0.6-0.2c0.2,0,0.4-0.1,0.5-0.1c0.1,0,0.2-0.1,0.3-0.1
		c0.1,0,0.2,0,0.3,0c0,0,0.1-0.1,0.3-0.1c0.1-0.1,0.3-0.1,0.4-0.2c0.1-0.1,0.3-0.1,0.4-0.2s0.1-0.1,0.2-0.1c0.2-0.1,0.4-0.2,0.6-0.2
		c0.2,0,0.4-0.1,0.6-0.1c0.1,0,0.3-0.1,0.4-0.1s0.2-0.1,0.3-0.1c0.4-0.2,0.8-0.4,1.2-0.7c0.4-0.2,0.8-0.4,1.2-0.6
		c0.2-0.1,0.4-0.3,0.6-0.4s0.4-0.3,0.6-0.4c0.1,0,0.2-0.1,0.3-0.2c0-0.1,0.1-0.1,0.2-0.2c0.2-0.1,0.4-0.3,0.6-0.4
		c0.2-0.1,0.4-0.2,0.6-0.3c0.1,0,0.2-0.1,0.3-0.2s0.1-0.1,0.2-0.2c0.1-0.1,0.1-0.1,0.3-0.2c0.1,0,0.1-0.1,0.3-0.1
		c0.1,0,0.2-0.1,0.3-0.2c0-0.1,0.1-0.1,0.2-0.2c0.2-0.1,0.3-0.3,0.4-0.4c0.1-0.1,0.2-0.3,0.3-0.4c0.3-0.3,0.6-0.6,0.9-0.8
		c0.3-0.2,0.6-0.5,0.9-0.8c0.1-0.1,0.2-0.3,0.3-0.4c0.1-0.1,0.2-0.3,0.3-0.4c0.2-0.2,0.4-0.4,0.6-0.5c0.2-0.1,0.4-0.3,0.5-0.5
		c0.1-0.2,0.2-0.3,0.3-0.5c0.1-0.1,0.2-0.3,0.3-0.5c0.1-0.1,0.2-0.2,0.3-0.3c0.1-0.1,0.2-0.2,0.3-0.3c0.2-0.3,0.3-0.5,0.5-0.8
		c0.1-0.3,0.3-0.5,0.5-0.8c0.1-0.2,0.3-0.4,0.5-0.8c0.2-0.3,0.4-0.6,0.6-1c0.2-0.3,0.4-0.7,0.5-1c0.1-0.3,0.2-0.6,0.2-0.8
		c0-0.1,0-0.1-0.1-0.1c0,0-0.1,0-0.3,0s-0.3,0-0.4,0c-0.1,0-0.3,0-0.5,0c0,0-0.1,0-0.3,0c-0.2,0-0.4,0-0.6,0s-0.4,0-0.6,0
		c-0.4,0-0.8,0-1.1,0c-0.4,0-0.8,0-1.2,0c-1,0-2,0-3,0c-1,0-2,0-3,0c-0.1,0-0.3,0-0.4,0s-0.3,0.1-0.4,0.1c-0.2,0-0.5,0-0.6-0.1
		c-0.2,0-0.5,0-0.7,0c-0.1,0-0.3,0-0.4,0s-0.3,0-0.4,0c0,0-0.1,0-0.3,0c-0.1,0-0.3,0-0.3,0c-0.3,0-0.5-0.1-0.5-0.4
		c0-0.1,0-0.2,0-0.3c0-0.1,0-0.2,0-0.3v-0.9c0-0.3,0.1-0.4,0.3-0.6c0.2-0.1,0.4-0.1,0.6-0.1h1.7c0.1,0,0.3,0,0.4,0.1
		c0.1,0,0.3,0.1,0.4,0.1c0.2,0,0.4,0,0.6,0s0.4,0,0.6,0c0.3,0,0.7,0,1.1,0s0.8,0,1.1-0.1c0.3-0.1,0.7-0.1,1-0.1c0.3,0,0.5,0,0.8,0.1
		c0.2,0,0.5,0.1,0.7,0.1h1.7C103.3,20.2,103.6,20.2,103.7,20.1z"/>
	<path d="M147.5,20.2c0,0,0.1,0.1,0.2,0.1c0.3,0,0.5,0,0.7,0s0.5,0,0.7,0c0.3,0,0.6,0,0.9,0.1c0.3,0,0.6,0.1,0.9,0.1
		c0.2,0,0.5,0,0.8,0c0.3,0,0.5,0.1,0.8,0.1c0.2,0,0.5,0.1,0.8,0.2c0.3,0.1,0.6,0.2,1,0.4s0.6,0.3,0.9,0.5c0.2,0.2,0.3,0.4,0.3,0.6
		c0,0.1,0,0.2-0.1,0.4c-0.1,0.2-0.1,0.3-0.3,0.5c-0.1,0.2-0.3,0.3-0.4,0.4c-0.1,0.1-0.3,0.2-0.4,0.2s-0.2,0-0.2-0.1
		s-0.1-0.1-0.3-0.1c0,0-0.1,0-0.1,0c0,0,0,0-0.1,0c0,0-0.1,0.1-0.2,0.3s-0.2,0.4-0.3,0.6c-0.1,0.3-0.2,0.5-0.3,0.7
		c-0.1,0.2-0.1,0.3-0.1,0.4c0,0,0,0.1,0,0.1c0,0,0,0.1,0,0.1c0,0,0,0.1,0,0.2c0,0.2-0.1,0.4-0.2,0.7c-0.1,0.3-0.2,0.5-0.3,0.7
		c-0.1,0.1-0.1,0.2-0.2,0.3c-0.1,0.1-0.1,0.2-0.2,0.3c-0.1,0.1-0.2,0.2-0.3,0.3s-0.2,0.1-0.3,0.3c-0.1,0.3-0.3,0.7-0.4,1
		s-0.3,0.7-0.5,1c-0.3,0.5-0.7,1-1.1,1.5c-0.4,0.5-0.8,0.9-1.2,1.3c-0.2,0.2-0.4,0.4-0.6,0.7c-0.2,0.3-0.4,0.5-0.6,0.7
		c-0.3,0.3-0.5,0.5-0.8,0.7c-0.3,0.2-0.6,0.4-0.8,0.7c-0.3,0.3-0.6,0.6-0.9,0.9c-0.3,0.3-0.6,0.6-0.9,0.8c-0.1,0.1-0.3,0.2-0.5,0.3
		c-0.2,0.1-0.3,0.2-0.5,0.3c-0.2,0.1-0.4,0.3-0.5,0.4c-0.2,0.2-0.4,0.3-0.6,0.4c-0.1,0.1-0.3,0.2-0.5,0.3c-0.2,0.1-0.3,0.1-0.5,0.3
		c-0.3,0.1-0.5,0.3-0.7,0.4c-0.2,0.2-0.5,0.3-0.7,0.4c-0.1,0-0.2,0.1-0.2,0.2c-0.1,0.1-0.1,0.1-0.3,0.2c-0.3,0.2-0.5,0.3-0.8,0.3
		c-0.3,0-0.6,0.1-0.9,0.3c-0.1,0.1-0.2,0.1-0.3,0.2c-0.1,0.1-0.2,0.2-0.3,0.3c-0.6,0.3-1.2,0.6-1.9,0.8c-0.2,0-0.3,0.1-0.5,0.2
		s-0.3,0.2-0.5,0.3s-0.3,0.1-0.5,0.1c-0.2,0-0.3,0.1-0.5,0.1c-0.3,0.2-0.8,0.4-1.2,0.6c-0.5,0.2-0.9,0.3-1.3,0.3
		c-0.3,0-0.5,0-0.6-0.1c-0.2-0.1-0.3-0.2-0.4-0.4c-0.1-0.2-0.2-0.4-0.3-0.6c-0.1-0.2-0.1-0.4-0.3-0.6c0-0.1-0.1-0.2-0.1-0.3
		s0-0.1,0-0.3c0-0.3,0.1-0.4,0.5-0.5s0.6-0.2,0.7-0.3c0.6,0,1.1-0.1,1.7-0.5c0.6-0.3,1.1-0.6,1.6-0.8c0.3-0.1,0.8-0.3,1.2-0.4
		c0.5-0.1,0.8-0.3,1.1-0.4c0.4-0.2,0.8-0.4,1.2-0.6c0.4-0.2,0.9-0.3,1.3-0.5c0.2-0.1,0.4-0.2,0.5-0.3c0.1-0.1,0.3-0.2,0.5-0.3
		c0.3-0.1,0.5-0.3,0.8-0.4c0.3-0.1,0.5-0.3,0.8-0.5c0.2-0.2,0.5-0.4,0.6-0.6c0.2-0.2,0.5-0.3,0.7-0.4c0.1,0,0.3-0.1,0.5-0.4
		c0.2-0.3,0.4-0.4,0.5-0.4c0.1-0.1,0.2-0.1,0.3-0.2c0.1,0,0.2-0.1,0.3-0.2c0.2-0.1,0.3-0.3,0.5-0.5c0.1-0.2,0.3-0.3,0.4-0.5
		c0.2-0.2,0.5-0.4,0.8-0.8s0.7-0.7,1-1.1c0.3-0.3,0.6-0.7,0.9-1.1c0.3-0.3,0.5-0.6,0.5-0.8c0.1-0.2,0.2-0.4,0.5-0.7
		c0.3-0.2,0.5-0.4,0.6-0.6c0.2-0.4,0.4-0.8,0.5-1.2s0.3-0.8,0.5-1.2c0.1-0.3,0.3-0.6,0.5-0.8c0.1-0.2,0.2-0.4,0.3-0.6
		c0.1-0.2,0.1-0.4,0.2-0.7c0-0.3,0.1-0.6,0.1-1c0-0.2,0-0.3-0.1-0.3c-0.1,0-0.2,0-0.3,0c-0.3,0-0.5,0-0.7,0c-0.3,0-0.5,0.1-0.8,0.1
		c-0.6,0-1.1,0-1.7-0.1c-0.6,0-1.1-0.1-1.6-0.1c-0.1,0-0.2,0-0.4,0s-0.3,0-0.5,0c-0.2,0-0.4,0-0.5,0c-0.1,0-0.3,0-0.3,0.1
		c-0.1,0-0.2,0.1-0.2,0.2c-0.1,0.1-0.1,0.1-0.2,0.2c-0.2,0.2-0.3,0.4-0.4,0.6c-0.1,0.2-0.2,0.3-0.3,0.5c-0.1,0.1-0.3,0.3-0.4,0.4
		c-0.2,0.1-0.3,0.3-0.5,0.4c-0.3,0.3-0.6,0.6-0.9,0.9c-0.3,0.3-0.6,0.6-0.9,0.9c-0.2,0.2-0.4,0.3-0.7,0.4s-0.5,0.3-0.7,0.4
		c-0.3,0.3-0.6,0.6-1,0.9s-0.8,0.6-1.2,0.8c-0.1,0-0.2,0.1-0.3,0.1c-0.1,0-0.2,0.1-0.3,0.2c-0.1,0.1-0.3,0.1-0.3,0.2
		c-0.4,0.1-0.8,0.3-1.1,0.5c-0.4,0.2-0.8,0.4-1.1,0.7c-0.1,0.1-0.3,0.1-0.4,0.1s-0.3,0.1-0.4,0.2c-0.2,0.1-0.4,0.3-0.6,0.4
		c-0.2,0.2-0.5,0.3-0.6,0.3c-0.2,0-0.4-0.1-0.5-0.2c-0.2-0.1-0.3-0.3-0.5-0.5c-0.1-0.2-0.2-0.4-0.3-0.6s-0.1-0.4-0.1-0.6
		c0-0.2,0.1-0.3,0.2-0.4c0.1-0.1,0.2-0.2,0.4-0.3c0.1-0.1,0.3-0.1,0.4-0.2c0.1,0,0.3-0.1,0.4-0.1c0.1,0,0.3-0.1,0.4-0.3
		c0.1-0.1,0.2-0.2,0.4-0.2c0.3-0.1,0.5-0.2,0.7-0.3c0.2-0.1,0.4-0.2,0.6-0.3c0.2-0.1,0.4-0.3,0.5-0.4c0.1-0.1,0.3-0.3,0.5-0.4
		c0.3-0.2,0.8-0.5,1.3-0.8s0.9-0.6,1.1-0.8c0.5-0.4,0.9-0.9,1.4-1.3c0.3-0.3,0.5-0.5,0.8-0.8c0.2-0.3,0.4-0.6,0.7-0.8
		c0.5-0.5,0.8-1,1.1-1.3c0.3-0.3,0.5-0.7,0.8-1.1c0.2-0.3,0.4-0.8,0.6-1.2c0.1-0.4,0.3-1,0.6-1.6c0-0.2,0.1-0.4,0.2-0.6
		c0.1-0.2,0.1-0.4,0.1-0.6c0-0.1,0-0.3,0-0.4c0-0.1,0-0.3,0-0.4c0-0.2,0-0.4,0.1-0.6c0-0.2,0.2-0.3,0.5-0.3c0.1,0,0.2-0.1,0.3-0.1
		c0.1,0,0.2,0,0.3,0c0.2,0,0.5,0,0.9,0.1c0.4,0,0.6,0.1,0.8,0.3c0.1,0.1,0.1,0.2,0.1,0.3c0,0.1,0,0.3,0,0.4c0,0.6-0.1,1.2-0.2,1.7
		c-0.1,0.6-0.2,1.2-0.2,1.7c0,0.3,0.1,0.6,0.3,0.6c0.2,0.1,0.4,0.1,0.7,0.1h1.5C147.3,20.1,147.3,20.1,147.5,20.2L147.5,20.2z
		 M154,18.4c0,0.1-0.1,0.2-0.2,0.2c-0.1,0-0.2,0.1-0.4,0c-0.1,0-0.3,0-0.6,0h-0.4c-0.1,0-0.1,0-0.1,0c0,0-0.1,0-0.1,0s-0.1,0-0.1,0
		c-0.1,0-0.1,0-0.1-0.1c0-0.3,0-0.6,0-0.8c0-0.3-0.1-0.5-0.1-0.8c0-0.2,0-0.4,0-0.6c0-0.2,0-0.4,0-0.6c0-0.1,0.1-0.3,0.1-0.4
		c0,0,0-0.1,0-0.3V14c0-0.1,0-0.3,0-0.5c0-0.1,0-0.3,0-0.5c0-0.1,0-0.2,0-0.3c0-0.1,0.1-0.2,0.2-0.2c0.1,0,0.3,0,0.4,0.1h0.5
		c0.1,0,0.2,0,0.3,0c0.1,0,0.2,0,0.3,0c0.2,0,0.3,0.1,0.3,0.3v0.1c-0.1,0.1-0.1,0.3-0.1,0.4c0,0.1,0,0.3,0,0.4c0,0.1,0,0.3,0.1,0.5
		c0,0.2,0.1,0.4,0.1,0.7c0,0.3,0,0.6,0,0.9c0,0.3,0,0.6,0,0.9c0,0.2,0,0.4,0.1,0.5s0.1,0.3,0.1,0.5C154,18.1,154,18.3,154,18.4z
		 M158.2,18.6c-0.3,0.1-0.7,0.2-1.1,0.2c-0.2,0-0.4,0-0.5-0.1c-0.1,0-0.2-0.2-0.2-0.5c0-0.1,0-0.3,0-0.5c0-0.1,0-0.3,0-0.4
		c0-0.2,0-0.4-0.1-0.6c0-0.2-0.1-0.4-0.1-0.6c0-0.4,0-0.9,0.1-1.3c0-0.3,0.1-0.6,0.1-0.9c0-0.3,0-0.6,0-0.9c0-0.2,0-0.3,0-0.4
		c0,0,0.1-0.1,0.1-0.1c0,0,0.1,0,0.1,0h0.5c0.2,0,0.4,0,0.6,0c0.2,0,0.4,0,0.6,0c0,0.1,0,0.2,0,0.3c0,0.1-0.1,0.2-0.1,0.3
		c0,0.2,0,0.4,0.1,0.6c0,0.2,0.1,0.4,0.1,0.6c0,0.1,0,0.3,0,0.4c0,0.1,0,0.3,0,0.4c0,0.2,0,0.4,0,0.6s0,0.4,0,0.6c0,0.1,0,0.3,0,0.4
		s0,0.3,0,0.4s0,0.2,0.1,0.3s0,0.1,0,0.3C158.6,18.2,158.5,18.5,158.2,18.6z"/>
	<path d="M172.3,42.7c0-0.2,0-0.4,0-0.7c0-0.1,0-0.2,0-0.3c0-0.1,0-0.2,0-0.3v-7.3c0-0.1,0-0.1,0-0.2s0-0.1,0-0.2c0-0.6,0-1.2,0-1.8
		c0-0.6,0-1.2,0-1.8c0-0.1,0-0.3,0-0.4c0-0.1-0.1-0.3-0.1-0.4c0-0.4,0-0.9,0.1-1.3s0-0.9,0-1.3c0,0,0-0.1,0-0.3c0-0.1,0-0.3,0-0.5
		c0-0.1,0-0.3-0.1-0.4c0-0.1-0.1-0.2-0.1-0.2c-0.1,0-0.1,0-0.2,0.1c-0.3,0.2-0.6,0.3-0.8,0.5c-0.3,0.2-0.6,0.4-0.9,0.6
		c-0.4,0.3-0.9,0.5-1.3,0.8s-0.9,0.4-1.3,0.7c-0.1,0-0.1,0.1-0.2,0.2c-0.1,0.1-0.2,0.1-0.3,0.1s-0.2-0.1-0.4-0.3s-0.3-0.4-0.5-0.6
		c-0.2-0.3-0.3-0.5-0.5-0.8c-0.1-0.3-0.2-0.4-0.2-0.5c0-0.1,0.1-0.3,0.2-0.3c0.1,0,0.2-0.1,0.3-0.2c0.1-0.1,0.3-0.1,0.5-0.3
		c0.2-0.1,0.3-0.1,0.5-0.2c0.1,0,0.3-0.1,0.3-0.1c0.1,0,0.2-0.1,0.3-0.2c0.1-0.1,0.3-0.2,0.5-0.2c0.1,0,0.2-0.1,0.3-0.2
		c0.1-0.1,0.2-0.1,0.3-0.2c0.2-0.1,0.4-0.1,0.5-0.3c0.1-0.1,0.3-0.2,0.5-0.3c0.1,0,0.1-0.1,0.3-0.1c0.1,0,0.1-0.1,0.2-0.1
		c0.4-0.3,0.9-0.5,1.3-0.8s0.9-0.6,1.3-0.9c0.5-0.3,1-0.8,1.5-1.2c0.5-0.5,1-0.9,1.4-1.3c0.1-0.1,0.2-0.3,0.5-0.4
		c0.2-0.2,0.4-0.3,0.4-0.4c0.1-0.1,0.3-0.2,0.4-0.4c0.1-0.1,0.2-0.3,0.3-0.4c0,0,0-0.1,0.1-0.1c0,0,0.1,0,0.1-0.1
		c0.1-0.1,0.3-0.3,0.4-0.5c0.1-0.2,0.3-0.4,0.4-0.5c0.1-0.2,0.3-0.3,0.5-0.5c0.1-0.1,0.3-0.3,0.4-0.5c0.1-0.1,0.3-0.4,0.5-0.7
		s0.3-0.6,0.4-0.7c0.2-0.2,0.4-0.4,0.5-0.5c0-0.1,0.3-0.1,0.6-0.1c0.1,0,0.2,0,0.3,0c0.2,0,0.4,0,0.6,0c0.2,0,0.5,0,0.7,0
		c0.2,0,0.4,0,0.7,0s0.5,0.1,0.6,0.3s0.2,0.3,0.3,0.4c0.1,0.2,0.2,0.3,0.3,0.4c0.1,0.1,0.3,0.3,0.4,0.4s0.3,0.3,0.4,0.4
		c0.6,0.7,1.3,1.5,2.1,2.2c0.8,0.7,1.5,1.3,2.3,1.9c0.1,0.1,0.3,0.2,0.4,0.3c0.1,0.1,0.2,0.3,0.3,0.3c0,0.1,0.1,0.1,0.3,0.2
		c0.1,0.1,0.3,0.2,0.4,0.2c0.4,0.3,0.9,0.6,1.3,0.9c0.4,0.3,0.9,0.6,1.3,0.8c0.2,0.1,0.4,0.2,0.6,0.3c0.2,0.2,0.4,0.3,0.6,0.4
		c0.3,0.1,0.6,0.3,0.9,0.4c0.3,0.1,0.6,0.3,0.9,0.5c0.4,0.3,0.9,0.5,1.3,0.6c0.5,0.1,0.9,0.4,1.3,0.6c0.1,0,0.1,0.1,0.1,0.2
		s0,0.2,0,0.3c0,0.1,0,0.3-0.1,0.4c-0.1,0.1-0.1,0.3-0.3,0.4c-0.1,0.2-0.2,0.3-0.3,0.4c-0.1,0.1-0.2,0.3-0.3,0.4
		c-0.1,0.2-0.4,0.3-0.6,0.3c-0.1,0-0.5-0.1-1-0.4c-0.6-0.3-1.2-0.6-1.8-0.9s-1.2-0.7-1.8-1s-0.9-0.5-1.1-0.6c0,0.1-0.1,0.3-0.1,0.4
		c0,0.3,0,0.7,0.1,1.1c0,0.3,0,0.7,0,1.1c0,0.1,0,0.2,0,0.3c0,0.1-0.1,0.2-0.1,0.3c0,0.3,0,0.7,0.1,1.1c0,0.4,0,0.8,0,1.1
		c0,0,0,0.1,0,0.1c0,0,0,0.1-0.1,0.1c0,0.1-0.1,0.3,0,0.7c0,0.3,0,0.6,0,0.8c0,0.3,0,0.5,0,0.7c0,0.3,0,0.5,0,0.8s0,0.5,0,0.8
		c0,0.3,0,0.5,0,0.8c0,0.1,0,0.3,0,0.4s0,0.3,0.1,0.4c0,0,0.1-0.1,0.3-0.2c0.1-0.1,0.3-0.2,0.4-0.4s0.3-0.3,0.5-0.4
		c0.1-0.1,0.3-0.2,0.4-0.3c0.1,0,0.3,0.1,0.5,0.2c0.2,0.1,0.5,0.3,0.7,0.5c0.3,0.2,0.5,0.4,0.7,0.6c0.2,0.2,0.3,0.3,0.3,0.4
		s0,0.2-0.1,0.3c-0.1,0.1-0.2,0.1-0.3,0.2c-0.3,0.3-0.8,0.6-1.2,1.1s-0.9,0.7-1.3,0.9c-0.3,0.2-0.6,0.4-0.9,0.6
		c-0.3,0.2-0.6,0.4-0.9,0.7c-0.2,0.2-0.5,0.4-0.9,0.6c-0.4,0.2-0.8,0.4-1,0.6c0,0-0.1,0.1-0.1,0.1c-0.1,0-0.1,0.1-0.1,0.1
		c0,0.2,0.3,0.4,0.8,0.6c0.5,0.3,1.1,0.5,1.8,0.8c0.6,0.3,1.3,0.5,1.9,0.7c0.6,0.2,1,0.4,1.2,0.4c0.2,0.1,0.5,0.1,0.7,0.1
		c0.3,0,0.5,0,0.7,0.1c0.1,0,0.3,0.1,0.6,0.1s0.5,0.1,0.8,0.1s0.5,0.1,0.7,0.1c0.2,0.1,0.3,0.1,0.3,0.3s-0.1,0.3-0.2,0.6
		s-0.3,0.5-0.5,0.8c-0.2,0.3-0.4,0.5-0.6,0.8c-0.2,0.2-0.4,0.3-0.5,0.3c-0.1,0-0.1,0-0.2,0c-0.1,0-0.1,0-0.2,0
		c-0.3-0.1-0.6-0.2-0.9-0.3c-0.3-0.1-0.6-0.2-0.9-0.3c-0.1,0-0.1,0-0.2,0c-0.1,0-0.2,0-0.2-0.1c-0.2,0-0.4,0-0.7-0.1
		s-0.5-0.2-0.7-0.3c-0.4-0.1-0.8-0.3-1.2-0.4c-0.4-0.1-0.8-0.3-1.2-0.5c-0.1-0.1-0.3-0.1-0.4-0.2c-0.1-0.1-0.3-0.2-0.5-0.3
		c-0.2-0.1-0.5-0.2-0.7-0.3c-0.3-0.1-0.5-0.2-0.7-0.3c-0.3-0.2-0.6-0.4-0.9-0.6c-0.3-0.2-0.6-0.4-0.9-0.6c-0.3-0.2-0.6-0.5-1-0.9
		c-0.5-0.4-0.8-0.7-1.1-0.9c-0.6-0.5-1.1-1.1-1.6-1.6c-0.2-0.2-0.3-0.4-0.5-0.7c-0.2-0.4-0.5-0.8-0.7-1.2c-0.3-0.4-0.6-0.8-0.8-1.1
		c0,0,0-0.1-0.1-0.1c0,0-0.1,0-0.1,0c-0.5,0-1,0-1.5,0c-0.5,0-1,0-1.6,0c-0.3,0-0.5,0-0.8,0s-0.6,0-0.8,0c-0.2,0-0.3,0-0.4,0.1
		c-0.1,0.1-0.1,0.2-0.1,0.4s0,0.3,0,0.5c0,0.2,0,0.3,0,0.5c0,0.1,0,0.2,0,0.3c0,0.1,0,0.2,0,0.3c0,0.3,0,0.6,0,0.8
		c0,0.3,0,0.6,0,0.8c0,0.1,0,0.1,0,0.2s0,0.1,0,0.2c0,0.1,0,0.2,0,0.3c0,0.1,0,0.2,0,0.3s0,0.2,0,0.3c0,0.1,0,0.1,0,0.2
		c0,0.3,0,0.7,0.1,1.1c0,0.3,0,0.7,0,1.1c0.3,0,0.5-0.1,0.8-0.1c0.2,0,0.5-0.1,0.8-0.1c0.3,0,0.6-0.1,1-0.2c0.3-0.1,0.6-0.1,0.9-0.1
		c0.2,0,0.5,0,0.7-0.1c0.2-0.1,0.4-0.1,0.6-0.1C180,42,180,42,180,42c0,0,0.2,0,0.4-0.1c0.2,0,0.4,0,0.5,0c0.4-0.1,0.8-0.2,1.2-0.3
		c0.4-0.1,0.8-0.2,1.2-0.2c0.1,0,0.2,0,0.3-0.1c0.1,0,0.2-0.1,0.3-0.1c0.1,0,0.1,0.1,0.2,0.2c0,0.1,0.1,0.3,0.1,0.5s0,0.3,0.1,0.5
		c0,0.2,0,0.3,0,0.3v0.1c0,0,0,0.1,0,0.2c0,0,0,0.1,0,0.1s0,0.1,0,0.1c0,0.1-0.1,0.1-0.2,0.2c-0.2,0-0.4,0.1-0.6,0.2
		c-0.2,0.1-0.5,0.1-0.7,0.2c-0.2,0-0.5,0.1-0.7,0.1s-0.5,0.1-0.7,0.1c-0.1,0-0.4,0.1-0.9,0.3c-0.5,0.1-1,0.3-1.6,0.4
		c-0.6,0.1-1.2,0.3-1.7,0.4c-0.6,0.1-0.9,0.2-1,0.2c-0.1,0-0.2,0-0.3,0s-0.2,0-0.3,0.1c-0.7,0.3-1.4,0.4-2,0.5
		c-0.3,0-0.6,0.1-0.9,0.2c-0.3,0.1-0.6,0.1-0.9,0.2c0,0-0.1,0-0.3,0.1c-0.1,0-0.3,0-0.3-0.1c-0.3,0.1-0.5,0.1-0.8,0.2
		c-0.3,0.1-0.5,0.1-0.8,0.1c0,0-0.1,0-0.3,0c-0.2,0-0.4-0.1-0.6-0.3c-0.2-0.2-0.3-0.4-0.5-0.7c-0.1-0.3-0.3-0.5-0.3-0.8
		c-0.1-0.3-0.1-0.5-0.1-0.6c0-0.1,0-0.1,0-0.2s0.1-0.1,0.2-0.1c0.3-0.1,0.6-0.1,0.9-0.2s0.7,0,1-0.1c0.1,0,0.3,0,0.6-0.1
		s0.4-0.1,0.5,0h0.1c0.2,0,0.3,0,0.5-0.1c0.1-0.1,0.3-0.1,0.5-0.1C172.2,43.2,172.2,43,172.3,42.7z M189,25.3
		c-0.3,0-0.5-0.1-0.8-0.1c-0.3,0-0.6,0-0.9,0s-0.5,0-0.6,0c-0.3,0-0.6,0-0.8,0s-0.6,0-0.8,0s-0.6,0-0.8,0s-0.6,0-0.8,0
		c-0.1,0-0.2,0-0.3,0s-0.2,0-0.3,0h-3.4c-0.2,0-0.3,0-0.5,0s-0.3,0-0.5,0c-0.1,0-0.2,0-0.3,0c-0.1,0-0.3,0-0.4,0h-1.6c0,0,0,0-0.1,0
		s-0.3,0-0.4,0c-0.1,0-0.2,0-0.3,0.1c-0.1,0-0.1,0.1-0.1,0.1c0,0,0,0,0,0.1c0,0.1,0,0.2,0,0.3c0,0.1,0,0.1,0,0.3c0,0,0,0.1,0,0.3
		c0,0.1,0,0.2,0,0.3c0,0.1,0,0.2,0,0.3c0,0.1,0,0.1,0,0.2c0,0.1,0,0.1,0,0.2c0,0.3,0,0.4,0,0.5c0,0.1,0.1,0.1,0.4,0.1s0.6,0,0.8-0.1
		c0.3,0,0.6,0,0.8,0c0.5,0,0.9,0,1.4,0c0.5,0,0.9,0.1,1.4,0.1c0.1,0,0.1,0,0.2,0s0.1,0,0.3,0c0.1,0,0.2,0,0.3,0c0.1,0,0.2,0,0.3,0
		c0.3,0,0.6,0,0.8-0.1c0.3,0,0.6,0,0.8,0c0.6,0,1.3,0,1.9,0s1.3,0,1.9,0c0.4,0,0.9,0,1.3,0s0.9,0,1.3,0c0,0,0,0,0.1,0c0,0,0,0,0,0
		c0-0.1,0-0.3,0-0.4s0-0.4,0-0.6s-0.1-0.4-0.1-0.6c0-0.1,0-0.2,0-0.3c0-0.1,0-0.1,0-0.3C189.3,25.5,189.2,25.4,189,25.3z M188,30.2
		C188,30.2,188,30.2,188,30.2c-0.1,0-0.1,0-0.2,0c-0.2,0-0.4,0-0.6-0.1c-0.2,0-0.4,0-0.6,0s-0.4,0-0.5,0c-0.2,0-0.4,0.1-0.6,0.1
		c-0.6,0-1.2,0-1.7,0s-1.2,0-1.7,0c-0.1,0-0.1,0-0.2,0c-0.1,0-0.2,0-0.3,0h-0.3c0,0-0.3,0-0.6-0.1c-0.4,0-0.8,0-1.3,0
		c-0.5,0-1,0-1.4,0c-0.5,0-0.7,0-0.8,0s-0.2,0-0.3,0s-0.1,0.1-0.3,0.1c-0.6,0-1,0-1.2,0.1s-0.4,0.5-0.4,1.2c0,0.2,0,0.4,0,0.6
		c0,0.2,0,0.4,0,0.6c0,0,0,0.1,0.1,0.2c0,0.1,0.1,0.2,0.1,0.1h0.1c0.1,0,0.3,0,0.4,0s0.3,0,0.4,0h1.7c0.1,0,0.2,0,0.3-0.1
		c0.1,0,0.1,0,0.2,0h2.2c0.1,0,0.2,0,0.3,0c0.1,0,0.2,0.1,0.3,0.1c0.2,0,0.4,0,0.6-0.1c0.1,0,0.3,0,0.5,0s0.4,0,0.6,0
		s0.4,0.1,0.6,0.1c0.2,0,0.5,0,0.7,0c0.2,0,0.4,0,0.6,0c0.1,0,0.3,0,0.5,0c0.1,0,0.3,0.1,0.5,0.1c0.2,0,0.3,0,0.5,0
		c0.1,0,0.3,0,0.5,0c0.3,0,0.6,0,1,0c0.3,0,0.6,0,0.9-0.1c0.3-0.1,0.5-0.2,0.7-0.4c0.2-0.2,0.3-0.5,0.3-0.9c0-0.5,0-0.9-0.1-1.1
		c-0.1-0.2-0.5-0.3-1-0.3C188.1,30.2,188,30.2,188,30.2z M180.9,22.7c0,0,0-0.1,0-0.1c0-0.2,0-0.4,0.1-0.6c0-0.1,0-0.3,0-0.5
		c0-0.3,0-0.6,0-0.9c0-0.3,0-0.6,0-0.9c0-0.2,0.1-0.3,0.5-0.3c0.3,0,0.5,0,0.6,0c0.8,0,1.3,0.2,1.4,0.6s0.2,1,0.2,1.6v1
		c0,0.1,0,0.2,0.1,0.3c0,0,0.1,0.1,0.2,0.1c0,0,0.1,0,0.2,0c0.3,0,0.6,0,0.8,0s0.6,0.1,0.8,0.1c0.1,0,0.2,0,0.3,0c0.1,0,0.1,0,0.3,0
		c0.1,0,0.3,0,0.5,0c0.1,0,0.3,0,0.5,0c0.1,0,0.3,0,0.4-0.1c0.1,0,0.3,0,0.4,0c0.4,0,0.8,0,1.1,0s0.8,0,1.1,0c0,0,0.1,0,0.2,0
		c0,0,0.1,0,0.1,0c0-0.1-0.2-0.2-0.4-0.3c-0.2-0.1-0.4-0.2-0.5-0.3c-0.1-0.1-0.3-0.2-0.4-0.3c-0.1-0.1-0.3-0.2-0.4-0.3
		c-0.1-0.1-0.3-0.2-0.5-0.3c-0.1-0.1-0.3-0.2-0.5-0.3c-0.6-0.5-1.2-1-1.8-1.5s-1.2-1.1-1.7-1.6c-0.1-0.1-0.3-0.2-0.5-0.5
		c-0.2-0.3-0.5-0.5-0.7-0.8c-0.3-0.3-0.5-0.5-0.7-0.7c-0.2-0.2-0.4-0.3-0.5-0.3s-0.1,0.1-0.3,0.2c-0.1,0.1-0.3,0.3-0.4,0.5
		s-0.3,0.3-0.4,0.5c-0.1,0.2-0.2,0.3-0.3,0.4c-0.3,0.2-0.5,0.5-0.8,0.8c-0.3,0.4-0.5,0.7-0.7,1c-0.4,0.4-0.8,0.9-1.2,1.2
		c-0.4,0.4-0.9,0.8-1.3,1.2c0,0-0.1,0.1-0.1,0.2c-0.1,0.1-0.1,0.1-0.2,0.2c0,0-0.1,0.1-0.3,0.2c-0.1,0.1-0.3,0.1-0.4,0.2
		c-0.1,0.1-0.2,0.2-0.3,0.3c-0.1,0.1-0.1,0.2-0.1,0.3c0.1,0.1,0.3,0.1,0.6,0.1c0.3,0,0.5,0,0.6,0c0.1,0,0.2,0,0.3,0
		c0.1,0,0.1,0,0.3,0h3.7C180.9,22.8,180.9,22.8,180.9,22.7z M191.5,35.5c-0.1,0-0.3,0-0.4,0c-0.1,0-0.3,0-0.4,0c-0.5,0-1,0-1.5,0
		c-0.5,0-1,0-1.6,0h-3.3c-0.1,0-0.2,0-0.2,0c-0.1,0-0.1,0-0.3,0c-0.2,0-0.3,0-0.5,0c0,0.1,0.1,0.2,0.3,0.3c0.1,0.1,0.2,0.3,0.3,0.4
		s0.2,0.3,0.3,0.4s0.3,0.3,0.5,0.6c0.2,0.3,0.5,0.6,0.8,0.8c0.3,0.3,0.6,0.6,0.8,0.8s0.5,0.4,0.6,0.4c0.2-0.1,0.5-0.3,0.8-0.4
		c0.3-0.2,0.6-0.4,0.9-0.6s0.6-0.4,0.9-0.7c0.3-0.2,0.5-0.4,0.8-0.6c0.1-0.1,0.3-0.2,0.4-0.3s0.3-0.3,0.4-0.4c0,0,0.2-0.1,0.4-0.3
		c0.2-0.1,0.3-0.3,0.4-0.3L191.5,35.5L191.5,35.5z"/>
	<path d="M217.8,24.1c-0.1,0-0.4,0.1-0.6,0.2c-0.3,0.1-0.6,0.3-0.9,0.5s-0.6,0.4-0.8,0.6s-0.4,0.3-0.5,0.4c-0.1,0.1-0.2,0.3-0.3,0.4
		s-0.2,0.3-0.3,0.4c-0.2,0.2-0.4,0.4-0.6,0.5c-0.2,0.1-0.4,0.3-0.6,0.4c-0.1,0.1-0.2,0.2-0.3,0.3c-0.1,0.1-0.3,0.2-0.4,0.3
		c-0.4,0.3-0.8,0.5-1.2,0.8c-0.4,0.2-0.8,0.4-1.2,0.6c-0.1,0-0.3,0.1-0.6,0.2s-0.5,0.1-0.6,0.1c-0.3,0-0.6,0-1,0
		c-0.4,0-0.8,0-1.1-0.1c-0.3-0.1-0.6-0.2-0.9-0.4c-0.3-0.2-0.4-0.5-0.4-0.8c0-0.4,0.1-0.8,0.3-1.1c0.2-0.4,0.6-0.6,1-0.6
		c0.3,0,0.5,0,0.8,0.1c0.2,0.1,0.5,0.1,0.8,0.1s0.6,0,0.9-0.1s0.7-0.2,0.9-0.3s0.4-0.3,0.5-0.5c0.1-0.2,0.3-0.3,0.5-0.5
		c0.3-0.3,0.7-0.6,1-0.9c0.3-0.3,0.6-0.6,1-0.9c0.1-0.1,0.3-0.2,0.4-0.3s0.2-0.1,0.3-0.2c0.1-0.1,0.2-0.2,0.3-0.3
		c0.1-0.1,0.2-0.2,0.3-0.3c0.2-0.2,0.4-0.3,0.8-0.5c0.3-0.1,0.6-0.2,1-0.3c0.3-0.1,0.7-0.2,1-0.2c0.3,0,0.6-0.1,0.8-0.1
		c1.2,0,2.3,0.2,3.1,0.7c0.8,0.4,1.6,1.2,2.4,2.1c0.2,0.3,0.4,0.5,0.5,0.8c0.1,0.3,0.3,0.5,0.5,0.8c0.1,0.2,0.3,0.4,0.5,0.7
		s0.4,0.4,0.6,0.6c0.2,0.1,0.4,0.3,0.5,0.5c0.2,0.3,0.4,0.6,0.6,0.8c0.2,0.3,0.4,0.6,0.6,0.8c0.3,0.3,0.7,0.7,1,0.9
		c0.4,0.3,0.8,0.6,1.1,0.9c0.4,0.4,0.9,0.7,1.3,1.1s0.9,0.6,1.3,0.9c0.2,0.1,0.4,0.2,0.6,0.2c0.2,0,0.4,0.1,0.6,0.2
		c0.5,0.2,1,0.4,1.6,0.5c0.6,0.1,1.1,0.2,1.6,0.3c0.3,0,0.6,0.1,0.8,0.1s0.6,0.1,0.8,0.1c0.1,0,0.2,0,0.3,0c0.1,0,0.2,0,0.3,0
		c0.1,0,0.1,0,0.3,0c0.1,0,0.1,0,0.2,0.1c0.1,0.1,0.2,0.3,0.2,0.6c0,0.3,0,0.5,0,0.6c0,0,0,0.1,0.1,0.1c0,0.1,0,0.1,0,0.2
		c0,0.1,0,0.2-0.1,0.3c0,0.1-0.1,0.3-0.1,0.4c-0.2,0.4-0.5,0.7-0.8,0.7c-0.3,0-0.7,0.1-1.1,0.1c-0.3,0-0.7-0.1-1-0.2
		c-0.3-0.1-0.6-0.2-0.9-0.2c0,0-0.1,0.1-0.2,0c-0.1,0-0.2,0-0.2,0c-0.1,0-0.2,0-0.5-0.1c-0.3,0-0.6-0.1-0.9-0.2
		c-0.3-0.1-0.6-0.1-0.8-0.2s-0.5-0.1-0.5-0.1c-0.1,0-0.3-0.1-0.4-0.2s-0.3-0.2-0.4-0.2c-0.2,0-0.4-0.1-0.7-0.2
		c-0.3-0.1-0.5-0.2-0.6-0.3c-0.3-0.1-0.5-0.3-0.8-0.4s-0.5-0.3-0.7-0.4c-0.5-0.3-0.9-0.7-1.3-1.1c-0.5-0.4-0.9-0.8-1.3-1.2
		c-0.1-0.1-0.2-0.2-0.3-0.3c-0.1-0.1-0.1-0.2-0.3-0.3c-0.6-0.6-1.2-1.4-1.8-2.2c-0.1-0.1-0.1-0.2-0.1-0.3c0-0.1-0.1-0.2-0.2-0.3
		c-0.2-0.3-0.5-0.6-0.8-1.1c-0.3-0.4-0.7-0.9-1.1-1.4c-0.4-0.4-0.8-0.9-1.2-1.2c-0.4-0.3-0.8-0.6-1-0.7c-0.4-0.1-0.8-0.1-1.1-0.1
		L217.8,24.1L217.8,24.1z M232.2,24c-0.1,0.1-0.2,0.1-0.3,0.1c-0.1,0-0.3,0-0.4,0c-0.1,0-0.3,0-0.4,0s-0.2,0-0.3,0
		c-0.1,0-0.2,0-0.3,0c-0.1,0-0.1-0.1-0.1-0.2c0-0.1-0.1-0.3-0.1-0.4c0-0.1,0-0.3,0-0.4c0-0.1,0-0.3,0-0.3c0,0,0-0.1,0-0.3
		c0-0.3,0-0.7,0.1-1.1c0-0.3,0.1-0.7,0.1-1.1v-1.1c0-0.1,0-0.1,0-0.2c0-0.1,0-0.1,0-0.2c0,0,0-0.1,0-0.2c0-0.1,0-0.3,0.1-0.5
		c0-0.2,0.1-0.3,0.3-0.3c0,0,0.1,0,0.3,0c0.1,0,0.3,0,0.3,0.1c0.1,0,0.2,0,0.4,0c0.2,0,0.3,0,0.4,0c0,0,0.1,0,0.2,0
		c0.1,0,0.1,0.1,0.1,0.2c0,0,0,0.1,0,0.2s0,0.1,0,0.2c0,0,0,0.1,0,0.2c0,0.3,0,0.5,0.1,0.8c0,0.3,0.1,0.5,0.1,0.8c0,0.3,0,0.7-0.1,1
		c0,0.3-0.1,0.7-0.1,1c0,0.2,0,0.4,0.1,0.6s0.1,0.4,0.1,0.8C232.3,23.8,232.3,23.9,232.2,24z M234.8,24.1c0,0-0.1,0-0.1,0
		c0,0-0.1,0-0.1-0.1c0,0,0-0.1,0-0.1v-0.1c0-0.1,0-0.3,0-0.4c0-0.1,0-0.3,0-0.4c0-0.3,0-0.6-0.1-0.9s-0.1-0.6-0.1-0.9
		c0-0.2,0-0.4,0.1-0.6c0-0.2,0.1-0.4,0.1-0.6v-1.5c0-0.3,0.1-0.4,0.2-0.5c0.1,0,0.3-0.1,0.5-0.1h1c0.2,0,0.3,0,0.3,0.1
		c0,0.1,0,0.2,0,0.3c0,0.3,0,0.5,0.1,0.7s0,0.4,0,0.7c0,0.1,0,0.3,0,0.4c0,0.1,0,0.3,0,0.4s0,0.2,0.1,0.3c0,0.1,0,0.2,0,0.3
		c0,0.1,0,0.3,0,0.4c0,0.1,0,0.3,0,0.4c0,0.2,0,0.4,0,0.6c0,0.2,0,0.4,0,0.6v0.3c0,0.1,0,0.1-0.1,0.2c-0.1,0-0.3,0.1-0.4,0.1
		c-0.1,0-0.3,0.1-0.4,0.1c-0.1,0-0.3,0-0.3,0h-0.7C234.9,24.1,234.9,24.1,234.8,24.1z"/>
</g>
<g>
	<g>
		<path class="st1" d="M41.7,55.7c-0.3-0.4-0.8-1.5-1.2-1.6c-1.1-0.1-1.2-1.7-0.3-1.9c0,0,0-0.1,0-0.1c0-0.1,0-0.1,0.1-0.1
			c0,0,0.1-0.1,0.1-0.1c0.3-0.2,0.6-0.4,1-0.6c0.4-0.2,0.7-0.4,0.9-0.6c0.3-0.2,0.5-0.4,0.9-0.7l0.9-0.6c0.4-0.2,0.8-0.5,1.3-0.9
			c0.4-0.4,0.9-0.8,1.2-1.1c0.1,0,0.1-0.1,0.3-0.2c0.1,0,0.1-0.1,0.1-0.3s-0.1-0.3-0.3-0.4c-0.2-0.2-0.4-0.4-0.7-0.6
			s-0.5-0.4-0.7-0.5c-0.3-0.1-0.4-0.2-0.5-0.2c-0.1,0-0.2,0.1-0.4,0.3L44,45.9c-0.1,0.1-0.3,0.3-0.4,0.4c-0.1,0.1-0.2,0.2-0.3,0.2
			c-0.1-0.1-0.1-0.2-0.1-0.4v-0.4c0-0.3,0-0.5,0-0.8c0-0.2,0-0.5,0-0.8s0-0.5,0-0.8c0-0.2,0-0.4,0-0.7v-0.8c0-0.3,0-0.6,0-0.7
			c0,0,0-0.1,0.1-0.1v-0.1c0-0.3,0-0.7,0-1.1c0-0.4-0.1-0.8-0.1-1.1c0-0.1,0-0.2,0.1-0.3c0-0.1,0-0.1,0-0.3c0-0.3,0-0.7,0-1.1
			s-0.1-0.7-0.1-1.1c0-0.1,0-0.3,0.1-0.4c0,0,0.1,0.1,0.2,0.1c-0.6-0.9-0.4-2-0.2-3.4c0,0,0,0,0,0c0,0,0-0.1,0-0.1
			c-0.4-0.3-0.7-0.5-1.1-0.8c-0.1,0-0.2-0.1-0.4-0.2c-0.1-0.1-0.3-0.1-0.3-0.2c-0.1,0-0.2-0.1-0.3-0.3c-0.1-0.1-0.3-0.2-0.4-0.3
			c-0.8-0.6-1.6-1.2-2.3-1.9c-0.8-0.7-1.5-1.5-2.1-2.2c-0.1-0.1-0.3-0.3-0.4-0.4s-0.3-0.3-0.4-0.4c-0.1-0.1-0.2-0.3-0.3-0.4
			c-0.1-0.1-0.2-0.3-0.3-0.4s-0.3-0.2-0.6-0.3c-0.3,0-0.5,0-0.7,0h-0.7c-0.1,0-0.1,0-0.1,0c-0.2-0.1-0.4-0.1-0.7-0.1
			c0-0.1,0-0.2,0-0.3c-0.1-0.3-0.1-0.7-0.2-1.1c-0.1-0.4-0.2-0.8-0.3-1.2c-0.1-0.3-0.2-0.6-0.3-0.7c0-0.1-0.1-0.2-0.2-0.3
			c-0.1-0.1-0.1-0.2-0.1-0.3c0-0.3,0-0.7,0-1.1s0-0.7,0-1.1c0-0.3,0-0.5,0.1-0.7c0-0.2,0.1-0.4,0.1-0.7c0-0.1,0-0.3-0.1-0.6
			c0-0.1,0-0.3,0.1-0.5c0-0.2,0.1-0.4,0.2-0.4c0,0,0.2,0,0.6,0c0.3,0,0.8,0,1.2,0h2c0.2,0,0.4,0,0.6,0c0.1,0,0.3,0.1,0.5,0.1
			c0.4,0,0.8,0,1.1,0s0.7,0,1.1,0h1c0.3,0,0.6,0,0.9,0c0.2,0,0.4,0,0.6,0s0.4,0,0.6,0s0.4,0,0.6,0c0.2,0,0.4,0,0.6,0
			c0.3,0,0.6,0,0.9,0c0.3,0,0.4-0.2,0.4-0.6v-0.3c0-0.1,0-0.2,0-0.3s0-0.3,0-0.4v-0.4c0-0.1-0.1-0.2-0.1-0.3
			c-0.1-0.1-0.2-0.1-0.3-0.1h-0.4c-0.1,0-0.3,0-0.4,0c-0.3,0-0.5,0-0.7-0.1c-0.2,0-0.4,0-0.7,0c0,0-0.1,0-0.3,0s-0.3,0-0.4,0.1
			c-0.1,0-0.3,0.1-0.4,0.1c-0.1,0-0.2,0-0.3,0s-0.2,0-0.3,0h-1c-0.2,0-0.3,0-0.5,0c-0.1,0-0.3,0-0.4,0c-0.2,0-0.4,0-0.6-0.1
			c-0.2,0-0.4-0.1-0.6-0.1c-0.2,0-0.4,0-0.6,0.1c-0.2,0-0.4,0.1-0.6,0.1h-2.3c-0.7,0-1.2-0.1-1.4-0.3s-0.4-0.6-0.4-1.4v-0.5
			c0-0.2,0-0.4,0.1-0.6c0-0.1,0.1-0.3,0.1-0.5c0-0.3,0-0.7,0-1c0-0.3,0-0.6,0-1c0-0.2,0-0.4,0-0.6s0-0.4,0-0.6s0-0.3-0.1-0.4
			c-0.1,0-0.2-0.1-0.4-0.1h-0.6c-0.2,0-0.4,0-0.6,0c-0.5,0-0.8,0-0.9,0.1c-0.1,0-0.2,0.3-0.2,0.8c0,0.1,0,0.3,0,0.4v0.4
			c0,0.3,0,0.5,0,0.7s-0.1,0.4-0.1,0.7c0,0.3,0,0.6,0.1,0.9c0.1,0.3,0.1,0.6,0.1,0.9c0,0.1,0,0.2-0.1,0.3c-0.1,0.1-0.1,0.4-0.1,0.6
			c0,0.2,0,0.4-0.1,0.5c-0.2,0.1-0.4,0.1-0.6,0.1c-0.3,0-0.5,0-0.8,0c-0.3,0-0.5,0.1-0.8,0.1c-0.1,0-0.3,0.1-0.4,0.1
			c-0.3,0-0.6,0-0.8-0.1c-0.2,0-0.4-0.1-0.7-0.1h-2c-0.1,0-0.2,0-0.3,0c-0.1,0-0.2,0-0.3,0c-0.1,0-0.3,0-0.4,0h-0.4
			c-0.1,0-0.3,0-0.4,0s-0.3,0-0.4,0c-0.1,0-0.3,0-0.4-0.1c-0.1,0-0.3-0.1-0.5-0.1c-0.3,0-0.6,0-0.9,0c-0.3,0-0.6,0.1-0.9,0.1h-4.9
			c-0.1,0-0.2,0-0.3,0h-0.4c-0.2,0-0.3,0-0.4,0s-0.2,0.1-0.2,0.2s0,0.2,0,0.3c0,0.2,0,0.4,0.1,0.6c0,0.2,0.1,0.4,0.1,0.6
			c0,0.1,0,0.1,0,0.2c0,0,0,0.1,0,0.1c0,0.1,0,0.1,0,0.2c0,0.2,0.1,0.3,0.4,0.3c0.3,0,0.5,0,0.6,0c0.2,0,0.4,0,0.6,0H13
			c0.3,0,0.5,0,0.8,0c0.2,0,0.4,0,0.7,0c0.1,0,0.2,0,0.3,0c0,0,0.1,0,0.2,0h0.3c0.1,0,0.3,0,0.5,0h0.4c0.1,0,0.2,0,0.3,0h0.2
			c0.2,0,0.3,0,0.5,0c0.1,0,0.3,0,0.5,0c0.1,0,0.3,0,0.4,0c0.1,0,0.3,0,0.4,0c0.5-0.1,1.1-0.1,1.7-0.1c0.6,0,1.1,0,1.6,0h2.5
			c0.8,0,1.6,0,2.4,0c0.1,0,0.2,0,0.3,0s0.2,0,0.3,0c0.3,0,0.5,0,0.6,0.1c0.1,0.1,0.1,0.3,0.1,0.5c0,0.3,0,0.7,0,1
			c0,0.3-0.1,0.7-0.1,1.1v0.3c0,0,0,0.1,0,0.1c0,0,0,0.1,0,0.1v0.1c0,0.1,0,0.2-0.1,0.2s-0.2,0-0.3,0c-0.2,0-0.3,0-0.5,0
			c-0.1,0-0.3,0-0.5,0h-0.4c-0.1,0-0.3,0-0.4,0.1c-0.2,0.1-0.4,0.1-0.6,0.2c-0.2,0.1-0.3,0.2-0.5,0.3c-0.5,0.3-1,0.7-1.5,1.2
			c-0.5,0.5-0.9,1-1.1,1.5c-0.1,0.3-0.2,0.6-0.3,1.1c-0.1,0.4-0.1,0.8-0.1,1.1v0.7c0,0.3,0,0.5,0.1,0.7c0.1,0.7,0.4,1.4,0.8,2
			s0.9,1.1,1.6,1.4c0.1,0,0.3,0.1,0.4,0.2C24.8,29,25,29,25.2,29s0.3-0.1,0.5-0.2c0.1-0.1,0.3-0.3,0.4-0.5c0.1-0.2,0.2-0.4,0.3-0.6
			c0-0.2,0.1-0.4,0.1-0.5c0-0.3-0.1-0.4-0.3-0.6c-0.2-0.1-0.4-0.3-0.6-0.4s-0.4-0.4-0.6-0.6c-0.2-0.2-0.3-0.6-0.3-1
			c0-0.3,0-0.7,0.1-1.1c0.1-0.4,0.2-0.8,0.4-1.1c0.2-0.3,0.4-0.6,0.7-0.9c0.3-0.2,0.6-0.3,1.1-0.3c0.3,0,0.6,0.1,0.9,0.2
			c0.3,0.2,0.5,0.4,0.8,0.6c0.2,0.3,0.4,0.5,0.5,0.8c0.1,0.3,0.2,0.6,0.2,0.9c0,0.1,0,0.2,0,0.3s0,0.2,0,0.3c0,0,0,0.1,0,0.3
			s0,0.2,0.1,0.3c0,0.1,0,0.3,0,0.4c0,0.3,0,0.5-0.1,0.8c-0.1,0.3-0.1,0.6-0.3,0.8c-0.1,0.2-0.2,0.5-0.3,0.9
			c-0.2,0.4-0.3,0.8-0.5,1.1s-0.3,0.7-0.5,1.1s-0.4,0.6-0.5,0.8l-1.6,1.6c-0.1,0.1-0.3,0.2-0.4,0.3c-0.2,0.1-0.3,0.2-0.5,0.3
			c-0.3,0.3-0.7,0.5-1.1,0.7c-0.3,0.2-0.7,0.4-1.1,0.6c-0.1,0-0.2,0.1-0.3,0.1c-0.1,0-0.2,0.1-0.3,0.1c-0.2,0.1-0.4,0.1-0.6,0.1
			s-0.3,0-0.5,0.1s-0.4,0.2-0.7,0.3c-0.3,0.1-0.5,0.1-0.8,0.1c-0.3,0-0.6,0.1-0.9,0.2c0,0-0.2,0.1-0.4,0.1c-0.2,0.1-0.3,0.1-0.3,0.2
			c0,0,0,0.1,0.1,0.2c0.1,0.1,0.2,0.2,0.2,0.3c0.1,0.2,0.2,0.5,0.3,0.9c0.1,0.4,0.3,0.6,0.4,0.8c0,0.1,0.2,0.1,0.4,0.1
			c0.3,0,0.5,0,0.7-0.1c0.2-0.1,0.4-0.2,0.6-0.3c0.2,0,0.4-0.1,0.6-0.1c0.2,0,0.4-0.1,0.6-0.1c0.1,0,0.2-0.1,0.3-0.2
			s0.2-0.1,0.3-0.2c0.1,0,0.3-0.1,0.4-0.1c0.1,0,0.3-0.1,0.4-0.1c0,0,0.1,0,0.1,0c0,0.1,0,0.2,0.1,0.3c0,0.2,0,0.3,0,0.5V38
			c0,0.4,0,0.9,0,1.4s-0.1,0.9-0.1,1.4c0,0.1,0,0.3,0.1,0.4c0,0.1,0,0.3,0,0.4c0,0.6,0,1.2,0,1.8c0,0.6,0,1.2,0,1.9
			c0,0.1,0,0.1,0,0.2s0,0.1,0,0.2v7.4c0,0.1,0,0.2,0,0.3c0,0.1,0,0.2,0,0.3v0.7c0,0.2-0.1,0.4-0.1,0.7c-0.2,0-0.3,0-0.5,0.1
			c-0.2,0.1-0.3,0.1-0.5,0.1h-0.1c-0.1,0-0.3,0-0.5,0c0,0-0.1,0-0.1,0c0.1,0.1,0.1,0.2,0.1,0.4c0.1,0.1,0.2,0.2,0.3,0.3
			c0.4,0.5,0.8,0.9,1.4,1c0.7,0,1.5,0,2.2-0.1c0.1-0.1,0.2-0.1,0.3-0.2c0-0.1,0-0.1,0-0.2c0.1-0.6,0.2-1.3,0.4-1.9
			c0-0.1,0-0.1,0.1-0.1c0,0-0.1,0-0.1,0c0-0.4,0-0.8,0-1.1s-0.1-0.7-0.1-1.1c0-0.1,0-0.1,0-0.2s0-0.1,0-0.3s0-0.2,0-0.3
			c0-0.1,0-0.2,0-0.3c0-0.1,0-0.1,0-0.2s0-0.1,0-0.2c0-0.3,0-0.6,0-0.8s0-0.6,0-0.8c0-0.1,0-0.2,0-0.3s0-0.2,0-0.3
			c0-0.2,0-0.3,0-0.5c0-0.1,0-0.3,0-0.5s0-0.3,0.1-0.4c0-0.1,0.2-0.1,0.4-0.1c0.3,0,0.6,0,0.8,0s0.5,0,0.8,0c0.5,0,1.1,0,1.6,0
			c0.5,0,1,0,1.6,0c0,0,0.1,0,0.1,0s0,0.1,0.1,0.1c0.3,0.3,0.6,0.7,0.8,1.1c0.3,0.4,0.5,0.8,0.7,1.2c0.1,0.3,0.3,0.5,0.5,0.7
			c0.5,0.6,1.1,1.1,1.7,1.7c0.3,0.2,0.6,0.5,1.1,0.9c0.4,0.4,0.8,0.7,1.1,0.9c0.3,0.2,0.6,0.4,0.9,0.6c0.3,0.2,0.6,0.4,0.9,0.6
			c0.2,0.1,0.4,0.2,0.7,0.3c0.3,0.1,0.5,0.2,0.7,0.3c0.1,0.1,0.3,0.1,0.4,0.3c0.1,0.1,0.3,0.1,0.4,0.2c0.4,0.2,0.8,0.3,1.2,0.5
			C42.3,56.3,42,56,41.7,55.7z M28.2,33.9c0.2-0.2,0.4-0.4,0.5-0.6s0.3-0.4,0.5-0.6c0.1-0.2,0.4-0.5,0.6-0.9
			c0.1-0.1,0.2-0.3,0.3-0.4c0.1-0.1,0.2-0.2,0.3-0.3c0.1-0.3,0.3-0.6,0.5-1.1s0.3-0.9,0.5-1.5c0.1-0.5,0.3-1,0.4-1.5
			c0-0.1,0-0.1,0-0.1c0.5,0,1,0.1,1.5,0.2c0.1,0.1,0.1,0.1,0.2,0.1c0.2,0.2,0.4,0.4,0.7,0.7c0.2,0.3,0.4,0.5,0.7,0.8
			s0.4,0.4,0.5,0.5c0.6,0.6,1.2,1.1,1.7,1.7c0.6,0.6,1.2,1.1,1.8,1.6c0.1,0.1,0.3,0.2,0.4,0.3s0.3,0.2,0.4,0.3
			c0.1,0.1,0.3,0.2,0.4,0.3c0.1,0.1,0.3,0.2,0.4,0.3c0.1,0.1,0.3,0.1,0.5,0.3c0.2,0.1,0.3,0.2,0.4,0.3c0,0-0.1,0-0.1,0h-0.2
			c-0.4,0-0.8,0-1.1,0s-0.8,0-1.1,0c-0.1,0-0.3,0-0.4,0c-0.1,0-0.3,0.1-0.4,0.1c-0.1,0-0.3,0-0.4,0s-0.3,0-0.4,0c-0.1,0-0.2,0-0.3,0
			c-0.1,0-0.1,0-0.3,0c-0.3,0-0.6,0-0.8-0.1c-0.3,0-0.6,0-0.8,0c-0.1,0-0.1,0-0.2,0c-0.1,0-0.2,0-0.2-0.1c0,0-0.1-0.1-0.1-0.3v-1
			c0-0.7-0.1-1.2-0.2-1.7c-0.1-0.4-0.6-0.6-1.4-0.6c-0.1,0-0.3,0-0.6,0c-0.3,0-0.5,0.1-0.5,0.3c0,0.3,0,0.6,0,0.9v0.9
			c0,0.2,0,0.4,0,0.5c0,0.2-0.1,0.4-0.1,0.6c0,0,0,0.1,0,0.1c0,0.1,0,0.1,0,0.2h-3.8c-0.1,0-0.2,0-0.3,0c-0.1,0-0.2,0-0.3,0
			C27.8,34.2,28,34.1,28.2,33.9z M25.9,37.6v-0.3c0-0.1,0-0.1,0-0.3c0,0,0,0,0-0.1c0,0,0-0.1,0.1-0.1c0.1,0,0.2,0,0.3-0.1h0.4
			c0.1,0,0.1,0,0.1,0h1.6c0.1,0,0.3,0,0.4,0c0.1,0,0.2,0,0.3,0c0.1,0,0.3,0,0.4,0s0.3,0,0.5,0h3.5c0.1,0,0.2,0,0.3,0
			c0.1,0,0.2,0,0.3,0c0.3,0,0.6,0,0.8,0s0.6,0,0.8,0s0.6,0,0.8,0s0.6,0,0.8,0h0.6c0.3,0,0.6,0,0.9,0c0.3,0,0.6,0.1,0.8,0.1
			c0.3,0.1,0.4,0.2,0.4,0.3v0.3c0,0.1,0,0.2,0,0.3c0,0.2,0,0.4,0.1,0.6c0,0.2,0,0.4,0,0.6s0,0.3,0,0.4c0,0,0,0,0,0c0,0,0,0-0.1,0
			c-0.4,0-0.9,0-1.3,0c-0.4,0-0.9,0-1.3,0c-0.6,0-1.3,0-2,0s-1.3,0-2,0c-0.3,0-0.6,0-0.8,0s-0.6,0.1-0.8,0.1c-0.1,0-0.2,0-0.3,0
			c-0.1,0-0.2,0-0.3,0s-0.2,0-0.3,0c-0.1,0-0.1,0-0.2,0c-0.5,0-0.9,0-1.4-0.1c-0.5,0-0.9,0-1.4,0c-0.3,0-0.6,0-0.8,0
			s-0.6,0.1-0.8,0.1s-0.4,0-0.4-0.1c0-0.1,0-0.3,0-0.5v-0.2c0,0,0-0.1,0-0.2c0-0.1,0-0.2,0-0.3c0-0.1,0-0.1,0-0.3
			C26,37.7,26,37.6,25.9,37.6z M33.7,44.6c-0.2,0-0.4,0-0.6,0s-0.4,0-0.5,0c-0.2,0-0.4,0.1-0.6,0.1c-0.1,0-0.2,0-0.3-0.1
			c-0.1,0-0.2,0-0.3,0h-2.2c-0.1,0-0.1,0-0.2,0s-0.1,0.1-0.3,0.1H27c-0.1,0-0.3,0-0.4,0c-0.1,0-0.3,0-0.4,0h-0.1c0,0-0.1,0-0.1-0.1
			c0-0.1-0.1-0.1-0.1-0.2v-0.6c0-0.2,0-0.4,0-0.6c0-0.7,0.1-1.1,0.4-1.2c0.3-0.1,0.7-0.1,1.2-0.1c0.1,0,0.2,0,0.3-0.1
			c0.1,0,0.1,0,0.3,0h2.2c0.5,0,0.9,0,1.3,0c0.4,0,0.6,0,0.6,0.1h0.3c0.1,0,0.1,0,0.3,0H33c0.6,0,1.2,0,1.7,0c0.6,0,1.2,0,1.7,0
			c0.2,0,0.4,0,0.6-0.1c0.1,0,0.3,0,0.5,0s0.4,0,0.6,0c0.2,0,0.4,0.1,0.6,0.1c0,0,0.1,0,0.1,0c0,0,0,0,0.1,0c0,0,0.1,0,0.2,0
			c0.6,0,0.9,0.1,1,0.3c0.1,0.2,0.1,0.6,0.1,1.1c0,0.4-0.1,0.8-0.3,0.9c-0.2,0.2-0.4,0.4-0.7,0.4c-0.3,0.1-0.6,0.1-0.9,0.1
			c-0.3,0-0.7,0-1,0H37c-0.2,0-0.3,0-0.5,0c-0.1,0-0.3,0-0.4-0.1c-0.1,0-0.3,0-0.4,0c-0.2,0-0.4,0-0.6,0c-0.2,0-0.4,0-0.7,0
			C34.1,44.7,33.9,44.7,33.7,44.6z M38.6,50.3c-0.3,0.2-0.6,0.3-0.8,0.4c-0.1,0-0.3-0.2-0.6-0.4c-0.3-0.2-0.6-0.5-0.8-0.8
			c-0.3-0.3-0.6-0.6-0.8-0.8c-0.3-0.3-0.4-0.4-0.5-0.6c-0.1-0.1-0.2-0.3-0.3-0.4c-0.1-0.1-0.1-0.3-0.3-0.4c-0.1-0.1-0.2-0.3-0.3-0.3
			c0.1,0,0.3,0,0.4,0c0.1,0,0.2,0,0.3,0c0,0,0.1,0,0.2,0h3.4c0.5,0,1.1,0,1.6,0c0.5,0,1,0,1.6,0c0.1,0,0.3,0,0.4,0
			c0.1,0,0.3,0,0.4,0h0.2c0,0-0.2,0.1-0.4,0.3c-0.2,0.2-0.3,0.3-0.4,0.3c-0.1,0.1-0.3,0.3-0.4,0.4c-0.1,0.1-0.3,0.3-0.4,0.3
			c-0.3,0.1-0.5,0.3-0.8,0.6c-0.3,0.2-0.6,0.4-0.9,0.7C39.2,49.9,38.9,50.1,38.6,50.3z"/>
		<path class="st1" d="M33.1,51.4c-0.1,0-0.4,0.1-0.6,0.2c-0.3,0.1-0.6,0.3-0.9,0.5c-0.3,0.2-0.6,0.4-0.8,0.6s-0.4,0.3-0.5,0.4
			c-0.1,0.1-0.2,0.3-0.3,0.4c-0.1,0.1-0.2,0.3-0.3,0.4c-0.2,0.2-0.4,0.4-0.6,0.5c-0.2,0.1-0.4,0.3-0.6,0.4c-0.1,0.1-0.2,0.2-0.3,0.3
			s-0.3,0.2-0.4,0.3c-0.4,0.3-0.8,0.5-1.2,0.8c-0.4,0.2-0.8,0.4-1.2,0.6c-0.1,0-0.3,0.1-0.6,0.2s-0.4,0.1-0.6,0.1c-0.3,0-0.6,0-1,0
			c-0.4,0-0.8,0-1.1-0.1c-0.3-0.1-0.6-0.2-0.9-0.4c-0.3-0.2-0.4-0.5-0.4-0.8c0-0.4,0.1-0.8,0.3-1.1s0.6-0.6,1-0.6
			c0.3,0,0.5,0,0.8,0.1c0.2,0.1,0.5,0.1,0.8,0.1s0.6,0,0.9-0.1c0.4-0.1,0.7-0.2,0.9-0.3s0.4-0.3,0.5-0.5c0.1-0.2,0.3-0.3,0.4-0.5
			c0.3-0.3,0.7-0.6,1.1-0.9c0.3-0.3,0.6-0.6,1-0.9c0.1-0.1,0.3-0.2,0.4-0.3c0.1,0,0.2-0.1,0.3-0.2c0.1-0.1,0.2-0.2,0.3-0.3
			c0.1-0.1,0.2-0.2,0.3-0.3c0.2-0.2,0.4-0.3,0.8-0.5c0.3-0.1,0.6-0.2,1-0.3s0.7-0.2,1-0.2c0.3,0,0.6-0.1,0.8-0.1
			c1.2,0,2.3,0.2,3.2,0.7c0.8,0.4,1.6,1.2,2.4,2.1c0.2,0.3,0.4,0.5,0.5,0.8c0.1,0.3,0.3,0.5,0.5,0.8c0.1,0.2,0.3,0.4,0.5,0.7
			s0.4,0.4,0.6,0.6c0.2,0.1,0.4,0.3,0.5,0.5c0.2,0.3,0.4,0.6,0.6,0.8c0.2,0.3,0.4,0.6,0.6,0.8c0.3,0.3,0.7,0.7,1.1,0.9
			c0.4,0.3,0.8,0.6,1.1,0.9c0.4,0.4,0.9,0.7,1.3,1.1s0.9,0.6,1.4,0.9c0.2,0.1,0.4,0.2,0.6,0.2c0.2,0,0.4,0.1,0.6,0.2
			c0.5,0.2,1,0.4,1.6,0.5c0.6,0.1,1.1,0.2,1.6,0.3c0.3,0,0.6,0.1,0.8,0.1c0.3,0,0.6,0.1,0.8,0.1c0.1,0,0.2,0,0.3,0
			c0.1,0,0.2,0,0.3,0c0.1,0,0.1,0,0.3,0c0.1,0,0.1,0,0.2,0.1c0.1,0.1,0.2,0.3,0.2,0.6c0,0.3,0,0.5,0,0.6c0,0,0,0.1,0.1,0.1
			c0,0.1,0,0.1,0,0.2c0,0.1,0,0.2-0.1,0.3c0,0.1-0.1,0.3-0.1,0.4c-0.2,0.4-0.5,0.7-0.8,0.7c-0.3,0-0.7,0.1-1.1,0.1
			c-0.3,0-0.7-0.1-1-0.2c-0.3-0.1-0.6-0.2-0.9-0.2c0,0-0.1,0.1-0.2,0c-0.1,0-0.2,0-0.2,0c-0.1,0-0.2,0-0.5-0.1
			c-0.3,0-0.6-0.1-0.9-0.2s-0.6-0.1-0.8-0.2c-0.3-0.1-0.4-0.1-0.5-0.1c-0.1,0-0.3-0.1-0.4-0.2c-0.1-0.1-0.3-0.2-0.4-0.2
			c-0.2,0-0.4-0.1-0.7-0.2c-0.3-0.1-0.5-0.2-0.6-0.3c-0.3-0.1-0.5-0.3-0.8-0.4c-0.3-0.1-0.5-0.3-0.7-0.4c-0.5-0.3-0.9-0.7-1.4-1.1
			c-0.4-0.4-0.9-0.8-1.3-1.2c-0.1-0.1-0.2-0.2-0.3-0.3c-0.1-0.1-0.1-0.2-0.3-0.3c-0.6-0.6-1.2-1.4-1.9-2.3c-0.1-0.1-0.1-0.2-0.1-0.3
			S39,56.1,38.9,56c-0.2-0.3-0.5-0.6-0.8-1.1c-0.3-0.4-0.7-0.9-1.1-1.4c-0.4-0.4-0.8-0.9-1.2-1.2c-0.4-0.3-0.8-0.6-1.1-0.7
			c-0.4-0.1-0.8-0.1-1.1-0.1L33.1,51.4L33.1,51.4z M47.7,57.8c-0.1,0.1-0.2,0.1-0.3,0.1c-0.1,0-0.3,0-0.4,0c-0.1,0-0.3,0-0.4,0
			s-0.2,0-0.3,0s-0.2,0-0.3,0c-0.1,0-0.1-0.1-0.1-0.2c0-0.1-0.1-0.3-0.1-0.4c0-0.1,0-0.3,0-0.4c0-0.1,0-0.3,0-0.3c0,0,0-0.1,0-0.3
			c0-0.3,0-0.7,0.1-1.1c0-0.3,0.1-0.7,0.1-1.1V53c0-0.1,0-0.1,0-0.2c0-0.1,0-0.1,0-0.2c0,0,0-0.1,0-0.2c0-0.1,0-0.3,0.1-0.5
			c0-0.2,0.1-0.3,0.3-0.3c0,0,0.1,0,0.3,0c0.1,0,0.3,0,0.3,0.1c0.1,0,0.2,0,0.4,0c0.2,0,0.3,0,0.4,0c0,0,0.1,0,0.2,0
			c0.1,0,0.1,0.1,0.1,0.2c0,0,0,0.1,0,0.2s0,0.1,0,0.2c0,0,0,0.1,0,0.2c0,0.3,0,0.5,0.1,0.8c0,0.3,0.1,0.5,0.1,0.8
			c0,0.3,0,0.7-0.1,1c0,0.3-0.1,0.7-0.1,1c0,0.2,0,0.4,0.1,0.6c0,0.2,0.1,0.4,0.1,0.8C47.8,57.6,47.8,57.7,47.7,57.8z M50.4,57.9
			c0,0-0.1,0-0.1,0c0,0-0.1,0-0.1-0.1c0,0,0-0.1,0-0.1v-0.1c0-0.1,0-0.3,0-0.4c0-0.1,0-0.3,0-0.4c0-0.3,0-0.6-0.1-0.9
			c0-0.3-0.1-0.6-0.1-0.9c0-0.2,0-0.4,0.1-0.6c0-0.2,0.1-0.4,0.1-0.6v-1.5c0-0.3,0.1-0.4,0.2-0.5c0.1,0,0.3-0.1,0.5-0.1h1.1
			c0.2,0,0.3,0,0.3,0.1c0,0.1,0,0.2,0,0.3c0,0.3,0,0.5,0.1,0.7c0,0.2,0,0.4,0,0.7c0,0.1,0,0.3,0,0.4c0,0.1,0,0.3,0,0.4
			c0,0.1,0,0.2,0.1,0.3c0,0.1,0,0.2,0,0.3c0,0.1,0,0.3,0,0.4c0,0.1,0,0.3,0,0.4c0,0.2,0,0.4,0,0.6c0,0.2,0,0.4,0,0.6v0.3
			c0,0.1,0,0.1-0.1,0.2c-0.1,0-0.3,0.1-0.4,0.1c-0.1,0-0.3,0.1-0.4,0.1c-0.1,0-0.3,0-0.3,0h-0.7C50.4,57.9,50.4,57.9,50.4,57.9z"/>
		<path class="st1" d="M57.9,48.4c0,0-0.1,0-0.3,0c-0.3,0-0.5,0-0.8,0s-0.5,0-0.8,0c-0.2,0-0.5,0-0.6,0c-0.2,0-0.5,0-0.7,0
			c-0.1,0-0.1,0-0.1,0c0-0.7-0.1-1.4-0.3-2c-0.3-0.6-0.6-1.3-0.9-1.9c-0.2-0.3-0.4-0.6-0.7-0.9s-0.6-0.6-0.8-0.8
			c-0.3-0.3-0.6-0.6-0.8-0.8c-0.3-0.3-0.6-0.5-0.9-0.8h-0.2c-0.3-0.3-0.6-0.6-1-0.8c-0.4-0.2-0.8-0.4-1.1-0.7
			c-0.3-0.1-0.5-0.3-0.7-0.5c-0.2-0.2-0.4-0.3-0.7-0.5c-0.4-0.2-0.8-0.5-1.1-0.8c-0.4-0.3-0.8-0.6-1.1-1c-0.4-0.3-0.7-0.7-0.9-1.1
			c-0.3-0.4-0.4-0.8-0.6-1.3c0-0.1-0.1-0.3-0.1-0.4c0-0.2-0.1-0.3-0.1-0.4c0-0.3,0-0.7,0.1-1c0.1-0.3,0.1-0.6,0.1-0.9v-0.5
			c0-0.1,0-0.2,0.1-0.3c0.1-0.1,0.1-0.3,0.3-0.5c0.1-0.1,0.2-0.3,0.3-0.4c0.1-0.1,0.1-0.2,0.2-0.3c0-0.1,0.1-0.1,0.2-0.2
			c0.1,0,0.1-0.1,0.2-0.2c0.6-0.9,1.2-1.7,2-2.6c0.8-0.9,1.6-1.6,2.6-2c0.1,0,0.3-0.1,0.5-0.3s0.4-0.4,0.5-0.4
			c0.1-0.1,0.3-0.3,0.4-0.4c0.1-0.1,0.3-0.3,0.4-0.4c0.1-0.1,0.3-0.2,0.5-0.4c0.3-0.1,0.5-0.3,0.8-0.5s0.5-0.3,0.7-0.5
			s0.3-0.3,0.3-0.4s0-0.2-0.1-0.3s-0.2-0.2-0.3-0.3c-0.1-0.1-0.3-0.3-0.4-0.4c-0.1-0.1-0.3-0.2-0.4-0.4c-0.1-0.1-0.3-0.4-0.4-0.6
			c-0.2-0.3-0.3-0.5-0.5-0.8c-0.2-0.3-0.3-0.6-0.4-0.9c-0.1-0.3-0.2-0.5-0.2-0.7c0-0.1,0.1-0.2,0.2-0.3c0,0,0.1-0.1,0.3-0.1
			c0.2,0,0.4-0.1,0.6-0.2c0.2-0.1,0.4-0.1,0.6-0.2c0.2,0,0.3-0.1,0.3-0.1c0.1,0,0.2,0.1,0.3,0.2c0,0.2,0.1,0.3,0.1,0.4
			c0.2,0.6,0.5,1.1,0.8,1.6s0.8,0.8,1.4,1c0.2,0.1,0.4,0.1,0.6,0.2c0.2,0.1,0.4,0.1,0.6,0.1s0.4,0,0.6-0.1c0.2-0.1,0.4-0.1,0.6-0.1
			c0.1,0,0.3,0.1,0.5,0.2c0.1,0.1,0.3,0.3,0.5,0.4c0.1,0.2,0.2,0.3,0.3,0.5c0.1,0.2,0.1,0.4,0.1,0.5c0,0.2-0.1,0.4-0.3,0.6
			c-0.2,0.2-0.4,0.4-0.7,0.6c-0.3,0.2-0.5,0.3-0.8,0.5c-0.3,0.2-0.5,0.3-0.7,0.4s-0.3,0.2-0.4,0.3c-0.1,0.1-0.3,0.2-0.5,0.3
			c-0.4,0.2-0.8,0.4-1.2,0.6c-0.4,0.2-0.8,0.5-1.2,0.8c-0.1,0.1-0.2,0.2-0.3,0.3c-0.1,0.1-0.3,0.3-0.4,0.4c-0.1,0.1-0.3,0.3-0.4,0.4
			C51.2,26,51,26.1,51,26.1c-0.1,0.1-0.2,0.1-0.3,0.2c-0.1,0-0.3,0.1-0.4,0.3c-0.1,0.1-0.2,0.2-0.3,0.3c-0.1,0.1-0.1,0.2-0.3,0.3
			c-0.2,0.2-0.4,0.3-0.6,0.4c-0.2,0.1-0.4,0.2-0.6,0.4c-0.3,0.3-0.6,0.6-1,1.1c-0.4,0.4-0.7,0.9-1.1,1.5s-0.6,1.1-0.9,1.6
			c-0.2,0.5-0.3,1-0.3,1.4l0,0.1c0.2,0.4,0.4,0.8,0.8,1.2s0.7,0.7,1.1,1c0.2,0.1,0.4,0.3,0.6,0.5s0.4,0.4,0.6,0.5
			c0.2,0.1,0.4,0.2,0.7,0.3c0.2,0.1,0.5,0.2,0.6,0.3s0.4,0.3,0.6,0.4c0.2,0.1,0.4,0.3,0.6,0.3c0.1,0,0.2,0.1,0.3,0.1
			c0.1,0,0.1,0.1,0.3,0.1c0.3,0.2,0.7,0.4,0.9,0.8s0.6,0.6,0.9,0.8c0.3,0.2,0.6,0.4,1,0.6c0.3,0.2,0.6,0.4,0.8,0.8
			c0.1,0.1,0.2,0.3,0.3,0.5c0.1,0.2,0.2,0.3,0.3,0.5c0.2,0.3,0.4,0.6,0.6,0.9c0.1,0.3,0.3,0.6,0.5,1c0.1,0.2,0.2,0.4,0.4,0.8
			c0.1,0.3,0.3,0.7,0.4,1c0.1,0.3,0.2,0.7,0.3,1c0.1,0.3,0.1,0.6,0.1,0.8S58,48.4,57.9,48.4z M58.7,30.4c-0.1,0-0.2,0-0.2,0
			c-0.3,0-0.5,0-0.5-0.1c-0.1-0.1-0.1-0.3-0.1-0.6c0,0,0-0.1,0-0.1c0-0.1,0.1-0.2,0.1-0.3c0,0,0-0.1,0.1-0.1c0,0,0-0.1,0-0.1
			c0-0.1,0-0.1,0-0.2c0-0.3-0.1-0.6-0.1-1c0-0.3-0.1-0.6-0.1-0.9c0-0.2,0-0.4,0-0.7c0-0.2,0-0.4,0-0.6c0-0.1,0-0.3,0-0.4
			c0-0.1,0-0.3,0-0.4c0-0.3,0.1-0.4,0.3-0.4c0.2,0,0.4,0,0.6,0h0.3c0.5,0,0.8,0.1,0.9,0.4c0.1,0.3,0.1,0.6,0.1,1.1v1.5L60,27.3
			c0,0.2,0.1,0.4,0.1,0.6c0,0.2,0,0.4,0,0.6v1.2c0,0,0,0.1,0,0.3c0,0.1-0.1,0.2-0.1,0.3c0,0-0.1,0.1-0.1,0.1c-0.1,0-0.1,0-0.2,0
			L58.7,30.4L58.7,30.4z M63.7,30.5c-0.1,0-0.2,0-0.3,0s-0.2,0-0.3,0c-0.2,0-0.3-0.1-0.4-0.2s0-0.3,0-0.4c0-0.3,0-0.6,0-1
			c0-0.3,0-0.6,0-0.9c0-0.2,0-0.4,0-0.6s0-0.4,0-0.6c0-0.2,0-0.4,0-0.6s-0.1-0.4-0.1-0.6c0-0.1,0-0.2,0-0.3c0-0.1,0-0.3,0-0.4
			c0-0.1,0.1-0.2,0.1-0.3c0-0.1,0.1-0.1,0.2-0.1c0,0,0.1,0,0.2,0c0,0,0.1,0,0.1,0c0,0,0.1,0,0.2,0H64c0,0,0.1,0,0.2,0
			c0,0,0.1,0,0.1,0c0.1,0,0.3,0.1,0.4,0.3c0.1,0.2,0.1,0.5,0.2,0.8c0,0.3,0,0.6,0,0.9c0,0.3,0,0.5,0,0.6v1.2c0,0.1,0,0.3-0.1,0.4
			c-0.1,0.1-0.1,0.3-0.1,0.4c0,0.2,0,0.3,0.1,0.5c0,0.1,0.1,0.3,0.1,0.5s0,0.3,0,0.4s-0.1,0.1-0.3,0.1L63.7,30.5L63.7,30.5z"/>
	</g>
</g>
<g>
	<path d="M107.5,57.6c0,0.3-0.1,0.6-0.2,0.9c-0.1,0.2-0.3,0.5-0.5,0.6s-0.5,0.3-0.7,0.4s-0.6,0.1-0.9,0.1c-0.2,0-0.4,0-0.6-0.1
		c-0.2,0-0.4-0.1-0.5-0.1c-0.1-0.1-0.3-0.1-0.4-0.2c-0.1-0.1-0.2-0.1-0.2-0.1c0,0-0.1-0.1-0.1-0.2c0-0.1,0-0.2,0-0.3
		c0-0.1,0-0.2,0-0.2c0-0.1,0-0.1,0-0.2s0-0.1,0.1-0.1s0,0,0.1,0s0.1,0,0.2,0.1s0.2,0.1,0.3,0.2c0.1,0.1,0.3,0.1,0.5,0.2
		s0.4,0.1,0.6,0.1c0.2,0,0.3,0,0.4-0.1c0.1,0,0.2-0.1,0.3-0.2c0.1-0.1,0.1-0.1,0.2-0.2c0-0.1,0.1-0.2,0.1-0.3c0-0.1,0-0.3-0.1-0.4
		s-0.2-0.2-0.3-0.3c-0.1-0.1-0.3-0.1-0.4-0.2s-0.3-0.1-0.5-0.2c-0.2-0.1-0.3-0.2-0.5-0.3s-0.3-0.2-0.4-0.4c-0.1-0.1-0.2-0.3-0.3-0.5
		s-0.1-0.4-0.1-0.7c0-0.3,0.1-0.6,0.2-0.8s0.3-0.4,0.5-0.6s0.4-0.3,0.7-0.3s0.5-0.1,0.8-0.1c0.1,0,0.3,0,0.5,0
		c0.1,0,0.3,0.1,0.4,0.1s0.2,0.1,0.4,0.1s0.2,0.1,0.2,0.1s0,0.1,0.1,0.1c0,0,0,0.1,0,0.1s0,0.1,0,0.1c0,0.1,0,0.1,0,0.2
		c0,0.1,0,0.2,0,0.2s0,0.1,0,0.2c0,0,0,0.1,0,0.1c0,0,0,0-0.1,0c0,0-0.1,0-0.2-0.1s-0.2-0.1-0.3-0.1c-0.1-0.1-0.2-0.1-0.4-0.1
		c-0.1,0-0.3-0.1-0.5-0.1c-0.1,0-0.3,0-0.4,0.1c-0.1,0-0.2,0.1-0.3,0.1s-0.1,0.1-0.2,0.2s0,0.2,0,0.3c0,0.1,0,0.3,0.1,0.4
		c0.1,0.1,0.2,0.2,0.3,0.3s0.3,0.1,0.4,0.2c0.2,0.1,0.3,0.1,0.5,0.2s0.3,0.2,0.5,0.3c0.2,0.1,0.3,0.2,0.4,0.4s0.2,0.3,0.3,0.5
		S107.5,57.4,107.5,57.6z"/>
	<path d="M120.7,57.2c0,0.4-0.1,0.7-0.2,1c-0.1,0.3-0.3,0.6-0.5,0.8c-0.2,0.2-0.5,0.4-0.8,0.5c-0.3,0.1-0.7,0.2-1.1,0.2
		c-0.4,0-0.8-0.1-1.1-0.1c-0.3-0.1-0.6-0.2-0.8-0.4s-0.4-0.4-0.5-0.8s-0.2-0.6-0.2-1.1v-3.8c0,0,0-0.1,0-0.1s0-0.1,0.1-0.1
		c0,0,0.1,0,0.2,0c0.1,0,0.2,0,0.3,0s0.2,0,0.3,0s0.1,0,0.2,0s0.1,0,0.1,0.1c0,0,0,0.1,0,0.1v3.7c0,0.2,0,0.5,0.1,0.6
		s0.1,0.3,0.3,0.5c0.1,0.1,0.2,0.2,0.4,0.3s0.3,0.1,0.5,0.1s0.4,0,0.5-0.1s0.3-0.1,0.4-0.3c0.1-0.1,0.2-0.3,0.3-0.4s0.1-0.4,0.1-0.6
		v-3.8c0,0,0-0.1,0-0.1s0-0.1,0.1-0.1s0.1,0,0.2,0s0.2,0,0.3,0s0.2,0,0.3,0c0.1,0,0.1,0,0.2,0s0.1,0,0.1,0.1s0,0.1,0,0.1L120.7,57.2
		L120.7,57.2z"/>
	<path d="M134.3,54.2c0,0.1,0,0.2,0,0.2c0,0.1,0,0.1,0,0.2s0,0.1,0,0.1c0,0,0,0-0.1,0c0,0-0.1,0-0.2-0.1c-0.1-0.1-0.2-0.1-0.4-0.2
		s-0.3-0.1-0.6-0.2s-0.5-0.1-0.8-0.1c-0.3,0-0.6,0.1-0.8,0.2s-0.5,0.3-0.6,0.4s-0.3,0.4-0.4,0.7c-0.1,0.3-0.1,0.6-0.1,0.9
		c0,0.4,0,0.7,0.1,0.9c0.1,0.3,0.2,0.5,0.4,0.7c0.2,0.2,0.4,0.3,0.6,0.4s0.5,0.1,0.8,0.1c0.1,0,0.3,0,0.4-0.1c0.1,0,0.3-0.1,0.4-0.1
		v-1.5h-1.2c-0.1,0-0.1,0-0.1-0.1c0-0.1,0-0.2,0-0.4c0-0.1,0-0.2,0-0.2s0-0.1,0-0.1c0,0,0-0.1,0.1-0.1s0,0,0.1,0h2.1
		c0,0,0.1,0,0.1,0s0.1,0,0.1,0.1c0,0,0,0.1,0.1,0.1c0,0.1,0,0.1,0,0.2v2.5c0,0.1,0,0.2,0,0.3s-0.1,0.1-0.2,0.2s-0.2,0.1-0.4,0.1
		s-0.3,0.1-0.5,0.1c-0.2,0-0.3,0.1-0.5,0.1s-0.3,0-0.5,0c-0.5,0-1-0.1-1.4-0.2c-0.4-0.1-0.7-0.4-1-0.6c-0.3-0.3-0.5-0.6-0.6-1
		s-0.2-0.8-0.2-1.4c0-0.5,0.1-1,0.2-1.4s0.4-0.8,0.7-1.1c0.3-0.3,0.6-0.5,1-0.7s0.9-0.2,1.4-0.2c0.3,0,0.5,0,0.8,0.1
		s0.4,0.1,0.6,0.1c0.2,0.1,0.3,0.1,0.4,0.2c0.1,0.1,0.2,0.1,0.2,0.2s0.1,0.1,0.1,0.2S134.3,54,134.3,54.2z"/>
	<path d="M147.9,57.2c0,0.4-0.1,0.7-0.2,1c-0.1,0.3-0.3,0.6-0.5,0.8c-0.2,0.2-0.5,0.4-0.8,0.5c-0.3,0.1-0.7,0.2-1.1,0.2
		c-0.4,0-0.8-0.1-1.1-0.1c-0.3-0.1-0.6-0.2-0.8-0.4s-0.4-0.4-0.5-0.8s-0.2-0.6-0.2-1.1v-3.8c0,0,0-0.1,0-0.1s0-0.1,0.1-0.1
		c0,0,0.1,0,0.2,0c0.1,0,0.2,0,0.3,0s0.2,0,0.3,0s0.1,0,0.2,0s0.1,0,0.1,0.1c0,0,0,0.1,0,0.1v3.7c0,0.2,0,0.5,0.1,0.6
		s0.1,0.3,0.3,0.5c0.1,0.1,0.2,0.2,0.4,0.3s0.3,0.1,0.5,0.1s0.4,0,0.5-0.1s0.3-0.1,0.4-0.3c0.1-0.1,0.2-0.3,0.3-0.4s0.1-0.4,0.1-0.6
		v-3.8c0,0,0-0.1,0-0.1s0-0.1,0.1-0.1s0.1,0,0.2,0s0.2,0,0.3,0s0.2,0,0.3,0s0.1,0,0.2,0s0.1,0,0.1,0.1s0,0.1,0,0.1L147.9,57.2
		L147.9,57.2z"/>
	<path d="M169.9,53.8c0,0.1,0,0.2,0,0.2s0,0.1,0,0.2c0,0,0,0.1-0.1,0.1c0,0,0,0-0.1,0h-1.6v5.1c0,0,0,0.1,0,0.1s-0.1,0.1-0.1,0.1
		s-0.1,0-0.2,0s-0.2,0-0.3,0s-0.2,0-0.3,0s-0.1,0-0.2,0s-0.1,0-0.1-0.1c0,0,0-0.1,0-0.1v-5.1h-1.6c0,0-0.1,0-0.1,0s0-0.1-0.1-0.1
		s0-0.1,0-0.2s0-0.1,0-0.2c0-0.1,0-0.2,0-0.2s0-0.1,0-0.2c0,0,0-0.1,0.1-0.1c0,0,0,0,0.1,0h4.5c0,0,0,0,0.1,0c0,0,0,0.1,0.1,0.1
		s0,0.1,0,0.2S169.9,53.7,169.9,53.8z"/>
	<path d="M182.5,59.1c0,0.1,0.1,0.2,0.1,0.3s0,0.1,0,0.1s-0.1,0.1-0.2,0.1s-0.2,0-0.4,0c-0.2,0-0.3,0-0.4,0c-0.1,0-0.2,0-0.2,0
		s-0.1,0-0.1-0.1s0-0.1,0-0.1l-0.4-1.3h-2.4l-0.4,1.2c0,0.1,0,0.1,0,0.1s0,0.1-0.1,0.1c0,0-0.1,0-0.2,0c-0.1,0-0.2,0-0.3,0
		c-0.1,0-0.3,0-0.4,0s-0.1,0-0.2-0.1s0-0.1,0-0.2s0-0.2,0.1-0.3l2-5.6c0-0.1,0-0.1,0.1-0.1s0.1-0.1,0.1-0.1c0.1,0,0.1,0,0.2,0
		s0.2,0,0.4,0c0.2,0,0.3,0,0.5,0s0.2,0,0.3,0c0.1,0,0.1,0,0.1,0.1c0,0,0,0.1,0.1,0.1L182.5,59.1z M179.6,54.4L179.6,54.4l-0.9,2.7
		h1.8L179.6,54.4z"/>
	<path d="M195.1,57.6c0,0.2,0,0.4-0.1,0.6s-0.1,0.3-0.3,0.5c-0.1,0.1-0.2,0.3-0.4,0.4c-0.1,0.1-0.3,0.2-0.5,0.2s-0.4,0.1-0.6,0.1
		c-0.2,0-0.4,0.1-0.7,0.1h-1.7c-0.1,0-0.2,0-0.3-0.1c-0.1-0.1-0.1-0.2-0.1-0.3v-5.5c0-0.1,0-0.2,0.1-0.3c0.1-0.1,0.2-0.1,0.3-0.1
		h1.6c0.4,0,0.7,0,1,0.1c0.3,0.1,0.5,0.2,0.7,0.3c0.2,0.1,0.3,0.3,0.4,0.5s0.1,0.4,0.1,0.7c0,0.1,0,0.3-0.1,0.4s-0.1,0.3-0.2,0.4
		s-0.2,0.2-0.3,0.3c-0.1,0.1-0.2,0.1-0.4,0.2c0.2,0,0.3,0.1,0.5,0.2c0.1,0.1,0.3,0.2,0.4,0.3c0.1,0.1,0.2,0.3,0.3,0.4
		S195.1,57.4,195.1,57.6z M193.4,55c0-0.1,0-0.2-0.1-0.3s-0.1-0.2-0.2-0.2s-0.2-0.1-0.3-0.1c-0.1,0-0.3-0.1-0.5-0.1h-0.6v1.6h0.7
		c0.2,0,0.3,0,0.4-0.1s0.2-0.1,0.3-0.2c0.1-0.1,0.1-0.2,0.2-0.3S193.4,55.1,193.4,55z M193.8,57.7c0-0.1,0-0.3-0.1-0.4
		s-0.1-0.2-0.2-0.3s-0.2-0.1-0.4-0.2s-0.3-0.1-0.6-0.1h-0.8v1.8h0.9c0.2,0,0.3,0,0.5-0.1c0.1,0,0.2-0.1,0.3-0.2
		c0.1-0.1,0.2-0.2,0.2-0.3C193.7,57.9,193.8,57.8,193.8,57.7z"/>
	<path d="M207,59c0,0.1,0,0.2,0,0.2c0,0.1,0,0.1,0,0.1s0,0.1-0.1,0.1c0,0,0,0-0.1,0h-3.2c-0.1,0-0.2,0-0.3-0.1
		c-0.1-0.1-0.1-0.2-0.1-0.3v-5.5c0-0.1,0-0.2,0.1-0.3c0.1-0.1,0.2-0.1,0.3-0.1h3.1c0,0,0.1,0,0.1,0s0,0,0.1,0.1s0,0.1,0,0.2
		c0,0.1,0,0.1,0,0.2c0,0.1,0,0.2,0,0.2s0,0.1,0,0.1s0,0.1-0.1,0.1s0,0-0.1,0h-2.3v1.5h1.9c0,0,0.1,0,0.1,0c0,0,0,0.1,0.1,0.1
		s0,0.1,0,0.1s0,0.1,0,0.2s0,0.2,0,0.2s0,0.1,0,0.1s0,0.1-0.1,0.1s0,0-0.1,0h-1.9v1.8h2.3c0,0,0.1,0,0.1,0s0,0.1,0.1,0.1
		s0,0.1,0,0.1C207,58.9,207,58.9,207,59z"/>
</g>
<path class="st1" d="M35.5,70.5c-19.3,0-35-15.7-35-35s15.7-35,35-35s35,15.7,35,35S54.8,70.5,35.5,70.5z M35.5,3.5
	c-17.6,0-32,14.3-32,32s14.3,32,32,32s32-14.3,32-32S53.1,3.5,35.5,3.5z"/>
</svg>
